<svg xmlns="http://www.w3.org/2000/svg" xmlns:xlink="http://www.w3.org/1999/xlink" width="500" zoomAndPan="magnify" viewBox="0 0 375 374.999991" height="500" preserveAspectRatio="xMidYMid meet" version="1.2"><g id="f4fe4e28a9"><path style=" stroke:none;fill-rule:nonzero;fill:#ffd4d6;fill-opacity:1;" d="M 375 187.5 C 375 260.945312 332.75 324.554688 271.25 355.304688 C 246.050781 367.902344 217.59375 375 187.5 375 C 161.175781 375 136.117188 369.566406 113.398438 359.777344 C 46.699219 331.0625 0 264.738281 0 187.5 C 0 83.9375 83.9375 0 187.5 0 C 291.0625 0 375 83.9375 375 187.5 Z M 375 187.5 "/><path style=" stroke:none;fill-rule:nonzero;fill:#ec7d84;fill-opacity:1;" d="M 101.898438 239.5625 C 99.394531 240.898438 89.957031 300.125 100.425781 310.335938 C 110.894531 320.546875 146.234375 298.488281 145.414062 298.488281 C 144.59375 298.488281 127.382812 237.851562 127.382812 237.851562 Z M 101.898438 239.5625 "/><path style=" stroke:none;fill-rule:nonzero;fill:#ec7d84;fill-opacity:1;" d="M 241.90625 171.738281 C 241.90625 171.738281 261.929688 168.953125 270.523438 199.28125 C 279.117188 229.609375 285.582031 281.8125 285.582031 281.8125 L 250.734375 224.082031 Z M 241.90625 171.738281 "/><path style=" stroke:none;fill-rule:nonzero;fill:#1a2730;fill-opacity:1;" d="M 257.316406 85.015625 C 257.316406 85.015625 273.289062 41.5 232.652344 24.589844 C 192.019531 7.683594 165.296875 28.550781 151.199219 46.957031 C 137.101562 65.363281 117.566406 112.15625 159.839844 132.605469 C 202.113281 153.050781 257.316406 85.015625 257.316406 85.015625 Z M 257.316406 85.015625 "/><path style=" stroke:none;fill-rule:nonzero;fill:#f1baa4;fill-opacity:1;" d="M 197.324219 184.265625 L 167.066406 184.265625 L 167.066406 126.746094 L 197.324219 126.746094 Z M 197.324219 184.265625 "/><path style=" stroke:none;fill-rule:nonzero;fill:#f1baa4;fill-opacity:1;" d="M 249.726562 101.363281 C 248.859375 102.15625 239.9375 125.859375 224.292969 140.097656 C 217.078125 146.679688 208.460938 151.222656 198.554688 150.566406 C 193.519531 150.238281 188.132812 148.574219 182.441406 145.132812 C 182.441406 145.132812 151.386719 134.664062 155.132812 95.0625 C 155.132812 95.0625 142.628906 89.511719 145.695312 75.015625 C 148.761719 60.539062 160.636719 59.535156 164.570312 69.511719 C 164.570312 69.511719 187.640625 31.6875 223.144531 49.019531 C 258.648438 66.347656 249.726562 101.363281 249.726562 101.363281 Z M 249.726562 101.363281 "/><path style=" stroke:none;fill-rule:nonzero;fill:#1a2730;fill-opacity:1;" d="M 180.988281 76.957031 C 180.753906 76.136719 181.222656 75.296875 182.042969 75.0625 C 190.261719 72.71875 194.667969 77.964844 196.117188 79.675781 C 196.210938 79.792969 196.304688 79.886719 196.375 79.980469 C 196.726562 80.167969 196.984375 80.496094 197.101562 80.890625 C 197.335938 81.710938 196.867188 82.554688 196.046875 82.789062 C 194.996094 83.09375 194.339844 82.320312 193.777344 81.640625 C 192.417969 80.027344 189.210938 76.207031 182.910156 77.988281 C 182.535156 78.082031 182.160156 78.058594 181.832031 77.894531 C 181.433594 77.753906 181.128906 77.402344 180.988281 76.957031 Z M 195.207031 79.839844 Z M 195.207031 79.839844 Z M 195.207031 79.839844 Z M 195.207031 79.839844 Z M 195.207031 79.839844 Z M 195.207031 79.839844 Z M 195.230469 79.839844 Z M 195.230469 79.839844 Z M 195.230469 79.839844 Z M 195.230469 79.839844 Z M 195.230469 79.839844 Z M 195.230469 79.839844 Z M 195.230469 79.839844 Z M 195.230469 79.839844 "/><path style=" stroke:none;fill-rule:nonzero;fill:#1a2730;fill-opacity:1;" d="M 236.613281 109.464844 C 236.894531 109.605469 237.21875 109.652344 237.546875 109.582031 C 238.390625 109.417969 238.929688 108.597656 238.742188 107.777344 C 238.671875 107.402344 236.753906 98.386719 226.703125 96.699219 C 225.863281 96.558594 225.066406 97.121094 224.925781 97.964844 C 224.785156 98.808594 225.347656 99.582031 226.191406 99.746094 C 234.175781 101.082031 235.722656 108.316406 235.722656 108.386719 C 235.863281 108.878906 236.191406 109.253906 236.613281 109.464844 Z M 236.613281 109.464844 "/><path style=" stroke:none;fill-rule:nonzero;fill:#1a2730;fill-opacity:1;" d="M 192.511719 124.710938 C 191.808594 124.242188 191.621094 123.328125 192.066406 122.625 C 192.511719 121.925781 193.449219 121.714844 194.175781 122.136719 C 194.246094 122.183594 196.257812 123.328125 199.421875 120.800781 C 202.066406 118.691406 201.269531 112.226562 200.964844 109.792969 C 200.800781 108.503906 200.753906 108.082031 201.058594 107.542969 C 201.503906 106.816406 202.441406 106.585938 203.167969 107.003906 C 203.707031 107.332031 203.988281 107.941406 203.894531 108.527344 C 203.917969 108.714844 203.941406 109.019531 203.988281 109.394531 C 204.386719 112.578125 205.324219 120.003906 201.316406 123.1875 C 197.265625 126.421875 194.058594 125.460938 192.933594 124.921875 C 192.675781 124.828125 192.535156 124.734375 192.511719 124.710938 Z M 203.683594 109.113281 Z M 203.683594 109.113281 Z M 203.683594 109.113281 "/><path style=" stroke:none;fill-rule:nonzero;fill:#1a2730;fill-opacity:1;" d="M 185.484375 134.148438 C 182.464844 132.652344 178.929688 129.324219 179.351562 122.042969 C 179.398438 121.199219 180.121094 120.542969 180.964844 120.589844 C 181.808594 120.636719 182.464844 121.363281 182.417969 122.207031 C 182.207031 125.835938 183.121094 128.550781 185.179688 130.285156 C 188.085938 132.746094 192.300781 132.582031 193.074219 132.464844 C 193.660156 132.230469 194.363281 132.394531 194.785156 132.882812 C 195.347656 133.515625 195.277344 134.5 194.621094 135.039062 C 193.636719 135.882812 189.164062 135.835938 185.71875 134.21875 C 185.648438 134.242188 185.554688 134.195312 185.484375 134.148438 Z M 192.605469 132.746094 Z M 192.605469 132.746094 Z M 192.605469 132.746094 "/><path style=" stroke:none;fill-rule:nonzero;fill:#1a2730;fill-opacity:1;" d="M 187.394531 86.320312 C 187.707031 86.507812 188 86.730469 188.265625 86.984375 C 188.53125 87.238281 188.765625 87.523438 188.976562 87.835938 C 189.183594 88.148438 189.355469 88.480469 189.496094 88.839844 C 189.640625 89.195312 189.746094 89.566406 189.8125 89.957031 C 189.882812 90.34375 189.914062 90.742188 189.910156 91.148438 C 189.90625 91.550781 189.863281 91.957031 189.785156 92.363281 C 189.703125 92.769531 189.589844 93.167969 189.4375 93.558594 C 189.289062 93.949219 189.105469 94.328125 188.886719 94.6875 C 188.671875 95.050781 188.429688 95.390625 188.15625 95.710938 C 187.882812 96.027344 187.585938 96.316406 187.265625 96.578125 C 186.945312 96.84375 186.609375 97.070312 186.253906 97.269531 C 185.898438 97.464844 185.535156 97.625 185.160156 97.746094 C 184.785156 97.871094 184.40625 97.953125 184.027344 98 C 183.644531 98.042969 183.265625 98.050781 182.894531 98.015625 C 182.519531 97.980469 182.160156 97.90625 181.808594 97.792969 C 181.457031 97.679688 181.125 97.527344 180.8125 97.339844 C 180.5 97.152344 180.207031 96.929688 179.941406 96.675781 C 179.675781 96.421875 179.4375 96.136719 179.230469 95.828125 C 179.023438 95.515625 178.851562 95.179688 178.707031 94.824219 C 178.566406 94.464844 178.460938 94.09375 178.394531 93.707031 C 178.324219 93.316406 178.292969 92.921875 178.296875 92.515625 C 178.300781 92.109375 178.34375 91.703125 178.421875 91.296875 C 178.503906 90.890625 178.617188 90.492188 178.769531 90.101562 C 178.917969 89.710938 179.101562 89.335938 179.316406 88.972656 C 179.535156 88.609375 179.777344 88.269531 180.050781 87.953125 C 180.324219 87.632812 180.621094 87.34375 180.941406 87.082031 C 181.261719 86.820312 181.597656 86.589844 181.953125 86.394531 C 182.308594 86.195312 182.671875 86.039062 183.046875 85.914062 C 183.421875 85.792969 183.800781 85.707031 184.179688 85.664062 C 184.5625 85.617188 184.9375 85.613281 185.3125 85.648438 C 185.683594 85.683594 186.046875 85.757812 186.398438 85.871094 C 186.746094 85.984375 187.078125 86.132812 187.394531 86.320312 Z M 187.394531 86.320312 "/><path style=" stroke:none;fill-rule:nonzero;fill:#f4ebdf;fill-opacity:1;" d="M 186.210938 89.558594 C 186.210938 89.894531 186.148438 90.222656 186.015625 90.535156 C 185.886719 90.847656 185.703125 91.125 185.464844 91.363281 C 185.226562 91.601562 184.949219 91.785156 184.636719 91.917969 C 184.324219 92.046875 183.996094 92.109375 183.660156 92.109375 C 183.320312 92.109375 182.996094 92.046875 182.683594 91.917969 C 182.371094 91.785156 182.09375 91.601562 181.855469 91.363281 C 181.613281 91.125 181.429688 90.847656 181.300781 90.535156 C 181.171875 90.222656 181.105469 89.894531 181.105469 89.558594 C 181.105469 89.21875 181.171875 88.894531 181.300781 88.582031 C 181.429688 88.269531 181.613281 87.992188 181.855469 87.753906 C 182.09375 87.511719 182.371094 87.328125 182.683594 87.199219 C 182.996094 87.070312 183.320312 87.003906 183.660156 87.003906 C 183.996094 87.003906 184.324219 87.070312 184.636719 87.199219 C 184.949219 87.328125 185.226562 87.511719 185.464844 87.753906 C 185.703125 87.992188 185.886719 88.269531 186.015625 88.582031 C 186.148438 88.894531 186.210938 89.21875 186.210938 89.558594 Z M 186.210938 89.558594 "/><path style=" stroke:none;fill-rule:nonzero;fill:#1a2730;fill-opacity:1;" d="M 226.71875 109.824219 C 227.03125 110.011719 227.324219 110.234375 227.589844 110.488281 C 227.855469 110.742188 228.089844 111.027344 228.296875 111.335938 C 228.507812 111.648438 228.679688 111.984375 228.820312 112.339844 C 228.964844 112.699219 229.070312 113.070312 229.136719 113.460938 C 229.207031 113.847656 229.238281 114.246094 229.234375 114.648438 C 229.230469 115.054688 229.1875 115.460938 229.109375 115.867188 C 229.027344 116.273438 228.914062 116.671875 228.761719 117.0625 C 228.613281 117.453125 228.429688 117.832031 228.210938 118.191406 C 227.996094 118.554688 227.75 118.894531 227.480469 119.210938 C 227.207031 119.53125 226.910156 119.820312 226.589844 120.082031 C 226.269531 120.34375 225.933594 120.574219 225.578125 120.769531 C 225.222656 120.96875 224.859375 121.128906 224.484375 121.25 C 224.109375 121.375 223.730469 121.457031 223.351562 121.503906 C 222.96875 121.546875 222.589844 121.550781 222.21875 121.515625 C 221.84375 121.480469 221.484375 121.40625 221.132812 121.292969 C 220.78125 121.179688 220.449219 121.03125 220.136719 120.84375 C 219.824219 120.65625 219.53125 120.433594 219.265625 120.179688 C 219 119.925781 218.761719 119.640625 218.554688 119.328125 C 218.347656 119.019531 218.171875 118.683594 218.03125 118.324219 C 217.890625 117.96875 217.785156 117.597656 217.714844 117.207031 C 217.648438 116.820312 217.613281 116.421875 217.621094 116.015625 C 217.625 115.613281 217.667969 115.207031 217.746094 114.800781 C 217.828125 114.394531 217.941406 113.996094 218.09375 113.605469 C 218.242188 113.214844 218.425781 112.835938 218.640625 112.476562 C 218.859375 112.113281 219.101562 111.773438 219.375 111.457031 C 219.648438 111.136719 219.945312 110.847656 220.265625 110.585938 C 220.585938 110.320312 220.921875 110.09375 221.277344 109.894531 C 221.632812 109.699219 221.996094 109.539062 222.371094 109.417969 C 222.746094 109.292969 223.125 109.210938 223.503906 109.164062 C 223.886719 109.121094 224.261719 109.113281 224.636719 109.148438 C 225.007812 109.183594 225.371094 109.257812 225.722656 109.371094 C 226.070312 109.484375 226.402344 109.636719 226.71875 109.824219 Z M 226.71875 109.824219 "/><path style=" stroke:none;fill-rule:nonzero;fill:#f4ebdf;fill-opacity:1;" d="M 225.535156 113.046875 C 225.535156 113.386719 225.46875 113.710938 225.339844 114.023438 C 225.210938 114.335938 225.027344 114.613281 224.785156 114.851562 C 224.546875 115.09375 224.269531 115.277344 223.957031 115.40625 C 223.644531 115.535156 223.320312 115.601562 222.980469 115.601562 C 222.644531 115.601562 222.316406 115.535156 222.003906 115.40625 C 221.691406 115.277344 221.414062 115.09375 221.175781 114.851562 C 220.9375 114.613281 220.753906 114.335938 220.621094 114.023438 C 220.492188 113.710938 220.429688 113.386719 220.429688 113.046875 C 220.429688 112.710938 220.492188 112.382812 220.621094 112.070312 C 220.753906 111.757812 220.9375 111.480469 221.175781 111.242188 C 221.414062 111.003906 221.691406 110.820312 222.003906 110.691406 C 222.316406 110.558594 222.644531 110.496094 222.980469 110.496094 C 223.320312 110.496094 223.644531 110.558594 223.957031 110.691406 C 224.269531 110.820312 224.546875 111.003906 224.785156 111.242188 C 225.027344 111.480469 225.210938 111.757812 225.339844 112.070312 C 225.46875 112.382812 225.535156 112.710938 225.535156 113.046875 Z M 225.535156 113.046875 "/><path style=" stroke:none;fill-rule:nonzero;fill:#1a2730;fill-opacity:1;" d="M 164.570312 69.535156 L 158.320312 83 C 158.320312 83 175.179688 70.5625 178.578125 64.007812 L 200.589844 74.242188 L 211.925781 69.230469 L 210.171875 78.691406 L 221.457031 86.066406 L 233.097656 70.9375 L 230.570312 90.660156 L 248.25 104.5 C 248.25 104.5 255.605469 107.613281 257.316406 85.015625 C 259.023438 62.414062 240.007812 45.785156 219.9375 39.648438 C 199.867188 33.515625 175.4375 45.972656 172.207031 53.117188 C 169 60.234375 164.570312 69.535156 164.570312 69.535156 Z M 164.570312 69.535156 "/><path style=" stroke:none;fill-rule:nonzero;fill:#ec7d84;fill-opacity:1;" d="M 271.25 355.304688 C 246.050781 367.902344 217.59375 375 187.5 375 C 161.175781 375 136.117188 369.566406 113.398438 359.777344 C 118.105469 325.957031 122.835938 290.617188 121.785156 280.898438 L 121.785156 280.828125 C 121.785156 280.804688 121.785156 280.804688 121.785156 280.78125 L 121.785156 280.757812 C 117.964844 245.558594 114.757812 205.324219 117.496094 187.59375 C 118.105469 183.707031 118.996094 180.894531 120.238281 179.46875 C 124.101562 175.015625 128.035156 172.605469 131.855469 171.058594 C 131.878906 171.058594 131.902344 171.035156 131.925781 171.035156 C 137.171875 168.953125 142.207031 168.53125 146.703125 166.914062 C 146.820312 166.867188 146.960938 166.820312 147.078125 166.773438 C 147.195312 166.726562 147.3125 166.679688 147.40625 166.632812 C 147.523438 166.585938 147.640625 166.539062 147.757812 166.492188 C 147.78125 166.492188 147.804688 166.46875 147.828125 166.46875 C 148.015625 166.398438 148.179688 166.328125 148.367188 166.234375 C 148.644531 166.117188 148.925781 165.976562 149.207031 165.835938 C 149.300781 165.789062 149.417969 165.742188 149.511719 165.671875 C 149.605469 165.625 149.675781 165.578125 149.769531 165.53125 C 149.933594 165.4375 150.121094 165.34375 150.285156 165.226562 C 150.355469 165.179688 150.425781 165.132812 150.519531 165.085938 C 150.636719 165.015625 150.730469 164.945312 150.847656 164.875 C 151.925781 164.171875 152.957031 163.332031 153.914062 162.300781 C 162.488281 153.097656 165.15625 144.523438 165.15625 144.523438 C 166.164062 145.132812 185.765625 158.601562 201.058594 151.878906 C 201.058594 151.878906 196.796875 165.976562 210.242188 167.195312 C 214.269531 167.546875 219.492188 167.664062 224.949219 168.132812 C 225.488281 168.179688 226.050781 168.226562 226.585938 168.296875 C 236.660156 169.328125 247.269531 171.878906 252.746094 180.050781 C 252.792969 180.121094 252.816406 180.144531 252.839844 180.214844 C 254.011719 181.949219 254.925781 183.941406 255.558594 186.210938 C 258.25 195.8125 257.992188 234.996094 257.035156 272.445312 C 256.964844 275.089844 256.894531 277.691406 256.824219 280.289062 C 256.542969 291.203125 265.136719 327.410156 271.25 355.304688 Z M 271.25 355.304688 "/><path style=" stroke:none;fill-rule:nonzero;fill:#f4ebdf;fill-opacity:1;" d="M 251.414062 231.109375 C 251.390625 231.085938 251.367188 231.085938 251.34375 231.0625 C 251.320312 231.039062 251.273438 231.015625 251.25 231.015625 C 250.101562 230.382812 249.421875 230.054688 249.421875 230.054688 C 249.421875 230.054688 241.53125 218.695312 233.027344 224.058594 C 232.933594 223.917969 232.769531 223.871094 232.605469 223.941406 C 232.605469 223.941406 232.558594 223.964844 232.464844 224.011719 C 229.585938 221.621094 204.832031 201.925781 185.109375 216.539062 C 184.898438 216.703125 184.691406 216.84375 184.503906 217.007812 C 171.339844 227.3125 160.238281 241.484375 153.773438 250.640625 C 149.910156 256.121094 147.6875 259.820312 147.6875 259.820312 C 149.324219 260.59375 157.3125 284.785156 175.789062 280.734375 C 175.789062 280.78125 175.8125 280.804688 175.835938 280.851562 C 175.929688 281.015625 176.140625 281.0625 176.304688 280.945312 C 177.96875 283.429688 191.058594 301.390625 216.351562 294.203125 C 216.351562 294.226562 216.375 294.273438 216.398438 294.296875 C 216.492188 294.457031 216.703125 294.503906 216.867188 294.410156 C 216.867188 294.410156 216.960938 294.339844 217.125 294.25 C 220.804688 295.230469 247.316406 301.367188 265.910156 279.65625 C 266.824219 278.582031 267.738281 277.433594 268.601562 276.238281 C 285.746094 252.398438 259.140625 235.371094 251.414062 231.109375 Z M 251.414062 231.109375 "/><path style=" stroke:none;fill-rule:nonzero;fill:#1a2730;fill-opacity:1;" d="M 124.710938 260.757812 C 124.710938 260.757812 115.742188 262.609375 98.550781 244.832031 C 98.550781 244.832031 77.472656 236.402344 86.746094 220.757812 C 86.746094 220.757812 82.859375 204.410156 90.871094 182.324219 C 103.09375 148.691406 127.195312 163.378906 127.195312 163.378906 C 127.195312 163.378906 147.570312 164.59375 161.386719 176.515625 C 175.203125 188.4375 175.296875 200.660156 175.296875 199.375 C 175.296875 198.085938 124.078125 261.015625 124.710938 260.757812 Z M 124.710938 260.757812 "/><path style=" stroke:none;fill-rule:nonzero;fill:#f1baa4;fill-opacity:1;" d="M 140.332031 261.71875 C 140.988281 261.71875 156.1875 263.261719 172.816406 244.761719 C 189.445312 226.261719 190.871094 212.933594 187.382812 205.929688 C 183.894531 198.929688 177.101562 199.398438 177.101562 199.398438 C 177.101562 199.398438 168.765625 184.714844 156.9375 179.863281 C 145.109375 175.015625 134.6875 173.683594 134.6875 173.683594 C 134.6875 173.683594 113.773438 178.578125 103.679688 206.046875 C 93.585938 233.519531 128.949219 253.894531 128.949219 253.894531 C 128.949219 253.894531 125.367188 253.144531 120.191406 260.78125 C 115.015625 268.390625 123.890625 276.519531 131.316406 272.960938 C 138.738281 269.421875 140.332031 261.71875 140.332031 261.71875 Z M 140.332031 261.71875 "/><path style=" stroke:none;fill-rule:nonzero;fill:#1a2730;fill-opacity:1;" d="M 129.347656 254.316406 C 129.347656 254.316406 121.855469 236.777344 107.214844 229.28125 C 107.214844 229.28125 115.578125 215.699219 105.976562 206.515625 C 105.976562 206.515625 138.152344 185.53125 134.710938 173.730469 C 134.710938 173.730469 111.152344 169.675781 101.011719 198.976562 C 90.871094 228.273438 105.4375 241.320312 111.597656 244.058594 C 117.753906 246.753906 129.347656 254.316406 129.347656 254.316406 Z M 129.347656 254.316406 "/><path style=" stroke:none;fill-rule:nonzero;fill:#1a2730;fill-opacity:1;" d="M 152.628906 196.726562 C 151.902344 195.507812 151.691406 194.105469 151.949219 192.652344 C 152.183594 191.222656 153.074219 189.75 154.359375 188.835938 C 155.625 187.921875 157.101562 187.523438 158.460938 187.5 C 159.136719 187.5 159.816406 187.546875 160.449219 187.6875 C 160.777344 187.78125 161.082031 187.828125 161.386719 187.945312 L 161.832031 188.109375 L 162.042969 188.203125 C 162.066406 188.226562 162.089844 188.226562 162.113281 188.25 C 162.113281 188.25 162.136719 188.273438 162.113281 188.273438 C 162.089844 188.296875 162.066406 188.296875 162.042969 188.320312 C 162.042969 188.320312 161.996094 188.34375 161.949219 188.4375 C 161.902344 188.507812 161.902344 188.601562 161.925781 188.671875 C 161.902344 188.460938 162.042969 188.296875 162.230469 188.25 C 162.441406 188.226562 162.605469 188.367188 162.652344 188.554688 C 162.652344 188.625 162.652344 188.71875 162.605469 188.8125 C 162.582031 188.859375 162.558594 188.882812 162.535156 188.90625 L 162.488281 188.929688 C 162.441406 188.953125 162.417969 188.976562 162.371094 189 L 162.253906 189.046875 L 162.113281 189.117188 L 161.878906 189.210938 L 161.433594 189.375 C 161.128906 189.492188 160.847656 189.5625 160.566406 189.65625 C 160.003906 189.84375 159.464844 190.03125 158.972656 190.214844 C 157.96875 190.589844 157.101562 191.011719 156.421875 191.527344 C 155.765625 192.042969 155.226562 192.652344 154.734375 193.519531 C 154.242188 194.363281 153.84375 195.414062 153.378906 196.5625 L 153.355469 196.609375 C 153.285156 196.820312 153.050781 196.914062 152.839844 196.84375 C 152.722656 196.867188 152.675781 196.796875 152.628906 196.726562 Z M 152.628906 196.726562 "/><path style=" stroke:none;fill-rule:nonzero;fill:#1a2730;fill-opacity:1;" d="M 138.058594 223.472656 C 136.9375 224.457031 135.976562 225.394531 135.273438 226.355469 C 134.570312 227.3125 134.125 228.320312 133.867188 229.398438 C 133.609375 230.5 133.609375 231.785156 133.65625 233.121094 C 133.703125 233.800781 133.75 234.480469 133.796875 235.183594 L 133.914062 236.238281 L 133.984375 236.777344 L 134.007812 237.03125 L 134.03125 237.148438 C 134.03125 237.171875 134.03125 237.171875 134.03125 237.195312 C 134.03125 237.21875 134.007812 237.171875 133.984375 237.171875 C 133.984375 237.171875 133.960938 237.171875 133.960938 237.148438 C 133.960938 237.148438 133.84375 237.054688 133.703125 237.101562 C 133.539062 237.125 133.46875 237.265625 133.445312 237.3125 C 133.539062 237.125 133.75 237.054688 133.9375 237.148438 C 134.125 237.242188 134.195312 237.453125 134.101562 237.640625 C 134.078125 237.6875 133.984375 237.828125 133.820312 237.851562 C 133.679688 237.875 133.539062 237.804688 133.539062 237.804688 L 133.492188 237.757812 C 133.46875 237.734375 133.421875 237.6875 133.398438 237.6875 L 133.210938 237.5 L 133 237.265625 C 132.859375 237.125 132.746094 236.964844 132.628906 236.800781 C 132.371094 236.496094 132.183594 236.144531 131.972656 235.816406 C 131.574219 235.136719 131.246094 234.433594 130.988281 233.660156 C 130.472656 232.160156 130.238281 230.476562 130.519531 228.71875 C 130.824219 226.9375 131.808594 225.253906 133.210938 224.199219 C 133.890625 223.660156 134.664062 223.261719 135.460938 223.027344 C 136.257812 222.769531 137.054688 222.652344 137.921875 222.769531 C 138.128906 222.792969 138.292969 222.980469 138.269531 223.191406 C 138.269531 223.285156 138.199219 223.378906 138.152344 223.425781 Z M 138.058594 223.472656 "/><path style=" stroke:none;fill-rule:nonzero;fill:#ca4153;fill-opacity:1;" d="M 177.078125 228.367188 C 177.078125 228.648438 177.050781 228.929688 176.996094 229.203125 C 176.941406 229.480469 176.859375 229.746094 176.75 230.007812 C 176.644531 230.269531 176.511719 230.515625 176.355469 230.75 C 176.199219 230.984375 176.023438 231.199219 175.824219 231.398438 C 175.625 231.597656 175.40625 231.773438 175.171875 231.929688 C 174.9375 232.085938 174.691406 232.21875 174.433594 232.328125 C 174.171875 232.433594 173.90625 232.515625 173.628906 232.570312 C 173.351562 232.625 173.074219 232.652344 172.792969 232.652344 C 172.511719 232.652344 172.230469 232.625 171.957031 232.570312 C 171.679688 232.515625 171.414062 232.433594 171.152344 232.328125 C 170.890625 232.21875 170.644531 232.085938 170.410156 231.929688 C 170.175781 231.773438 169.960938 231.597656 169.761719 231.398438 C 169.5625 231.199219 169.386719 230.984375 169.230469 230.75 C 169.074219 230.515625 168.941406 230.269531 168.832031 230.007812 C 168.726562 229.746094 168.644531 229.480469 168.589844 229.203125 C 168.535156 228.929688 168.507812 228.648438 168.507812 228.367188 C 168.507812 228.085938 168.535156 227.808594 168.589844 227.53125 C 168.644531 227.253906 168.726562 226.988281 168.832031 226.726562 C 168.941406 226.46875 169.074219 226.21875 169.230469 225.988281 C 169.386719 225.753906 169.5625 225.535156 169.761719 225.335938 C 169.960938 225.136719 170.175781 224.960938 170.410156 224.804688 C 170.644531 224.648438 170.890625 224.515625 171.152344 224.40625 C 171.414062 224.300781 171.679688 224.21875 171.957031 224.164062 C 172.230469 224.109375 172.511719 224.082031 172.792969 224.082031 C 173.074219 224.082031 173.351562 224.109375 173.628906 224.164062 C 173.90625 224.21875 174.171875 224.300781 174.433594 224.40625 C 174.691406 224.515625 174.9375 224.648438 175.171875 224.804688 C 175.40625 224.960938 175.625 225.136719 175.824219 225.335938 C 176.023438 225.535156 176.199219 225.753906 176.355469 225.988281 C 176.511719 226.21875 176.644531 226.46875 176.75 226.726562 C 176.859375 226.988281 176.941406 227.253906 176.996094 227.53125 C 177.050781 227.808594 177.078125 228.085938 177.078125 228.367188 Z M 177.078125 228.367188 "/><path style=" stroke:none;fill-rule:nonzero;fill:#1a2730;fill-opacity:1;" d="M 146.304688 238.8125 C 144.898438 239.726562 144.03125 239.539062 143.984375 239.515625 C 143.796875 239.46875 143.703125 239.28125 143.75 239.117188 C 143.796875 238.929688 143.960938 238.835938 144.148438 238.859375 C 144.195312 238.859375 146.070312 239.164062 148.855469 235.183594 C 151.691406 231.109375 150.566406 228.53125 150.542969 228.507812 C 150.472656 228.34375 150.542969 228.132812 150.707031 228.0625 C 150.871094 227.992188 151.082031 228.0625 151.152344 228.226562 C 151.199219 228.34375 152.488281 231.132812 149.417969 235.558594 C 148.203125 237.265625 147.148438 238.25 146.304688 238.8125 Z M 146.304688 238.8125 "/><path style=" stroke:none;fill-rule:nonzero;fill:#1a2730;fill-opacity:1;" d="M 169.257812 208.179688 C 168.226562 208.859375 167.382812 209.164062 167.3125 209.1875 C 167.148438 209.257812 166.9375 209.164062 166.890625 208.976562 C 166.820312 208.8125 166.914062 208.601562 167.101562 208.554688 C 167.125 208.554688 170.167969 207.429688 171.644531 204.761719 C 173.074219 202.136719 171.644531 199.890625 171.574219 199.796875 C 171.480469 199.632812 171.527344 199.445312 171.667969 199.328125 C 171.832031 199.234375 172.019531 199.28125 172.136719 199.421875 C 172.207031 199.539062 173.847656 202.089844 172.230469 205.066406 C 171.433594 206.492188 170.261719 207.5 169.257812 208.179688 Z M 169.257812 208.179688 "/><path style=" stroke:none;fill-rule:nonzero;fill:#f1baa4;fill-opacity:1;" d="M 270.851562 236.847656 C 266.425781 227.828125 263.191406 221.902344 263.191406 221.902344 C 263.191406 221.902344 263.191406 221.902344 253.589844 205.582031 C 253.144531 204.855469 252.746094 204.128906 252.304688 203.378906 L 252.28125 203.332031 C 242.980469 187.476562 232.394531 169.070312 226.703125 170.941406 C 220.757812 172.910156 233.753906 188.671875 233.753906 188.671875 C 233.753906 188.671875 229.679688 188.742188 218.835938 190.847656 C 208.015625 192.980469 205.652344 206.210938 209.820312 217.59375 C 213.988281 228.953125 240.875 226.449219 246.519531 230.03125 C 247.96875 230.945312 248.765625 232.277344 249.1875 234.152344 C 250.40625 239.492188 248.53125 249.257812 250.382812 266.332031 C 252.839844 289.351562 258.296875 302.539062 258.296875 302.539062 C 258.296875 302.539062 276.988281 331.859375 293.78125 314.8125 C 307.457031 300.898438 281.132812 257.828125 270.851562 236.847656 Z M 270.851562 236.847656 "/><path style=" stroke:none;fill-rule:nonzero;fill:#1a2730;fill-opacity:1;" d="M 233.097656 199.164062 C 233.472656 198.953125 233.707031 198.53125 233.636719 198.085938 C 233.542969 197.523438 233.003906 197.148438 232.441406 197.21875 L 213.449219 200.3125 C 212.886719 200.40625 212.511719 200.941406 212.582031 201.503906 C 212.675781 202.066406 213.214844 202.441406 213.777344 202.371094 L 232.769531 199.28125 C 232.886719 199.257812 233.003906 199.210938 233.097656 199.164062 Z M 233.097656 199.164062 "/><path style=" stroke:none;fill-rule:nonzero;fill:#1a2730;fill-opacity:1;" d="M 233.941406 206.9375 C 234.316406 206.726562 234.550781 206.304688 234.480469 205.835938 C 234.386719 205.277344 233.847656 204.902344 233.285156 204.996094 L 213.121094 208.648438 C 212.558594 208.742188 212.183594 209.28125 212.277344 209.84375 C 212.371094 210.40625 212.910156 210.78125 213.472656 210.6875 L 233.636719 207.03125 C 233.753906 207.03125 233.847656 206.984375 233.941406 206.9375 Z M 233.941406 206.9375 "/><path style=" stroke:none;fill-rule:nonzero;fill:#1a2730;fill-opacity:1;" d="M 231.273438 217.453125 C 231.625 217.265625 231.832031 216.890625 231.808594 216.492188 C 231.789062 215.933594 231.296875 215.488281 230.734375 215.511719 L 214.222656 216.328125 C 213.660156 216.351562 213.214844 216.84375 213.238281 217.40625 C 213.261719 217.96875 213.753906 218.414062 214.316406 218.390625 L 230.828125 217.570312 C 230.992188 217.570312 231.132812 217.523438 231.273438 217.453125 Z M 231.273438 217.453125 "/><path style=" stroke:none;fill-rule:nonzero;fill:#f1baa4;fill-opacity:1;" d="M 182.347656 290.945312 C 191.128906 286.074219 196.867188 282.539062 196.867188 282.539062 C 196.867188 282.539062 196.867188 282.539062 212.675781 272.117188 C 213.378906 271.648438 214.082031 271.203125 214.808594 270.710938 L 214.855469 270.6875 C 230.21875 260.59375 248.0625 249.070312 245.910156 243.519531 C 243.636719 237.664062 228.554688 251.460938 228.554688 251.460938 C 228.554688 251.460938 228.273438 247.382812 225.628906 236.683594 C 222.957031 225.980469 209.609375 224.292969 198.460938 229.046875 C 187.335938 233.800781 191.199219 260.523438 187.898438 266.332031 C 187.054688 267.832031 185.765625 268.695312 183.917969 269.210938 C 178.648438 270.710938 168.8125 269.328125 151.832031 272.046875 C 128.949219 275.675781 116.09375 281.789062 116.09375 281.789062 C 116.09375 281.789062 87.753906 301.929688 105.648438 317.855469 C 120.238281 330.78125 161.902344 302.28125 182.347656 290.945312 Z M 182.347656 290.945312 "/><path style=" stroke:none;fill-rule:nonzero;fill:#1a2730;fill-opacity:1;" d="M 218.085938 251.34375 C 218.320312 251.71875 218.742188 251.90625 219.1875 251.8125 C 219.75 251.695312 220.101562 251.132812 219.984375 250.570312 L 215.933594 231.761719 C 215.816406 231.203125 215.253906 230.851562 214.691406 230.96875 C 214.128906 231.085938 213.777344 231.648438 213.894531 232.207031 L 217.945312 251.015625 C 217.96875 251.15625 218.015625 251.25 218.085938 251.34375 Z M 218.085938 251.34375 "/><path style=" stroke:none;fill-rule:nonzero;fill:#1a2730;fill-opacity:1;" d="M 210.335938 252.585938 C 210.570312 252.957031 211.011719 253.167969 211.457031 253.050781 C 212.019531 252.910156 212.347656 252.375 212.230469 251.8125 L 207.546875 231.855469 C 207.429688 231.296875 206.867188 230.96875 206.304688 231.085938 C 205.742188 231.226562 205.417969 231.765625 205.535156 232.324219 L 210.21875 252.28125 C 210.242188 252.398438 210.289062 252.492188 210.335938 252.585938 Z M 210.335938 252.585938 "/><path style=" stroke:none;fill-rule:nonzero;fill:#1a2730;fill-opacity:1;" d="M 199.703125 250.429688 C 199.914062 250.757812 200.289062 250.96875 200.683594 250.921875 C 201.246094 250.875 201.667969 250.359375 201.621094 249.796875 L 199.960938 233.355469 C 199.914062 232.792969 199.398438 232.371094 198.835938 232.417969 C 198.273438 232.464844 197.851562 232.980469 197.898438 233.542969 L 199.5625 249.984375 C 199.5625 250.171875 199.632812 250.3125 199.703125 250.429688 Z M 199.703125 250.429688 "/><path style=" stroke:none;fill-rule:nonzero;fill:#ec7d84;fill-opacity:1;" d="M 70.214844 100.425781 C 58.480469 91.21875 44.355469 102.71875 42.039062 112.554688 C 39.71875 102.71875 25.597656 91.21875 13.863281 100.425781 C 4.941406 107.425781 9.929688 121.574219 16.535156 128.832031 C 30.632812 144.359375 42.039062 149.253906 42.039062 149.253906 C 42.039062 149.253906 53.445312 144.359375 67.542969 128.832031 C 74.148438 121.574219 79.136719 107.425781 70.214844 100.425781 Z M 70.214844 100.425781 "/><path style=" stroke:none;fill-rule:nonzero;fill:#ec7d84;fill-opacity:1;" d="M 327.738281 167.921875 C 320.453125 162.183594 311.648438 169.347656 310.21875 175.460938 C 308.792969 169.347656 299.984375 162.183594 292.703125 167.921875 C 287.152344 172.277344 290.242188 181.082031 294.363281 185.601562 C 303.148438 195.253906 310.21875 198.296875 310.21875 198.296875 C 310.21875 198.296875 317.316406 195.253906 326.074219 185.601562 C 330.199219 181.082031 333.289062 172.277344 327.738281 167.921875 Z M 327.738281 167.921875 "/></g></svg>