<svg xmlns="http://www.w3.org/2000/svg" xmlns:xlink="http://www.w3.org/1999/xlink" width="500" zoomAndPan="magnify" viewBox="0 0 375 374.999991" height="500" preserveAspectRatio="xMidYMid meet" version="1.2"><g id="80affd9379"><path style=" stroke:none;fill-rule:nonzero;fill:#ffd4d6;fill-opacity:1;" d="M 240.90625 325.515625 C 226.980469 332.582031 211.660156 337.902344 194.945312 341 C 186.957031 342.488281 179.261719 343.726562 171.890625 344.734375 C 35.886719 363.46875 1.921875 305.5625 0.992188 252.28125 C 0.0078125 196.117188 95.601562 171.773438 120.804688 156.851562 C 188.449219 116.847656 190.941406 17.117188 276.710938 49.824219 C 374.992188 87.3125 356.425781 266.855469 240.90625 325.515625 Z M 240.90625 325.515625 "/><path style=" stroke:none;fill-rule:nonzero;fill:#f1baa4;fill-opacity:1;" d="M 55.484375 162.964844 C 55.484375 162.964844 44.59375 174.347656 46.121094 180.714844 C 47.648438 187.082031 55.328125 196.390625 55.328125 196.390625 C 55.328125 196.390625 50.6875 199.503906 55.289062 203.394531 C 59.894531 207.285156 69.738281 197.648438 68.828125 194.824219 C 67.941406 191.996094 62.15625 180.867188 62.15625 180.867188 C 62.15625 180.867188 68.675781 181.835938 71.867188 174.714844 C 75.058594 167.59375 55.484375 162.964844 55.484375 162.964844 Z M 55.484375 162.964844 "/><path style=" stroke:none;fill-rule:nonzero;fill:#f1baa4;fill-opacity:1;" d="M 101.597656 160.914062 C 101.597656 160.914062 112.488281 172.292969 110.960938 178.660156 C 109.429688 185.03125 101.75 194.339844 101.75 194.339844 C 101.75 194.339844 106.394531 197.453125 101.789062 201.34375 C 97.1875 205.234375 87.339844 195.597656 88.25 192.769531 C 89.140625 189.945312 94.921875 178.816406 94.921875 178.816406 C 94.921875 178.816406 88.40625 179.785156 85.214844 172.664062 C 82.039062 165.519531 101.597656 160.914062 101.597656 160.914062 Z M 101.597656 160.914062 "/><path style=" stroke:none;fill-rule:nonzero;fill:#f1baa4;fill-opacity:1;" d="M 109.101562 146.554688 C 109.101562 146.554688 109.855469 134.285156 100.4375 134.089844 C 91.015625 133.898438 91.75 151.007812 98.113281 157.722656 C 104.480469 164.457031 112.835938 158.824219 116.898438 153.308594 C 116.898438 153.308594 120.765625 154.761719 122.390625 152.671875 C 122.390625 152.671875 122.0625 154.414062 124.132812 153.578125 C 126.203125 152.746094 128.714844 146.804688 126.9375 142.859375 C 125.15625 138.910156 122.160156 139.375 119.664062 139.898438 C 117.167969 140.417969 113.609375 145.839844 113.609375 145.839844 Z M 109.101562 146.554688 "/><path style=" stroke:none;fill-rule:nonzero;fill:#f1baa4;fill-opacity:1;" d="M 52.097656 144 C 52.097656 144 51.34375 131.730469 60.761719 131.535156 C 70.183594 131.34375 69.449219 148.453125 63.085938 155.167969 C 56.71875 161.902344 48.363281 156.269531 44.300781 150.753906 C 44.300781 150.753906 40.433594 152.207031 38.808594 150.117188 C 38.808594 150.117188 39.136719 151.859375 37.066406 151.023438 C 35 150.191406 32.484375 144.25 34.261719 140.304688 C 36.042969 136.355469 39.039062 136.839844 41.535156 137.34375 C 44.03125 137.863281 47.589844 143.285156 47.589844 143.285156 Z M 52.097656 144 "/><path style=" stroke:none;fill-rule:nonzero;fill:#f4ebdf;fill-opacity:1;" d="M 100.164062 133.414062 C 100.164062 133.414062 104.246094 159.832031 100.164062 166.894531 C 100.164062 166.894531 78.675781 192.769531 55.695312 164.378906 C 55.695312 164.378906 51.921875 149.4375 69.527344 131.515625 Z M 100.164062 133.414062 "/><path style=" stroke:none;fill-rule:nonzero;fill:#f4ebdf;fill-opacity:1;" d="M 67.203125 134.304688 C 67.648438 134.59375 68.074219 147.425781 81.285156 149.011719 C 94.496094 150.597656 98.773438 133.644531 98.289062 134.304688 C 97.804688 134.960938 67.203125 134.304688 67.203125 134.304688 Z M 67.203125 134.304688 "/><path style=" stroke:none;fill-rule:nonzero;fill:#1a2730;fill-opacity:1;" d="M 110.921875 110.558594 C 110.648438 110.015625 110.261719 109.492188 110.164062 108.894531 C 110.070312 108.195312 110.359375 107.519531 110.667969 106.898438 C 111.828125 104.421875 112.953125 101.691406 112.332031 99.042969 C 111.867188 97.085938 110.515625 95.460938 109.835938 93.585938 C 109.0625 91.4375 109.179688 89.09375 108.984375 86.828125 C 108.8125 84.566406 108.210938 82.125 106.453125 80.675781 C 104.789062 79.320312 102.46875 79.128906 100.609375 78.0625 C 97.265625 76.148438 95.640625 71.558594 91.867188 70.746094 C 89.875 70.320312 87.804688 71.113281 85.773438 71.019531 C 83.878906 70.921875 82.136719 70.089844 80.378906 69.390625 C 74.804688 67.226562 67.941406 66.742188 63.335938 70.554688 C 62.367188 71.347656 61.554688 72.296875 60.550781 73.03125 C 57.863281 74.984375 54.304688 75.101562 51.226562 76.339844 C 45.617188 78.605469 42.039062 85.050781 43.082031 91.011719 C 43.488281 93.332031 44.515625 95.617188 44.261719 97.976562 C 43.875 101.441406 40.761719 104.265625 40.78125 107.75 C 40.800781 110.246094 42.425781 112.492188 42.582031 114.988281 C 42.714844 117.15625 41.75 119.574219 42.96875 121.375 C 43.820312 122.632812 45.425781 123.058594 46.894531 123.40625 C 50.414062 124.238281 53.953125 125.054688 57.570312 125.089844 C 60.261719 125.109375 62.949219 124.683594 65.636719 124.570312 C 68.636719 124.453125 71.632812 124.703125 74.554688 125.363281 C 79.527344 126.464844 84.496094 128.671875 89.527344 127.859375 C 91.519531 127.550781 93.394531 126.757812 95.273438 125.980469 C 99.21875 124.335938 103.027344 123.253906 105.660156 119.75 C 106.820312 118.203125 108.078125 117.136719 109.488281 115.859375 C 111.519531 113.984375 110.921875 112.917969 110.921875 110.558594 Z M 110.921875 110.558594 "/><path style=" stroke:none;fill-rule:nonzero;fill:#f1baa4;fill-opacity:1;" d="M 54.496094 127.589844 C 54.765625 127.9375 60.125 136.605469 76.664062 137.902344 C 93.203125 139.199219 100.824219 134.515625 103.105469 129.832031 C 105.386719 125.128906 102.390625 121.742188 102.390625 121.742188 C 102.390625 121.742188 106.761719 111.371094 104.535156 103.144531 C 102.292969 94.917969 98.773438 88.863281 98.773438 88.863281 C 98.773438 88.863281 87.6875 79.785156 69.0625 85.609375 C 50.453125 91.4375 54.03125 118.433594 54.03125 118.433594 C 54.03125 118.433594 52.96875 116.226562 46.835938 116.59375 C 40.703125 116.945312 40.027344 124.957031 44.902344 127.433594 C 49.796875 129.871094 54.496094 127.589844 54.496094 127.589844 Z M 54.496094 127.589844 "/><path style=" stroke:none;fill-rule:nonzero;fill:#f1baa4;fill-opacity:1;" d="M 102.410156 118.667969 C 102.410156 118.667969 109.199219 116.382812 110.921875 121.628906 C 112.640625 126.871094 101.382812 130.125 101.730469 130.78125 C 102.082031 131.457031 102.410156 118.667969 102.410156 118.667969 Z M 102.410156 118.667969 "/><path style=" stroke:none;fill-rule:nonzero;fill:#1a2730;fill-opacity:1;" d="M 93.859375 107.671875 C 94.207031 106.78125 94.867188 106.105469 95.734375 105.660156 C 96.585938 105.195312 97.726562 105.078125 98.734375 105.371094 C 99.738281 105.660156 100.53125 106.300781 101.113281 106.996094 C 101.402344 107.363281 101.636719 107.730469 101.828125 108.136719 C 101.90625 108.351562 102.003906 108.542969 102.082031 108.738281 L 102.175781 109.046875 L 102.214844 109.203125 C 102.214844 109.222656 102.214844 109.242188 102.214844 109.261719 C 102.214844 109.261719 102.214844 109.28125 102.195312 109.261719 C 102.175781 109.242188 102.15625 109.242188 102.136719 109.242188 C 102.136719 109.242188 102.101562 109.222656 102.042969 109.242188 C 101.984375 109.242188 101.925781 109.28125 101.90625 109.320312 C 102.003906 109.222656 102.15625 109.222656 102.253906 109.320312 C 102.351562 109.414062 102.351562 109.570312 102.253906 109.667969 C 102.214844 109.707031 102.15625 109.746094 102.101562 109.746094 C 102.0625 109.746094 102.042969 109.746094 102.023438 109.746094 L 101.984375 109.746094 C 101.945312 109.746094 101.925781 109.726562 101.886719 109.707031 L 101.808594 109.667969 L 101.558594 109.511719 L 101.289062 109.335938 C 101.113281 109.222656 100.957031 109.105469 100.785156 109.007812 C 100.457031 108.796875 100.144531 108.582031 99.835938 108.390625 C 99.238281 108.003906 98.65625 107.730469 98.113281 107.578125 C 97.574219 107.441406 97.03125 107.402344 96.375 107.5 C 95.734375 107.578125 95.019531 107.789062 94.207031 108.023438 L 94.167969 108.042969 C 94.035156 108.078125 93.878906 108.003906 93.839844 107.867188 C 93.839844 107.789062 93.839844 107.730469 93.859375 107.671875 Z M 93.859375 107.671875 "/><path style=" stroke:none;fill-rule:nonzero;fill:#1a2730;fill-opacity:1;" d="M 73.800781 110.847656 C 72.832031 110.652344 71.945312 110.539062 71.152344 110.558594 C 70.359375 110.578125 69.640625 110.75 68.964844 111.039062 C 68.289062 111.351562 67.589844 111.875 66.894531 112.453125 C 66.546875 112.742188 66.21875 113.054688 65.871094 113.363281 L 65.347656 113.847656 L 64.921875 114.273438 C 64.921875 114.273438 64.902344 114.273438 64.902344 114.292969 C 64.902344 114.3125 64.902344 114.273438 64.902344 114.253906 C 64.902344 114.253906 64.902344 114.234375 64.902344 114.234375 C 64.902344 114.234375 64.902344 114.136719 64.824219 114.078125 C 64.75 114.003906 64.652344 114.019531 64.613281 114.019531 C 64.75 114.003906 64.863281 114.078125 64.902344 114.214844 C 64.941406 114.351562 64.84375 114.464844 64.710938 114.503906 C 64.671875 114.503906 64.574219 114.523438 64.496094 114.445312 C 64.417969 114.390625 64.417969 114.273438 64.417969 114.273438 L 64.417969 114.234375 C 64.417969 114.214844 64.417969 114.15625 64.417969 114.15625 L 64.417969 114.078125 L 64.4375 113.964844 L 64.476562 113.75 C 64.496094 113.613281 64.535156 113.5 64.574219 113.363281 C 64.632812 113.113281 64.730469 112.859375 64.824219 112.609375 C 65.019531 112.125 65.269531 111.660156 65.558594 111.214844 C 66.140625 110.324219 66.933594 109.511719 67.976562 108.96875 C 69.042969 108.410156 70.339844 108.253906 71.460938 108.542969 C 72.019531 108.699219 72.542969 108.929688 72.988281 109.261719 C 73.453125 109.589844 73.839844 109.957031 74.128906 110.460938 C 74.207031 110.578125 74.167969 110.75 74.03125 110.808594 C 73.976562 110.847656 73.917969 110.847656 73.859375 110.847656 Z M 73.800781 110.847656 "/><path style=" stroke:none;fill-rule:nonzero;fill:#1a2730;fill-opacity:1;" d="M 103.105469 130.046875 C 103.066406 130.046875 103.027344 130.046875 103.007812 130.027344 C 102.894531 129.96875 102.855469 129.832031 102.914062 129.71875 C 105.445312 124.722656 102.273438 121.917969 102.234375 121.898438 C 102.15625 121.839844 102.136719 121.722656 102.175781 121.648438 C 102.835938 120.117188 103.125 118.394531 103.144531 118.394531 C 103.164062 118.277344 103.28125 118.183594 103.394531 118.222656 C 103.511719 118.242188 103.609375 118.355469 103.570312 118.472656 C 103.550781 118.550781 103.28125 120.136719 102.640625 121.683594 C 102.894531 121.9375 103.511719 122.632812 103.9375 123.757812 C 104.421875 125.054688 104.691406 127.164062 103.300781 129.929688 C 103.261719 130.007812 103.183594 130.046875 103.105469 130.046875 Z M 103.105469 130.046875 "/><path style=" stroke:none;fill-rule:nonzero;fill:#1a2730;fill-opacity:1;" d="M 54.03125 118.414062 C 54.03125 118.414062 55.832031 120.214844 57.03125 116.035156 C 58.230469 111.855469 55.539062 110.886719 55.539062 110.886719 C 55.539062 110.886719 59.121094 110.519531 60.628906 106.78125 C 62.117188 103.046875 59.429688 99.621094 59.429688 99.621094 C 59.429688 99.621094 64.804688 100.027344 67.628906 94.144531 C 70.472656 88.28125 73.761719 91.863281 78.828125 90.660156 C 83.898438 89.460938 86.121094 86.152344 90.164062 90.640625 C 94.1875 95.132812 98.832031 91.550781 100.609375 95.730469 C 102.410156 99.914062 104.789062 104.152344 106.433594 102.003906 C 108.078125 99.855469 96.742188 79.011719 96.433594 79.457031 C 96.140625 79.902344 63.335938 78.546875 63.027344 79.457031 C 62.71875 80.367188 52.445312 96.332031 52.445312 96.332031 L 50.761719 111.449219 Z M 54.03125 118.414062 "/><path style=" stroke:none;fill-rule:nonzero;fill:#1a2730;fill-opacity:1;" d="M 70.6875 123.738281 C 68.421875 123.738281 67.882812 122.828125 67.84375 122.769531 C 67.785156 122.652344 67.824219 122.519531 67.921875 122.460938 C 68.035156 122.402344 68.152344 122.441406 68.230469 122.535156 C 68.25 122.554688 68.964844 123.621094 72.175781 123.15625 C 75.484375 122.671875 76.179688 120.96875 76.199219 120.949219 C 76.238281 120.832031 76.375 120.777344 76.488281 120.816406 C 76.605469 120.851562 76.664062 120.988281 76.625 121.105469 C 76.585938 121.183594 75.8125 123.078125 72.253906 123.601562 C 71.652344 123.699219 71.132812 123.738281 70.6875 123.738281 Z M 70.6875 123.738281 "/><path style=" stroke:none;fill-rule:nonzero;fill:#1a2730;fill-opacity:1;" d="M 96.160156 121.007812 C 94.574219 121.007812 93.316406 120.371094 93.261719 120.332031 C 93.144531 120.273438 93.105469 120.136719 93.164062 120.019531 C 93.222656 119.90625 93.355469 119.867188 93.472656 119.925781 C 93.492188 119.945312 95.425781 120.910156 97.378906 120.40625 C 99.3125 119.90625 99.757812 118.144531 99.757812 118.125 C 99.796875 118.007812 99.914062 117.929688 100.03125 117.96875 C 100.144531 118.007812 100.222656 118.125 100.203125 118.242188 C 100.183594 118.316406 99.683594 120.292969 97.496094 120.851562 C 97.050781 120.96875 96.585938 121.007812 96.160156 121.007812 Z M 96.160156 121.007812 "/><path style=" stroke:none;fill-rule:nonzero;fill:#f1baa4;fill-opacity:1;" d="M 94.441406 173.378906 C 94.226562 173.011719 94.246094 163.992188 93.394531 160.199219 C 92.542969 156.40625 89.972656 149.4375 87.824219 149.941406 C 85.675781 150.445312 87.246094 161.128906 87.246094 161.128906 C 87.246094 161.128906 73.570312 145.566406 73.277344 145.488281 C 72.988281 145.414062 71.074219 142.703125 69.140625 144.15625 C 67.203125 145.605469 69.082031 148.316406 69.082031 148.316406 C 69.082031 148.316406 65.523438 144.675781 63.917969 146.960938 C 62.3125 149.246094 64.75 151.121094 64.515625 151.140625 C 64.285156 151.160156 62.71875 150.25 61.730469 152.457031 C 60.726562 154.664062 64.515625 159.269531 64.515625 159.269531 C 64.515625 159.269531 62.792969 157.507812 61.632812 160.042969 C 60.472656 162.578125 67.996094 172.21875 73.625 176.222656 C 79.253906 180.230469 84.34375 182.242188 84.34375 182.242188 Z M 94.441406 173.378906 "/><path style=" stroke:none;fill-rule:nonzero;fill:#1a2730;fill-opacity:1;" d="M 81.652344 162.832031 C 81.558594 162.8125 81.460938 162.753906 81.382812 162.65625 L 69.351562 149.109375 C 69.160156 148.878906 69.175781 148.527344 69.390625 148.335938 C 69.601562 148.140625 69.972656 148.160156 70.164062 148.375 L 82.195312 161.921875 C 82.390625 162.152344 82.371094 162.5 82.15625 162.695312 C 82.023438 162.851562 81.828125 162.890625 81.652344 162.832031 Z M 81.652344 162.832031 "/><path style=" stroke:none;fill-rule:nonzero;fill:#1a2730;fill-opacity:1;" d="M 74.882812 162.925781 C 74.789062 162.910156 74.710938 162.851562 74.632812 162.792969 L 65.058594 153.367188 C 64.84375 153.152344 64.84375 152.804688 65.058594 152.59375 C 65.269531 152.378906 65.617188 152.378906 65.832031 152.59375 L 75.40625 162.019531 C 75.617188 162.230469 75.617188 162.578125 75.40625 162.792969 C 75.269531 162.910156 75.058594 162.964844 74.882812 162.925781 Z M 74.882812 162.925781 "/><path style=" stroke:none;fill-rule:nonzero;fill:#1a2730;fill-opacity:1;" d="M 73.742188 169.664062 C 72.96875 169.46875 64.632812 160.296875 64.574219 160.199219 C 64.398438 159.945312 64.476562 159.597656 64.730469 159.425781 C 64.980469 159.25 65.328125 159.328125 65.503906 159.578125 C 66.042969 160.390625 73.375 168.054688 74.148438 168.617188 C 74.382812 168.734375 74.496094 168.984375 74.4375 169.238281 C 74.34375 169.546875 74.03125 169.738281 73.742188 169.664062 Z M 73.742188 169.664062 "/><path style=" stroke:none;fill-rule:nonzero;fill:#f1baa4;fill-opacity:1;" d="M 205.914062 130.179688 C 205.914062 130.179688 201.019531 131.789062 196.976562 138.640625 C 192.933594 145.488281 183.671875 154.003906 175.238281 154.199219 L 176.085938 162.484375 C 176.085938 162.484375 165.640625 183.808594 176.84375 191.453125 C 188.042969 199.097656 191.078125 198.246094 191.078125 198.246094 L 188.0625 217.988281 C 186.84375 225.941406 192.121094 233.453125 200.015625 235 C 208.757812 236.722656 217.074219 230.492188 217.867188 221.609375 C 219.066406 208.410156 220.578125 192.054688 220.789062 191.453125 C 221.15625 190.449219 242.859375 176.242188 233.074219 154.546875 C 223.285156 132.871094 205.914062 130.179688 205.914062 130.179688 Z M 205.914062 130.179688 "/><path style=" stroke:none;fill-rule:nonzero;fill:#1a2730;fill-opacity:1;" d="M 216.515625 183.210938 L 217.65625 180.441406 C 217.65625 180.441406 235.027344 176.011719 233.480469 164.089844 C 231.929688 152.1875 222.105469 163.371094 222.105469 163.371094 L 189.335938 135.773438 C 189.335938 135.773438 204.890625 103.359375 241.3125 127.570312 C 277.734375 151.78125 253.152344 186.460938 244.253906 194.511719 C 235.355469 202.582031 218.699219 208.136719 218.699219 208.136719 C 213.941406 200.6875 213.109375 191.378906 216.515625 183.210938 Z M 216.515625 183.210938 "/><path style=" stroke:none;fill-rule:nonzero;fill:#1a2730;fill-opacity:1;" d="M 251.988281 153.019531 C 251.988281 153.019531 278.566406 139.21875 286.808594 161.496094 C 295.046875 183.769531 277.078125 214.777344 301.78125 232.734375 C 315.765625 242.914062 312.207031 272.816406 295.339844 279.457031 C 272.070312 288.628906 248.683594 253.832031 249.535156 253.945312 C 250.382812 254.042969 280.695312 254.527344 266.304688 237.824219 C 251.914062 221.105469 277.367188 170.921875 270.90625 167.128906 C 264.429688 163.351562 253.808594 161.300781 253.808594 161.300781 Z M 251.988281 153.019531 "/><path style=" stroke:none;fill-rule:nonzero;fill:#1a2730;fill-opacity:1;" d="M 199.109375 154.558594 C 199.304688 154.714844 199.484375 154.890625 199.640625 155.085938 C 199.796875 155.28125 199.929688 155.492188 200.042969 155.722656 C 200.15625 155.949219 200.246094 156.191406 200.308594 156.445312 C 200.371094 156.699219 200.410156 156.960938 200.421875 157.230469 C 200.433594 157.5 200.417969 157.769531 200.378906 158.046875 C 200.339844 158.320312 200.273438 158.589844 200.183594 158.859375 C 200.09375 159.128906 199.980469 159.386719 199.84375 159.640625 C 199.707031 159.890625 199.550781 160.132812 199.371094 160.359375 C 199.195312 160.585938 198.996094 160.792969 198.785156 160.988281 C 198.570312 161.179688 198.34375 161.351562 198.105469 161.5 C 197.867188 161.652344 197.617188 161.777344 197.359375 161.878906 C 197.105469 161.984375 196.84375 162.058594 196.578125 162.109375 C 196.3125 162.164062 196.050781 162.1875 195.789062 162.183594 C 195.527344 162.183594 195.273438 162.152344 195.023438 162.097656 C 194.773438 162.042969 194.535156 161.960938 194.308594 161.855469 C 194.082031 161.746094 193.871094 161.617188 193.675781 161.460938 C 193.480469 161.308594 193.304688 161.132812 193.148438 160.9375 C 192.992188 160.742188 192.855469 160.53125 192.742188 160.300781 C 192.632812 160.070312 192.542969 159.832031 192.480469 159.578125 C 192.417969 159.324219 192.378906 159.0625 192.367188 158.792969 C 192.355469 158.523438 192.367188 158.25 192.40625 157.976562 C 192.449219 157.703125 192.511719 157.429688 192.601562 157.164062 C 192.691406 156.894531 192.804688 156.632812 192.941406 156.382812 C 193.078125 156.128906 193.238281 155.890625 193.414062 155.664062 C 193.59375 155.4375 193.789062 155.226562 194.003906 155.035156 C 194.214844 154.84375 194.441406 154.671875 194.683594 154.523438 C 194.921875 154.371094 195.171875 154.246094 195.425781 154.140625 C 195.683594 154.039062 195.945312 153.960938 196.210938 153.910156 C 196.472656 153.859375 196.738281 153.835938 197 153.835938 C 197.261719 153.839844 197.515625 153.867188 197.765625 153.925781 C 198.011719 153.980469 198.25 154.0625 198.476562 154.167969 C 198.703125 154.273438 198.914062 154.40625 199.109375 154.558594 Z M 199.109375 154.558594 "/><path style=" stroke:none;fill-rule:nonzero;fill:#f4ebdf;fill-opacity:1;" d="M 198.023438 156.425781 C 198.023438 156.65625 197.976562 156.878906 197.890625 157.089844 C 197.800781 157.304688 197.675781 157.492188 197.511719 157.65625 C 197.347656 157.820312 197.160156 157.945312 196.949219 158.035156 C 196.734375 158.121094 196.511719 158.167969 196.28125 158.167969 C 196.050781 158.167969 195.828125 158.121094 195.617188 158.035156 C 195.402344 157.945312 195.214844 157.820312 195.050781 157.65625 C 194.886719 157.492188 194.761719 157.304688 194.671875 157.089844 C 194.585938 156.878906 194.539062 156.65625 194.539062 156.425781 C 194.539062 156.195312 194.585938 155.972656 194.671875 155.757812 C 194.761719 155.546875 194.886719 155.355469 195.050781 155.191406 C 195.214844 155.03125 195.402344 154.902344 195.617188 154.816406 C 195.828125 154.726562 196.050781 154.683594 196.28125 154.683594 C 196.511719 154.683594 196.734375 154.726562 196.949219 154.816406 C 197.160156 154.902344 197.347656 155.03125 197.511719 155.191406 C 197.675781 155.355469 197.800781 155.546875 197.890625 155.757812 C 197.976562 155.972656 198.023438 156.195312 198.023438 156.425781 Z M 198.023438 156.425781 "/><path style=" stroke:none;fill-rule:nonzero;fill:#1a2730;fill-opacity:1;" d="M 183.050781 181.777344 C 181.253906 182.125 178.660156 181.855469 176.472656 178.585938 C 176.222656 178.199219 176.320312 177.695312 176.707031 177.441406 C 177.09375 177.191406 177.597656 177.289062 177.847656 177.675781 C 178.929688 179.300781 180.226562 180.171875 181.660156 180.25 C 183.707031 180.363281 185.46875 178.914062 185.757812 178.605469 C 185.933594 178.3125 186.28125 178.160156 186.628906 178.234375 C 187.074219 178.332031 187.363281 178.777344 187.269531 179.222656 C 187.132812 179.902344 185.179688 181.351562 183.1875 181.777344 C 183.148438 181.757812 183.089844 181.777344 183.050781 181.777344 Z M 185.644531 178.855469 Z M 185.644531 178.855469 Z M 185.644531 178.855469 "/><path style=" stroke:none;fill-rule:nonzero;fill:#1a2730;fill-opacity:1;" d="M 204.210938 158.476562 C 204.425781 158.613281 204.675781 158.6875 204.949219 158.671875 C 205.625 158.632812 206.128906 158.050781 206.089844 157.375 C 206.070312 157.0625 205.488281 149.785156 197.75 147.425781 C 197.113281 147.230469 196.4375 147.601562 196.222656 148.238281 C 196.03125 148.878906 196.398438 149.554688 197.035156 149.765625 C 203.1875 151.644531 203.652344 157.488281 203.652344 157.546875 C 203.671875 157.933594 203.882812 158.28125 204.210938 158.476562 Z M 204.210938 158.476562 "/><path style=" stroke:none;fill-rule:nonzero;fill:#ec7d84;fill-opacity:1;" d="M 240.90625 325.515625 C 226.980469 332.582031 211.660156 337.902344 194.945312 341 C 186.957031 342.488281 179.261719 343.726562 171.890625 344.734375 C 172.238281 324.722656 173.226562 300.667969 173.226562 300.667969 C 164.90625 298.265625 138.695312 284.699219 184.367188 218.375 C 184.367188 218.375 210.285156 203.335938 222.144531 210.691406 C 237.210938 220.058594 240.328125 280.402344 240.90625 325.515625 Z M 240.90625 325.515625 "/><path style=" stroke:none;fill-rule:nonzero;fill:#ec7d84;fill-opacity:1;" d="M 194.445312 215.433594 L 126.316406 216.789062 L 100.011719 161.515625 L 76.605469 190.410156 L 105.699219 245.78125 L 191.40625 255.207031 Z M 194.445312 215.433594 "/><path style=" stroke:none;fill-rule:nonzero;fill:#ca4153;fill-opacity:1;" d="M 84.363281 127.703125 C 86.914062 126.660156 87.863281 125.054688 89.835938 126.253906 C 91.808594 127.453125 90.957031 133.21875 85.503906 134.128906 C 80.046875 135.058594 77.457031 129.699219 79.933594 128.128906 C 82.371094 126.582031 82.851562 128.34375 84.363281 127.703125 Z M 84.363281 127.703125 "/><path style=" stroke:none;fill-rule:nonzero;fill:#ec7d84;fill-opacity:1;" d="M 230.886719 25.304688 C 213.59375 11.71875 192.742188 28.691406 189.335938 43.1875 C 185.933594 28.671875 165.082031 11.71875 147.789062 25.304688 C 134.636719 35.640625 141.964844 56.503906 151.714844 67.242188 C 172.527344 90.140625 189.335938 97.378906 189.335938 97.378906 C 189.335938 97.378906 206.148438 90.140625 226.960938 67.242188 C 236.710938 56.523438 244.039062 35.640625 230.886719 25.304688 Z M 230.886719 25.304688 "/><path style=" stroke:none;fill-rule:nonzero;fill:#ec7d84;fill-opacity:1;" d="M 55.425781 269.875 C 49.699219 265.367188 42.792969 270.996094 41.671875 275.796875 C 40.550781 270.996094 33.644531 265.367188 27.917969 269.875 C 23.566406 273.300781 25.984375 280.210938 29.214844 283.769531 C 36.101562 291.359375 41.671875 293.757812 41.671875 293.757812 C 41.671875 293.757812 47.242188 291.359375 54.128906 283.769531 C 57.359375 280.210938 59.796875 273.300781 55.425781 269.875 Z M 55.425781 269.875 "/></g></svg>