<svg xmlns="http://www.w3.org/2000/svg" xmlns:xlink="http://www.w3.org/1999/xlink" width="500" zoomAndPan="magnify" viewBox="0 0 375 374.999991" height="500" preserveAspectRatio="xMidYMid meet" version="1.2"><defs><clipPath id="4a059c6310"><path d="M 12.5 0 L 360 0 L 360 348 L 12.5 348 Z M 12.5 0 "/></clipPath></defs><g id="4c416cd69e"><g clip-rule="nonzero" clip-path="url(#4a059c6310)"><path style=" stroke:none;fill-rule:nonzero;fill:#cae3e8;fill-opacity:1;" d="M 359.75 173.515625 C 359.75 176.355469 359.679688 179.191406 359.539062 182.027344 C 359.402344 184.863281 359.191406 187.695312 358.914062 190.519531 C 358.632812 193.347656 358.285156 196.164062 357.871094 198.972656 C 357.453125 201.78125 356.96875 204.578125 356.414062 207.363281 C 355.859375 210.148438 355.238281 212.917969 354.546875 215.671875 C 353.855469 218.425781 353.097656 221.160156 352.273438 223.878906 C 351.449219 226.597656 350.558594 229.292969 349.601562 231.964844 C 348.640625 234.636719 347.621094 237.285156 346.53125 239.910156 C 345.445312 242.535156 344.292969 245.128906 343.078125 247.695312 C 341.863281 250.261719 340.585938 252.796875 339.246094 255.300781 C 337.910156 257.804688 336.507812 260.277344 335.046875 262.710938 C 333.585938 265.148438 332.066406 267.542969 330.488281 269.90625 C 328.910156 272.265625 327.273438 274.585938 325.582031 276.867188 C 323.886719 279.148438 322.140625 281.386719 320.335938 283.582031 C 318.535156 285.777344 316.679688 287.925781 314.769531 290.03125 C 312.863281 292.132812 310.90625 294.1875 308.894531 296.195312 C 306.886719 298.203125 304.828125 300.164062 302.722656 302.070312 C 300.617188 303.976562 298.464844 305.828125 296.269531 307.632812 C 294.074219 309.433594 291.835938 311.179688 289.550781 312.871094 C 287.269531 314.5625 284.945312 316.195312 282.585938 317.773438 C 280.222656 319.351562 277.820312 320.871094 275.382812 322.328125 C 272.945312 323.789062 270.476562 325.1875 267.96875 326.527344 C 265.464844 327.867188 262.925781 329.140625 260.359375 330.355469 C 257.789062 331.570312 255.191406 332.71875 252.566406 333.808594 C 249.941406 334.894531 247.292969 335.914062 244.617188 336.871094 C 241.941406 337.828125 239.242188 338.71875 236.523438 339.542969 C 233.804688 340.367188 231.066406 341.125 228.308594 341.8125 C 225.554688 342.503906 222.78125 343.125 219.996094 343.679688 C 217.207031 344.234375 214.410156 344.71875 211.597656 345.136719 C 208.789062 345.550781 205.96875 345.898438 203.140625 346.179688 C 200.3125 346.457031 197.480469 346.664062 194.640625 346.804688 C 191.804688 346.945312 188.964844 347.015625 186.121094 347.015625 C 183.28125 347.015625 180.441406 346.945312 177.601562 346.804688 C 174.765625 346.664062 171.933594 346.457031 169.105469 346.179688 C 166.277344 345.898438 163.457031 345.550781 160.644531 345.136719 C 157.835938 344.71875 155.035156 344.234375 152.25 343.679688 C 149.464844 343.125 146.691406 342.503906 143.933594 341.8125 C 141.179688 341.125 138.441406 340.367188 135.722656 339.542969 C 133.003906 338.71875 130.304688 337.828125 127.628906 336.871094 C 124.953125 335.914062 122.304688 334.894531 119.679688 333.808594 C 117.054688 332.71875 114.457031 331.570312 111.886719 330.355469 C 109.320312 329.140625 106.78125 327.867188 104.277344 326.527344 C 101.769531 325.1875 99.296875 323.789062 96.859375 322.328125 C 94.421875 320.871094 92.023438 319.351562 89.660156 317.773438 C 87.296875 316.195312 84.976562 314.5625 82.695312 312.871094 C 80.410156 311.179688 78.171875 309.433594 75.976562 307.632812 C 73.777344 305.828125 71.628906 303.976562 69.523438 302.070312 C 67.417969 300.164062 65.359375 298.203125 63.351562 296.195312 C 61.339844 294.1875 59.382812 292.132812 57.472656 290.03125 C 55.566406 287.925781 53.710938 285.777344 51.90625 283.582031 C 50.105469 281.386719 48.355469 279.148438 46.664062 276.867188 C 44.972656 274.585938 43.335938 272.265625 41.757812 269.90625 C 40.179688 267.542969 38.660156 265.148438 37.199219 262.710938 C 35.738281 260.277344 34.335938 257.804688 32.996094 255.300781 C 31.660156 252.796875 30.382812 250.261719 29.167969 247.695312 C 27.953125 245.128906 26.800781 242.535156 25.710938 239.910156 C 24.625 237.285156 23.601562 234.636719 22.644531 231.964844 C 21.6875 229.292969 20.796875 226.597656 19.972656 223.878906 C 19.148438 221.160156 18.390625 218.425781 17.699219 215.671875 C 17.007812 212.917969 16.386719 210.148438 15.832031 207.363281 C 15.277344 204.578125 14.792969 201.78125 14.375 198.972656 C 13.957031 196.164062 13.609375 193.347656 13.332031 190.519531 C 13.054688 187.695312 12.84375 184.863281 12.707031 182.027344 C 12.566406 179.191406 12.496094 176.355469 12.496094 173.515625 C 12.496094 170.675781 12.566406 167.835938 12.707031 165 C 12.84375 162.164062 13.054688 159.335938 13.332031 156.507812 C 13.609375 153.683594 13.957031 150.867188 14.375 148.058594 C 14.792969 145.25 15.277344 142.453125 15.832031 139.667969 C 16.386719 136.882812 17.007812 134.113281 17.699219 131.359375 C 18.390625 128.605469 19.148438 125.867188 19.972656 123.152344 C 20.796875 120.433594 21.6875 117.738281 22.644531 115.066406 C 23.601562 112.390625 24.625 109.742188 25.710938 107.121094 C 26.800781 104.496094 27.953125 101.902344 29.167969 99.335938 C 30.382812 96.769531 31.660156 94.230469 32.996094 91.726562 C 34.335938 89.222656 35.738281 86.753906 37.199219 84.320312 C 38.660156 81.882812 40.179688 79.484375 41.757812 77.125 C 43.335938 74.761719 44.972656 72.441406 46.664062 70.160156 C 48.355469 67.882812 50.105469 65.644531 51.90625 63.449219 C 53.710938 61.253906 55.566406 59.105469 57.472656 57 C 59.382812 54.894531 61.339844 52.839844 63.351562 50.832031 C 65.359375 48.824219 67.417969 46.867188 69.523438 44.960938 C 71.628906 43.054688 73.777344 41.199219 75.976562 39.398438 C 78.171875 37.597656 80.410156 35.851562 82.695312 34.160156 C 84.976562 32.46875 87.296875 30.832031 89.660156 29.257812 C 92.023438 27.679688 94.421875 26.160156 96.859375 24.699219 C 99.296875 23.242188 101.769531 21.839844 104.277344 20.503906 C 106.78125 19.164062 109.320312 17.886719 111.886719 16.675781 C 114.457031 15.460938 117.054688 14.308594 119.679688 13.222656 C 122.304688 12.136719 124.953125 11.113281 127.628906 10.160156 C 130.304688 9.203125 133.003906 8.3125 135.722656 7.488281 C 138.441406 6.664062 141.179688 5.90625 143.933594 5.214844 C 146.691406 4.527344 149.464844 3.902344 152.25 3.351562 C 155.035156 2.796875 157.835938 2.3125 160.644531 1.894531 C 163.457031 1.476562 166.277344 1.128906 169.105469 0.851562 C 171.933594 0.574219 174.765625 0.363281 177.601562 0.226562 C 180.441406 0.0859375 183.28125 0.015625 186.121094 0.015625 C 188.964844 0.015625 191.804688 0.0859375 194.640625 0.226562 C 197.480469 0.363281 200.3125 0.574219 203.140625 0.851562 C 205.96875 1.128906 208.789062 1.476562 211.597656 1.894531 C 214.410156 2.3125 217.207031 2.796875 219.996094 3.351562 C 222.78125 3.902344 225.554688 4.527344 228.308594 5.214844 C 231.066406 5.90625 233.804688 6.664062 236.523438 7.488281 C 239.242188 8.3125 241.941406 9.203125 244.617188 10.160156 C 247.292969 11.113281 249.941406 12.136719 252.566406 13.222656 C 255.191406 14.308594 257.789062 15.460938 260.359375 16.675781 C 262.925781 17.886719 265.464844 19.164062 267.96875 20.503906 C 270.476562 21.839844 272.945312 23.242188 275.382812 24.699219 C 277.820312 26.160156 280.222656 27.679688 282.585938 29.257812 C 284.945312 30.832031 287.269531 32.46875 289.550781 34.160156 C 291.835938 35.851562 294.074219 37.597656 296.269531 39.398438 C 298.464844 41.199219 300.617188 43.054688 302.722656 44.960938 C 304.828125 46.867188 306.886719 48.824219 308.894531 50.832031 C 310.90625 52.839844 312.863281 54.894531 314.769531 57 C 316.679688 59.105469 318.535156 61.253906 320.335938 63.449219 C 322.140625 65.644531 323.886719 67.882812 325.582031 70.160156 C 327.273438 72.441406 328.910156 74.761719 330.488281 77.125 C 332.066406 79.484375 333.585938 81.882812 335.046875 84.320312 C 336.507812 86.753906 337.910156 89.222656 339.246094 91.726562 C 340.585938 94.230469 341.863281 96.769531 343.078125 99.335938 C 344.292969 101.902344 345.445312 104.496094 346.53125 107.121094 C 347.621094 109.742188 348.640625 112.390625 349.601562 115.066406 C 350.558594 117.738281 351.449219 120.433594 352.273438 123.152344 C 353.097656 125.867188 353.855469 128.605469 354.546875 131.359375 C 355.238281 134.113281 355.859375 136.882812 356.414062 139.667969 C 356.96875 142.453125 357.453125 145.25 357.871094 148.058594 C 358.285156 150.867188 358.632812 153.683594 358.914062 156.507812 C 359.191406 159.335938 359.402344 162.164062 359.539062 165 C 359.679688 167.835938 359.75 170.675781 359.75 173.515625 Z M 359.75 173.515625 "/></g><path style=" stroke:none;fill-rule:evenodd;fill:#ffa38d;fill-opacity:1;" d="M 136.589844 160.097656 C 120.9375 148.246094 104.527344 138.328125 89.023438 127.503906 C 70.378906 114.507812 88.484375 103.347656 90.40625 103.828125 C 81.4375 98.296875 81.644531 89.976562 85.28125 86.035156 C 88.90625 82.097656 95.023438 81.179688 100.703125 84.488281 C 93.617188 76.140625 99.210938 59.679688 117.558594 68.746094 C 116.394531 56.851562 127.359375 52.078125 149.75 65.851562 C 176.59375 82.359375 178.5625 80.953125 204.171875 99.3125 C 236.449219 122.433594 226.566406 130.347656 245.003906 145.496094 C 253.0625 152.117188 310.460938 188.644531 354.390625 216.375 C 346.875 245.882812 331.789062 272.382812 311.3125 293.667969 C 294.789062 276.816406 270.3125 252.699219 246.554688 232.433594 C 241.082031 227.769531 235.644531 223.300781 230.351562 219.175781 C 224.34375 214.492188 218.519531 210.246094 213.035156 206.648438 C 211.902344 205.898438 210.78125 205.175781 209.679688 204.480469 C 202.917969 200.261719 196.753906 197.117188 191.503906 195.484375 C 191.367188 195.4375 191.226562 195.398438 191.082031 195.351562 C 188.847656 194.683594 186.78125 194.285156 184.90625 194.210938 C 179.617188 193.976562 174.785156 193.980469 170.359375 194.140625 C 161.769531 194.460938 154.679688 195.390625 148.691406 196.421875 C 148.683594 196.433594 148.675781 196.433594 148.675781 196.433594 C 141.085938 197.742188 135.273438 199.222656 130.421875 199.84375 C 127.515625 200.214844 124.953125 200.273438 122.566406 199.8125 C 113.867188 198.101562 115.09375 187.707031 128.945312 179.101562 C 133.320312 176.378906 138.945312 173.835938 145.925781 171.800781 C 146.03125 171.769531 146.128906 171.738281 146.226562 171.710938 C 149.417969 170.792969 149.824219 170.828125 149.683594 170.71875 C 148.269531 169.480469 146.84375 168.261719 145.398438 167.070312 C 142.5 164.664062 139.554688 162.347656 136.589844 160.097656 Z M 136.589844 160.097656 "/><path style=" stroke:none;fill-rule:evenodd;fill:#ffa38c;fill-opacity:1;" d="M 118.054688 68.6875 C 152.144531 90.25 170.808594 102.179688 173.820312 103.957031 "/><path style=" stroke:none;fill-rule:evenodd;fill:#c04c4c;fill-opacity:1;" d="M 117.152344 70.125 C 116.355469 69.621094 116.113281 68.566406 116.617188 67.773438 C 117.121094 66.980469 118.179688 66.746094 118.972656 67.25 C 153.027344 88.789062 171.675781 100.722656 174.6875 102.496094 C 175.496094 102.972656 175.765625 104.015625 175.289062 104.824219 C 174.816406 105.628906 173.761719 105.902344 172.953125 105.425781 C 169.941406 103.640625 151.257812 91.703125 117.152344 70.125 Z M 117.152344 70.125 "/><path style=" stroke:none;fill-rule:evenodd;fill:#ffa38c;fill-opacity:1;" d="M 100.675781 84.335938 C 103.996094 86.496094 141.425781 110.945312 158.851562 122.332031 "/><path style=" stroke:none;fill-rule:evenodd;fill:#c04c4c;fill-opacity:1;" d="M 99.742188 85.757812 C 98.957031 85.242188 98.730469 84.1875 99.253906 83.398438 C 99.757812 82.617188 100.816406 82.390625 101.601562 82.90625 L 159.789062 120.898438 C 160.574219 121.414062 160.789062 122.472656 160.273438 123.257812 C 159.761719 124.042969 158.710938 124.265625 157.917969 123.753906 Z M 99.742188 85.757812 "/><path style=" stroke:none;fill-rule:evenodd;fill:#ffa38c;fill-opacity:1;" d="M 90.378906 103.839844 C 126.007812 127.257812 121.679688 123.257812 150.449219 143.3125 "/><path style=" stroke:none;fill-rule:evenodd;fill:#c04c4c;fill-opacity:1;" d="M 89.4375 105.265625 C 88.65625 104.742188 88.433594 103.691406 88.957031 102.90625 C 89.472656 102.121094 90.53125 101.90625 91.316406 102.417969 C 126.972656 125.851562 122.636719 121.851562 151.421875 141.925781 C 152.195312 142.457031 152.382812 143.519531 151.839844 144.289062 C 151.304688 145.058594 150.242188 145.246094 149.472656 144.714844 C 120.726562 124.675781 125.050781 128.664062 89.4375 105.265625 Z M 89.4375 105.265625 "/><path style=" stroke:none;fill-rule:evenodd;fill:#f8896e;fill-opacity:1;" d="M 136.601562 160.109375 C 139.125 159.1875 142.058594 159.730469 145.105469 161.601562 C 144.992188 142.339844 161.242188 144.398438 165.394531 153.835938 C 164.933594 147.667969 168.234375 142.871094 173.066406 141.429688 C 177.902344 139.980469 185.039062 143.234375 186.023438 153.105469 C 186.410156 151.28125 203.332031 140.566406 206.652344 161.699219 C 208.976562 176.449219 210.503906 191.480469 213.0625 206.648438 C 214.410156 214.679688 216.046875 222.753906 218.238281 230.835938 C 218.273438 231.003906 218.414062 230.644531 220.503906 228.320312 C 223.886719 224.574219 227.210938 221.554688 230.367188 219.183594 C 245.171875 208.050781 256.402344 211.125 254.070312 219.898438 C 253.023438 223.855469 250.296875 227.574219 246.570312 232.449219 C 240.585938 240.25 232.011719 250.988281 223.609375 270.320312 C 221.226562 275.789062 220.945312 284.644531 222.09375 295.511719 C 223.480469 308.554688 226.925781 324.515625 231.308594 341.082031 C 216.898438 344.953125 201.753906 347.019531 186.132812 347.023438 C 178.507812 347.023438 171.007812 346.53125 163.648438 345.582031 C 160.960938 323.222656 158.667969 305.722656 157.554688 301.066406 C 152.324219 279.21875 141.542969 284.316406 135.269531 247.472656 C 131.082031 222.910156 131.820312 218.222656 130.4375 199.851562 C 130.179688 196.351562 129.832031 192.359375 129.371094 187.636719 C 129.0625 184.523438 128.933594 181.675781 128.960938 179.101562 C 129.070312 167.816406 132.1875 161.714844 136.601562 160.109375 Z M 136.601562 160.109375 "/><path style=" stroke:none;fill-rule:evenodd;fill:#ffa38c;fill-opacity:1;" d="M 144.851562 161.996094 C 149.054688 199.726562 151.464844 220.4375 151.726562 223.714844 "/><path style=" stroke:none;fill-rule:evenodd;fill:#c04c4c;fill-opacity:1;" d="M 143.15625 162.1875 C 143.054688 161.253906 143.726562 160.410156 144.660156 160.304688 C 145.59375 160.199219 146.4375 160.875 146.542969 161.808594 C 150.75 199.566406 153.160156 220.300781 153.425781 223.578125 C 153.5 224.515625 152.796875 225.339844 151.863281 225.414062 C 150.925781 225.488281 150.109375 224.789062 150.027344 223.851562 C 149.765625 220.570312 147.355469 199.878906 143.15625 162.1875 Z M 143.15625 162.1875 "/><path style=" stroke:none;fill-rule:evenodd;fill:#ffa38c;fill-opacity:1;" d="M 165.273438 153.75 C 165.738281 157.453125 171.007812 199.195312 173.464844 218.632812 "/><path style=" stroke:none;fill-rule:evenodd;fill:#c04c4c;fill-opacity:1;" d="M 163.578125 153.957031 C 163.460938 153.027344 164.128906 152.179688 165.0625 152.0625 C 165.992188 151.945312 166.84375 152.605469 166.960938 153.535156 L 175.152344 218.421875 C 175.269531 219.351562 174.609375 220.203125 173.679688 220.320312 C 172.746094 220.4375 171.886719 219.773438 171.769531 218.84375 Z M 163.578125 153.957031 "/><path style=" stroke:none;fill-rule:evenodd;fill:#ffa38c;fill-opacity:1;" d="M 186.046875 153.085938 C 191.1875 192.882812 189.585938 187.574219 194.707031 220.179688 "/><path style=" stroke:none;fill-rule:evenodd;fill:#c04c4c;fill-opacity:1;" d="M 184.359375 153.300781 C 184.242188 152.367188 184.894531 151.511719 185.824219 151.394531 C 186.761719 151.269531 187.613281 151.929688 187.738281 152.867188 C 192.867188 192.632812 191.273438 187.328125 196.390625 219.910156 C 196.539062 220.84375 195.902344 221.707031 194.976562 221.859375 C 194.046875 222.007812 193.171875 221.367188 193.03125 220.441406 C 187.902344 187.8125 189.5 193.128906 184.359375 153.300781 Z M 184.359375 153.300781 "/><path style=" stroke:none;fill-rule:nonzero;fill:#ee5c39;fill-opacity:1;" d="M 301.566406 203.546875 C 301.566406 203.917969 301.527344 204.285156 301.457031 204.644531 C 301.382812 205.007812 301.273438 205.363281 301.128906 205.703125 C 300.984375 206.046875 300.808594 206.371094 300.601562 206.675781 C 300.390625 206.984375 300.15625 207.269531 299.890625 207.53125 C 299.625 207.792969 299.335938 208.027344 299.023438 208.230469 C 298.710938 208.4375 298.378906 208.609375 298.03125 208.753906 C 297.683594 208.894531 297.328125 209 296.957031 209.074219 C 296.589844 209.144531 296.21875 209.179688 295.84375 209.179688 C 295.464844 209.179688 295.09375 209.144531 294.726562 209.074219 C 294.355469 209 294 208.894531 293.652344 208.753906 C 293.304688 208.609375 292.972656 208.4375 292.660156 208.230469 C 292.347656 208.027344 292.058594 207.792969 291.792969 207.53125 C 291.527344 207.269531 291.289062 206.984375 291.082031 206.675781 C 290.875 206.371094 290.695312 206.046875 290.554688 205.703125 C 290.410156 205.363281 290.300781 205.007812 290.226562 204.644531 C 290.152344 204.285156 290.117188 203.917969 290.117188 203.546875 C 290.117188 203.175781 290.152344 202.8125 290.226562 202.449219 C 290.300781 202.085938 290.410156 201.734375 290.554688 201.390625 C 290.695312 201.050781 290.875 200.726562 291.082031 200.417969 C 291.289062 200.109375 291.527344 199.824219 291.792969 199.5625 C 292.058594 199.300781 292.347656 199.066406 292.660156 198.863281 C 292.972656 198.65625 293.304688 198.484375 293.652344 198.34375 C 294 198.199219 294.355469 198.09375 294.726562 198.023438 C 295.09375 197.949219 295.464844 197.914062 295.84375 197.914062 C 296.21875 197.914062 296.589844 197.949219 296.957031 198.023438 C 297.328125 198.09375 297.683594 198.199219 298.03125 198.34375 C 298.378906 198.484375 298.710938 198.65625 299.023438 198.863281 C 299.335938 199.066406 299.625 199.300781 299.890625 199.5625 C 300.15625 199.824219 300.390625 200.109375 300.601562 200.417969 C 300.808594 200.726562 300.984375 201.050781 301.128906 201.390625 C 301.273438 201.734375 301.382812 202.085938 301.457031 202.449219 C 301.527344 202.8125 301.566406 203.175781 301.566406 203.546875 Z M 301.566406 203.546875 "/><path style=" stroke:none;fill-rule:nonzero;fill:#ee5c39;fill-opacity:1;" d="M 174.664062 306.046875 C 174.664062 306.417969 174.628906 306.785156 174.554688 307.148438 C 174.480469 307.507812 174.371094 307.863281 174.226562 308.203125 C 174.082031 308.546875 173.90625 308.871094 173.699219 309.175781 C 173.488281 309.484375 173.253906 309.769531 172.988281 310.03125 C 172.722656 310.292969 172.433594 310.527344 172.121094 310.730469 C 171.808594 310.9375 171.476562 311.109375 171.128906 311.253906 C 170.78125 311.394531 170.425781 311.5 170.054688 311.574219 C 169.6875 311.644531 169.316406 311.679688 168.941406 311.679688 C 168.5625 311.679688 168.191406 311.644531 167.824219 311.574219 C 167.453125 311.5 167.097656 311.394531 166.75 311.253906 C 166.402344 311.109375 166.070312 310.9375 165.757812 310.730469 C 165.445312 310.527344 165.15625 310.292969 164.890625 310.03125 C 164.625 309.769531 164.390625 309.484375 164.179688 309.175781 C 163.972656 308.871094 163.792969 308.546875 163.652344 308.203125 C 163.507812 307.863281 163.398438 307.507812 163.324219 307.148438 C 163.25 306.785156 163.214844 306.417969 163.214844 306.046875 C 163.214844 305.675781 163.25 305.3125 163.324219 304.949219 C 163.398438 304.585938 163.507812 304.234375 163.652344 303.890625 C 163.792969 303.550781 163.972656 303.226562 164.179688 302.917969 C 164.390625 302.609375 164.625 302.324219 164.890625 302.0625 C 165.15625 301.800781 165.445312 301.570312 165.757812 301.363281 C 166.070312 301.15625 166.402344 300.984375 166.75 300.84375 C 167.097656 300.699219 167.453125 300.59375 167.824219 300.523438 C 168.191406 300.449219 168.5625 300.414062 168.941406 300.414062 C 169.316406 300.414062 169.6875 300.449219 170.054688 300.523438 C 170.425781 300.59375 170.78125 300.699219 171.128906 300.84375 C 171.476562 300.984375 171.808594 301.15625 172.121094 301.363281 C 172.433594 301.570312 172.722656 301.800781 172.988281 302.0625 C 173.253906 302.324219 173.488281 302.609375 173.699219 302.917969 C 173.90625 303.226562 174.082031 303.550781 174.226562 303.890625 C 174.371094 304.234375 174.480469 304.585938 174.554688 304.949219 C 174.628906 305.3125 174.664062 305.675781 174.664062 306.046875 Z M 174.664062 306.046875 "/><path style=" stroke:none;fill-rule:nonzero;fill:#ee5c39;fill-opacity:1;" d="M 189.757812 333.84375 C 189.757812 334.214844 189.71875 334.582031 189.648438 334.945312 C 189.574219 335.308594 189.464844 335.660156 189.320312 336 C 189.175781 336.34375 189 336.667969 188.792969 336.976562 C 188.582031 337.28125 188.34375 337.566406 188.078125 337.828125 C 187.8125 338.089844 187.523438 338.324219 187.210938 338.53125 C 186.898438 338.734375 186.570312 338.910156 186.222656 339.050781 C 185.875 339.191406 185.519531 339.296875 185.148438 339.371094 C 184.78125 339.441406 184.410156 339.480469 184.03125 339.480469 C 183.65625 339.480469 183.285156 339.441406 182.914062 339.371094 C 182.546875 339.296875 182.1875 339.191406 181.84375 339.050781 C 181.496094 338.910156 181.164062 338.734375 180.851562 338.53125 C 180.539062 338.324219 180.25 338.089844 179.984375 337.828125 C 179.71875 337.566406 179.480469 337.28125 179.273438 336.976562 C 179.0625 336.667969 178.886719 336.34375 178.742188 336 C 178.601562 335.660156 178.492188 335.308594 178.417969 334.945312 C 178.34375 334.582031 178.308594 334.214844 178.308594 333.84375 C 178.308594 333.476562 178.34375 333.109375 178.417969 332.746094 C 178.492188 332.382812 178.601562 332.03125 178.742188 331.6875 C 178.886719 331.347656 179.0625 331.023438 179.273438 330.714844 C 179.480469 330.40625 179.71875 330.121094 179.984375 329.859375 C 180.25 329.597656 180.539062 329.367188 180.851562 329.160156 C 181.164062 328.953125 181.496094 328.78125 181.839844 328.640625 C 182.1875 328.5 182.546875 328.390625 182.914062 328.320312 C 183.285156 328.246094 183.65625 328.210938 184.03125 328.210938 C 184.410156 328.210938 184.78125 328.246094 185.148438 328.320312 C 185.519531 328.390625 185.875 328.5 186.222656 328.640625 C 186.570312 328.78125 186.898438 328.953125 187.210938 329.160156 C 187.523438 329.367188 187.8125 329.597656 188.078125 329.859375 C 188.34375 330.121094 188.582031 330.40625 188.792969 330.714844 C 189 331.023438 189.175781 331.347656 189.320312 331.6875 C 189.464844 332.03125 189.574219 332.382812 189.648438 332.746094 C 189.71875 333.109375 189.757812 333.476562 189.757812 333.84375 Z M 189.757812 333.84375 "/><path style=" stroke:none;fill-rule:nonzero;fill:#ee5c39;fill-opacity:1;" d="M 267.800781 211.042969 C 267.800781 211.410156 267.765625 211.777344 267.691406 212.140625 C 267.617188 212.503906 267.511719 212.855469 267.367188 213.195312 C 267.222656 213.539062 267.046875 213.863281 266.835938 214.171875 C 266.628906 214.480469 266.390625 214.761719 266.125 215.023438 C 265.859375 215.285156 265.570312 215.519531 265.257812 215.726562 C 264.945312 215.929688 264.613281 216.105469 264.269531 216.246094 C 263.921875 216.386719 263.5625 216.496094 263.195312 216.566406 C 262.824219 216.640625 262.453125 216.675781 262.078125 216.675781 C 261.703125 216.675781 261.328125 216.640625 260.960938 216.566406 C 260.59375 216.496094 260.234375 216.386719 259.886719 216.246094 C 259.539062 216.105469 259.210938 215.929688 258.898438 215.726562 C 258.585938 215.519531 258.296875 215.285156 258.03125 215.023438 C 257.765625 214.761719 257.527344 214.480469 257.316406 214.171875 C 257.109375 213.863281 256.933594 213.539062 256.789062 213.195312 C 256.644531 212.855469 256.535156 212.503906 256.464844 212.140625 C 256.390625 211.777344 256.351562 211.410156 256.351562 211.042969 C 256.351562 210.671875 256.390625 210.304688 256.464844 209.941406 C 256.535156 209.578125 256.644531 209.226562 256.789062 208.886719 C 256.933594 208.542969 257.109375 208.21875 257.316406 207.910156 C 257.527344 207.601562 257.765625 207.320312 258.03125 207.058594 C 258.296875 206.796875 258.585938 206.5625 258.898438 206.355469 C 259.210938 206.152344 259.539062 205.976562 259.886719 205.835938 C 260.234375 205.695312 260.59375 205.585938 260.960938 205.515625 C 261.328125 205.441406 261.703125 205.40625 262.078125 205.40625 C 262.453125 205.40625 262.824219 205.441406 263.195312 205.515625 C 263.5625 205.585938 263.921875 205.695312 264.269531 205.835938 C 264.613281 205.976562 264.945312 206.152344 265.257812 206.355469 C 265.570312 206.5625 265.859375 206.796875 266.125 207.058594 C 266.390625 207.320312 266.628906 207.601562 266.835938 207.910156 C 267.046875 208.21875 267.222656 208.542969 267.367188 208.886719 C 267.511719 209.226562 267.617188 209.578125 267.691406 209.941406 C 267.765625 210.304688 267.800781 210.671875 267.800781 211.042969 Z M 267.800781 211.042969 "/><path style=" stroke:none;fill-rule:nonzero;fill:#ee5c39;fill-opacity:1;" d="M 257.753906 165.621094 C 257.753906 165.992188 257.714844 166.359375 257.644531 166.722656 C 257.570312 167.085938 257.460938 167.4375 257.316406 167.777344 C 257.171875 168.121094 256.996094 168.445312 256.789062 168.753906 C 256.578125 169.058594 256.34375 169.34375 256.078125 169.605469 C 255.808594 169.867188 255.519531 170.101562 255.207031 170.304688 C 254.894531 170.511719 254.566406 170.6875 254.21875 170.828125 C 253.871094 170.96875 253.515625 171.074219 253.144531 171.148438 C 252.777344 171.21875 252.40625 171.257812 252.027344 171.257812 C 251.652344 171.257812 251.28125 171.21875 250.914062 171.148438 C 250.542969 171.074219 250.183594 170.96875 249.839844 170.828125 C 249.492188 170.6875 249.160156 170.511719 248.847656 170.304688 C 248.535156 170.101562 248.246094 169.867188 247.980469 169.605469 C 247.714844 169.34375 247.476562 169.058594 247.269531 168.753906 C 247.058594 168.445312 246.882812 168.121094 246.738281 167.777344 C 246.597656 167.4375 246.488281 167.085938 246.414062 166.722656 C 246.339844 166.359375 246.304688 165.992188 246.304688 165.621094 C 246.304688 165.253906 246.339844 164.886719 246.414062 164.523438 C 246.488281 164.160156 246.597656 163.808594 246.742188 163.464844 C 246.882812 163.125 247.058594 162.800781 247.269531 162.492188 C 247.476562 162.183594 247.714844 161.898438 247.980469 161.636719 C 248.246094 161.375 248.535156 161.144531 248.847656 160.9375 C 249.160156 160.730469 249.492188 160.558594 249.839844 160.417969 C 250.183594 160.277344 250.542969 160.167969 250.914062 160.097656 C 251.28125 160.023438 251.652344 159.988281 252.027344 159.988281 C 252.40625 159.988281 252.777344 160.023438 253.144531 160.097656 C 253.515625 160.167969 253.871094 160.277344 254.21875 160.417969 C 254.566406 160.558594 254.894531 160.730469 255.207031 160.9375 C 255.519531 161.144531 255.808594 161.375 256.078125 161.636719 C 256.34375 161.898438 256.578125 162.183594 256.789062 162.492188 C 256.996094 162.800781 257.171875 163.125 257.316406 163.464844 C 257.460938 163.808594 257.570312 164.160156 257.644531 164.523438 C 257.714844 164.886719 257.753906 165.253906 257.753906 165.621094 Z M 257.753906 165.621094 "/><path style=" stroke:none;fill-rule:nonzero;fill:#ee5c39;fill-opacity:1;" d="M 205.996094 127.980469 C 205.996094 128.351562 205.960938 128.71875 205.886719 129.082031 C 205.8125 129.441406 205.707031 129.796875 205.5625 130.136719 C 205.417969 130.480469 205.242188 130.804688 205.03125 131.109375 C 204.824219 131.417969 204.585938 131.703125 204.320312 131.964844 C 204.054688 132.226562 203.765625 132.460938 203.453125 132.664062 C 203.140625 132.871094 202.8125 133.042969 202.464844 133.1875 C 202.117188 133.328125 201.757812 133.433594 201.390625 133.507812 C 201.023438 133.578125 200.648438 133.613281 200.273438 133.613281 C 199.898438 133.613281 199.527344 133.578125 199.15625 133.507812 C 198.789062 133.433594 198.429688 133.328125 198.082031 133.1875 C 197.734375 133.042969 197.40625 132.871094 197.09375 132.664062 C 196.78125 132.460938 196.492188 132.226562 196.226562 131.964844 C 195.960938 131.703125 195.722656 131.417969 195.515625 131.109375 C 195.304688 130.804688 195.128906 130.480469 194.984375 130.136719 C 194.839844 129.796875 194.734375 129.441406 194.660156 129.082031 C 194.585938 128.71875 194.550781 128.351562 194.550781 127.980469 C 194.550781 127.609375 194.585938 127.246094 194.660156 126.882812 C 194.734375 126.519531 194.839844 126.167969 194.984375 125.824219 C 195.128906 125.484375 195.304688 125.160156 195.515625 124.851562 C 195.722656 124.542969 195.960938 124.257812 196.226562 123.996094 C 196.492188 123.734375 196.78125 123.503906 197.09375 123.296875 C 197.40625 123.089844 197.734375 122.917969 198.082031 122.777344 C 198.429688 122.632812 198.789062 122.527344 199.15625 122.457031 C 199.527344 122.382812 199.898438 122.347656 200.273438 122.347656 C 200.648438 122.347656 201.023438 122.382812 201.390625 122.457031 C 201.757812 122.527344 202.117188 122.632812 202.464844 122.777344 C 202.8125 122.917969 203.140625 123.089844 203.453125 123.296875 C 203.765625 123.503906 204.054688 123.734375 204.320312 123.996094 C 204.585938 124.257812 204.824219 124.542969 205.03125 124.851562 C 205.242188 125.160156 205.417969 125.484375 205.5625 125.824219 C 205.707031 126.167969 205.8125 126.519531 205.886719 126.882812 C 205.960938 127.246094 205.996094 127.609375 205.996094 127.980469 Z M 205.996094 127.980469 "/><path style=" stroke:none;fill-rule:nonzero;fill:#ee5c39;fill-opacity:1;" d="M 297.625 254.09375 C 297.625 254.414062 297.59375 254.734375 297.527344 255.050781 C 297.464844 255.367188 297.371094 255.675781 297.242188 255.976562 C 297.117188 256.273438 296.964844 256.558594 296.78125 256.824219 C 296.597656 257.09375 296.390625 257.34375 296.160156 257.570312 C 295.925781 257.800781 295.675781 258.003906 295.402344 258.183594 C 295.128906 258.363281 294.839844 258.515625 294.539062 258.636719 C 294.234375 258.761719 293.921875 258.855469 293.601562 258.917969 C 293.277344 258.980469 292.953125 259.011719 292.625 259.011719 C 292.296875 259.011719 291.972656 258.980469 291.648438 258.917969 C 291.328125 258.855469 291.015625 258.761719 290.710938 258.636719 C 290.410156 258.515625 290.121094 258.363281 289.847656 258.183594 C 289.574219 258.003906 289.320312 257.800781 289.089844 257.570312 C 288.859375 257.34375 288.652344 257.09375 288.46875 256.824219 C 288.285156 256.558594 288.132812 256.273438 288.007812 255.976562 C 287.878906 255.675781 287.785156 255.367188 287.722656 255.050781 C 287.65625 254.734375 287.625 254.414062 287.625 254.09375 C 287.625 253.769531 287.65625 253.449219 287.722656 253.132812 C 287.785156 252.816406 287.878906 252.507812 288.007812 252.210938 C 288.132812 251.910156 288.285156 251.628906 288.46875 251.359375 C 288.652344 251.089844 288.859375 250.839844 289.089844 250.613281 C 289.320312 250.382812 289.574219 250.179688 289.847656 250 C 290.121094 249.820312 290.410156 249.667969 290.710938 249.546875 C 291.015625 249.421875 291.328125 249.328125 291.648438 249.265625 C 291.972656 249.203125 292.296875 249.171875 292.625 249.171875 C 292.953125 249.171875 293.277344 249.203125 293.601562 249.265625 C 293.921875 249.328125 294.234375 249.421875 294.539062 249.546875 C 294.839844 249.667969 295.128906 249.820312 295.402344 250 C 295.675781 250.179688 295.925781 250.382812 296.160156 250.613281 C 296.390625 250.839844 296.597656 251.089844 296.78125 251.359375 C 296.964844 251.628906 297.117188 251.910156 297.242188 252.210938 C 297.371094 252.507812 297.464844 252.816406 297.527344 253.132812 C 297.59375 253.449219 297.625 253.769531 297.625 254.09375 Z M 297.625 254.09375 "/><path style=" stroke:none;fill-rule:nonzero;fill:#ee5c39;fill-opacity:1;" d="M 228.992188 184.476562 C 228.992188 184.796875 228.960938 185.117188 228.898438 185.433594 C 228.832031 185.753906 228.738281 186.058594 228.613281 186.359375 C 228.488281 186.65625 228.332031 186.941406 228.152344 187.210938 C 227.96875 187.476562 227.761719 187.726562 227.53125 187.953125 C 227.296875 188.183594 227.042969 188.386719 226.773438 188.566406 C 226.5 188.746094 226.210938 188.898438 225.90625 189.019531 C 225.605469 189.144531 225.292969 189.238281 224.96875 189.300781 C 224.648438 189.363281 224.324219 189.394531 223.996094 189.394531 C 223.667969 189.394531 223.339844 189.363281 223.019531 189.300781 C 222.699219 189.238281 222.382812 189.144531 222.082031 189.019531 C 221.777344 188.898438 221.488281 188.746094 221.21875 188.566406 C 220.945312 188.386719 220.691406 188.183594 220.460938 187.953125 C 220.226562 187.726562 220.019531 187.476562 219.839844 187.210938 C 219.65625 186.941406 219.5 186.65625 219.375 186.359375 C 219.25 186.058594 219.15625 185.753906 219.089844 185.433594 C 219.027344 185.117188 218.996094 184.796875 218.996094 184.476562 C 218.996094 184.152344 219.027344 183.832031 219.089844 183.515625 C 219.15625 183.199219 219.25 182.890625 219.375 182.59375 C 219.5 182.292969 219.65625 182.011719 219.839844 181.742188 C 220.019531 181.472656 220.226562 181.222656 220.460938 180.996094 C 220.691406 180.765625 220.945312 180.5625 221.21875 180.382812 C 221.488281 180.203125 221.777344 180.054688 222.082031 179.929688 C 222.382812 179.804688 222.699219 179.710938 223.019531 179.648438 C 223.339844 179.585938 223.667969 179.554688 223.996094 179.554688 C 224.324219 179.554688 224.648438 179.585938 224.96875 179.648438 C 225.292969 179.710938 225.605469 179.804688 225.90625 179.929688 C 226.210938 180.054688 226.5 180.203125 226.773438 180.382812 C 227.042969 180.5625 227.296875 180.769531 227.53125 180.996094 C 227.761719 181.222656 227.96875 181.472656 228.152344 181.742188 C 228.332031 182.011719 228.488281 182.292969 228.613281 182.59375 C 228.738281 182.890625 228.832031 183.199219 228.898438 183.515625 C 228.960938 183.832031 228.992188 184.152344 228.992188 184.476562 Z M 228.992188 184.476562 "/><path style=" stroke:none;fill-rule:nonzero;fill:#ee5c39;fill-opacity:1;" d="M 202.195312 294.132812 C 202.195312 294.457031 202.164062 294.777344 202.101562 295.09375 C 202.035156 295.410156 201.941406 295.71875 201.816406 296.015625 C 201.691406 296.316406 201.535156 296.597656 201.351562 296.867188 C 201.171875 297.136719 200.964844 297.382812 200.730469 297.613281 C 200.5 297.839844 200.246094 298.046875 199.972656 298.226562 C 199.699219 298.40625 199.414062 298.554688 199.109375 298.679688 C 198.804688 298.804688 198.492188 298.898438 198.171875 298.960938 C 197.851562 299.023438 197.523438 299.054688 197.195312 299.054688 C 196.867188 299.054688 196.542969 299.023438 196.222656 298.960938 C 195.898438 298.898438 195.585938 298.804688 195.285156 298.679688 C 194.980469 298.554688 194.691406 298.40625 194.417969 298.226562 C 194.144531 298.046875 193.894531 297.839844 193.660156 297.613281 C 193.429688 297.382812 193.222656 297.136719 193.039062 296.867188 C 192.859375 296.597656 192.703125 296.316406 192.578125 296.015625 C 192.453125 295.71875 192.359375 295.410156 192.292969 295.09375 C 192.230469 294.777344 192.199219 294.457031 192.199219 294.132812 C 192.199219 293.8125 192.230469 293.492188 192.292969 293.175781 C 192.359375 292.855469 192.453125 292.550781 192.578125 292.25 C 192.703125 291.953125 192.859375 291.667969 193.039062 291.398438 C 193.222656 291.132812 193.429688 290.882812 193.660156 290.65625 C 193.894531 290.425781 194.144531 290.222656 194.417969 290.042969 C 194.691406 289.863281 194.980469 289.710938 195.285156 289.589844 C 195.585938 289.464844 195.898438 289.371094 196.222656 289.308594 C 196.542969 289.246094 196.867188 289.214844 197.195312 289.214844 C 197.523438 289.214844 197.851562 289.246094 198.171875 289.308594 C 198.492188 289.371094 198.804688 289.464844 199.109375 289.589844 C 199.414062 289.710938 199.699219 289.863281 199.972656 290.042969 C 200.246094 290.222656 200.5 290.425781 200.730469 290.65625 C 200.964844 290.882812 201.171875 291.132812 201.351562 291.398438 C 201.535156 291.667969 201.691406 291.953125 201.816406 292.25 C 201.941406 292.550781 202.035156 292.855469 202.101562 293.175781 C 202.164062 293.492188 202.195312 293.8125 202.195312 294.132812 Z M 202.195312 294.132812 "/><path style=" stroke:none;fill-rule:nonzero;fill:#ee5c39;fill-opacity:1;" d="M 187.421875 267.578125 C 187.421875 267.902344 187.390625 268.222656 187.324219 268.539062 C 187.261719 268.855469 187.164062 269.164062 187.039062 269.460938 C 186.914062 269.761719 186.761719 270.042969 186.578125 270.3125 C 186.394531 270.582031 186.1875 270.832031 185.957031 271.058594 C 185.722656 271.289062 185.472656 271.492188 185.199219 271.671875 C 184.925781 271.851562 184.636719 272.003906 184.335938 272.125 C 184.03125 272.25 183.71875 272.34375 183.398438 272.40625 C 183.074219 272.46875 182.75 272.5 182.421875 272.5 C 182.09375 272.5 181.769531 272.46875 181.445312 272.40625 C 181.125 272.34375 180.8125 272.25 180.507812 272.125 C 180.207031 272.003906 179.917969 271.851562 179.644531 271.671875 C 179.371094 271.492188 179.117188 271.289062 178.886719 271.058594 C 178.65625 270.832031 178.445312 270.582031 178.265625 270.3125 C 178.082031 270.042969 177.929688 269.761719 177.800781 269.460938 C 177.675781 269.164062 177.582031 268.855469 177.519531 268.539062 C 177.453125 268.222656 177.421875 267.902344 177.421875 267.578125 C 177.421875 267.257812 177.453125 266.9375 177.519531 266.621094 C 177.582031 266.304688 177.675781 265.996094 177.804688 265.695312 C 177.929688 265.398438 178.082031 265.113281 178.265625 264.847656 C 178.445312 264.578125 178.65625 264.328125 178.886719 264.101562 C 179.117188 263.871094 179.371094 263.667969 179.644531 263.488281 C 179.917969 263.308594 180.203125 263.15625 180.507812 263.035156 C 180.8125 262.910156 181.125 262.816406 181.445312 262.753906 C 181.769531 262.691406 182.09375 262.660156 182.421875 262.660156 C 182.75 262.660156 183.074219 262.691406 183.398438 262.753906 C 183.71875 262.816406 184.03125 262.910156 184.335938 263.035156 C 184.636719 263.15625 184.925781 263.308594 185.199219 263.488281 C 185.472656 263.667969 185.722656 263.871094 185.957031 264.101562 C 186.1875 264.328125 186.394531 264.578125 186.578125 264.847656 C 186.761719 265.113281 186.914062 265.398438 187.039062 265.695312 C 187.164062 265.996094 187.261719 266.304688 187.324219 266.621094 C 187.390625 266.9375 187.421875 267.257812 187.421875 267.578125 Z M 187.421875 267.578125 "/><path style=" stroke:none;fill-rule:nonzero;fill:#ee5c39;fill-opacity:1;" d="M 202.792969 246.429688 C 202.792969 246.753906 202.761719 247.074219 202.695312 247.390625 C 202.632812 247.707031 202.539062 248.015625 202.410156 248.3125 C 202.285156 248.613281 202.132812 248.894531 201.949219 249.164062 C 201.765625 249.433594 201.558594 249.679688 201.328125 249.910156 C 201.097656 250.136719 200.84375 250.34375 200.570312 250.523438 C 200.296875 250.699219 200.007812 250.851562 199.707031 250.976562 C 199.402344 251.101562 199.089844 251.191406 198.769531 251.257812 C 198.445312 251.320312 198.121094 251.351562 197.792969 251.351562 C 197.464844 251.351562 197.140625 251.320312 196.816406 251.257812 C 196.496094 251.191406 196.183594 251.101562 195.878906 250.976562 C 195.578125 250.851562 195.289062 250.699219 195.015625 250.523438 C 194.742188 250.34375 194.492188 250.136719 194.257812 249.910156 C 194.027344 249.679688 193.820312 249.433594 193.636719 249.164062 C 193.453125 248.894531 193.300781 248.613281 193.175781 248.3125 C 193.046875 248.015625 192.953125 247.707031 192.890625 247.390625 C 192.824219 247.074219 192.792969 246.753906 192.792969 246.429688 C 192.792969 246.105469 192.824219 245.789062 192.890625 245.46875 C 192.953125 245.152344 193.050781 244.847656 193.175781 244.546875 C 193.300781 244.25 193.453125 243.964844 193.636719 243.695312 C 193.820312 243.429688 194.027344 243.179688 194.257812 242.949219 C 194.492188 242.722656 194.742188 242.519531 195.015625 242.339844 C 195.289062 242.160156 195.578125 242.007812 195.878906 241.882812 C 196.183594 241.761719 196.496094 241.667969 196.816406 241.605469 C 197.140625 241.542969 197.464844 241.511719 197.792969 241.511719 C 198.121094 241.511719 198.445312 241.542969 198.769531 241.605469 C 199.089844 241.667969 199.402344 241.761719 199.707031 241.882812 C 200.007812 242.007812 200.296875 242.160156 200.570312 242.339844 C 200.84375 242.519531 201.097656 242.722656 201.328125 242.949219 C 201.558594 243.179688 201.765625 243.429688 201.949219 243.695312 C 202.132812 243.964844 202.285156 244.25 202.410156 244.546875 C 202.539062 244.847656 202.632812 245.152344 202.695312 245.46875 C 202.761719 245.789062 202.792969 246.105469 202.792969 246.429688 Z M 202.792969 246.429688 "/><path style=" stroke:none;fill-rule:nonzero;fill:#ee5c39;fill-opacity:1;" d="M 216.796875 324.082031 C 216.796875 324.40625 216.765625 324.726562 216.703125 325.042969 C 216.636719 325.359375 216.542969 325.667969 216.417969 325.964844 C 216.292969 326.261719 216.136719 326.546875 215.957031 326.816406 C 215.773438 327.085938 215.566406 327.332031 215.335938 327.5625 C 215.101562 327.789062 214.847656 327.992188 214.578125 328.171875 C 214.304688 328.351562 214.015625 328.503906 213.710938 328.628906 C 213.410156 328.75 213.097656 328.84375 212.773438 328.90625 C 212.453125 328.972656 212.128906 329.003906 211.800781 329.003906 C 211.472656 329.003906 211.144531 328.972656 210.824219 328.90625 C 210.503906 328.84375 210.1875 328.75 209.886719 328.628906 C 209.582031 328.503906 209.292969 328.351562 209.023438 328.171875 C 208.75 327.992188 208.496094 327.789062 208.265625 327.5625 C 208.03125 327.332031 207.824219 327.085938 207.644531 326.816406 C 207.460938 326.546875 207.304688 326.261719 207.179688 325.964844 C 207.054688 325.667969 206.960938 325.359375 206.894531 325.042969 C 206.832031 324.726562 206.800781 324.40625 206.800781 324.082031 C 206.800781 323.757812 206.832031 323.4375 206.894531 323.121094 C 206.960938 322.804688 207.054688 322.496094 207.179688 322.199219 C 207.304688 321.902344 207.460938 321.617188 207.644531 321.347656 C 207.824219 321.078125 208.03125 320.832031 208.265625 320.601562 C 208.496094 320.375 208.75 320.171875 209.023438 319.992188 C 209.292969 319.8125 209.582031 319.660156 209.886719 319.535156 C 210.1875 319.414062 210.503906 319.320312 210.824219 319.257812 C 211.144531 319.191406 211.472656 319.160156 211.800781 319.160156 C 212.128906 319.160156 212.453125 319.191406 212.773438 319.257812 C 213.097656 319.320312 213.410156 319.414062 213.710938 319.535156 C 214.015625 319.660156 214.304688 319.8125 214.578125 319.992188 C 214.847656 320.171875 215.101562 320.375 215.335938 320.601562 C 215.566406 320.832031 215.773438 321.078125 215.957031 321.347656 C 216.136719 321.617188 216.292969 321.902344 216.417969 322.199219 C 216.542969 322.496094 216.636719 322.804688 216.703125 323.121094 C 216.765625 323.4375 216.796875 323.757812 216.796875 324.082031 Z M 216.796875 324.082031 "/><path style=" stroke:none;fill-rule:nonzero;fill:#ee5c39;fill-opacity:1;" d="M 333.851562 228.191406 C 333.851562 228.558594 333.816406 228.925781 333.742188 229.289062 C 333.667969 229.652344 333.5625 230.003906 333.417969 230.347656 C 333.273438 230.6875 333.097656 231.011719 332.886719 231.320312 C 332.679688 231.628906 332.441406 231.914062 332.175781 232.175781 C 331.910156 232.4375 331.621094 232.667969 331.308594 232.875 C 330.996094 233.082031 330.667969 233.253906 330.320312 233.394531 C 329.972656 233.535156 329.613281 233.644531 329.246094 233.714844 C 328.875 233.789062 328.503906 233.824219 328.128906 233.824219 C 327.753906 233.824219 327.378906 233.789062 327.011719 233.714844 C 326.644531 233.644531 326.285156 233.535156 325.9375 233.394531 C 325.589844 233.253906 325.261719 233.082031 324.949219 232.875 C 324.636719 232.667969 324.347656 232.4375 324.082031 232.175781 C 323.816406 231.914062 323.578125 231.628906 323.371094 231.320312 C 323.160156 231.011719 322.984375 230.6875 322.839844 230.347656 C 322.695312 230.003906 322.585938 229.652344 322.515625 229.289062 C 322.441406 228.925781 322.40625 228.558594 322.40625 228.191406 C 322.40625 227.820312 322.441406 227.453125 322.515625 227.089844 C 322.585938 226.726562 322.695312 226.375 322.839844 226.035156 C 322.984375 225.691406 323.160156 225.367188 323.371094 225.058594 C 323.578125 224.753906 323.816406 224.46875 324.082031 224.207031 C 324.347656 223.945312 324.636719 223.710938 324.949219 223.503906 C 325.261719 223.300781 325.589844 223.125 325.9375 222.984375 C 326.285156 222.84375 326.644531 222.738281 327.011719 222.664062 C 327.378906 222.59375 327.753906 222.554688 328.128906 222.554688 C 328.503906 222.554688 328.878906 222.59375 329.246094 222.664062 C 329.613281 222.738281 329.972656 222.84375 330.320312 222.984375 C 330.667969 223.125 330.996094 223.300781 331.308594 223.503906 C 331.621094 223.710938 331.910156 223.945312 332.175781 224.207031 C 332.441406 224.46875 332.679688 224.753906 332.886719 225.058594 C 333.097656 225.367188 333.273438 225.691406 333.417969 226.035156 C 333.5625 226.375 333.667969 226.726562 333.742188 227.089844 C 333.816406 227.453125 333.851562 227.820312 333.851562 228.191406 Z M 333.851562 228.191406 "/><path style=" stroke:none;fill-rule:nonzero;fill:#ee5c39;fill-opacity:1;" d="M 162.53125 244.25 C 162.53125 244.621094 162.492188 244.988281 162.421875 245.347656 C 162.347656 245.710938 162.238281 246.0625 162.09375 246.40625 C 161.949219 246.746094 161.773438 247.074219 161.566406 247.378906 C 161.355469 247.6875 161.117188 247.972656 160.851562 248.234375 C 160.585938 248.496094 160.296875 248.730469 159.984375 248.933594 C 159.671875 249.140625 159.34375 249.3125 158.996094 249.457031 C 158.648438 249.597656 158.292969 249.703125 157.921875 249.777344 C 157.554688 249.847656 157.183594 249.882812 156.804688 249.882812 C 156.429688 249.882812 156.058594 249.847656 155.6875 249.777344 C 155.320312 249.703125 154.960938 249.597656 154.617188 249.457031 C 154.269531 249.3125 153.9375 249.140625 153.625 248.933594 C 153.3125 248.730469 153.023438 248.496094 152.757812 248.234375 C 152.492188 247.972656 152.253906 247.6875 152.046875 247.378906 C 151.835938 247.074219 151.660156 246.746094 151.515625 246.40625 C 151.375 246.0625 151.265625 245.710938 151.191406 245.347656 C 151.117188 244.988281 151.082031 244.621094 151.082031 244.25 C 151.082031 243.878906 151.117188 243.515625 151.191406 243.152344 C 151.265625 242.789062 151.375 242.4375 151.515625 242.09375 C 151.660156 241.753906 151.835938 241.425781 152.046875 241.121094 C 152.253906 240.8125 152.492188 240.527344 152.757812 240.265625 C 153.023438 240.003906 153.3125 239.769531 153.625 239.566406 C 153.9375 239.359375 154.269531 239.1875 154.613281 239.046875 C 154.960938 238.902344 155.320312 238.796875 155.6875 238.722656 C 156.058594 238.652344 156.429688 238.617188 156.804688 238.617188 C 157.183594 238.617188 157.554688 238.652344 157.921875 238.722656 C 158.292969 238.796875 158.648438 238.902344 158.996094 239.046875 C 159.34375 239.1875 159.671875 239.359375 159.984375 239.566406 C 160.296875 239.769531 160.585938 240.003906 160.851562 240.265625 C 161.117188 240.527344 161.355469 240.8125 161.566406 241.121094 C 161.773438 241.425781 161.949219 241.753906 162.09375 242.09375 C 162.238281 242.4375 162.347656 242.789062 162.421875 243.152344 C 162.492188 243.515625 162.53125 243.878906 162.53125 244.25 Z M 162.53125 244.25 "/></g></svg>