<svg xmlns="http://www.w3.org/2000/svg" xmlns:xlink="http://www.w3.org/1999/xlink" width="500" zoomAndPan="magnify" viewBox="0 0 375 374.999991" height="500" preserveAspectRatio="xMidYMid meet" version="1.2"><g id="2361d7b7a1"><path style=" stroke:none;fill-rule:nonzero;fill:#ffffff;fill-opacity:1;" d="M 349.261719 129.859375 L 346.25 108.1875 L 329.542969 98.199219 L 295.273438 82.542969 L 283.691406 80.667969 L 277.800781 78.644531 L 275.628906 76.585938 L 272.859375 73.070312 L 270.769531 72.472656 L 267.757812 72.921875 L 265.53125 74.492188 L 261.269531 72.921875 L 260.746094 71.574219 L 257.078125 64.019531 L 250.269531 62.074219 L 242.714844 61.175781 L 240.398438 61.925781 L 238.230469 63.550781 L 234.5625 63.550781 L 231.726562 62.671875 L 231.195312 58.78125 L 230.222656 55.640625 L 227.828125 53.917969 L 226.257812 50.925781 L 222.441406 48.007812 C 222.441406 48.007812 220.722656 43.746094 219.226562 43.894531 L 215.558594 44.269531 L 213.839844 45.269531 L 212.195312 46.4375 L 204.007812 45.269531 C 204.007812 45.269531 200.082031 44.292969 200.039062 44.792969 C 199.996094 45.292969 197.132812 46.4375 197.132812 46.4375 C 197.132812 46.4375 192.296875 39.355469 187.144531 39.257812 L 183.542969 39.632812 L 182.121094 40.453125 L 175.988281 44.492188 L 172.320312 43.519531 L 168.730469 43.671875 L 166.484375 47.109375 L 162.148438 46.898438 L 159.15625 47.570312 L 155.113281 51.226562 L 152.046875 55.042969 L 146.214844 53.621094 L 141.875 54.21875 L 138.808594 54.816406 L 136.261719 54.816406 L 133.644531 57.285156 L 132.523438 59.007812 L 129.679688 60.277344 L 127.660156 62.671875 L 126.6875 64.769531 L 119.730469 65.8125 L 116.960938 68.394531 L 115.765625 70.378906 L 115.242188 73.40625 L 115.242188 74.191406 L 113.820312 74.492188 L 108.585938 73.40625 L 106.863281 73.878906 L 105.21875 75.511719 L 103.570312 77.558594 L 96.839844 79.144531 L 93.171875 80.175781 L 55.921875 90.765625 L 48.140625 96.484375 C 48.140625 96.484375 43.050781 104.863281 43.050781 105.164062 C 43.050781 105.460938 31.578125 111.214844 31.578125 111.214844 L 28.601562 124.273438 C 28.601562 124.273438 41.101562 131.703125 41.027344 131.824219 C 40.957031 131.945312 46.195312 134.714844 46.417969 134.9375 C 46.644531 135.160156 71.300781 141.707031 71.726562 141.613281 C 72.152344 141.519531 92.066406 146.097656 92.066406 146.097656 C 92.066406 146.097656 98.933594 148.402344 101.402344 148.402344 C 103.871094 148.402344 110.15625 148.402344 110.15625 148.402344 L 144.566406 155.285156 C 144.566406 155.285156 158.929688 157.609375 159.378906 157.382812 C 159.828125 157.15625 167.757812 154.539062 167.757812 154.539062 L 219.375 157.398438 L 229.996094 156.109375 L 259.847656 151.988281 L 323.339844 147.480469 L 348.085938 130.46875 "/><path style=" stroke:none;fill-rule:nonzero;fill:#ede5d5;fill-opacity:1;" d="M 69.269531 94.03125 C 69.042969 93.425781 69.199219 92.984375 69.742188 92.710938 C 72.769531 91.171875 76.132812 91.488281 78.726562 93.707031 C 79.199219 94.113281 79.707031 94.484375 80.25 94.820312 C 80.40625 94.921875 80.613281 94.910156 80.765625 94.792969 C 81.25 94.410156 81.539062 93.9375 81.632812 93.367188 C 82.054688 90.839844 83.382812 89.125 85.621094 88.222656 C 86.429688 87.898438 86.71875 87.378906 87.019531 86.640625 C 87.996094 83.789062 91.382812 83.261719 93.933594 84 C 94.105469 84.046875 94.285156 83.996094 94.402344 83.859375 L 96.332031 81.59375 C 98.117188 80.359375 100.207031 79.992188 102.597656 80.480469 C 103.148438 80.59375 103.691406 80.417969 104.21875 79.945312 C 104.320312 79.855469 104.375 79.722656 104.367188 79.582031 L 104.25 77.824219 C 104.242188 77.722656 104.269531 77.625 104.320312 77.542969 C 104.613281 77.101562 104.488281 76.816406 103.949219 76.695312 C 104.742188 73.132812 106.8125 71.714844 110.152344 72.445312 C 111.109375 72.65625 111.9375 73.25 112.839844 73.707031 C 113.589844 74.082031 114.003906 73.855469 114.082031 73.019531 C 114.199219 71.773438 114.160156 70.269531 114.824219 69.15625 C 117.3125 65.015625 121.570312 63.804688 126.175781 63.855469 C 126.382812 63.855469 126.566406 63.714844 126.617188 63.511719 C 127.371094 60.578125 129.183594 58.613281 132.054688 57.621094 C 132.160156 57.582031 132.246094 57.511719 132.296875 57.417969 C 133.558594 55.1875 135.175781 53.445312 137.734375 53.402344 C 138.964844 53.378906 139.949219 53.949219 141.402344 53.226562 C 144.394531 51.746094 146.640625 51.519531 149.757812 52.851562 C 150.4375 53.140625 151.113281 53.40625 151.800781 53.648438 C 152.015625 53.722656 152.257812 53.625 152.359375 53.414062 C 154.410156 49.050781 157.832031 46.390625 162.628906 45.433594 C 163.214844 45.316406 164.46875 45.5 166.390625 45.980469 C 166.664062 46.046875 166.933594 45.855469 166.949219 45.574219 L 167.039062 44.121094 C 167.046875 44.011719 167.097656 43.90625 167.175781 43.832031 C 169.386719 41.664062 171.878906 41.339844 174.636719 42.867188 C 174.800781 42.957031 174.996094 42.9375 175.136719 42.824219 L 176.257812 41.929688 C 176.300781 41.898438 176.34375 41.871094 176.394531 41.855469 C 177.476562 41.484375 178.578125 41.320312 179.707031 41.375 C 179.859375 41.382812 180.003906 41.3125 180.09375 41.191406 C 180.53125 40.582031 180.738281 40.039062 181.359375 39.585938 C 183.984375 37.664062 186.671875 37.496094 189.417969 39.082031 C 190.789062 39.871094 191.214844 41.0625 190.695312 42.65625 C 190.460938 43.375 189.667969 43.59375 189.59375 42.585938 C 189.398438 39.941406 185.625 40.183594 183.929688 40.820312 C 181.886719 41.585938 179.535156 44.851562 177.878906 46.589844 C 177.382812 47.117188 176.855469 47.144531 176.308594 46.667969 C 174.113281 44.753906 172.285156 43.558594 169.222656 44.988281 C 166.722656 46.15625 166.992188 47.367188 166.613281 49.824219 C 166.515625 50.453125 166.292969 51.199219 165.550781 50.351562 C 165.480469 50.277344 165.441406 50.183594 165.4375 50.082031 C 165.316406 47.953125 164.144531 47.269531 161.933594 48.027344 C 158.488281 49.207031 155.929688 51.480469 154.246094 54.835938 C 154.203125 54.925781 154.125 55 154.03125 55.042969 L 153.730469 55.183594 C 153.542969 55.273438 153.464844 55.496094 153.566406 55.679688 C 154.144531 56.757812 154.234375 57.894531 153.835938 59.082031 C 153.796875 59.191406 153.714844 59.277344 153.601562 59.3125 C 153.054688 59.480469 151.957031 56.988281 151.488281 56.605469 C 147.960938 53.714844 144.359375 53.601562 140.691406 56.273438 C 140.652344 56.304688 140.617188 56.339844 140.585938 56.386719 L 140.347656 56.738281 C 140.050781 57.175781 139.789062 57.15625 139.566406 56.675781 C 139.46875 56.457031 139.332031 56.269531 139.167969 56.113281 C 138.914062 55.875 138.578125 55.765625 138.152344 55.796875 C 135.71875 55.964844 135.109375 57.921875 133.878906 59.597656 C 133.824219 59.671875 133.753906 59.71875 133.671875 59.75 L 130.785156 60.84375 C 130.121094 61.089844 129.785156 61.582031 129.773438 62.320312 C 129.714844 65.1875 127.996094 66.128906 125.351562 66.34375 C 122.125 66.605469 119.46875 67.097656 117.316406 69.671875 C 116.523438 70.617188 116.144531 71.566406 116.183594 72.515625 C 116.234375 73.679688 116.835938 74.582031 117.984375 75.222656 C 118.222656 75.355469 118.285156 75.671875 118.121094 75.886719 C 117.492188 76.710938 116.675781 77.253906 115.675781 77.515625 C 115.542969 77.554688 115.410156 77.527344 115.300781 77.449219 C 113.480469 76.167969 111.480469 74.585938 109.269531 74.535156 C 106.769531 74.488281 105.21875 75.824219 104.632812 78.554688 C 104.609375 78.660156 104.628906 78.777344 104.6875 78.871094 C 105.113281 79.613281 105.183594 80.363281 104.902344 81.113281 C 104.839844 81.277344 104.679688 81.390625 104.5 81.398438 C 103.742188 81.441406 102.507812 81.320312 100.804688 81.035156 C 98.726562 80.691406 95.660156 83.574219 94.257812 85 C 94.140625 85.117188 93.972656 85.160156 93.808594 85.117188 L 92.21875 84.640625 C 92.152344 84.621094 92.085938 84.617188 92.019531 84.625 C 89.34375 85.039062 87.464844 85.574219 86.925781 88.59375 C 86.898438 88.742188 86.804688 88.867188 86.664062 88.925781 L 84.726562 89.769531 C 84.625 89.816406 84.546875 89.890625 84.5 89.992188 C 83.832031 91.382812 83.832031 92.75 84.5 94.097656 C 84.613281 94.328125 84.894531 94.410156 85.121094 94.285156 C 88.570312 92.339844 92.277344 91.652344 96.246094 92.222656 C 96.472656 92.253906 96.683594 92.117188 96.746094 91.898438 C 97.496094 89.191406 99.25 87.707031 102.007812 87.441406 C 103.007812 87.347656 103.832031 87.820312 104.492188 88.863281 C 104.652344 89.125 104.515625 89.464844 104.21875 89.539062 L 101.25 90.253906 C 100.152344 90.519531 99.507812 90.96875 99.3125 91.597656 L 98.183594 95.335938 C 98.101562 95.605469 97.796875 95.734375 97.542969 95.605469 C 93.851562 93.691406 90.300781 93.921875 86.898438 96.304688 C 86.785156 96.386719 86.714844 96.515625 86.710938 96.652344 C 86.59375 98.921875 85.542969 99.378906 83.5625 98.023438 C 81.558594 96.648438 79.546875 95.261719 77.535156 93.863281 C 74.71875 91.90625 71.96875 91.960938 69.269531 94.03125 Z M 69.269531 94.03125 "/><path style=" stroke:none;fill-rule:nonzero;fill:#ede5d5;fill-opacity:1;" d="M 187.535156 51.660156 C 187.199219 51.613281 187.03125 51.226562 187.230469 50.949219 C 189.371094 48 192.222656 51.777344 194.855469 48.625 C 196.085938 47.148438 195.949219 45.144531 197.574219 43.953125 C 199.613281 42.453125 202.929688 43.105469 205.078125 44.195312 C 206.878906 45.109375 209.578125 45.140625 211.605469 45.765625 C 211.78125 45.816406 211.972656 45.757812 212.085938 45.613281 C 213.523438 43.820312 216.414062 42 218.742188 42.722656 C 219.601562 42.988281 220.265625 43.5625 220.734375 44.441406 C 221.007812 44.957031 220.863281 45.175781 220.28125 45.101562 C 219.722656 45.023438 219.132812 44.988281 218.519531 44.992188 C 216.109375 45.011719 214.578125 46.0625 213.929688 48.140625 C 213.730469 48.777344 213.320312 48.964844 212.707031 48.710938 C 211.050781 48.015625 209.242188 47.066406 207.453125 47.140625 C 205.675781 47.207031 204.066406 47.914062 202.414062 48.019531 C 198.949219 48.230469 196.664062 49.480469 194.734375 52.378906 C 194.640625 52.519531 194.46875 52.597656 194.296875 52.574219 L 187.535156 51.660156 M 200.851562 45.308594 C 199.859375 45.164062 199.109375 45.414062 198.601562 46.066406 C 197.996094 46.832031 198.164062 47.070312 199.09375 46.769531 L 200.929688 46.179688 C 202.15625 45.785156 202.128906 45.492188 200.851562 45.308594 Z M 200.851562 45.308594 "/><path style=" stroke:none;fill-rule:nonzero;fill:#faf6e8;fill-opacity:1;" d="M 200.851562 45.308594 C 202.128906 45.492188 202.15625 45.785156 200.925781 46.179688 L 199.09375 46.769531 C 198.164062 47.070312 197.996094 46.832031 198.601562 46.066406 C 199.109375 45.414062 199.859375 45.164062 200.851562 45.308594 Z M 200.851562 45.308594 "/><path style=" stroke:none;fill-rule:nonzero;fill:#ede5d5;fill-opacity:1;" d="M 218.824219 63.101562 C 218.441406 63.859375 218.699219 65.953125 217.050781 64.5 C 214.664062 62.390625 213.507812 61.144531 210.070312 61.183594 C 209.375 61.191406 208.871094 60.8125 208.5625 60.042969 L 207.832031 58.226562 C 207.71875 57.941406 207.910156 57.632812 208.21875 57.609375 C 209.199219 57.535156 210.097656 57.566406 211.046875 57.992188 C 214.347656 59.480469 217.703125 61.195312 221.457031 61.269531 C 224.238281 61.324219 227.019531 61.367188 229.796875 61.398438 C 230.011719 61.402344 230.203125 61.246094 230.242188 61.035156 C 230.59375 59.316406 230.398438 56.808594 228.484375 56.070312 C 227.949219 55.867188 227.289062 55.683594 226.496094 55.523438 C 226.300781 55.484375 226.15625 55.320312 226.140625 55.125 C 226.0625 54.335938 225.96875 53.539062 225.859375 52.742188 C 225.386719 49.386719 222.183594 49.644531 219.238281 49.527344 C 218.132812 49.484375 217.46875 48.875 218.203125 47.8125 C 218.257812 47.730469 218.339844 47.671875 218.429688 47.640625 C 222.648438 46.214844 227.019531 47.625 228.144531 52.265625 C 228.167969 52.359375 228.226562 52.445312 228.304688 52.507812 C 229.359375 53.359375 230.535156 54.089844 231.320312 55.132812 C 232.683594 56.941406 233.347656 59.039062 233.308594 61.421875 C 233.304688 61.628906 233.4375 61.8125 233.640625 61.867188 L 237.691406 62.921875 C 237.863281 62.964844 238.046875 62.902344 238.15625 62.769531 C 240.863281 59.414062 244.117188 58.929688 247.917969 61.324219 C 248.035156 61.394531 248.179688 61.414062 248.308594 61.367188 C 254.085938 59.285156 260.152344 63.625 261.667969 69.0625 C 262.363281 71.570312 263.667969 72.257812 265.851562 73.210938 C 266.03125 73.292969 266.246094 73.242188 266.371094 73.089844 C 268.660156 70.390625 271.21875 70.191406 274.050781 72.5 C 274.636719 72.980469 274.929688 73.625 274.921875 74.4375 C 274.910156 74.972656 274.683594 75.09375 274.230469 74.8125 C 274.015625 74.675781 273.804688 74.535156 273.59375 74.394531 C 272.109375 73.378906 270.695312 73.242188 268.96875 73.949219 C 268.308594 74.21875 268.101562 74.683594 268.351562 75.355469 C 268.753906 76.445312 269.035156 77.675781 269.199219 79.050781 C 269.246094 79.496094 268.941406 80.679688 268.375 79.445312 C 266.738281 75.886719 263.640625 74.023438 259.816406 73.476562 C 259.601562 73.445312 259.441406 73.265625 259.429688 73.050781 C 259.390625 72.113281 259.324219 71.1875 259.230469 70.28125 C 258.808594 66.3125 255.648438 63.664062 251.769531 63.269531 C 250.597656 63.148438 249.941406 63.859375 249.792969 64.925781 C 249.722656 65.425781 249.160156 66.054688 248.855469 65.199219 C 247.796875 62.273438 243.902344 61.3125 241.441406 62.917969 C 240.710938 63.390625 240.402344 64.0625 240.527344 64.921875 C 240.648438 65.8125 241.460938 68.238281 239.925781 68.351562 C 239.8125 68.359375 239.699219 68.324219 239.609375 68.257812 C 238.179688 67.125 236.753906 65.640625 235.242188 64.921875 C 232.488281 63.613281 230.089844 64.023438 227.195312 64.195312 C 226.175781 64.257812 225.328125 63.835938 224.527344 63.269531 C 224.398438 63.179688 224.230469 63.164062 224.089844 63.226562 L 221.015625 64.578125 C 220.8125 64.667969 220.574219 64.589844 220.457031 64.40625 L 219.605469 63.058594 C 219.320312 62.617188 219.0625 62.628906 218.824219 63.101562 Z M 218.824219 63.101562 "/><path style=" stroke:none;fill-rule:nonzero;fill:#ede5d5;fill-opacity:1;" d="M 148.339844 68.585938 C 147.25 68.144531 146.730469 67.257812 147.707031 66.3125 C 150.179688 63.933594 155.171875 64.699219 157.953125 65.976562 C 158.066406 66.03125 158.191406 66.035156 158.304688 65.992188 C 159.074219 65.695312 161.335938 64.824219 161.40625 65.945312 C 161.410156 66.042969 161.386719 66.144531 161.335938 66.222656 L 160.71875 67.15625 C 160.609375 67.328125 160.625 67.550781 160.765625 67.707031 C 161.796875 68.839844 164.835938 72.964844 163.90625 74.5 C 163.652344 74.925781 163.269531 75.195312 162.761719 75.3125 C 162.527344 75.367188 162.296875 75.234375 162.226562 75.003906 C 160.804688 70.15625 157.617188 67.5 152.675781 67.03125 C 151.160156 66.882812 149.859375 67.503906 148.816406 68.492188 C 148.691406 68.613281 148.503906 68.652344 148.339844 68.585938 Z M 148.339844 68.585938 "/><path style=" stroke:none;fill-rule:nonzero;fill:#ede5d5;fill-opacity:1;" d="M 181.917969 73.097656 C 181.6875 73.015625 181.554688 72.765625 181.636719 72.53125 C 182.488281 69.980469 185.835938 70.84375 187.3125 72.09375 C 187.460938 72.222656 187.671875 72.238281 187.839844 72.136719 C 188.265625 71.875 188.960938 71.402344 189.925781 70.726562 C 193.089844 68.496094 198.957031 68.039062 200.304688 72.84375 C 200.359375 73.035156 200.523438 73.164062 200.722656 73.171875 C 202.695312 73.25 208.28125 74.925781 207.09375 77.933594 C 206.625 79.136719 205.691406 78.617188 205.152344 77.832031 C 203.703125 75.707031 200.84375 75.363281 198.5 75.335938 C 198.160156 75.332031 197.945312 74.964844 198.113281 74.667969 C 200.347656 70.6875 194.640625 71.199219 192.59375 72.058594 C 191.691406 72.4375 190.519531 73.285156 189.085938 74.601562 C 188.445312 75.1875 188.464844 75.878906 188.101562 76.429688 C 187.917969 76.703125 187.515625 76.699219 187.339844 76.421875 C 185.511719 73.46875 184.625 74.023438 181.917969 73.097656 Z M 181.917969 73.097656 "/><path style=" stroke:none;fill-rule:nonzero;fill:#ede5d5;fill-opacity:1;" d="M 231.941406 74.914062 C 231.765625 74.851562 231.695312 74.734375 231.742188 74.5625 C 231.773438 74.449219 231.867188 74.351562 231.984375 74.316406 C 233.785156 73.777344 235.636719 73.558594 237.433594 74.300781 C 241 75.769531 243.980469 79.027344 244.554688 82.9375 C 244.832031 84.789062 245.054688 87.421875 242.976562 88.386719 C 242.449219 88.636719 242.246094 88.472656 242.347656 87.902344 C 243.164062 83.445312 241.84375 80.003906 238.382812 77.570312 C 236.625 76.335938 234.105469 75.675781 231.941406 74.914062 Z M 231.941406 74.914062 "/><path style=" stroke:none;fill-rule:nonzero;fill:#ede5d5;fill-opacity:1;" d="M 150.460938 102.992188 C 150.425781 102.886719 150.4375 102.773438 150.484375 102.671875 C 151.371094 100.863281 152.757812 99.4375 154.636719 98.398438 C 156.1875 97.539062 157.820312 96.90625 159.539062 96.496094 C 159.78125 96.4375 159.929688 96.191406 159.867188 95.945312 C 159.242188 93.484375 159.351562 91.035156 160.191406 88.609375 C 160.871094 86.636719 161.605469 84.871094 162.386719 83.3125 C 162.621094 82.835938 162.476562 82.621094 161.945312 82.664062 C 160.207031 82.808594 158.605469 82.953125 157.132812 83.097656 C 154.648438 83.339844 155.816406 81.914062 156.722656 81.449219 C 158.984375 80.285156 161.359375 79.984375 163.867188 80.554688 C 164.007812 80.585938 164.164062 80.546875 164.269531 80.445312 C 166.210938 78.628906 168.628906 76.453125 171.261719 75.824219 C 173.21875 75.355469 178.15625 74.90625 177.199219 78.59375 C 177.125 78.871094 176.816406 79.011719 176.558594 78.882812 C 170.40625 75.757812 164.664062 82.527344 163.042969 87.738281 C 162.21875 90.386719 161.824219 93.101562 161.855469 95.878906 C 161.859375 96.109375 162.03125 96.296875 162.257812 96.320312 C 163.835938 96.476562 165.554688 96.746094 167.417969 97.128906 C 170.742188 97.8125 173.359375 99.511719 175.261719 102.21875 C 175.375 102.375 175.375 102.582031 175.261719 102.738281 C 174.792969 103.398438 174.125 103.664062 173.277344 103.53125 C 173.175781 103.515625 173.078125 103.460938 173.003906 103.378906 C 167.710938 97.148438 156.625 97.578125 151.363281 103.539062 C 150.988281 103.960938 150.6875 103.78125 150.460938 102.992188 Z M 150.460938 102.992188 "/><path style=" stroke:none;fill-rule:nonzero;fill:#cdbfb8;fill-opacity:1;" d="M 278.191406 78.265625 C 278.941406 80.726562 280.1875 80.90625 281.914062 78.804688 C 283.445312 78.835938 284.945312 79.089844 286.402344 79.554688 C 285.804688 79.9375 285.792969 80.152344 286.351562 80.207031 C 286.5 80.21875 286.632812 80.304688 286.703125 80.429688 L 288.085938 82.84375 C 288.664062 84.0625 288.179688 85.316406 288.40625 86.519531 C 288.425781 86.640625 288.5 86.75 288.601562 86.816406 C 290.371094 87.945312 291.464844 89.527344 291.882812 91.578125 C 291.257812 90.535156 290.429688 89.679688 289.402344 89.03125 C 287.691406 87.953125 287.730469 84.886719 287.390625 83.285156 C 286.796875 80.511719 283.246094 80.359375 281.0625 80.886719 C 280.929688 80.917969 280.824219 81.003906 280.765625 81.125 L 280.074219 82.5 C 279.816406 83.007812 279.554688 83.011719 279.28125 82.511719 C 278.179688 80.507812 276.945312 78.582031 275.585938 76.734375 C 275.519531 76.640625 275.484375 76.527344 275.5 76.414062 C 275.652344 75.175781 276.851562 77.136719 276.933594 77.378906 C 276.980469 77.53125 277.113281 77.648438 277.269531 77.679688 C 277.691406 77.765625 278 77.957031 278.191406 78.265625 Z M 278.191406 78.265625 "/><path style=" stroke:none;fill-rule:nonzero;fill:#846c68;fill-opacity:1;" d="M 103.949219 76.695312 C 104.488281 76.816406 104.613281 77.101562 104.320312 77.542969 C 104.269531 77.625 104.242188 77.722656 104.25 77.824219 L 104.367188 79.582031 C 104.375 79.722656 104.320312 79.855469 104.21875 79.945312 C 103.691406 80.417969 103.148438 80.59375 102.597656 80.480469 C 100.207031 79.988281 98.117188 80.359375 96.332031 81.59375 C 96.511719 80.886719 96.335938 80.644531 95.800781 80.867188 C 95 81.199219 94.132812 80.941406 93.265625 81.144531 C 91.199219 81.625 89.125 82.089844 87.050781 82.554688 C 81.800781 83.71875 75.992188 84.371094 70.921875 85.480469 C 58.484375 88.199219 45.164062 91.679688 32.386719 96.902344 C 22.75 100.84375 9.609375 106.898438 6.671875 118.023438 L 6.636719 120.195312 C 5.699219 118.789062 4.753906 117.6875 5.734375 115.9375 C 5.8125 115.804688 5.816406 115.632812 5.742188 115.5 C 5.359375 114.8125 4.757812 114.570312 3.9375 114.773438 C 3.789062 114.808594 3.667969 114.917969 3.617188 115.066406 L 3.445312 115.578125 C 2.941406 117.109375 2.824219 117.082031 3.09375 115.496094 C 3.175781 115 3.308594 114.519531 3.492188 114.054688 C 3.53125 113.949219 3.53125 113.832031 3.496094 113.730469 C 3.304688 113.222656 3.339844 112.734375 3.609375 112.261719 C 3.949219 111.675781 4.339844 111.261719 4.773438 111.019531 C 5.226562 110.773438 5.449219 110.382812 5.433594 109.851562 C 5.429688 109.6875 5.515625 109.535156 5.660156 109.453125 C 6.136719 109.175781 6.351562 108.753906 6.300781 108.1875 C 9.148438 105.214844 12.511719 102.625 16.402344 100.421875 C 26.019531 94.964844 36.101562 91.171875 46.519531 88.113281 C 65.214844 82.632812 84.605469 79.015625 103.949219 76.695312 Z M 103.949219 76.695312 "/><path style=" stroke:none;fill-rule:nonzero;fill:#6f5751;fill-opacity:1;" d="M 278.191406 78.265625 L 281.914062 78.804688 C 280.1875 80.90625 278.941406 80.726562 278.191406 78.265625 Z M 278.191406 78.265625 "/><path style=" stroke:none;fill-rule:nonzero;fill:#846c68;fill-opacity:1;" d="M 286.402344 79.554688 C 307.40625 83.640625 328.078125 88.289062 347.804688 96.839844 C 357.027344 100.839844 369.574219 107.675781 373.367188 117.707031 C 372.898438 118.183594 372.710938 118.71875 372.816406 119.308594 C 372.980469 120.289062 373.066406 121.226562 373.0625 122.125 C 373.0625 123.972656 372.769531 124.019531 372.1875 122.261719 L 371.5625 120.378906 C 371.5 120.191406 371.324219 120.0625 371.128906 120.066406 L 368.433594 120.132812 L 367.792969 118.304688 C 364.023438 109.464844 353.695312 103.636719 345.257812 99.976562 C 331.570312 94.046875 317.421875 89.539062 302.816406 86.453125 C 301.691406 86.238281 298.121094 85.441406 292.109375 84.058594 C 290.6875 83.730469 289.542969 83.25 288.679688 82.613281 C 288.527344 82.503906 288.316406 82.527344 288.195312 82.671875 C 288.152344 82.71875 288.117188 82.777344 288.085938 82.84375 L 286.703125 80.429688 C 286.632812 80.304688 286.5 80.21875 286.351562 80.207031 C 285.792969 80.152344 285.804688 79.9375 286.402344 79.554688 Z M 286.402344 79.554688 "/><path style=" stroke:none;fill-rule:nonzero;fill:#6f5751;fill-opacity:1;" d="M 96.332031 81.59375 L 94.402344 83.859375 C 94.285156 83.996094 94.105469 84.046875 93.9375 84 C 91.382812 83.261719 87.996094 83.789062 87.019531 86.640625 L 86.261719 86.195312 C 86.097656 86.097656 85.890625 86.117188 85.75 86.234375 C 84.554688 87.21875 83.238281 88.003906 81.808594 88.597656 C 81.152344 88.875 80.902344 89.289062 80.78125 89.933594 C 80.753906 90.074219 80.660156 90.203125 80.519531 90.261719 C 79.464844 90.722656 78.679688 90.835938 77.511719 90.382812 C 74.539062 89.230469 70.453125 89.582031 67.804688 91.769531 C 66.847656 92.558594 66.304688 92.984375 66.175781 93.050781 C 64.832031 93.722656 63.398438 93.835938 61.882812 93.402344 C 61.796875 93.378906 61.707031 93.378906 61.621094 93.40625 C 60.664062 93.707031 60.074219 94.160156 59 94.214844 C 57.066406 94.316406 55.425781 95.078125 54.074219 96.488281 C 54.011719 96.554688 53.96875 96.632812 53.957031 96.722656 C 53.777344 97.730469 53.257812 102.65625 54.882812 102.714844 C 55.519531 102.738281 55.589844 102.949219 55.097656 103.351562 C 54.527344 103.816406 53.910156 104.175781 53.25 104.4375 C 50.800781 105.417969 49.15625 107.140625 48.328125 109.609375 C 48.296875 109.695312 48.246094 109.773438 48.175781 109.824219 C 47.558594 110.300781 46.769531 110.535156 45.808594 110.53125 C 44.757812 110.527344 44.042969 111.511719 43.335938 111.949219 C 40.945312 113.410156 41.410156 115.554688 37.679688 114.417969 C 34.75 113.523438 30.457031 115.984375 28.480469 117.816406 C 28.378906 117.90625 28.332031 118.035156 28.335938 118.164062 C 28.359375 118.636719 28.332031 119.101562 28.265625 119.566406 C 28.035156 121.105469 28.25 122.546875 28.496094 124.054688 C 28.511719 124.136719 28.546875 124.210938 28.601562 124.273438 C 29.09375 124.835938 29.015625 125.34375 28.355469 125.785156 C 28.253906 125.847656 28.1875 125.949219 28.164062 126.066406 C 27.835938 127.664062 26.945312 128.789062 25.496094 129.449219 C 25.394531 129.492188 25.316406 129.570312 25.269531 129.664062 C 25.050781 130.136719 24.679688 130.445312 24.15625 130.59375 C 24.09375 130.613281 24.03125 130.617188 23.96875 130.605469 C 22.367188 130.378906 22.875 132.132812 23.03125 132.933594 C 23.054688 133.050781 23.03125 133.175781 22.964844 133.273438 C 22.726562 133.621094 22.453125 133.675781 22.136719 133.449219 C 16.605469 129.441406 11.855469 124.335938 7.871094 118.136719 C 7.777344 117.996094 7.613281 117.914062 7.441406 117.9375 L 6.671875 118.023438 C 9.609375 106.898438 22.753906 100.84375 32.390625 96.902344 C 45.164062 91.679688 58.484375 88.199219 70.921875 85.480469 C 75.992188 84.371094 81.804688 83.71875 87.050781 82.554688 C 89.125 82.089844 91.199219 81.625 93.265625 81.144531 C 94.132812 80.941406 95 81.199219 95.804688 80.867188 C 96.335938 80.644531 96.511719 80.886719 96.332031 81.59375 Z M 96.332031 81.59375 "/><path style=" stroke:none;fill-rule:nonzero;fill:#ede5d5;fill-opacity:1;" d="M 264.945312 84.875 C 264.191406 84.457031 263.613281 83.78125 263.207031 82.847656 C 263.085938 82.574219 263.261719 82.261719 263.554688 82.222656 C 265.144531 82.003906 266.847656 82.324219 268.660156 83.171875 C 271.25 84.382812 273.09375 86.300781 274.199219 88.917969 C 274.742188 90.199219 274.179688 90.753906 272.519531 90.589844 C 272.347656 90.570312 272.210938 90.457031 272.148438 90.304688 C 271.46875 88.589844 270.308594 87.265625 268.652344 86.332031 C 267.59375 85.746094 266.007812 85.472656 264.945312 84.875 Z M 264.945312 84.875 "/><path style=" stroke:none;fill-rule:nonzero;fill:#624c47;fill-opacity:1;" d="M 302.816406 86.453125 L 303.046875 87.453125 C 303.074219 87.570312 303.148438 87.675781 303.253906 87.738281 C 305.007812 88.796875 306.371094 90.222656 307.347656 92.019531 C 307.382812 92.085938 307.40625 92.164062 307.398438 92.242188 L 307.304688 95.476562 C 307.296875 95.722656 307.488281 95.929688 307.730469 95.9375 C 310.9375 96.074219 313.160156 97.507812 314.398438 100.246094 C 315.550781 102.800781 317.785156 103.078125 319.113281 105.167969 C 320.074219 106.671875 320.726562 108.320312 321.066406 110.117188 C 321.117188 110.386719 321.390625 110.546875 321.644531 110.460938 C 322.480469 110.183594 323.199219 110.292969 323.800781 110.78125 L 320.605469 112.519531 C 320.46875 112.589844 320.308594 112.589844 320.179688 112.519531 C 319.304688 112.046875 318.949219 111.445312 318.867188 110.382812 C 318.683594 107.941406 317.621094 105.957031 315.667969 104.433594 C 315.609375 104.390625 315.546875 104.363281 315.472656 104.351562 L 313.980469 104.070312 C 313.8125 104.039062 313.675781 103.914062 313.628906 103.75 C 312.625 100.117188 312.042969 98.050781 307.992188 98.082031 C 306.964844 98.09375 305.992188 97.855469 305.074219 97.367188 C 304.773438 95.890625 304.828125 94.449219 305.238281 93.039062 C 305.707031 91.714844 305.390625 90.765625 304.277344 90.207031 C 299.710938 87.898438 295.691406 88.667969 292.21875 92.503906 L 291.882812 91.578125 C 291.464844 89.527344 290.371094 87.945312 288.601562 86.816406 C 288.5 86.75 288.425781 86.644531 288.40625 86.523438 C 288.179688 85.320312 288.664062 84.0625 288.085938 82.84375 C 288.117188 82.777344 288.152344 82.71875 288.195312 82.671875 C 288.3125 82.527344 288.527344 82.503906 288.679688 82.613281 C 289.542969 83.25 290.6875 83.730469 292.109375 84.058594 C 298.121094 85.4375 301.691406 86.238281 302.816406 86.453125 Z M 302.816406 86.453125 "/><path style=" stroke:none;fill-rule:nonzero;fill:#ede5d5;fill-opacity:1;" d="M 192.703125 85.082031 C 192.457031 84.992188 192.339844 84.703125 192.453125 84.464844 C 192.757812 83.824219 193.90625 83.308594 194.699219 83.355469 C 197.46875 83.53125 199.382812 84.882812 200.457031 87.40625 C 200.761719 88.125 201.035156 88.316406 201.625 88.730469 C 201.792969 88.847656 201.863281 89.070312 201.785156 89.261719 C 201.371094 90.292969 200.59375 90.882812 199.453125 91.035156 C 199.257812 91.058594 199.070312 90.960938 198.984375 90.785156 L 197.089844 86.828125 C 197.039062 86.71875 196.953125 86.636719 196.839844 86.597656 Z M 192.703125 85.082031 "/><path style=" stroke:none;fill-rule:nonzero;fill:#624c47;fill-opacity:1;" d="M 87.019531 86.640625 C 86.71875 87.378906 86.429688 87.898438 85.621094 88.222656 C 83.382812 89.125 82.054688 90.839844 81.632812 93.367188 C 81.539062 93.9375 81.25 94.410156 80.765625 94.792969 C 80.613281 94.910156 80.40625 94.921875 80.25 94.820312 C 79.707031 94.484375 79.199219 94.109375 78.726562 93.707031 C 76.132812 91.488281 72.769531 91.171875 69.742188 92.710938 C 69.199219 92.984375 69.042969 93.425781 69.269531 94.03125 C 68.878906 94.347656 68.6875 94.765625 68.691406 95.28125 L 68.199219 96.601562 C 68.117188 96.8125 67.894531 96.929688 67.671875 96.878906 C 65.964844 96.480469 64.328125 95.566406 62.847656 95.308594 C 60.660156 94.9375 57.164062 95.007812 55.878906 97.136719 C 55.136719 98.355469 55.292969 99.6875 56.347656 101.117188 L 57.039062 101.921875 L 56.664062 104.703125 C 56.640625 104.886719 56.503906 105.035156 56.332031 105.082031 C 52.96875 105.941406 49.765625 106.8125 50.039062 111.105469 C 50.054688 111.351562 49.867188 111.5625 49.621094 111.582031 C 46.511719 111.800781 43.367188 112.621094 43.171875 116.378906 C 43.140625 116.96875 43.113281 117.574219 43.082031 118.1875 C 43.0625 118.496094 42.742188 118.699219 42.457031 118.574219 C 40.480469 117.734375 39.21875 117.253906 38.671875 117.132812 C 36.378906 116.621094 30.054688 116.988281 30.261719 120.359375 C 30.105469 122.382812 30.988281 123.867188 32.914062 124.8125 C 32.003906 125.652344 30.960938 126.292969 29.800781 126.730469 C 29.671875 126.777344 29.574219 126.878906 29.53125 127.007812 L 28.320312 130.519531 C 28.285156 130.628906 28.207031 130.71875 28.101562 130.773438 L 25.578125 132.042969 C 25.476562 132.097656 25.398438 132.179688 25.359375 132.28125 C 24.878906 133.507812 24.664062 134.785156 24.703125 136.128906 C 24.507812 136.351562 24.324219 136.433594 24.15625 136.367188 C 17.785156 133.933594 7.347656 128.074219 6.636719 120.195312 L 6.671875 118.023438 L 7.441406 117.9375 C 7.613281 117.914062 7.777344 117.996094 7.871094 118.136719 C 11.855469 124.335938 16.605469 129.441406 22.136719 133.449219 C 22.449219 133.679688 22.726562 133.621094 22.960938 133.273438 C 23.03125 133.175781 23.050781 133.050781 23.03125 132.933594 C 22.875 132.132812 22.367188 130.378906 23.96875 130.609375 C 24.03125 130.617188 24.09375 130.613281 24.15625 130.59375 C 24.675781 130.445312 25.050781 130.136719 25.269531 129.664062 C 25.316406 129.570312 25.394531 129.496094 25.496094 129.449219 C 26.945312 128.789062 27.835938 127.664062 28.164062 126.066406 C 28.1875 125.949219 28.253906 125.851562 28.351562 125.785156 C 29.011719 125.34375 29.09375 124.835938 28.601562 124.273438 C 28.546875 124.210938 28.511719 124.136719 28.496094 124.054688 C 28.25 122.546875 28.035156 121.105469 28.265625 119.566406 C 28.332031 119.101562 28.359375 118.636719 28.335938 118.164062 C 28.332031 118.035156 28.378906 117.90625 28.480469 117.816406 C 30.457031 115.984375 34.75 113.523438 37.679688 114.417969 C 41.410156 115.554688 40.945312 113.414062 43.335938 111.949219 C 44.042969 111.511719 44.757812 110.527344 45.808594 110.53125 C 46.769531 110.535156 47.558594 110.300781 48.175781 109.824219 C 48.246094 109.773438 48.296875 109.695312 48.328125 109.609375 C 49.15625 107.140625 50.800781 105.417969 53.25 104.441406 C 53.910156 104.175781 54.527344 103.816406 55.097656 103.351562 C 55.589844 102.949219 55.519531 102.738281 54.878906 102.714844 C 53.253906 102.65625 53.777344 97.730469 53.957031 96.722656 C 53.96875 96.632812 54.007812 96.554688 54.074219 96.492188 C 55.421875 95.078125 57.066406 94.316406 59 94.214844 C 60.074219 94.160156 60.660156 93.707031 61.621094 93.40625 C 61.707031 93.378906 61.796875 93.378906 61.882812 93.402344 C 63.398438 93.835938 64.832031 93.722656 66.171875 93.050781 C 66.304688 92.984375 66.847656 92.558594 67.804688 91.769531 C 70.453125 89.582031 74.539062 89.234375 77.511719 90.382812 C 78.679688 90.835938 79.464844 90.722656 80.519531 90.261719 C 80.660156 90.203125 80.753906 90.078125 80.777344 89.933594 C 80.898438 89.289062 81.152344 88.875 81.808594 88.601562 C 83.238281 88.003906 84.554688 87.21875 85.75 86.234375 C 85.890625 86.117188 86.097656 86.097656 86.257812 86.195312 Z M 87.019531 86.640625 "/><path style=" stroke:none;fill-rule:nonzero;fill:#6f5751;fill-opacity:1;" d="M 302.816406 86.453125 C 317.421875 89.539062 331.570312 94.046875 345.257812 99.976562 C 353.695312 103.636719 364.023438 109.464844 367.792969 118.304688 C 362.976562 123.253906 357.886719 127.257812 352.527344 130.316406 C 351.496094 130.902344 350.46875 130.851562 349.445312 130.148438 C 349.34375 130.082031 349.277344 129.972656 349.261719 129.859375 C 348.472656 125.574219 345.921875 124.226562 342.148438 122.851562 C 341.984375 122.789062 341.871094 122.636719 341.859375 122.460938 C 341.636719 119.601562 338.832031 118.1875 336.632812 117.136719 C 336.019531 116.84375 335.808594 116.371094 336.003906 115.71875 C 336.628906 113.648438 335.683594 111.933594 334.152344 110.117188 C 334.0625 110.015625 333.9375 109.957031 333.800781 109.957031 C 332.75 109.972656 332.238281 110.488281 332.261719 111.503906 C 329.574219 110.171875 326.75 109.929688 323.800781 110.78125 C 323.199219 110.292969 322.480469 110.183594 321.644531 110.460938 C 321.390625 110.546875 321.117188 110.386719 321.066406 110.117188 C 320.726562 108.320312 320.074219 106.671875 319.113281 105.167969 C 317.785156 103.078125 315.550781 102.800781 314.398438 100.246094 C 313.160156 97.507812 310.9375 96.074219 307.730469 95.9375 C 307.488281 95.929688 307.296875 95.722656 307.304688 95.476562 L 307.402344 92.242188 C 307.40625 92.164062 307.382812 92.085938 307.347656 92.019531 C 306.371094 90.222656 305.007812 88.796875 303.253906 87.738281 C 303.148438 87.675781 303.074219 87.570312 303.046875 87.453125 Z M 302.816406 86.453125 "/><path style=" stroke:none;fill-rule:nonzero;fill:#ede5d5;fill-opacity:1;" d="M 137.1875 93.464844 C 133.066406 90.355469 123.675781 88.859375 120.351562 94.144531 C 120.003906 94.691406 119.734375 94.65625 119.542969 94.039062 C 116.984375 85.925781 140.386719 87.050781 137.875 93.277344 C 137.761719 93.550781 137.417969 93.644531 137.1875 93.464844 Z M 137.1875 93.464844 "/><path style=" stroke:none;fill-rule:nonzero;fill:#ede5d5;fill-opacity:1;" d="M 305.238281 93.039062 C 304.410156 89.878906 301.597656 89.878906 298.734375 90.054688 C 294.695312 90.300781 294.183594 93.367188 292.167969 96.058594 C 292.097656 96.152344 291.992188 96.214844 291.875 96.234375 L 290.207031 96.472656 C 289.988281 96.503906 289.828125 96.691406 289.824219 96.914062 C 289.808594 97.847656 290.007812 98.714844 290.40625 99.523438 C 290.960938 100.648438 291.960938 100.957031 293.0625 101.421875 C 294.476562 102.023438 295.363281 103.785156 295.824219 105.148438 C 296.277344 106.484375 295.8125 107.671875 295.015625 108.722656 C 294.945312 108.816406 294.839844 108.878906 294.722656 108.898438 C 293.265625 109.125 293.128906 106.585938 293.109375 105.628906 C 293.085938 104.636719 292.742188 104.035156 292.0625 103.824219 L 288.902344 102.832031 C 288.753906 102.789062 288.640625 102.671875 288.601562 102.519531 C 287.6875 98.917969 286.59375 96.457031 283.984375 93.765625 C 283.875 93.652344 283.832031 93.492188 283.871094 93.339844 C 284.65625 90.390625 288.777344 94.355469 289.523438 95.246094 C 289.632812 95.386719 289.824219 95.441406 289.996094 95.386719 L 290.671875 95.179688 C 290.808594 95.140625 290.917969 95.03125 290.960938 94.890625 C 291.285156 93.921875 291.703125 93.128906 292.21875 92.503906 C 295.691406 88.667969 299.710938 87.898438 304.277344 90.207031 C 305.390625 90.765625 305.707031 91.714844 305.238281 93.039062 Z M 305.238281 93.039062 "/><path style=" stroke:none;fill-rule:nonzero;fill:#ede5d5;fill-opacity:1;" d="M 246.113281 96.789062 C 245.125 95.789062 242.898438 92.257812 245.953125 92.015625 C 246.054688 92.011719 246.152344 92.039062 246.234375 92.089844 C 247.605469 93 248.949219 92.949219 250.273438 91.9375 C 250.742188 91.585938 252.398438 91.207031 255.246094 90.796875 C 257.589844 90.464844 259.625 91.105469 261.34375 92.714844 C 261.488281 92.851562 261.703125 92.878906 261.878906 92.777344 C 264.289062 91.363281 266.921875 90.914062 269.773438 91.429688 C 271.277344 91.707031 273.175781 92.828125 272.816406 94.648438 C 272.757812 94.949219 272.421875 95.109375 272.15625 94.960938 C 268.226562 92.777344 265.261719 93.863281 261.707031 96.03125 C 261.542969 96.132812 261.335938 96.117188 261.1875 95.996094 C 259.457031 94.570312 257.875 92.417969 255.3125 93.257812 C 253.347656 93.898438 251.382812 94.507812 249.402344 95.082031 C 249.335938 95.101562 249.277344 95.132812 249.226562 95.179688 C 248.441406 95.882812 247.574219 96.453125 246.617188 96.886719 C 246.445312 96.960938 246.246094 96.925781 246.113281 96.789062 Z M 246.113281 96.789062 "/><path style=" stroke:none;fill-rule:nonzero;fill:#ede5d5;fill-opacity:1;" d="M 230.71875 94.972656 C 230.117188 94.449219 229.660156 94.023438 229.347656 93.695312 C 228.828125 93.144531 228.945312 92.894531 229.699219 92.941406 C 229.785156 92.945312 229.878906 92.957031 229.980469 92.988281 C 232.257812 93.640625 234.109375 94.9375 235.542969 96.878906 C 236.425781 98.078125 236.984375 99.792969 237.789062 101.242188 C 240.316406 105.792969 233.65625 104.8125 233.804688 100.753906 C 233.886719 98.578125 232.175781 96.253906 230.71875 94.972656 Z M 230.71875 94.972656 "/><path style=" stroke:none;fill-rule:nonzero;fill:#d7ccc3;fill-opacity:1;" d="M 68.691406 95.28125 C 68.78125 96.148438 69.109375 97.792969 69.671875 100.207031 C 69.742188 100.507812 69.648438 100.664062 69.382812 100.671875 C 69.261719 100.679688 69.148438 100.625 69.078125 100.523438 C 67.625 98.464844 64.992188 96.410156 62.09375 96.082031 C 59.238281 95.753906 54.46875 97.054688 56.347656 101.117188 C 55.292969 99.6875 55.136719 98.359375 55.878906 97.136719 C 57.164062 95.007812 60.660156 94.9375 62.847656 95.308594 C 64.328125 95.566406 65.964844 96.480469 67.671875 96.878906 C 67.894531 96.929688 68.117188 96.8125 68.199219 96.601562 Z M 68.691406 95.28125 "/><path style=" stroke:none;fill-rule:nonzero;fill:#c4b5ab;fill-opacity:1;" d="M 305.074219 97.367188 C 305.992188 97.855469 306.964844 98.09375 307.992188 98.082031 C 312.042969 98.050781 312.625 100.117188 313.628906 103.75 C 313.675781 103.914062 313.8125 104.039062 313.980469 104.070312 L 315.472656 104.351562 C 315.546875 104.363281 315.609375 104.390625 315.667969 104.433594 C 317.621094 105.957031 318.683594 107.941406 318.867188 110.382812 C 318.949219 111.445312 319.304688 112.046875 320.179688 112.519531 C 320.308594 112.589844 320.46875 112.589844 320.605469 112.519531 L 323.800781 110.78125 C 326.75 109.929688 329.574219 110.171875 332.261719 111.503906 C 333.257812 112.15625 333.96875 113.546875 334.394531 115.683594 C 334.425781 115.835938 334.371094 115.992188 334.257812 116.101562 C 333.636719 116.679688 333.605469 117.257812 334.164062 117.835938 C 335.453125 119.167969 337.539062 119.046875 338.832031 120.628906 C 339.875 121.910156 340.398438 123.347656 340.410156 124.941406 C 340.414062 125.207031 340.644531 125.414062 340.910156 125.386719 C 344.023438 125.039062 347.339844 127.1875 347.027344 130.609375 C 346.953125 131.496094 347.355469 131.929688 348.25 131.914062 C 351.921875 131.847656 354.011719 133.582031 354.125 137.480469 L 352.535156 138.179688 C 352.808594 137.21875 352.839844 136.285156 352.628906 135.375 C 352.070312 132.941406 348.921875 132.976562 346.996094 133.128906 C 346.082031 133.203125 345.546875 132.863281 345.398438 132.121094 C 345.179688 131.039062 345.265625 130.015625 345.65625 129.058594 C 345.707031 128.933594 345.695312 128.792969 345.628906 128.671875 C 345.15625 127.824219 344.417969 127.390625 343.40625 127.359375 C 342.234375 127.292969 341.152344 126.96875 340.160156 126.375 C 340.0625 126.316406 339.988281 126.214844 339.960938 126.097656 L 339.609375 124.683594 C 339.359375 123.027344 338.644531 121.671875 337.472656 120.621094 C 336.179688 119.464844 332.359375 118.839844 333.226562 116.433594 C 333.710938 115.089844 333.605469 113.945312 332.902344 113 C 332.378906 112.289062 331.5 111.765625 330.253906 111.417969 C 327.082031 110.535156 324.09375 111.140625 321.296875 113.242188 C 321.210938 113.308594 321.101562 113.339844 320.996094 113.332031 L 317.960938 113.101562 C 317.765625 113.089844 317.597656 112.945312 317.558594 112.753906 C 317.132812 110.816406 317.820312 109.371094 316.640625 107.304688 C 316.601562 107.226562 316.539062 107.164062 316.460938 107.128906 C 314.707031 106.199219 312.941406 105.304688 311.167969 104.4375 C 310.4375 104.085938 308.925781 103.25 310.949219 102.714844 C 311.058594 102.6875 311.148438 102.621094 311.210938 102.53125 C 311.863281 101.558594 311.820312 100.757812 311.089844 100.125 C 309.8125 99.015625 305.613281 99.367188 305.078125 98.375 C 304.921875 98.09375 304.921875 97.753906 305.074219 97.367188 Z M 305.074219 97.367188 "/><path style=" stroke:none;fill-rule:nonzero;fill:#ede5d5;fill-opacity:1;" d="M 129.402344 103.5625 C 125.324219 102.703125 128.152344 99.578125 130.320312 99.660156 C 132.113281 99.726562 133.882812 99.484375 135.628906 98.941406 C 136.203125 98.765625 136.386719 98.957031 136.183594 99.519531 C 135.769531 100.691406 135.125 101.683594 134.265625 102.496094 C 134.175781 102.582031 134.054688 102.621094 133.929688 102.617188 L 131.375 102.464844 C 131.269531 102.460938 131.171875 102.488281 131.089844 102.542969 L 129.757812 103.492188 C 129.65625 103.5625 129.523438 103.589844 129.402344 103.5625 Z M 129.402344 103.5625 "/><path style=" stroke:none;fill-rule:nonzero;fill:#d7ccc3;fill-opacity:1;" d="M 57.039062 101.921875 C 57.359375 102.160156 57.4375 102.472656 57.289062 102.863281 C 57.222656 103.039062 57.273438 103.238281 57.410156 103.363281 L 58.417969 104.265625 C 58.519531 104.355469 58.664062 104.394531 58.804688 104.367188 C 60.628906 104.023438 62.429688 104.050781 64.207031 104.445312 C 65.554688 104.746094 65.539062 104.976562 64.171875 105.148438 C 62.421875 105.367188 60.683594 105.679688 58.964844 106.070312 C 55.957031 106.753906 50.398438 106.042969 51.261719 110.679688 C 50.980469 112.109375 50.089844 112.949219 48.59375 113.199219 C 47.628906 113.367188 46.671875 113.578125 45.734375 113.832031 C 44.777344 114.09375 44.277344 114.71875 44.238281 115.707031 C 44.175781 117.089844 44.1875 118.242188 44.78125 119.664062 C 45.164062 120.585938 45.433594 121.539062 45.589844 122.542969 C 45.601562 122.636719 45.570312 122.730469 45.503906 122.792969 C 45.320312 122.96875 45.085938 122.949219 44.804688 122.738281 C 42.488281 119.082031 39.046875 117.414062 34.480469 117.742188 C 32.644531 117.878906 31.238281 118.75 30.261719 120.359375 C 30.054688 116.988281 36.378906 116.621094 38.671875 117.132812 C 39.21875 117.253906 40.480469 117.734375 42.457031 118.574219 C 42.742188 118.699219 43.0625 118.496094 43.082031 118.1875 C 43.113281 117.574219 43.140625 116.964844 43.171875 116.378906 C 43.367188 112.621094 46.511719 111.800781 49.621094 111.582031 C 49.867188 111.5625 50.054688 111.351562 50.039062 111.105469 C 49.765625 106.8125 52.96875 105.941406 56.332031 105.082031 C 56.503906 105.035156 56.640625 104.886719 56.664062 104.703125 Z M 57.039062 101.921875 "/><path style=" stroke:none;fill-rule:nonzero;fill:#ede5d5;fill-opacity:1;" d="M 267.773438 123.015625 L 267.757812 123.335938 C 264.21875 122.078125 260.722656 121.375 257.164062 122.96875 C 255.964844 123.507812 254.355469 123.234375 255.378906 121.382812 C 255.421875 121.296875 255.5 121.230469 255.585938 121.191406 C 258.402344 119.910156 261.277344 119.660156 264.203125 120.425781 C 264.523438 120.507812 264.820312 120.226562 264.753906 119.902344 C 264.464844 118.480469 263.8125 117.128906 262.800781 115.855469 C 258.316406 110.207031 252.105469 105.53125 244.882812 105.507812 C 242.0625 105.5 239.542969 106.363281 237.324219 108.105469 C 237.058594 108.3125 236.675781 108.167969 236.605469 107.839844 C 236.460938 107.082031 236.554688 106.417969 236.898438 105.847656 C 237.175781 105.390625 237.730469 104.972656 238.558594 104.597656 C 247.988281 100.324219 259.066406 106.304688 264.773438 113.882812 C 265.414062 114.734375 265.867188 115.796875 266.132812 117.066406 C 266.402344 118.367188 265.894531 119.292969 265.570312 120.542969 C 265.523438 120.734375 265.601562 120.933594 265.773438 121.039062 C 266.613281 121.554688 267.277344 122.214844 267.773438 123.015625 Z M 267.773438 123.015625 "/><path style=" stroke:none;fill-rule:nonzero;fill:#ede5d5;fill-opacity:1;" d="M 99.964844 114.164062 C 96.71875 114.832031 94.082031 113.847656 92.066406 111.21875 C 91.855469 110.179688 92.035156 109.203125 92.609375 108.273438 C 92.78125 108.003906 93.171875 107.988281 93.355469 108.25 C 95.316406 110.996094 96.820312 112.566406 100.429688 111.523438 C 101.875 111.105469 103.289062 110.960938 104.671875 111.101562 C 104.9375 111.121094 105.160156 110.921875 105.164062 110.65625 C 105.21875 104.875 110.765625 103.035156 115.796875 103.570312 C 115.988281 103.589844 116.144531 103.730469 116.191406 103.914062 C 116.515625 105.316406 115.832031 106.0625 114.136719 106.160156 C 112.054688 106.28125 110.238281 106.929688 108.6875 108.109375 C 108.617188 108.164062 108.566406 108.238281 108.535156 108.316406 C 107.710938 110.617188 107.625 111.050781 105.125 111.777344 C 103.308594 112.308594 101.589844 113.101562 99.964844 114.164062 Z M 99.964844 114.164062 "/><path style=" stroke:none;fill-rule:nonzero;fill:#faf6e8;fill-opacity:1;" d="M 74.691406 104.332031 C 76.933594 105.839844 73.234375 107.554688 72.085938 108.183594 C 70.777344 108.890625 69.964844 110.054688 68.328125 110.511719 C 68.070312 110.585938 67.808594 110.414062 67.765625 110.148438 C 67.539062 108.730469 67.542969 107.316406 67.769531 105.90625 C 67.789062 105.800781 67.847656 105.699219 67.933594 105.632812 C 70.035156 103.925781 72.441406 102.808594 74.691406 104.332031 Z M 74.691406 104.332031 "/><path style=" stroke:none;fill-rule:nonzero;fill:#ede5d5;fill-opacity:1;" d="M 152.40625 111.316406 C 152.195312 111.179688 152.132812 110.902344 152.269531 110.691406 C 152.929688 109.671875 153.785156 108.90625 154.839844 108.394531 C 156.4375 107.621094 158.21875 108.320312 159.855469 107.449219 C 160.945312 106.867188 161.832031 106.242188 163.125 106.539062 C 163.511719 106.628906 163.890625 106.75 164.257812 106.902344 C 164.566406 107.035156 164.628906 107.445312 164.371094 107.660156 C 163.671875 108.242188 163.148438 108.976562 162.792969 109.863281 C 162.730469 110.019531 162.582031 110.125 162.410156 110.140625 L 157.695312 110.546875 C 157.613281 110.550781 157.53125 110.585938 157.464844 110.632812 C 156.914062 111.046875 156.558594 111.574219 156.402344 112.21875 C 156.34375 112.4375 156.132812 112.582031 155.90625 112.554688 C 154.636719 112.402344 153.46875 111.988281 152.40625 111.316406 Z M 152.40625 111.316406 "/><path style=" stroke:none;fill-rule:nonzero;fill:#8d736f;fill-opacity:1;" d="M 6.300781 108.1875 C 6.351562 108.753906 6.136719 109.175781 5.660156 109.453125 C 5.515625 109.535156 5.429688 109.6875 5.433594 109.851562 C 5.449219 110.382812 5.230469 110.773438 4.777344 111.019531 C 4.339844 111.261719 3.949219 111.675781 3.609375 112.261719 C 3.339844 112.734375 3.304688 113.222656 3.496094 113.730469 C 3.53125 113.832031 3.53125 113.949219 3.492188 114.054688 C 3.308594 114.519531 3.175781 115 3.09375 115.496094 C 2.824219 117.082031 2.941406 117.109375 3.445312 115.578125 L 3.617188 115.066406 C 3.667969 114.917969 3.789062 114.808594 3.9375 114.773438 C 4.757812 114.570312 5.359375 114.8125 5.742188 115.5 C 5.816406 115.632812 5.8125 115.804688 5.738281 115.9375 C 4.753906 117.6875 5.699219 118.789062 6.640625 120.195312 C 7.347656 128.074219 17.785156 133.933594 24.15625 136.367188 C 24.324219 136.433594 24.507812 136.351562 24.703125 136.128906 C 25.191406 136.609375 25.753906 136.9375 26.40625 137.121094 C 27.949219 137.921875 30.269531 138.824219 33.363281 139.828125 C 42.070312 142.648438 48.835938 144.664062 53.65625 145.882812 C 71.628906 150.410156 89.816406 153.800781 108.21875 156.042969 C 152.277344 161.410156 196.582031 162.824219 240.871094 159.597656 C 256.496094 158.457031 273.953125 156.394531 293.246094 153.410156 C 313.21875 150.316406 333.757812 145.773438 352.535156 138.179688 L 354.125 137.480469 C 355.855469 136.882812 357.847656 135.902344 360.113281 134.542969 C 365.527344 131.289062 369.445312 126.820312 368.433594 120.132812 L 371.128906 120.066406 C 371.324219 120.0625 371.5 120.1875 371.5625 120.378906 L 372.1875 122.261719 C 372.769531 124.019531 373.0625 123.972656 373.0625 122.125 C 373.066406 121.226562 372.980469 120.289062 372.816406 119.308594 C 372.710938 118.71875 372.898438 118.183594 373.367188 117.707031 C 374.5 120.746094 374.941406 123.898438 374.695312 127.152344 C 374.046875 127.082031 373.484375 127.273438 373.011719 127.710938 C 372.941406 127.78125 372.890625 127.871094 372.875 127.964844 C 372.667969 129.148438 372.832031 130 372.191406 131.085938 C 371.355469 132.492188 370.839844 134.070312 369.71875 135.195312 C 368.84375 136.070312 367.632812 137.132812 366.082031 138.382812 C 359.496094 143.6875 353.214844 146.820312 345.710938 149.601562 C 345 149.867188 344.175781 150.402344 343.339844 150.628906 C 342.375 150.894531 341.886719 151.035156 341.867188 151.039062 C 328.101562 155.78125 314.039062 159.382812 299.683594 161.84375 C 298.726562 162.007812 296.757812 162.160156 295.417969 162.574219 C 294.171875 162.960938 293.222656 163.199219 292.570312 163.285156 C 288.859375 163.777344 285.160156 164.332031 281.464844 164.957031 C 276.402344 165.816406 266.792969 166.871094 252.628906 168.125 C 242.957031 168.984375 235.117188 169.496094 229.117188 169.660156 C 227.753906 169.699219 226.34375 170.15625 224.910156 170.234375 C 220.882812 170.460938 216.851562 170.582031 212.816406 170.605469 C 206.902344 170.636719 200.671875 171.066406 194.582031 171.011719 C 183.382812 170.917969 172.023438 170.9375 160.949219 170.121094 C 159.980469 170.046875 158.847656 169.664062 157.796875 169.644531 C 152.546875 169.527344 147.988281 169.316406 144.117188 169.011719 C 119.675781 167.066406 94.894531 164.460938 68.808594 158.671875 C 64.59375 157.746094 59.628906 156.351562 55.019531 155.28125 C 51.613281 154.484375 48.730469 153.703125 46.371094 152.929688 C 35.199219 149.269531 24.175781 145.417969 14.296875 139.121094 C 8.074219 135.152344 2.5625 129.582031 1.445312 121.96875 C 1.417969 121.804688 1.308594 121.671875 1.160156 121.613281 L 0.0546875 121.183594 C 0.667969 116.113281 2.75 111.78125 6.300781 108.1875 Z M 6.300781 108.1875 "/><path style=" stroke:none;fill-rule:nonzero;fill:#604742;fill-opacity:1;" d="M 367.792969 118.304688 L 368.433594 120.132812 C 369.445312 126.820312 365.527344 131.289062 360.113281 134.542969 C 357.847656 135.902344 355.851562 136.882812 354.125 137.480469 C 354.011719 133.582031 351.921875 131.847656 348.25 131.914062 C 347.355469 131.929688 346.953125 131.496094 347.027344 130.609375 C 347.339844 127.1875 344.023438 125.039062 340.910156 125.386719 C 340.644531 125.414062 340.414062 125.207031 340.410156 124.941406 C 340.398438 123.347656 339.875 121.910156 338.832031 120.628906 C 337.539062 119.046875 335.453125 119.167969 334.164062 117.835938 C 333.605469 117.257812 333.636719 116.679688 334.257812 116.101562 C 334.371094 115.992188 334.425781 115.835938 334.394531 115.683594 C 333.96875 113.546875 333.257812 112.15625 332.261719 111.503906 C 332.238281 110.488281 332.75 109.972656 333.800781 109.957031 C 333.9375 109.957031 334.0625 110.015625 334.152344 110.117188 C 335.683594 111.933594 336.628906 113.648438 336.003906 115.71875 C 335.808594 116.371094 336.019531 116.84375 336.632812 117.136719 C 338.832031 118.1875 341.636719 119.601562 341.859375 122.460938 C 341.871094 122.636719 341.984375 122.789062 342.148438 122.851562 C 345.917969 124.226562 348.472656 125.574219 349.261719 129.859375 C 349.277344 129.972656 349.34375 130.082031 349.445312 130.148438 C 350.46875 130.851562 351.496094 130.902344 352.527344 130.316406 C 357.886719 127.257812 362.976562 123.253906 367.792969 118.304688 Z M 367.792969 118.304688 "/><path style=" stroke:none;fill-rule:nonzero;fill:#faf6e8;fill-opacity:1;" d="M 51.261719 110.679688 C 51.367188 111.550781 51.648438 112.375 52.105469 113.152344 C 52.484375 113.800781 53.183594 114.121094 53.59375 114.898438 C 53.664062 115.035156 53.808594 115.125 53.96875 115.136719 C 56.519531 115.257812 58.03125 114.746094 61.035156 113.890625 C 62.132812 113.578125 63.261719 113.6875 64.390625 113.679688 C 64.6875 113.679688 64.902344 113.960938 64.828125 114.246094 C 64 117.363281 65.25 118.703125 67.671875 120.628906 C 69.972656 122.445312 72.238281 124.339844 74.476562 126.3125 C 73.324219 126.863281 72.46875 127.824219 71.90625 129.203125 C 71.546875 130.082031 71.601562 133.898438 73.292969 132.539062 C 75.09375 135.539062 77.511719 135.265625 80.511719 134.015625 C 82.203125 133.308594 83.929688 132.667969 85.683594 132.097656 C 87.09375 131.640625 87.96875 132.230469 89.335938 132.140625 C 90.84375 132.042969 92.304688 132.472656 93.65625 132.273438 C 98.511719 131.554688 102.019531 127.589844 104.390625 123.585938 C 105.429688 121.832031 106.300781 121.277344 108.285156 121.351562 C 109.117188 121.382812 109.390625 121.789062 109.101562 122.558594 C 108.503906 124.183594 108.539062 125.832031 109.214844 127.507812 C 109.289062 127.691406 109.234375 127.902344 109.074219 128.027344 C 104.296875 131.789062 100.539062 136.140625 102.355469 142.679688 C 102.621094 143.632812 103.160156 144.144531 103.972656 144.210938 L 107.195312 144.480469 C 107.914062 144.539062 108.496094 144.140625 108.949219 143.28125 C 109.730469 141.792969 110.210938 140.21875 111.140625 138.804688 C 112.355469 136.941406 113.261719 134.941406 113.851562 132.8125 C 114.277344 131.265625 114.667969 130.230469 115.03125 129.707031 C 115.914062 128.40625 117.136719 127.496094 118.691406 126.972656 C 118.921875 127.90625 118.621094 129.210938 119.636719 129.621094 L 119.28125 131.515625 C 119.144531 132.242188 119.355469 132.839844 119.90625 133.304688 C 124.144531 136.882812 126.695312 134.332031 128.976562 130.75 C 129.71875 129.59375 134.667969 120.703125 136.585938 123.523438 C 136.679688 123.664062 136.6875 123.847656 136.609375 123.996094 C 135.960938 125.164062 135.597656 126.429688 135.515625 127.796875 C 135.511719 127.917969 135.558594 128.039062 135.644531 128.128906 C 137.164062 129.726562 138.917969 131.742188 141.257812 130.265625 C 141.914062 129.851562 142.542969 129.316406 143.144531 128.644531 C 145.820312 125.671875 148.796875 123.027344 152.085938 120.71875 C 152.195312 120.640625 152.335938 120.621094 152.46875 120.660156 L 157.25 122.101562 C 157.554688 122.195312 157.671875 122.570312 157.46875 122.816406 L 155.246094 125.558594 C 155.167969 125.652344 155.054688 125.710938 154.933594 125.722656 C 151.714844 125.996094 149.773438 127.671875 149.097656 130.757812 C 149.042969 131.035156 148.734375 131.1875 148.476562 131.070312 L 145.09375 129.535156 C 144.230469 129.144531 143.476562 129.246094 142.828125 129.839844 C 137.457031 134.757812 142.347656 139.3125 146.917969 141.570312 C 147.035156 141.628906 147.121094 141.734375 147.15625 141.859375 C 147.941406 144.925781 148.964844 148.964844 151.410156 151.148438 C 149.339844 151.195312 147.273438 151.148438 145.207031 151 C 134.332031 150.230469 123.496094 149.054688 112.710938 147.472656 C 108.359375 146.828125 104.011719 146.179688 99.664062 145.507812 C 82.050781 142.808594 64.476562 138.320312 47.480469 132.996094 C 45.621094 132.410156 42.066406 131.136719 36.820312 129.175781 C 35.8125 128.796875 35.464844 128.15625 35.773438 127.246094 C 35.804688 127.152344 35.886719 127.078125 35.984375 127.058594 C 36.066406 127.039062 36.128906 127.003906 36.167969 126.945312 L 36.953125 126.574219 C 38.75 127.152344 40.46875 127.335938 42.109375 127.117188 C 44.738281 126.761719 45.632812 125.300781 44.804688 122.738281 C 45.085938 122.949219 45.320312 122.96875 45.503906 122.792969 C 45.570312 122.730469 45.601562 122.636719 45.589844 122.542969 C 45.433594 121.542969 45.164062 120.585938 44.78125 119.664062 C 44.191406 118.242188 44.175781 117.089844 44.238281 115.707031 C 44.277344 114.71875 44.777344 114.09375 45.734375 113.835938 C 46.671875 113.578125 47.628906 113.367188 48.59375 113.203125 C 50.089844 112.949219 50.980469 112.109375 51.261719 110.679688 Z M 51.261719 110.679688 "/><path style=" stroke:none;fill-rule:nonzero;fill:#faf6e8;fill-opacity:1;" d="M 92.066406 111.21875 C 94.082031 113.847656 96.71875 114.832031 99.964844 114.164062 C 99.886719 115.496094 99.5 116.6875 98.808594 117.753906 C 97.773438 119.335938 96.082031 119.25 94.996094 120.644531 C 93.867188 122.089844 92.546875 123.40625 91.035156 124.597656 C 88.820312 121.871094 86.125 121.109375 82.960938 122.308594 L 82.890625 119.582031 C 82.882812 119.410156 82.777344 119.253906 82.621094 119.183594 C 80.304688 118.164062 79.648438 117.9375 78.441406 115.601562 C 77.992188 114.730469 78.140625 113.964844 78.878906 113.296875 L 82.015625 110.472656 C 82.15625 110.339844 82.367188 110.320312 82.539062 110.414062 C 83.960938 111.234375 85.460938 111.988281 87.027344 112.675781 C 88.738281 113.429688 90.789062 112.332031 92.066406 111.21875 Z M 92.066406 111.21875 "/><path style=" stroke:none;fill-rule:nonzero;fill:#ede5d5;fill-opacity:1;" d="M 194.714844 120.878906 C 194.703125 121.765625 194.332031 122.402344 193.601562 122.792969 C 193.230469 122.078125 192.8125 121.027344 192.351562 119.652344 C 191.015625 115.65625 187.160156 111.535156 182.511719 113.484375 C 181.464844 113.921875 180.757812 114.636719 181.027344 115.808594 C 181.28125 116.925781 180.832031 117.265625 179.683594 116.832031 C 177.675781 116.0625 175.726562 114.984375 173.730469 114.601562 C 169.882812 113.859375 166.09375 114.144531 162.371094 115.441406 C 162.121094 115.53125 161.847656 115.375 161.789062 115.113281 C 161.585938 114.1875 161.875 113.558594 162.648438 113.226562 C 167.234375 111.269531 174.207031 111.664062 179.136719 113.152344 C 179.273438 113.191406 179.421875 113.164062 179.539062 113.074219 C 186.398438 107.820312 194.128906 113.222656 194.714844 120.878906 Z M 194.714844 120.878906 "/><path style=" stroke:none;fill-rule:nonzero;fill:#faf6e8;fill-opacity:1;" d="M 229.367188 135.234375 C 225.84375 130.703125 221.171875 128.90625 215.339844 129.84375 C 212.722656 130.269531 208.808594 132.277344 211.515625 135.398438 C 212.359375 140.597656 218.296875 139.878906 221.757812 141.550781 C 221.835938 141.585938 221.898438 141.648438 221.941406 141.722656 C 222.980469 143.402344 224.242188 144.867188 225.726562 146.109375 C 227.375 147.492188 228.160156 149.660156 228.949219 151.59375 C 206.113281 152.925781 185.882812 152.929688 162.664062 152.210938 C 163.585938 148.753906 161.71875 147.074219 158.898438 145.144531 C 157.253906 144.023438 155.59375 142.902344 153.917969 141.785156 C 153.453125 141.472656 153.480469 141.210938 153.996094 140.992188 C 155.074219 140.550781 155.828125 139.785156 156.261719 138.703125 C 156.300781 138.609375 156.308594 138.503906 156.273438 138.402344 L 155.28125 135.269531 C 155.21875 135.089844 155.285156 134.894531 155.4375 134.777344 C 156.710938 133.804688 157.773438 132.9375 158.878906 131.617188 C 160.167969 130.074219 161.953125 128.339844 164.246094 126.425781 C 165.53125 125.351562 166.15625 123.875 166.125 121.984375 C 166.121094 121.730469 166.324219 121.519531 166.582031 121.527344 C 168.75 121.585938 170.898438 121.792969 173.023438 122.148438 C 174.9375 122.46875 176.683594 122.429688 178.570312 123.597656 C 178.710938 123.679688 178.789062 123.839844 178.78125 124 L 178.730469 125.175781 C 178.722656 125.386719 178.570312 125.5625 178.363281 125.597656 C 177.394531 125.773438 176.667969 126.375 175.765625 126.492188 C 173.648438 126.769531 171.609375 127.125 169.65625 127.558594 C 169.496094 127.597656 169.363281 127.71875 169.320312 127.878906 C 167.152344 135.863281 175.394531 134.859375 180.109375 134.828125 C 181.214844 134.820312 182.160156 134.46875 182.957031 133.769531 C 183.421875 133.355469 185.335938 132.402344 185.9375 132.421875 C 186.078125 132.425781 186.214844 132.5 186.296875 132.617188 C 187.042969 133.742188 188.023438 134.945312 189.234375 136.230469 C 190.125 137.183594 189.867188 138.535156 190.078125 139.527344 C 190.367188 140.867188 190.4375 142.226562 190.289062 143.605469 C 190.273438 143.789062 190.367188 143.96875 190.527344 144.054688 C 193.113281 145.402344 195.820312 146.390625 198.648438 147.023438 C 200.800781 147.507812 202.910156 148.128906 204.015625 146.214844 C 205.621094 143.429688 203.394531 140.40625 200.949219 139.082031 C 200.027344 138.582031 199.097656 138.175781 198.167969 137.855469 C 197.609375 137.664062 197.574219 137.398438 198.054688 137.0625 C 198.800781 136.535156 199.433594 135.910156 199.949219 135.175781 C 200.46875 134.441406 200.699219 133.667969 200.636719 132.855469 C 200.359375 129.386719 196.371094 128.589844 193.667969 127.527344 C 193.410156 127.425781 193.304688 127.121094 193.445312 126.882812 C 194.234375 125.558594 194.289062 124.199219 193.601562 122.792969 C 194.328125 122.402344 194.703125 121.765625 194.714844 120.882812 C 195.421875 121.246094 196.183594 121.398438 197.007812 121.339844 C 197.121094 121.328125 197.234375 121.367188 197.320312 121.4375 C 198.144531 122.097656 198.964844 122.464844 199.777344 122.539062 C 204.203125 122.9375 208.964844 122.933594 214.070312 122.527344 C 218.027344 122.214844 220.820312 121.980469 224.128906 121.105469 C 225.179688 120.828125 225.660156 120.261719 225.574219 119.414062 L 225.285156 116.59375 C 225.273438 116.46875 225.207031 116.347656 225.097656 116.277344 C 220.074219 112.738281 215.003906 114.359375 209.777344 116.289062 C 208.832031 116.640625 208.230469 116.378906 207.972656 115.511719 C 207.933594 115.378906 207.960938 115.230469 208.046875 115.117188 C 208.539062 114.449219 209.195312 113.992188 210.015625 113.738281 C 214.488281 112.375 218.429688 111.535156 223.023438 112.992188 C 224.5 113.457031 225.050781 114.558594 225.605469 115.875 C 225.671875 116.039062 225.824219 116.144531 226 116.148438 C 227 116.1875 228.816406 114.984375 229.207031 116.203125 C 229.238281 116.292969 229.238281 116.382812 229.210938 116.472656 C 229.039062 117.019531 228.945312 117.582031 228.921875 118.15625 C 228.886719 119.117188 228.589844 119.660156 228.285156 120.496094 C 228.25 120.597656 228.253906 120.710938 228.289062 120.8125 C 229 122.613281 230.253906 124.542969 232.054688 126.609375 C 233.761719 128.566406 234.398438 127.566406 236.292969 126.414062 C 237.078125 125.945312 237.796875 125.386719 238.453125 124.75 C 238.96875 124.242188 239.074219 123.601562 238.769531 122.816406 L 238.308594 121.621094 C 238.222656 121.402344 238.320312 121.160156 238.53125 121.054688 C 238.925781 120.863281 239.285156 120.886719 239.609375 121.113281 C 241.558594 122.492188 243.863281 121.679688 245.898438 121.101562 C 246.195312 121.015625 246.484375 121.25 246.46875 121.558594 L 246.3125 124.125 C 246.296875 124.34375 246.132812 124.523438 245.914062 124.542969 C 243.835938 124.792969 241.835938 125.320312 239.910156 126.140625 C 238.515625 126.734375 237.027344 127.871094 235.507812 128.652344 C 235.402344 128.703125 235.328125 128.792969 235.289062 128.902344 C 234.449219 131.246094 233.976562 132.757812 233.875 133.441406 C 233.496094 135.8125 231.085938 136.214844 229.367188 135.234375 M 160.402344 139.8125 C 159.335938 145.765625 171.300781 145.566406 172.324219 140.308594 C 172.785156 137.921875 171.933594 136.339844 169.761719 135.5625 C 166.984375 134.570312 164.253906 135.53125 162.089844 137.28125 C 161.125 138.066406 160.5625 138.910156 160.402344 139.8125 Z M 160.402344 139.8125 "/><path style=" stroke:none;fill-rule:nonzero;fill:#ede5d5;fill-opacity:1;" d="M 119.636719 129.621094 C 118.621094 129.210938 118.921875 127.90625 118.6875 126.972656 L 118.964844 122.542969 C 118.972656 122.414062 119.03125 122.300781 119.125 122.222656 C 122.121094 119.757812 126.148438 114.574219 130.664062 113.285156 C 132.519531 112.757812 134.914062 112.714844 136.179688 113.871094 C 137.042969 114.65625 137.035156 115.320312 136.148438 115.863281 C 136.039062 115.933594 135.894531 115.949219 135.769531 115.902344 C 128.089844 113.273438 122.460938 123.628906 119.636719 129.621094 Z M 119.636719 129.621094 "/><path style=" stroke:none;fill-rule:nonzero;fill:#ede5d5;fill-opacity:1;" d="M 245.019531 115.957031 C 242.597656 115.609375 241.03125 115.652344 238.984375 116.613281 C 238.742188 116.730469 238.457031 116.601562 238.371094 116.351562 C 238.019531 115.324219 238.339844 114.585938 239.324219 114.152344 C 242.800781 112.605469 245.773438 113.078125 248.246094 115.585938 C 248.851562 116.199219 248.726562 116.449219 247.867188 116.34375 C 246.917969 116.222656 245.964844 116.097656 245.019531 115.957031 Z M 245.019531 115.957031 "/><path style=" stroke:none;fill-rule:nonzero;fill:#faf6e8;fill-opacity:1;" d="M 285.953125 119.3125 C 283.28125 119.847656 280.039062 122.613281 283.019531 125.085938 C 283.398438 127.238281 284.785156 128.257812 287.183594 128.164062 C 291.332031 128 295.464844 128.285156 299.53125 127.253906 C 301.90625 126.652344 303.347656 125.113281 303.84375 122.640625 C 304.125 122.714844 304.359375 122.609375 304.5625 122.324219 C 304.65625 123.226562 305.070312 123.777344 306.042969 123.839844 C 309.765625 124.089844 313.480469 124.355469 317.199219 124.628906 C 321.933594 124.980469 326.867188 125.871094 331.742188 126.460938 C 332.199219 126.519531 332.53125 126.40625 332.742188 126.125 C 332.835938 125.996094 332.988281 125.929688 333.144531 125.949219 C 334.125 126.042969 334.765625 125.558594 335.628906 125.585938 C 336.257812 125.605469 337.234375 125.648438 338.566406 125.714844 C 339.324219 125.75 339.667969 125.40625 339.609375 124.683594 L 339.960938 126.097656 C 339.988281 126.214844 340.0625 126.316406 340.160156 126.375 C 341.152344 126.96875 342.234375 127.292969 343.40625 127.359375 C 344.097656 127.683594 344.585938 128.179688 344.875 128.839844 C 344.972656 129.0625 344.871094 129.328125 344.644531 129.425781 C 343.230469 130.054688 341.648438 130.027344 340.359375 130.46875 C 322.542969 136.496094 304.402344 141.300781 285.925781 144.871094 C 287.066406 144.085938 287.605469 142.929688 287.542969 141.402344 C 287.914062 141.640625 288.320312 141.707031 288.753906 141.605469 C 288.859375 141.582031 288.953125 141.519531 289.015625 141.433594 C 291.707031 137.800781 285.25 130.445312 282.339844 128.480469 C 280.109375 126.96875 277.285156 127.394531 275.535156 129.351562 C 274.960938 129.992188 274.992188 130.5 275.628906 130.871094 C 273.480469 133.125 278.046875 138.578125 278.511719 141.160156 C 278.820312 142.839844 279.40625 144.417969 280.261719 145.90625 C 267.195312 147.820312 254.085938 149.410156 240.929688 150.675781 C 239.523438 150.808594 237.558594 150.9375 235.027344 151.054688 C 236.28125 149.085938 235.9375 147.253906 235.726562 144.527344 C 235.714844 144.339844 235.816406 144.164062 235.988281 144.085938 C 239.707031 142.398438 241.40625 145.023438 244.535156 145.441406 C 246.59375 145.71875 248.136719 145.023438 249.167969 143.351562 C 249.222656 143.257812 249.246094 143.148438 249.226562 143.039062 L 249.09375 142.265625 C 250.839844 138.484375 247.429688 135.746094 244.660156 133.976562 L 251.1875 132.125 C 251.296875 132.09375 251.390625 132.015625 251.449219 131.917969 L 252.722656 129.78125 C 252.792969 129.65625 252.921875 129.574219 253.066406 129.5625 C 253.507812 129.527344 253.933594 129.554688 254.351562 129.648438 C 257.183594 130.292969 260.214844 129.667969 261.910156 129.992188 C 264.417969 130.472656 267 130.769531 269.652344 130.890625 C 269.855469 130.898438 270.039062 130.773438 270.101562 130.582031 C 271.042969 127.664062 269.695312 125.359375 267.757812 123.335938 L 267.777344 123.019531 C 268.070312 123.144531 268.34375 123.179688 268.652344 123.011719 C 271.847656 121.257812 274.601562 118.84375 274.859375 114.941406 C 274.90625 114.191406 275.285156 113.9375 276 114.183594 C 278.28125 114.980469 280.605469 115.628906 282.960938 116.136719 C 283.625 116.28125 284.640625 115.964844 284.621094 117.128906 C 284.621094 117.21875 284.648438 117.304688 284.699219 117.378906 Z M 285.953125 119.3125 "/><path style=" stroke:none;fill-rule:nonzero;fill:#ffffff;fill-opacity:1;" d="M 44.804688 122.738281 C 45.632812 125.300781 44.738281 126.761719 42.109375 127.113281 C 40.46875 127.335938 38.75 127.152344 36.953125 126.570312 C 36.339844 125.875 33.945312 125.402344 32.914062 124.8125 C 30.988281 123.867188 30.105469 122.382812 30.261719 120.359375 C 31.238281 118.75 32.644531 117.878906 34.480469 117.742188 C 39.046875 117.414062 42.488281 119.082031 44.804688 122.738281 Z M 44.804688 122.738281 "/><path style=" stroke:none;fill-rule:nonzero;fill:#ede5d5;fill-opacity:1;" d="M 304.5625 122.324219 C 304.359375 122.609375 304.125 122.714844 303.84375 122.640625 C 297.757812 120.785156 292.015625 120.457031 286.625 121.652344 C 285.136719 121.980469 283.933594 123.125 283.019531 125.085938 C 280.039062 122.613281 283.285156 119.847656 285.953125 119.3125 C 290.804688 118.273438 295.429688 118.78125 300.320312 118.898438 C 302.152344 118.941406 304.917969 119.96875 304.5625 122.324219 Z M 304.5625 122.324219 "/><path style=" stroke:none;fill-rule:nonzero;fill:#ffffff;fill-opacity:1;" d="M 303.84375 122.640625 C 303.347656 125.113281 301.90625 126.652344 299.53125 127.253906 C 295.464844 128.285156 291.332031 128 287.183594 128.164062 C 284.785156 128.261719 283.398438 127.238281 283.019531 125.085938 C 283.933594 123.125 285.136719 121.980469 286.625 121.652344 C 292.015625 120.457031 297.757812 120.785156 303.84375 122.640625 Z M 303.84375 122.640625 "/><path style=" stroke:none;fill-rule:nonzero;fill:#6e7a78;fill-opacity:1;" d="M 0.0546875 121.183594 L 1.160156 121.613281 C 1.308594 121.671875 1.417969 121.804688 1.445312 121.96875 C 2.5625 129.582031 8.074219 135.152344 14.296875 139.121094 C 24.175781 145.417969 35.199219 149.269531 46.371094 152.929688 C 48.730469 153.707031 51.613281 154.488281 55.019531 155.28125 C 59.628906 156.355469 64.59375 157.746094 68.808594 158.675781 C 94.894531 164.460938 119.675781 167.066406 144.117188 169.011719 C 147.984375 169.316406 152.546875 169.527344 157.796875 169.644531 C 158.847656 169.667969 159.980469 170.046875 160.949219 170.121094 C 172.023438 170.9375 183.382812 170.917969 194.582031 171.011719 C 200.671875 171.066406 206.902344 170.636719 212.816406 170.605469 C 216.851562 170.582031 220.882812 170.460938 224.910156 170.234375 C 226.34375 170.15625 227.753906 169.699219 229.117188 169.660156 C 235.117188 169.496094 242.957031 168.984375 252.628906 168.125 C 266.792969 166.871094 276.402344 165.816406 281.464844 164.957031 C 285.160156 164.332031 288.859375 163.777344 292.570312 163.285156 C 293.222656 163.199219 294.171875 162.960938 295.417969 162.574219 C 296.757812 162.160156 298.726562 162.007812 299.683594 161.84375 C 314.039062 159.382812 328.101562 155.78125 341.867188 151.039062 C 341.886719 151.035156 342.375 150.894531 343.339844 150.628906 C 344.175781 150.402344 345 149.867188 345.710938 149.601562 C 353.214844 146.820312 359.496094 143.6875 366.082031 138.382812 C 367.632812 137.132812 368.84375 136.070312 369.71875 135.195312 C 370.839844 134.074219 371.355469 132.492188 372.191406 131.085938 C 372.832031 130 372.667969 129.148438 372.875 127.964844 C 372.890625 127.871094 372.941406 127.78125 373.011719 127.710938 C 373.484375 127.273438 374.046875 127.082031 374.695312 127.152344 L 373.578125 135.117188 L 371.183594 136.585938 C 366.730469 141.613281 362.441406 144.300781 356.683594 147.457031 C 346.878906 152.003906 336.769531 155.636719 326.34375 158.34375 C 290.273438 167.722656 253.273438 171.25 216.125 172.671875 C 191.0625 173.628906 165.8125 173.152344 140.382812 171.242188 C 110.941406 169.027344 81.449219 164.8125 52.90625 157.15625 C 39.511719 153.566406 25.789062 148.761719 13.683594 141.613281 C 9.875 138.996094 6.457031 135.867188 3.441406 132.226562 C 2.84375 130.816406 1.976562 130.621094 0.839844 131.640625 Z M 0.0546875 121.183594 "/><path style=" stroke:none;fill-rule:nonzero;fill:#ede5d5;fill-opacity:1;" d="M 91.035156 124.597656 C 84.945312 123.269531 79.660156 124.519531 75.175781 128.359375 C 73.902344 129.449219 73.523438 130.972656 73.292969 132.539062 C 71.601562 133.898438 71.546875 130.082031 71.90625 129.203125 C 72.46875 127.824219 73.324219 126.863281 74.476562 126.3125 C 77.144531 124.359375 79.972656 123.027344 82.960938 122.308594 C 86.125 121.109375 88.820312 121.871094 91.035156 124.597656 Z M 91.035156 124.597656 "/><path style=" stroke:none;fill-rule:nonzero;fill:#c4b5ab;fill-opacity:1;" d="M 32.914062 124.8125 C 33.945312 125.402344 36.339844 125.875 36.953125 126.570312 L 36.167969 126.945312 C 35.109375 126.851562 33.082031 126.269531 32.171875 126.660156 C 30.71875 127.292969 29.816406 130.449219 29.359375 132.09375 C 29.3125 132.25 29.1875 132.371094 29.03125 132.410156 C 28.617188 132.511719 28.222656 132.460938 27.851562 132.257812 C 27.675781 132.164062 27.464844 132.195312 27.324219 132.335938 C 26.363281 133.28125 25.824219 134.4375 25.699219 135.796875 C 25.691406 135.890625 25.714844 135.988281 25.765625 136.070312 L 26.40625 137.121094 C 25.753906 136.9375 25.191406 136.609375 24.703125 136.128906 C 24.664062 134.785156 24.878906 133.507812 25.359375 132.28125 C 25.398438 132.179688 25.476562 132.097656 25.578125 132.042969 L 28.101562 130.773438 C 28.207031 130.71875 28.285156 130.628906 28.320312 130.519531 L 29.53125 127.007812 C 29.574219 126.878906 29.671875 126.777344 29.800781 126.730469 C 30.960938 126.292969 32.003906 125.652344 32.914062 124.8125 Z M 32.914062 124.8125 "/><path style=" stroke:none;fill-rule:nonzero;fill:#ede5d5;fill-opacity:1;" d="M 36.167969 126.945312 C 36.128906 127.003906 36.066406 127.039062 35.984375 127.058594 C 35.886719 127.078125 35.804688 127.152344 35.773438 127.246094 C 35.464844 128.15625 35.8125 128.796875 36.820312 129.175781 C 42.066406 131.136719 45.621094 132.410156 47.480469 132.996094 C 64.476562 138.320312 82.050781 142.808594 99.664062 145.507812 C 104.011719 146.179688 108.359375 146.828125 112.710938 147.46875 C 123.496094 149.054688 134.332031 150.230469 145.207031 151 C 147.273438 151.144531 149.339844 151.195312 151.410156 151.144531 C 154.597656 152.089844 159.894531 156.0625 162.664062 152.210938 C 185.882812 152.929688 206.113281 152.925781 228.949219 151.59375 C 231.054688 152.257812 233.085938 152.078125 235.027344 151.050781 C 237.558594 150.9375 239.523438 150.808594 240.929688 150.675781 C 254.085938 149.410156 267.195312 147.820312 280.261719 145.902344 C 282.355469 145.292969 283.691406 146.882812 285.925781 144.871094 C 304.402344 141.296875 322.542969 136.496094 340.359375 130.46875 C 341.648438 130.027344 343.230469 130.054688 344.644531 129.425781 C 344.871094 129.328125 344.972656 129.0625 344.875 128.839844 C 344.585938 128.179688 344.097656 127.683594 343.40625 127.355469 C 344.417969 127.390625 345.15625 127.824219 345.628906 128.671875 C 345.695312 128.792969 345.707031 128.933594 345.65625 129.058594 C 345.265625 130.015625 345.179688 131.039062 345.398438 132.121094 C 345.546875 132.863281 346.082031 133.199219 346.996094 133.128906 C 348.921875 132.976562 352.070312 132.941406 352.632812 135.375 C 352.839844 136.285156 352.8125 137.21875 352.535156 138.179688 C 333.757812 145.773438 313.21875 150.316406 293.246094 153.410156 C 273.953125 156.394531 256.496094 158.457031 240.871094 159.597656 C 196.582031 162.824219 152.277344 161.410156 108.21875 156.042969 C 89.816406 153.800781 71.628906 150.410156 53.65625 145.882812 C 48.835938 144.664062 42.070312 142.648438 33.363281 139.828125 C 30.269531 138.824219 27.949219 137.921875 26.40625 137.121094 L 25.765625 136.070312 C 25.714844 135.988281 25.691406 135.890625 25.703125 135.796875 C 25.824219 134.433594 26.367188 133.28125 27.328125 132.335938 C 27.464844 132.195312 27.675781 132.164062 27.851562 132.257812 C 28.222656 132.460938 28.617188 132.511719 29.03125 132.410156 C 29.1875 132.371094 29.316406 132.25 29.359375 132.09375 C 29.816406 130.449219 30.71875 127.292969 32.175781 126.660156 C 33.082031 126.269531 35.109375 126.851562 36.167969 126.945312 Z M 36.167969 126.945312 "/><path style=" stroke:none;fill-rule:nonzero;fill:#ede5d5;fill-opacity:1;" d="M 287.542969 141.402344 C 286.445312 136.136719 282.425781 127.515625 275.628906 130.871094 C 274.992188 130.5 274.960938 129.992188 275.535156 129.351562 C 277.285156 127.394531 280.109375 126.96875 282.339844 128.480469 C 285.25 130.445312 291.707031 137.800781 289.015625 141.433594 C 288.953125 141.519531 288.859375 141.582031 288.753906 141.605469 C 288.320312 141.707031 287.914062 141.640625 287.542969 141.402344 Z M 287.542969 141.402344 "/><path style=" stroke:none;fill-rule:nonzero;fill:#ede5d5;fill-opacity:1;" d="M 229.367188 135.234375 C 227.726562 135.269531 226.617188 135.195312 225.132812 134.261719 C 221.027344 131.679688 214.621094 130.5625 211.515625 135.398438 C 208.808594 132.277344 212.722656 130.269531 215.339844 129.84375 C 221.171875 128.90625 225.84375 130.703125 229.367188 135.234375 Z M 229.367188 135.234375 "/><path style=" stroke:none;fill-rule:nonzero;fill:#ffffff;fill-opacity:1;" d="M 287.542969 141.402344 C 287.605469 142.929688 287.066406 144.085938 285.925781 144.871094 C 283.691406 146.882812 282.355469 145.292969 280.261719 145.90625 C 279.40625 144.417969 278.820312 142.839844 278.511719 141.160156 C 278.046875 138.578125 273.480469 133.125 275.628906 130.871094 C 282.425781 127.515625 286.445312 136.136719 287.542969 141.402344 Z M 287.542969 141.402344 "/><path style=" stroke:none;fill-rule:nonzero;fill:#638482;fill-opacity:1;" d="M 3.441406 132.226562 C 3.550781 135.957031 4.054688 139.652344 4.957031 143.308594 C 8.070312 160.722656 13.273438 177.589844 20.558594 193.917969 C 44.28125 247.078125 92.460938 282.871094 149.753906 292.277344 C 193.921875 299.53125 239.773438 294.304688 279.613281 273.511719 C 305.347656 260.082031 325.871094 241.199219 341.683594 217.011719 C 349.203125 205.515625 355.601562 192.296875 360.195312 179.355469 C 363.601562 169.761719 366.664062 160.121094 368.433594 150.375 C 369.578125 145.917969 370.496094 141.320312 371.183594 136.585938 L 373.578125 135.117188 C 369.789062 162.277344 360.964844 188.984375 347.144531 212.714844 C 335.902344 232.019531 320.410156 248.945312 302.542969 262.367188 C 288.53125 272.296875 273.425781 280.121094 257.226562 285.839844 C 223.894531 297.886719 187.5625 300 152.644531 295.253906 C 139.714844 293.496094 126.328125 289.964844 112.492188 284.660156 C 98.203125 278.53125 85.050781 271.605469 72.441406 262.507812 C 70.246094 260.761719 68.082031 259.011719 65.949219 257.265625 C 46.835938 241.617188 31.953125 222.882812 21.292969 201.0625 C 20.351562 199.128906 19.328125 197.332031 18.640625 195.695312 C 16.6875 191.046875 15.347656 187.804688 14.617188 185.972656 C 7.65625 168.464844 3.066406 150.351562 0.839844 131.640625 C 1.972656 130.621094 2.84375 130.816406 3.441406 132.226562 Z M 3.441406 132.226562 "/><path style=" stroke:none;fill-rule:nonzero;fill:#8baaab;fill-opacity:1;" d="M 3.441406 132.226562 C 6.457031 135.867188 9.875 138.996094 13.683594 141.613281 L 15.566406 150.347656 C 15.714844 151.046875 15.488281 151.203125 14.882812 150.820312 C 11.589844 148.714844 8.515625 146.167969 5.664062 143.183594 C 5.398438 142.90625 5.160156 142.945312 4.957031 143.308594 C 4.054688 139.652344 3.550781 135.957031 3.441406 132.226562 Z M 3.441406 132.226562 "/><path style=" stroke:none;fill-rule:nonzero;fill:#ede5d5;fill-opacity:1;" d="M 244.660156 133.976562 C 247.429688 135.746094 250.839844 138.484375 249.09375 142.265625 C 248.667969 141.542969 248.269531 140.835938 247.898438 140.144531 C 246.144531 136.855469 242.746094 136.242188 239.238281 135.679688 C 238.9375 135.632812 238.605469 135.320312 239.195312 135.175781 C 241.007812 134.738281 242.828125 134.335938 244.660156 133.976562 Z M 244.660156 133.976562 "/><path style=" stroke:none;fill-rule:nonzero;fill:#ffffff;fill-opacity:1;" d="M 172.324219 140.308594 C 171.300781 145.566406 159.335938 145.765625 160.402344 139.8125 C 160.5625 138.910156 161.125 138.066406 162.089844 137.28125 C 164.253906 135.53125 166.984375 134.570312 169.757812 135.5625 C 171.933594 136.339844 172.785156 137.921875 172.324219 140.308594 Z M 172.324219 140.308594 "/><path style=" stroke:none;fill-rule:nonzero;fill:#8baaab;fill-opacity:1;" d="M 368.433594 150.375 C 363.875 153.386719 359.214844 156.128906 354.460938 158.601562 C 353.804688 158.945312 353.597656 158.765625 353.828125 158.0625 C 354.996094 154.574219 355.949219 151.042969 356.683594 147.457031 C 362.441406 144.300781 366.730469 141.613281 371.183594 136.585938 C 370.496094 141.320312 369.578125 145.917969 368.433594 150.375 Z M 368.433594 150.375 "/><path style=" stroke:none;fill-rule:nonzero;fill:#acced1;fill-opacity:1;" d="M 13.683594 141.613281 C 25.789062 148.761719 39.511719 153.566406 52.90625 157.15625 C 81.449219 164.8125 110.941406 169.027344 140.382812 171.242188 C 165.8125 173.152344 191.0625 173.628906 216.125 172.671875 C 253.273438 171.25 290.273438 167.722656 326.347656 158.34375 C 336.769531 155.636719 346.878906 152.003906 356.683594 147.457031 C 355.949219 151.042969 354.996094 154.574219 353.828125 158.0625 C 353.597656 158.761719 353.804688 158.941406 354.460938 158.601562 C 359.214844 156.128906 363.875 153.386719 368.433594 150.375 C 366.667969 160.121094 363.601562 169.761719 360.195312 179.355469 C 355.601562 192.296875 349.203125 205.515625 341.683594 217.011719 C 325.871094 241.199219 305.347656 260.082031 279.613281 273.511719 C 239.773438 294.304688 193.921875 299.53125 149.753906 292.277344 C 92.460938 282.871094 44.285156 247.078125 20.558594 193.917969 C 13.273438 177.589844 8.070312 160.722656 4.957031 143.308594 C 5.160156 142.945312 5.398438 142.90625 5.664062 143.183594 C 8.515625 146.167969 11.589844 148.714844 14.882812 150.820312 C 15.488281 151.203125 15.714844 151.046875 15.566406 150.347656 L 13.683594 141.613281 M 48.695312 225.597656 C 78.90625 256.875 120.554688 275.035156 163.53125 278.996094 C 208.347656 283.136719 252.945312 276.714844 293.25 256.351562 C 299.925781 252.980469 306.496094 249.414062 312.957031 245.640625 C 314.53125 244.71875 315.585938 243.816406 316.121094 242.933594 C 331.800781 217.054688 344.195312 189.683594 353.3125 160.828125 C 353.460938 160.371094 353.550781 159.933594 353.589844 159.523438 C 353.640625 158.988281 353.429688 158.839844 352.949219 159.074219 C 349.847656 160.585938 346.683594 161.949219 343.457031 163.171875 C 329.617188 168.410156 315.460938 172.550781 300.984375 175.601562 C 275.261719 181.015625 249.277344 184.234375 223.023438 185.246094 C 170.75 187.257812 118.980469 184.125 68.121094 171.25 C 50.550781 166.800781 32.703125 160.765625 16.917969 152.089844 C 16.300781 151.753906 16.085938 151.921875 16.265625 152.601562 C 22.714844 176.722656 32.035156 199.574219 45.253906 220.773438 C 46.738281 223.148438 47.882812 224.757812 48.695312 225.597656 Z M 48.695312 225.597656 "/><path style=" stroke:none;fill-rule:nonzero;fill:#d6f3f1;fill-opacity:1;" d="M 163.53125 278.996094 C 120.554688 275.035156 78.90625 256.875 48.695312 225.597656 C 47.882812 224.757812 46.738281 223.148438 45.253906 220.773438 C 32.035156 199.574219 22.714844 176.722656 16.265625 152.601562 C 16.085938 151.921875 16.300781 151.753906 16.917969 152.089844 C 32.703125 160.765625 50.550781 166.800781 68.121094 171.25 C 118.980469 184.125 170.75 187.257812 223.023438 185.246094 C 249.277344 184.234375 275.261719 181.019531 300.984375 175.601562 C 315.460938 172.550781 329.617188 168.410156 343.457031 163.171875 C 346.683594 161.949219 349.847656 160.585938 352.949219 159.074219 C 353.429688 158.839844 353.640625 158.988281 353.589844 159.523438 C 353.550781 159.933594 353.460938 160.371094 353.3125 160.828125 C 344.195312 189.683594 331.800781 217.054688 316.121094 242.933594 C 315.585938 243.816406 314.53125 244.71875 312.957031 245.640625 C 306.496094 249.414062 299.925781 252.980469 293.25 256.351562 C 252.945312 276.714844 208.347656 283.136719 163.53125 278.996094 M 286.746094 231.085938 C 285 233.917969 286.613281 237.136719 290.003906 236.328125 C 293.371094 235.527344 294.972656 233.265625 297.050781 230.105469 C 303.726562 219.933594 308.808594 208.132812 310.792969 196.082031 C 311.492188 191.847656 311.117188 185.925781 305.0625 187.164062 C 302.921875 187.601562 302.535156 188.832031 302.0625 190.75 C 301.582031 192.726562 301.121094 194.710938 300.679688 196.699219 C 297.972656 208.972656 293.332031 220.4375 286.746094 231.085938 M 100.027344 195.394531 C 98.960938 198.800781 103.738281 202.003906 106.183594 203.234375 C 116.804688 208.585938 128.851562 209.964844 140.570312 208.894531 C 142.554688 208.710938 145.484375 206.992188 144.65625 204.582031 C 143.699219 201.804688 141.753906 201.546875 138.808594 201.019531 C 136.398438 200.582031 133.3125 200.066406 129.566406 199.480469 C 122.191406 198.316406 114.910156 196.320312 107.734375 193.488281 C 106.371094 192.953125 105.390625 192.660156 104.785156 192.621094 C 102.859375 192.492188 100.636719 193.429688 100.027344 195.394531 M 72.945312 233.78125 C 76.445312 235.84375 80.050781 237.703125 83.769531 239.355469 C 101.933594 247.441406 121.171875 252.253906 140.75 255.402344 C 143.808594 255.890625 145.46875 256.277344 147.796875 254.824219 C 148.566406 254.34375 148.839844 253.664062 148.613281 252.789062 C 147.824219 249.675781 145.894531 248.515625 142.734375 247.703125 C 139.695312 246.917969 136.636719 246.1875 133.574219 245.503906 C 113.824219 241.097656 94.515625 234.917969 76.359375 225.898438 C 72.414062 223.941406 67.410156 227.546875 70.558594 231.675781 C 71.199219 232.519531 72 233.21875 72.945312 233.78125 M 169.101562 234.8125 C 172.996094 237.441406 199.578125 241.496094 199.527344 234.605469 C 199.507812 231.671875 196.226562 231.1875 194.003906 230.976562 C 185.800781 230.1875 178.863281 229.429688 173.179688 228.691406 C 172.074219 228.546875 171.035156 228.609375 170.050781 228.882812 C 166.953125 229.734375 166.097656 232.785156 169.101562 234.8125 Z M 169.101562 234.8125 "/><path style=" stroke:none;fill-rule:nonzero;fill:#f2fdfb;fill-opacity:1;" d="M 290.003906 236.328125 C 286.613281 237.136719 285 233.917969 286.746094 231.085938 C 293.332031 220.4375 297.972656 208.972656 300.679688 196.699219 C 301.121094 194.710938 301.582031 192.726562 302.0625 190.75 C 302.535156 188.832031 302.921875 187.601562 305.0625 187.164062 C 311.117188 185.925781 311.492188 191.847656 310.792969 196.082031 C 308.808594 208.132812 303.726562 219.933594 297.050781 230.105469 C 294.972656 233.265625 293.371094 235.527344 290.003906 236.328125 Z M 290.003906 236.328125 "/><path style=" stroke:none;fill-rule:nonzero;fill:#ffffff;fill-opacity:1;" d="M 106.183594 203.234375 C 103.738281 202.007812 98.960938 198.800781 100.027344 195.394531 C 100.636719 193.429688 102.859375 192.492188 104.785156 192.621094 C 105.390625 192.660156 106.371094 192.953125 107.734375 193.488281 C 114.910156 196.320312 122.191406 198.316406 129.566406 199.480469 C 133.3125 200.066406 136.398438 200.582031 138.808594 201.019531 C 141.753906 201.546875 143.699219 201.804688 144.65625 204.582031 C 145.484375 206.992188 142.554688 208.710938 140.570312 208.894531 C 128.851562 209.964844 116.804688 208.585938 106.183594 203.234375 Z M 106.183594 203.234375 "/><path style=" stroke:none;fill-rule:nonzero;fill:#f2fdfb;fill-opacity:1;" d="M 72.945312 233.78125 C 72 233.21875 71.199219 232.519531 70.558594 231.675781 C 67.410156 227.546875 72.414062 223.941406 76.359375 225.898438 C 94.515625 234.914062 113.824219 241.097656 133.574219 245.503906 C 136.640625 246.1875 139.695312 246.917969 142.734375 247.703125 C 145.894531 248.515625 147.824219 249.675781 148.613281 252.789062 C 148.839844 253.664062 148.566406 254.34375 147.796875 254.824219 C 145.46875 256.277344 143.808594 255.890625 140.75 255.402344 C 121.171875 252.253906 101.933594 247.441406 83.769531 239.355469 C 80.050781 237.703125 76.445312 235.84375 72.945312 233.78125 Z M 72.945312 233.78125 "/><path style=" stroke:none;fill-rule:nonzero;fill:#ffffff;fill-opacity:1;" d="M 169.101562 234.8125 C 166.097656 232.785156 166.953125 229.734375 170.050781 228.882812 C 171.035156 228.609375 172.074219 228.546875 173.179688 228.691406 C 178.863281 229.429688 185.800781 230.1875 194.003906 230.976562 C 196.226562 231.1875 199.507812 231.671875 199.527344 234.605469 C 199.578125 241.496094 172.996094 237.441406 169.101562 234.8125 Z M 169.101562 234.8125 "/></g></svg>