<svg xmlns="http://www.w3.org/2000/svg" xmlns:xlink="http://www.w3.org/1999/xlink" width="500" zoomAndPan="magnify" viewBox="0 0 375 374.999991" height="500" preserveAspectRatio="xMidYMid meet" version="1.2"><defs><clipPath id="0bc661cc7e"><path d="M 44 102 L 322 102 L 322 335.90625 L 44 335.90625 Z M 44 102 "/></clipPath><clipPath id="0581882127"><path d="M 18 70 L 362 70 L 362 165 L 18 165 Z M 18 70 "/></clipPath><clipPath id="31d8519f43"><path d="M 187.558594 164.847656 C 79.535156 164.847656 13.214844 132.101562 13.214844 108.617188 C 13.214844 85.140625 79.535156 52.394531 187.558594 52.394531 C 295.582031 52.394531 361.910156 85.140625 361.910156 108.617188 C 361.910156 132.101562 295.582031 164.847656 187.558594 164.847656 Z M 187.558594 164.847656 "/></clipPath></defs><g id="6c2b5c6671"><g clip-rule="nonzero" clip-path="url(#0bc661cc7e)"><path style=" stroke:none;fill-rule:nonzero;fill:#708f8f;fill-opacity:1;" d="M 321.429688 159.894531 C 321.429688 191.753906 321.238281 335.714844 183.113281 335.714844 C 56.414062 335.714844 44.808594 191.753906 44.808594 159.894531 C 44.808594 128.035156 106.730469 102.207031 183.113281 102.207031 C 259.503906 102.207031 321.429688 128.035156 321.429688 159.894531 "/></g><path style=" stroke:none;fill-rule:nonzero;fill:#708f8f;fill-opacity:1;" d="M 183.113281 206.621094 C 103.460938 206.621094 54.550781 179.402344 54.550781 159.894531 C 54.550781 140.378906 103.460938 113.171875 183.113281 113.171875 C 262.777344 113.171875 311.6875 140.378906 311.6875 159.894531 C 311.6875 179.402344 262.777344 206.621094 183.113281 206.621094 "/><path style=" stroke:none;fill-rule:nonzero;fill:#98b1b1;fill-opacity:1;" d="M 375.121094 108.617188 C 375.121094 146.957031 374.859375 320.1875 187.558594 320.1875 C 15.730469 320.1875 0.00390625 146.957031 0.00390625 108.617188 C 0.00390625 70.285156 83.980469 39.199219 187.558594 39.199219 C 291.148438 39.199219 375.121094 70.285156 375.121094 108.617188 "/><path style=" stroke:none;fill-rule:nonzero;fill:#d7e1e1;fill-opacity:1;" d="M 375.121094 108.617188 C 375.121094 146.957031 291.148438 178.039062 187.558594 178.039062 C 83.980469 178.039062 0.00390625 146.957031 0.00390625 108.617188 C 0.00390625 70.285156 83.980469 39.199219 187.558594 39.199219 C 291.148438 39.199219 375.121094 70.285156 375.121094 108.617188 "/><path style=" stroke:none;fill-rule:nonzero;fill:#98b1b1;fill-opacity:1;" d="M 187.558594 164.847656 C 79.535156 164.847656 13.214844 132.101562 13.214844 108.617188 C 13.214844 85.140625 79.535156 52.394531 187.558594 52.394531 C 295.582031 52.394531 361.910156 85.140625 361.910156 108.617188 C 361.910156 132.101562 295.582031 164.847656 187.558594 164.847656 "/><g clip-rule="nonzero" clip-path="url(#0581882127)"><g clip-rule="nonzero" clip-path="url(#31d8519f43)"><path style=" stroke:none;fill-rule:nonzero;fill:#ffffff;fill-opacity:1;" d="M 360.3125 150.792969 C 360.683594 150.359375 360.9375 150.085938 361.355469 149.59375 C 366.574219 143.488281 360.917969 136.757812 353.042969 134.964844 C 352.585938 130.9375 348.765625 127.488281 342.894531 125.125 C 344.132812 120.664062 339.792969 115.855469 334.648438 114.164062 C 328.558594 112.179688 323.300781 111.109375 318.136719 110.535156 C 318.109375 108.84375 318.117188 107.199219 317.664062 105.15625 C 316.953125 101.980469 313.425781 99.636719 309.796875 98.550781 C 299.175781 95.394531 291.070312 95.394531 282.265625 97.207031 C 278.351562 96 273.578125 95.402344 268.527344 95.480469 C 269.539062 84.5625 264.300781 74.082031 246.785156 71.144531 C 240.609375 70.105469 234.40625 71.179688 229.175781 73.496094 C 220.894531 72.363281 212.363281 74.433594 204.988281 78.535156 C 194.792969 73.242188 177.835938 73.222656 165.78125 78.902344 C 159.59375 76.238281 152.105469 75.558594 144.285156 78.050781 C 135.914062 72.636719 122.269531 71.292969 110.648438 80.953125 C 101.945312 78.078125 90.042969 81.898438 84.261719 90.972656 C 71.296875 88.855469 60.800781 94.695312 60.714844 104.15625 C 53.558594 105.523438 48.375 109.683594 48.175781 115.5625 C 46.171875 117.167969 44.574219 119.210938 43.730469 121.960938 C 37.226562 122.433594 32.675781 125.476562 31.21875 129.957031 C 29.945312 130.152344 28.6875 130.351562 26.957031 130.703125 C 24.402344 131.222656 22.9375 132.574219 21.925781 134.1875 C 18.414062 136.796875 16.667969 140.8125 19.511719 145.257812 C 46.683594 187.726562 106.617188 188.011719 160.3125 189.296875 C 213.839844 190.589844 319.121094 194.957031 360.730469 165.554688 C 366.515625 161.464844 365.488281 154.695312 360.3125 150.792969 "/></g></g></g></svg>