<svg xmlns="http://www.w3.org/2000/svg" xmlns:xlink="http://www.w3.org/1999/xlink" width="500" zoomAndPan="magnify" viewBox="0 0 375 374.999991" height="500" preserveAspectRatio="xMidYMid meet" version="1.2"><defs><clipPath id="4f8fc56d9d"><path d="M 163 0 L 189.683594 0 L 189.683594 190 L 163 190 Z M 163 0 "/></clipPath><clipPath id="8a5551240e"><path d="M 163.4375 189.863281 L 163.675781 158.511719 L 163.4375 189.863281 M 163.804688 141.734375 L 164.601562 37.09375 L 164.789062 12.855469 C 164.789062 6.269531 169.609375 0.648438 175.757812 0.0585938 C 176.164062 0.0234375 176.570312 0.00390625 176.96875 0.00390625 C 180.019531 0.00390625 182.882812 1.105469 185.152344 3.164062 C 187.6875 5.46875 189.140625 8.753906 189.140625 12.175781 L 189.371094 44.695312 L 189.652344 85.089844 C 188.46875 85.148438 187.296875 85.46875 186.1875 86.09375 C 186.132812 86.089844 186.078125 86.089844 186.019531 86.089844 C 183.28125 86.089844 180.582031 87.433594 178.558594 90.707031 C 176.386719 94.21875 176.972656 99.171875 179.820312 102.132812 C 179.453125 102.257812 179.09375 102.398438 178.738281 102.554688 C 174.355469 102.859375 170.089844 105.65625 168.785156 109.835938 C 167.328125 114.496094 170.484375 120.277344 175.332031 120.894531 C 171.550781 121.5625 168.253906 124.449219 167.085938 128.101562 C 166.152344 123.464844 165.089844 118.21875 164.023438 112.941406 L 163.804688 141.734375 "/></clipPath><clipPath id="85a4805350"><path d="M 163.4375 189.863281 L 163.675781 158.511719 L 163.4375 189.863281 M 163.804688 141.734375 L 164.601562 37.09375 L 164.789062 12.855469 C 164.789062 6.269531 169.609375 0.648438 175.757812 0.0585938 C 176.164062 0.0234375 176.570312 0.00390625 176.96875 0.00390625 C 180.019531 0.00390625 182.882812 1.105469 185.152344 3.164062 C 187.6875 5.46875 189.140625 8.753906 189.140625 12.175781 L 189.371094 44.695312 L 189.652344 85.089844 C 188.46875 85.148438 187.296875 85.46875 186.1875 86.09375 C 186.132812 86.089844 186.078125 86.089844 186.019531 86.089844 C 183.28125 86.089844 180.582031 87.433594 178.558594 90.707031 C 176.386719 94.21875 176.972656 99.171875 179.820312 102.132812 C 179.453125 102.257812 179.09375 102.398438 178.738281 102.554688 C 174.355469 102.859375 170.089844 105.65625 168.785156 109.835938 C 167.328125 114.496094 170.484375 120.277344 175.332031 120.894531 C 171.550781 121.5625 168.253906 124.449219 167.085938 128.101562 C 166.152344 123.464844 165.089844 118.21875 164.023438 112.941406 L 163.804688 141.734375 "/></clipPath><clipPath id="69998fc5f4"><path d="M 164.878906 195.839844 L 232.972656 179.410156 L 188.210938 -5.972656 L 120.117188 10.453125 Z M 164.878906 195.839844 "/></clipPath><linearGradient x1="-2.321516" gradientTransform="matrix(-9.070492,-37.56671,37.579005,-9.067526,176.41522,100.764248)" y1="0" x2="2.613329" gradientUnits="userSpaceOnUse" y2="0" id="334efae659"><stop style="stop-color:#fbb990;stop-opacity:1;" offset="0"/><stop style="stop-color:#fbb990;stop-opacity:1;" offset="0.5"/><stop style="stop-color:#fbb990;stop-opacity:1;" offset="0.515625"/><stop style="stop-color:#fbb990;stop-opacity:1;" offset="0.523437"/><stop style="stop-color:#fbb991;stop-opacity:1;" offset="0.527344"/><stop style="stop-color:#fbba92;stop-opacity:1;" offset="0.53125"/><stop style="stop-color:#fbba93;stop-opacity:1;" offset="0.539062"/><stop style="stop-color:#fcbb94;stop-opacity:1;" offset="0.542969"/><stop style="stop-color:#fcbc95;stop-opacity:1;" offset="0.546875"/><stop style="stop-color:#fcbc95;stop-opacity:1;" offset="0.554688"/><stop style="stop-color:#fcbd96;stop-opacity:1;" offset="0.558594"/><stop style="stop-color:#fdbe97;stop-opacity:1;" offset="0.5625"/><stop style="stop-color:#fdbe98;stop-opacity:1;" offset="0.566406"/><stop style="stop-color:#fdbe99;stop-opacity:1;" offset="0.570312"/><stop style="stop-color:#fdbf9a;stop-opacity:1;" offset="0.574219"/><stop style="stop-color:#fdbf9a;stop-opacity:1;" offset="0.578125"/><stop style="stop-color:#fdbf9b;stop-opacity:1;" offset="0.582031"/><stop style="stop-color:#fdc09b;stop-opacity:1;" offset="0.585938"/><stop style="stop-color:#fdc09c;stop-opacity:1;" offset="0.59375"/><stop style="stop-color:#fdc19c;stop-opacity:1;" offset="0.597656"/><stop style="stop-color:#fec19d;stop-opacity:1;" offset="0.601562"/><stop style="stop-color:#fec19d;stop-opacity:1;" offset="0.609375"/><stop style="stop-color:#fec29e;stop-opacity:1;" offset="0.617188"/><stop style="stop-color:#fec39f;stop-opacity:1;" offset="0.625"/><stop style="stop-color:#fec39f;stop-opacity:1;" offset="0.632813"/><stop style="stop-color:#fec4a0;stop-opacity:1;" offset="0.640625"/><stop style="stop-color:#ffc4a1;stop-opacity:1;" offset="0.648438"/><stop style="stop-color:#ffc4a1;stop-opacity:1;" offset="0.65625"/><stop style="stop-color:#ffc5a2;stop-opacity:1;" offset="0.6875"/><stop style="stop-color:#ffc5a3;stop-opacity:1;" offset="0.75"/><stop style="stop-color:#ffc5a3;stop-opacity:1;" offset="1"/></linearGradient><clipPath id="cd41d34e8c"><path d="M 157.246094 235 L 259.691406 235 L 259.691406 374.996094 L 157.246094 374.996094 Z M 157.246094 235 "/></clipPath><clipPath id="7b49e1b3d4"><path d="M 157.246094 235 L 259.691406 235 L 259.691406 374.996094 L 157.246094 374.996094 Z M 157.246094 235 "/></clipPath><clipPath id="67f512253c"><path d="M 37.722656 125.738281 L 156.675781 125.738281 L 156.675781 295.859375 L 37.722656 295.859375 Z M 37.722656 125.738281 "/></clipPath><clipPath id="9a6343d6be"><path d="M 144.816406 295.851562 C 144.402344 295.023438 139.519531 298.300781 127.890625 284.183594 C 123.136719 278.414062 117.257812 269.742188 110.097656 256.691406 C 115.917969 267.292969 120.882812 274.984375 125.089844 280.597656 C 135.8125 292.988281 140.359375 289.988281 140.761719 290.785156 C 138.777344 280.445312 152.984375 275.59375 152.089844 259.898438 C 151.535156 250.160156 149.691406 242.132812 146.449219 235.355469 L 131.558594 196.96875 C 133.164062 198.78125 134.425781 200.203125 135.261719 201.136719 L 150.503906 240.425781 C 150.503906 240.425781 150.507812 240.433594 150.511719 240.4375 C 153.75 247.210938 155.589844 255.234375 156.144531 264.964844 C 157.039062 280.660156 142.832031 285.515625 144.816406 295.851562 M 104.964844 244.644531 C 97.730469 227.695312 84.648438 197.613281 77.621094 186.144531 C 75.382812 182.492188 72.667969 178.578125 69.726562 174.617188 C 56.355469 156.621094 38.234375 137.65625 38.234375 137.65625 C 36.671875 135.3125 38.972656 132.171875 41.417969 130.195312 C 44.390625 127.789062 49.519531 125.800781 55.378906 125.800781 C 58.519531 125.800781 61.871094 126.371094 65.214844 127.757812 C 65.660156 127.941406 66.226562 128.214844 66.914062 128.59375 C 71.203125 130.972656 80.191406 137.554688 93.050781 152.683594 C 93.375 153.066406 93.703125 153.453125 94.03125 153.835938 C 96.769531 160.738281 99.75 168.84375 101.425781 173.257812 C 101.574219 173.644531 101.714844 174.03125 101.851562 174.417969 C 100.84375 175.914062 100.085938 177.789062 99.734375 180.039062 C 99.707031 180.226562 99.679688 180.414062 99.660156 180.605469 C 99.070312 181.808594 98.628906 183.199219 98.382812 184.769531 C 97.671875 189.320312 99.5625 194.015625 102.851562 197.265625 C 99.949219 199.917969 98.019531 203.664062 97.5 207.566406 C 95.976562 210.96875 95.542969 214.859375 96.566406 218.453125 C 97.878906 223.039062 101.464844 226.78125 105.816406 228.695312 C 105.484375 234.0625 105.140625 239.398438 104.964844 244.648438 "/></clipPath><clipPath id="d3bbf5dc0e"><path d="M 144.816406 295.851562 C 144.402344 295.023438 139.519531 298.300781 127.890625 284.183594 C 123.136719 278.414062 117.257812 269.742188 110.097656 256.691406 C 115.917969 267.292969 120.882812 274.984375 125.089844 280.597656 C 135.8125 292.988281 140.359375 289.988281 140.761719 290.785156 C 138.777344 280.445312 152.984375 275.59375 152.089844 259.898438 C 151.535156 250.160156 149.691406 242.132812 146.449219 235.355469 L 131.558594 196.96875 C 133.164062 198.78125 134.425781 200.203125 135.261719 201.136719 L 150.503906 240.425781 C 150.503906 240.425781 150.507812 240.433594 150.511719 240.4375 C 153.75 247.210938 155.589844 255.234375 156.144531 264.964844 C 157.039062 280.660156 142.832031 285.515625 144.816406 295.851562 M 104.964844 244.644531 C 97.730469 227.695312 84.648438 197.613281 77.621094 186.144531 C 75.382812 182.492188 72.667969 178.578125 69.726562 174.617188 C 56.355469 156.621094 38.234375 137.65625 38.234375 137.65625 C 36.671875 135.3125 38.972656 132.171875 41.417969 130.195312 C 44.390625 127.789062 49.519531 125.800781 55.378906 125.800781 C 58.519531 125.800781 61.871094 126.371094 65.214844 127.757812 C 65.660156 127.941406 66.226562 128.214844 66.914062 128.59375 C 71.203125 130.972656 80.191406 137.554688 93.050781 152.683594 C 93.375 153.066406 93.703125 153.453125 94.03125 153.835938 C 96.769531 160.738281 99.75 168.84375 101.425781 173.257812 C 101.574219 173.644531 101.714844 174.03125 101.851562 174.417969 C 100.84375 175.914062 100.085938 177.789062 99.734375 180.039062 C 99.707031 180.226562 99.679688 180.414062 99.660156 180.605469 C 99.070312 181.808594 98.628906 183.199219 98.382812 184.769531 C 97.671875 189.320312 99.5625 194.015625 102.851562 197.265625 C 99.949219 199.917969 98.019531 203.664062 97.5 207.566406 C 95.976562 210.96875 95.542969 214.859375 96.566406 218.453125 C 97.878906 223.039062 101.464844 226.78125 105.816406 228.695312 C 105.484375 234.0625 105.140625 239.398438 104.964844 244.648438 "/></clipPath><clipPath id="24303210ee"><path d="M 127.859375 349.566406 L 231.203125 167.988281 L 66.902344 74.535156 L -36.445312 256.117188 Z M 127.859375 349.566406 "/></clipPath><linearGradient x1="-1.273556" gradientTransform="matrix(-75.158049,-42.74768,42.761672,-75.133459,84.119997,200.718795)" y1="0" x2="0.894929" gradientUnits="userSpaceOnUse" y2="0" id="9d65a6b070"><stop style="stop-color:#fbb990;stop-opacity:1;" offset="0"/><stop style="stop-color:#fbb990;stop-opacity:1;" offset="0.5"/><stop style="stop-color:#fbb990;stop-opacity:1;" offset="0.625"/><stop style="stop-color:#fbb990;stop-opacity:1;" offset="0.6875"/><stop style="stop-color:#fbb990;stop-opacity:1;" offset="0.703125"/><stop style="stop-color:#fbb990;stop-opacity:1;" offset="0.710937"/><stop style="stop-color:#fbba91;stop-opacity:1;" offset="0.71875"/><stop style="stop-color:#fbba92;stop-opacity:1;" offset="0.726562"/><stop style="stop-color:#fbba92;stop-opacity:1;" offset="0.734375"/><stop style="stop-color:#fcbb93;stop-opacity:1;" offset="0.742187"/><stop style="stop-color:#fcbb94;stop-opacity:1;" offset="0.75"/><stop style="stop-color:#fcbc94;stop-opacity:1;" offset="0.757813"/><stop style="stop-color:#fcbc95;stop-opacity:1;" offset="0.765625"/><stop style="stop-color:#fcbc95;stop-opacity:1;" offset="0.773438"/><stop style="stop-color:#fcbd96;stop-opacity:1;" offset="0.78125"/><stop style="stop-color:#fcbd96;stop-opacity:1;" offset="0.789063"/><stop style="stop-color:#fcbd97;stop-opacity:1;" offset="0.796875"/><stop style="stop-color:#fdbe97;stop-opacity:1;" offset="0.804688"/><stop style="stop-color:#fdbe98;stop-opacity:1;" offset="0.808594"/><stop style="stop-color:#fdbe98;stop-opacity:1;" offset="0.8125"/><stop style="stop-color:#fdbe99;stop-opacity:1;" offset="0.820312"/><stop style="stop-color:#fdbf99;stop-opacity:1;" offset="0.828125"/><stop style="stop-color:#fdbf9a;stop-opacity:1;" offset="0.84375"/><stop style="stop-color:#fdbf9a;stop-opacity:1;" offset="0.851562"/><stop style="stop-color:#fdc09b;stop-opacity:1;" offset="0.859375"/><stop style="stop-color:#fdc09c;stop-opacity:1;" offset="0.875"/><stop style="stop-color:#fdc19d;stop-opacity:1;" offset="0.890625"/><stop style="stop-color:#fec29e;stop-opacity:1;" offset="0.90625"/><stop style="stop-color:#fec29e;stop-opacity:1;" offset="0.921875"/><stop style="stop-color:#fec39f;stop-opacity:1;" offset="0.9375"/><stop style="stop-color:#fec3a0;stop-opacity:1;" offset="0.953125"/><stop style="stop-color:#fec3a0;stop-opacity:1;" offset="0.96875"/><stop style="stop-color:#fec3a1;stop-opacity:1;" offset="0.976562"/><stop style="stop-color:#ffc4a1;stop-opacity:1;" offset="0.984375"/><stop style="stop-color:#ffc4a1;stop-opacity:1;" offset="1"/></linearGradient><clipPath id="db8d7dca9a"><path d="M 94 153.617188 L 152.691406 153.617188 L 152.691406 291 L 94 291 Z M 94 153.617188 "/></clipPath><clipPath id="0b92f000ea"><path d="M 140.761719 290.785156 C 140.359375 289.988281 135.8125 292.988281 125.089844 280.597656 C 120.882812 274.984375 115.917969 267.292969 110.097656 256.691406 C 109.945312 256.414062 107.957031 251.652344 104.964844 244.644531 C 105.140625 239.398438 105.484375 234.0625 105.816406 228.695312 C 107.84375 229.582031 110.035156 230.078125 112.238281 230.078125 C 112.90625 230.078125 113.574219 230.035156 114.238281 229.9375 C 114.3125 228.402344 114.386719 226.863281 114.460938 225.324219 C 114.839844 225.300781 115.214844 225.261719 115.589844 225.210938 C 116.289062 210.707031 116.984375 196.199219 117.679688 181.691406 C 117.6875 181.53125 117.695312 181.371094 117.699219 181.210938 C 123.257812 187.570312 128.164062 193.140625 131.558594 196.96875 L 146.449219 235.355469 C 149.691406 242.132812 151.535156 250.160156 152.089844 259.898438 C 152.984375 275.59375 138.777344 280.445312 140.761719 290.785156 M 101.851562 174.417969 C 101.714844 174.03125 101.574219 173.644531 101.425781 173.257812 C 99.75 168.84375 96.769531 160.738281 94.03125 153.835938 C 98.554688 159.148438 103.390625 164.761719 108.117188 170.210938 C 105.777344 170.59375 103.484375 172.007812 101.851562 174.417969 "/></clipPath><clipPath id="c2df91f2a5"><path d="M 140.761719 290.785156 C 140.359375 289.988281 135.8125 292.988281 125.089844 280.597656 C 120.882812 274.984375 115.917969 267.292969 110.097656 256.691406 C 109.945312 256.414062 107.957031 251.652344 104.964844 244.644531 C 105.140625 239.398438 105.484375 234.0625 105.816406 228.695312 C 107.84375 229.582031 110.035156 230.078125 112.238281 230.078125 C 112.90625 230.078125 113.574219 230.035156 114.238281 229.9375 C 114.3125 228.402344 114.386719 226.863281 114.460938 225.324219 C 114.839844 225.300781 115.214844 225.261719 115.589844 225.210938 C 116.289062 210.707031 116.984375 196.199219 117.679688 181.691406 C 117.6875 181.53125 117.695312 181.371094 117.699219 181.210938 C 123.257812 187.570312 128.164062 193.140625 131.558594 196.96875 L 146.449219 235.355469 C 149.691406 242.132812 151.535156 250.160156 152.089844 259.898438 C 152.984375 275.59375 138.777344 280.445312 140.761719 290.785156 M 101.851562 174.417969 C 101.714844 174.03125 101.574219 173.644531 101.425781 173.257812 C 99.75 168.84375 96.769531 160.738281 94.03125 153.835938 C 98.554688 159.148438 103.390625 164.761719 108.117188 170.210938 C 105.777344 170.59375 103.484375 172.007812 101.851562 174.417969 "/></clipPath><clipPath id="e291ebb978"><path d="M 88.378906 33 L 160 33 L 160 174 L 88.378906 174 Z M 88.378906 33 "/></clipPath><clipPath id="a4bec68a00"><path d="M 131.5625 173.871094 L 128.511719 164.949219 C 129.199219 165.175781 129.902344 165.363281 130.613281 165.511719 C 132.121094 165.828125 133.644531 165.953125 135.175781 165.953125 C 138.425781 165.953125 141.707031 165.378906 144.921875 164.800781 C 147.285156 164.375 149.867188 163.820312 151.355469 161.933594 C 152.554688 160.417969 152.761719 158.359375 152.464844 156.429688 L 155.832031 155.339844 L 129.058594 86.109375 C 130.085938 92.640625 138.15625 131.859375 139.246094 136.515625 C 139.953125 139.527344 139.894531 141.988281 139.285156 143.894531 C 138.695312 143.820312 138.078125 143.785156 137.433594 143.78125 C 138.292969 141.1875 138.824219 137.277344 136.25 133.160156 C 135.179688 131.445312 133.425781 130.253906 131.480469 129.632812 C 129.785156 128.40625 127.617188 127.765625 125.527344 127.765625 C 124.722656 127.765625 123.929688 127.859375 123.179688 128.050781 C 123.21875 123.011719 121.011719 117.722656 116.878906 115.039062 C 116.011719 114.472656 115.132812 114.042969 114.261719 113.742188 C 114.234375 113.726562 114.203125 113.703125 114.175781 113.6875 C 112.925781 112.875 111.660156 112.34375 110.414062 112.066406 L 107.394531 103.246094 L 89.304688 50.378906 C 87.066406 44.183594 89.683594 37.261719 95.273438 34.621094 C 96.960938 33.828125 98.746094 33.425781 100.53125 33.425781 C 102.097656 33.425781 103.664062 33.734375 105.164062 34.351562 C 108.328125 35.65625 110.816406 38.253906 111.976562 41.46875 L 119.257812 60.289062 L 159.675781 164.796875 L 131.5625 173.871094 "/></clipPath><clipPath id="f29448bc7e"><path d="M 131.5625 173.871094 L 128.511719 164.949219 C 129.199219 165.175781 129.902344 165.363281 130.613281 165.511719 C 132.121094 165.828125 133.644531 165.953125 135.175781 165.953125 C 138.425781 165.953125 141.707031 165.378906 144.921875 164.800781 C 147.285156 164.375 149.867188 163.820312 151.355469 161.933594 C 152.554688 160.417969 152.761719 158.359375 152.464844 156.429688 L 155.832031 155.339844 L 129.058594 86.109375 C 130.085938 92.640625 138.15625 131.859375 139.246094 136.515625 C 139.953125 139.527344 139.894531 141.988281 139.285156 143.894531 C 138.695312 143.820312 138.078125 143.785156 137.433594 143.78125 C 138.292969 141.1875 138.824219 137.277344 136.25 133.160156 C 135.179688 131.445312 133.425781 130.253906 131.480469 129.632812 C 129.785156 128.40625 127.617188 127.765625 125.527344 127.765625 C 124.722656 127.765625 123.929688 127.859375 123.179688 128.050781 C 123.21875 123.011719 121.011719 117.722656 116.878906 115.039062 C 116.011719 114.472656 115.132812 114.042969 114.261719 113.742188 C 114.234375 113.726562 114.203125 113.703125 114.175781 113.6875 C 112.925781 112.875 111.660156 112.34375 110.414062 112.066406 L 107.394531 103.246094 L 89.304688 50.378906 C 87.066406 44.183594 89.683594 37.261719 95.273438 34.621094 C 96.960938 33.828125 98.746094 33.425781 100.53125 33.425781 C 102.097656 33.425781 103.664062 33.734375 105.164062 34.351562 C 108.328125 35.65625 110.816406 38.253906 111.976562 41.46875 L 119.257812 60.289062 L 159.675781 164.796875 L 131.5625 173.871094 "/></clipPath><clipPath id="e0b68f9f6e"><path d="M 93.265625 194.15625 L 198.9375 161.878906 L 153.476562 13.140625 L 47.800781 45.417969 Z M 93.265625 194.15625 "/></clipPath><linearGradient x1="-1.619741" gradientTransform="matrix(-14.254216,-46.634391,46.649653,-14.249552,122.927904,102.509218)" y1="0" x2="1.561898" gradientUnits="userSpaceOnUse" y2="0" id="6b4d8b1a18"><stop style="stop-color:#fbb990;stop-opacity:1;" offset="0"/><stop style="stop-color:#fbb990;stop-opacity:1;" offset="0.5"/><stop style="stop-color:#fbb990;stop-opacity:1;" offset="0.5625"/><stop style="stop-color:#fbb990;stop-opacity:1;" offset="0.59375"/><stop style="stop-color:#fbb991;stop-opacity:1;" offset="0.601562"/><stop style="stop-color:#fbba92;stop-opacity:1;" offset="0.605469"/><stop style="stop-color:#fcbb92;stop-opacity:1;" offset="0.609375"/><stop style="stop-color:#fcbb92;stop-opacity:1;" offset="0.617188"/><stop style="stop-color:#fcbb93;stop-opacity:1;" offset="0.625"/><stop style="stop-color:#fcbc94;stop-opacity:1;" offset="0.632812"/><stop style="stop-color:#fcbc95;stop-opacity:1;" offset="0.640625"/><stop style="stop-color:#fcbd96;stop-opacity:1;" offset="0.644531"/><stop style="stop-color:#fcbd97;stop-opacity:1;" offset="0.648438"/><stop style="stop-color:#fcbd97;stop-opacity:1;" offset="0.652344"/><stop style="stop-color:#fdbe98;stop-opacity:1;" offset="0.65625"/><stop style="stop-color:#fdbe98;stop-opacity:1;" offset="0.671875"/><stop style="stop-color:#fdbf99;stop-opacity:1;" offset="0.679688"/><stop style="stop-color:#fdbf9a;stop-opacity:1;" offset="0.6875"/><stop style="stop-color:#fdc09b;stop-opacity:1;" offset="0.695312"/><stop style="stop-color:#fdc09b;stop-opacity:1;" offset="0.703125"/><stop style="stop-color:#fec19c;stop-opacity:1;" offset="0.710938"/><stop style="stop-color:#fec19d;stop-opacity:1;" offset="0.71875"/><stop style="stop-color:#fec19d;stop-opacity:1;" offset="0.726562"/><stop style="stop-color:#fec29e;stop-opacity:1;" offset="0.734375"/><stop style="stop-color:#fec29e;stop-opacity:1;" offset="0.742188"/><stop style="stop-color:#fec29f;stop-opacity:1;" offset="0.75"/><stop style="stop-color:#fec3a0;stop-opacity:1;" offset="0.765625"/><stop style="stop-color:#fec4a0;stop-opacity:1;" offset="0.78125"/><stop style="stop-color:#ffc4a1;stop-opacity:1;" offset="0.789062"/><stop style="stop-color:#ffc4a2;stop-opacity:1;" offset="0.796875"/><stop style="stop-color:#ffc5a2;stop-opacity:1;" offset="0.8125"/><stop style="stop-color:#ffc5a3;stop-opacity:1;" offset="0.875"/><stop style="stop-color:#ffc5a3;stop-opacity:1;" offset="1"/></linearGradient><clipPath id="01c676e183"><path d="M 193 30.15625 L 261.398438 30.15625 L 261.398438 192.308594 L 193 192.308594 Z M 193 30.15625 "/></clipPath><clipPath id="35aea4c9fc"><path d="M 215.679688 192.175781 L 193.050781 179.3125 C 193.167969 178.105469 193.140625 176.914062 193.070312 175.730469 L 232.871094 53.21875 L 237.203125 39.886719 C 238.898438 34.371094 243.90625 30.648438 249.191406 30.648438 C 249.9375 30.648438 250.695312 30.722656 251.449219 30.878906 C 254.882812 31.582031 257.746094 33.617188 259.515625 36.605469 C 261.261719 39.550781 261.683594 43.117188 260.675781 46.386719 L 255.523438 63.980469 L 243.550781 104.832031 C 243.292969 104.804688 243.03125 104.792969 242.769531 104.792969 C 237.957031 104.792969 233.164062 108.804688 233.859375 115.304688 C 233.804688 115.035156 232.402344 114.550781 230.582031 114.550781 C 227.941406 114.550781 224.417969 115.578125 222.878906 119.792969 C 220.980469 124.996094 222.710938 128.492188 224.230469 131.195312 C 223.203125 130.007812 220.878906 129.363281 218.691406 129.363281 C 217.734375 129.363281 216.804688 129.488281 216.023438 129.738281 C 216.070312 129.027344 216.171875 128.285156 216.320312 127.507812 C 217.34375 121.128906 221.394531 97.160156 223.386719 83.121094 L 196.359375 166.332031 C 196.425781 167.511719 196.457031 168.703125 196.332031 169.914062 L 218.964844 182.773438 C 219.773438 181.058594 220.851562 179.527344 222.074219 178.121094 L 219.574219 186.652344 C 218.03125 188.292969 216.65625 190.101562 215.679688 192.175781 "/></clipPath><clipPath id="a6e266c0b4"><path d="M 215.679688 192.175781 L 193.050781 179.3125 C 193.167969 178.105469 193.140625 176.914062 193.070312 175.730469 L 232.871094 53.21875 L 237.203125 39.886719 C 238.898438 34.371094 243.90625 30.648438 249.191406 30.648438 C 249.9375 30.648438 250.695312 30.722656 251.449219 30.878906 C 254.882812 31.582031 257.746094 33.617188 259.515625 36.605469 C 261.261719 39.550781 261.683594 43.117188 260.675781 46.386719 L 255.523438 63.980469 L 243.550781 104.832031 C 243.292969 104.804688 243.03125 104.792969 242.769531 104.792969 C 237.957031 104.792969 233.164062 108.804688 233.859375 115.304688 C 233.804688 115.035156 232.402344 114.550781 230.582031 114.550781 C 227.941406 114.550781 224.417969 115.578125 222.878906 119.792969 C 220.980469 124.996094 222.710938 128.492188 224.230469 131.195312 C 223.203125 130.007812 220.878906 129.363281 218.691406 129.363281 C 217.734375 129.363281 216.804688 129.488281 216.023438 129.738281 C 216.070312 129.027344 216.171875 128.285156 216.320312 127.507812 C 217.34375 121.128906 221.394531 97.160156 223.386719 83.121094 L 196.359375 166.332031 C 196.425781 167.511719 196.457031 168.703125 196.332031 169.914062 L 218.964844 182.773438 C 219.773438 181.058594 220.851562 179.527344 222.074219 178.121094 L 219.574219 186.652344 C 218.03125 188.292969 216.65625 190.101562 215.679688 192.175781 "/></clipPath><clipPath id="24faed9e14"><path d="M 164.609375 187.003906 L 259.488281 204.25 L 290.121094 35.816406 L 195.246094 18.570312 Z M 164.609375 187.003906 "/></clipPath><linearGradient x1="-0.847974" gradientTransform="matrix(15.550173,-85.496664,85.524649,15.545086,224.742649,123.039307)" y1="0" x2="1.121492" gradientUnits="userSpaceOnUse" y2="0" id="1cb1c6d41b"><stop style="stop-color:#fbb990;stop-opacity:1;" offset="0"/><stop style="stop-color:#fbb990;stop-opacity:1;" offset="0.5"/><stop style="stop-color:#fbb990;stop-opacity:1;" offset="0.5625"/><stop style="stop-color:#fbb991;stop-opacity:1;" offset="0.566406"/><stop style="stop-color:#fbba91;stop-opacity:1;" offset="0.570313"/><stop style="stop-color:#fbba91;stop-opacity:1;" offset="0.578125"/><stop style="stop-color:#fbba92;stop-opacity:1;" offset="0.585938"/><stop style="stop-color:#fbba92;stop-opacity:1;" offset="0.59375"/><stop style="stop-color:#fcbb93;stop-opacity:1;" offset="0.601562"/><stop style="stop-color:#fcbb93;stop-opacity:1;" offset="0.605469"/><stop style="stop-color:#fcbb94;stop-opacity:1;" offset="0.609375"/><stop style="stop-color:#fcbb94;stop-opacity:1;" offset="0.617188"/><stop style="stop-color:#fcbc94;stop-opacity:1;" offset="0.625"/><stop style="stop-color:#fcbc95;stop-opacity:1;" offset="0.640625"/><stop style="stop-color:#fcbd96;stop-opacity:1;" offset="0.648438"/><stop style="stop-color:#fcbd96;stop-opacity:1;" offset="0.65625"/><stop style="stop-color:#fcbd97;stop-opacity:1;" offset="0.671875"/><stop style="stop-color:#fdbe98;stop-opacity:1;" offset="0.6875"/><stop style="stop-color:#fdbe98;stop-opacity:1;" offset="0.695313"/><stop style="stop-color:#fdbf99;stop-opacity:1;" offset="0.703125"/><stop style="stop-color:#fdbf99;stop-opacity:1;" offset="0.71875"/><stop style="stop-color:#fdc09a;stop-opacity:1;" offset="0.726562"/><stop style="stop-color:#fdc09b;stop-opacity:1;" offset="0.734375"/><stop style="stop-color:#fdc19c;stop-opacity:1;" offset="0.75"/><stop style="stop-color:#fec19d;stop-opacity:1;" offset="0.765625"/><stop style="stop-color:#fec19d;stop-opacity:1;" offset="0.773438"/><stop style="stop-color:#fec29e;stop-opacity:1;" offset="0.78125"/><stop style="stop-color:#fec39f;stop-opacity:1;" offset="0.8125"/><stop style="stop-color:#fec39f;stop-opacity:1;" offset="0.84375"/><stop style="stop-color:#fec3a0;stop-opacity:1;" offset="0.851562"/><stop style="stop-color:#ffc4a1;stop-opacity:1;" offset="0.859375"/><stop style="stop-color:#ffc4a1;stop-opacity:1;" offset="0.875"/><stop style="stop-color:#ffc4a1;stop-opacity:1;" offset="0.890625"/><stop style="stop-color:#ffc4a2;stop-opacity:1;" offset="0.90625"/><stop style="stop-color:#ffc5a2;stop-opacity:1;" offset="0.9375"/><stop style="stop-color:#ffc5a3;stop-opacity:1;" offset="1"/></linearGradient><clipPath id="222a46a13a"><path d="M 224 94.445312 L 311 94.445312 L 311 223.601562 L 224 223.601562 Z M 224 94.445312 "/></clipPath><clipPath id="67cfa4436b"><path d="M 235.621094 223.277344 C 234.742188 223.277344 233.699219 222.359375 232.613281 220.929688 C 228.792969 215.917969 224.382812 204.605469 224.382812 204.605469 C 226.414062 200.925781 227.308594 196.882812 227.203125 192.929688 L 230.925781 187.308594 C 230.953125 191.113281 230.050781 194.988281 228.101562 198.527344 C 228.101562 198.527344 235.375 217.195312 239.335938 217.195312 C 239.613281 217.195312 239.875 217.105469 240.117188 216.910156 L 256.144531 192.757812 C 255.347656 192.671875 254.5625 192.40625 253.820312 192.019531 C 255.6875 190.113281 256.839844 187.503906 256.839844 184.621094 C 256.839844 180.789062 254.800781 177.433594 251.75 175.578125 C 255.75 173.75 258.53125 169.714844 258.53125 165.027344 C 258.53125 162.167969 257.492188 159.542969 255.769531 157.519531 C 259.222656 150.359375 264.132812 140.566406 268.015625 131.359375 L 287.574219 101.859375 L 288.34375 100.695312 C 290.882812 96.992188 295.003906 94.921875 299.082031 94.921875 C 300.996094 94.921875 302.902344 95.375 304.625 96.332031 C 307.695312 98.03125 309.824219 100.824219 310.625 104.203125 C 311.414062 107.535156 310.757812 111.066406 308.828125 113.878906 L 306.453125 117.457031 L 240.382812 216.984375 L 236.398438 222.988281 C 236.15625 223.183594 235.898438 223.277344 235.621094 223.277344 "/></clipPath><clipPath id="49028e4a6c"><path d="M 235.621094 223.277344 C 234.742188 223.277344 233.699219 222.359375 232.613281 220.929688 C 228.792969 215.917969 224.382812 204.605469 224.382812 204.605469 C 226.414062 200.925781 227.308594 196.882812 227.203125 192.929688 L 230.925781 187.308594 C 230.953125 191.113281 230.050781 194.988281 228.101562 198.527344 C 228.101562 198.527344 235.375 217.195312 239.335938 217.195312 C 239.613281 217.195312 239.875 217.105469 240.117188 216.910156 L 256.144531 192.757812 C 255.347656 192.671875 254.5625 192.40625 253.820312 192.019531 C 255.6875 190.113281 256.839844 187.503906 256.839844 184.621094 C 256.839844 180.789062 254.800781 177.433594 251.75 175.578125 C 255.75 173.75 258.53125 169.714844 258.53125 165.027344 C 258.53125 162.167969 257.492188 159.542969 255.769531 157.519531 C 259.222656 150.359375 264.132812 140.566406 268.015625 131.359375 L 287.574219 101.859375 L 288.34375 100.695312 C 290.882812 96.992188 295.003906 94.921875 299.082031 94.921875 C 300.996094 94.921875 302.902344 95.375 304.625 96.332031 C 307.695312 98.03125 309.824219 100.824219 310.625 104.203125 C 311.414062 107.535156 310.757812 111.066406 308.828125 113.878906 L 306.453125 117.457031 L 240.382812 216.984375 L 236.398438 222.988281 C 236.15625 223.183594 235.898438 223.277344 235.621094 223.277344 "/></clipPath><clipPath id="54c3a96017"><path d="M 161.894531 173.824219 L 277.882812 265.617188 L 373.902344 144.371094 L 257.914062 52.578125 Z M 161.894531 173.824219 "/></clipPath><linearGradient x1="-0.933502" gradientTransform="matrix(49.241878,-62.178771,62.199122,49.225768,263.756348,160.012956)" y1="0" x2="1.016424" gradientUnits="userSpaceOnUse" y2="0" id="df48b607c2"><stop style="stop-color:#fbb990;stop-opacity:1;" offset="0"/><stop style="stop-color:#fbb990;stop-opacity:1;" offset="0.5"/><stop style="stop-color:#fbb990;stop-opacity:1;" offset="0.5625"/><stop style="stop-color:#fbb990;stop-opacity:1;" offset="0.59375"/><stop style="stop-color:#fbb990;stop-opacity:1;" offset="0.609375"/><stop style="stop-color:#fbb991;stop-opacity:1;" offset="0.617188"/><stop style="stop-color:#fbb991;stop-opacity:1;" offset="0.625"/><stop style="stop-color:#fbba92;stop-opacity:1;" offset="0.632812"/><stop style="stop-color:#fbba92;stop-opacity:1;" offset="0.640625"/><stop style="stop-color:#fbbb92;stop-opacity:1;" offset="0.644531"/><stop style="stop-color:#fcbb93;stop-opacity:1;" offset="0.648438"/><stop style="stop-color:#fcbb93;stop-opacity:1;" offset="0.65625"/><stop style="stop-color:#fcbb93;stop-opacity:1;" offset="0.664063"/><stop style="stop-color:#fcbc94;stop-opacity:1;" offset="0.671875"/><stop style="stop-color:#fcbc95;stop-opacity:1;" offset="0.6875"/><stop style="stop-color:#fcbc96;stop-opacity:1;" offset="0.695313"/><stop style="stop-color:#fcbd96;stop-opacity:1;" offset="0.703125"/><stop style="stop-color:#fcbd96;stop-opacity:1;" offset="0.71875"/><stop style="stop-color:#fdbe97;stop-opacity:1;" offset="0.726562"/><stop style="stop-color:#fdbe98;stop-opacity:1;" offset="0.734375"/><stop style="stop-color:#fdbe99;stop-opacity:1;" offset="0.75"/><stop style="stop-color:#fdbf9a;stop-opacity:1;" offset="0.765625"/><stop style="stop-color:#fdbf9a;stop-opacity:1;" offset="0.773438"/><stop style="stop-color:#fdc09b;stop-opacity:1;" offset="0.78125"/><stop style="stop-color:#fdc09c;stop-opacity:1;" offset="0.796875"/><stop style="stop-color:#fdc09c;stop-opacity:1;" offset="0.804688"/><stop style="stop-color:#fec19d;stop-opacity:1;" offset="0.8125"/><stop style="stop-color:#fec19d;stop-opacity:1;" offset="0.828125"/><stop style="stop-color:#fec29e;stop-opacity:1;" offset="0.84375"/><stop style="stop-color:#fec29e;stop-opacity:1;" offset="0.851563"/><stop style="stop-color:#fec29f;stop-opacity:1;" offset="0.859375"/><stop style="stop-color:#fec39f;stop-opacity:1;" offset="0.875"/><stop style="stop-color:#fec39f;stop-opacity:1;" offset="0.890625"/><stop style="stop-color:#fec3a0;stop-opacity:1;" offset="0.898438"/><stop style="stop-color:#ffc4a1;stop-opacity:1;" offset="0.90625"/><stop style="stop-color:#ffc4a1;stop-opacity:1;" offset="0.9375"/><stop style="stop-color:#ffc4a1;stop-opacity:1;" offset="0.953125"/><stop style="stop-color:#ffc5a2;stop-opacity:1;" offset="0.96875"/><stop style="stop-color:#ffc5a2;stop-opacity:1;" offset="0.984375"/><stop style="stop-color:#ffc5a3;stop-opacity:1;" offset="1"/></linearGradient><clipPath id="b6a42121b1"><path d="M 163 112.652344 L 190.824219 112.652344 L 190.824219 205.394531 L 163 205.394531 Z M 163 112.652344 "/></clipPath><clipPath id="0442e08bdb"><path d="M 190.496094 205.101562 C 190.496094 205.101562 164.769531 192.0625 163.4375 189.863281 L 163.675781 158.511719 C 164.476562 158.660156 165.308594 158.710938 166.121094 158.742188 C 167.148438 158.777344 168.171875 158.796875 169.203125 158.796875 C 172.59375 158.796875 175.984375 158.59375 179.351562 158.1875 C 181.660156 157.910156 184 157.523438 186.191406 156.769531 C 187.539062 156.53125 188.867188 156.222656 190.148438 155.789062 L 190.496094 205.101562 M 163.804688 141.734375 L 164.023438 112.941406 C 165.089844 118.21875 166.152344 123.464844 167.085938 128.101562 C 167.070312 128.144531 167.058594 128.1875 167.042969 128.234375 C 165.910156 131.945312 167.03125 136.253906 169.828125 138.945312 C 167.601562 139.292969 165.53125 140.296875 163.804688 141.734375 "/></clipPath><clipPath id="ee482e44d5"><path d="M 190.496094 205.101562 C 190.496094 205.101562 164.769531 192.0625 163.4375 189.863281 L 163.675781 158.511719 C 164.476562 158.660156 165.308594 158.710938 166.121094 158.742188 C 167.148438 158.777344 168.171875 158.796875 169.203125 158.796875 C 172.59375 158.796875 175.984375 158.59375 179.351562 158.1875 C 181.660156 157.910156 184 157.523438 186.191406 156.769531 C 187.539062 156.53125 188.867188 156.222656 190.148438 155.789062 L 190.496094 205.101562 M 163.804688 141.734375 L 164.023438 112.941406 C 165.089844 118.21875 166.152344 123.464844 167.085938 128.101562 C 167.070312 128.144531 167.058594 128.1875 167.042969 128.234375 C 165.910156 131.945312 167.03125 136.253906 169.828125 138.945312 C 167.601562 139.292969 165.53125 140.296875 163.804688 141.734375 "/></clipPath><clipPath id="82953639f4"><path d="M 129 86 L 156 86 L 156 156.464844 L 129 156.464844 Z M 129 86 "/></clipPath><clipPath id="a5d03f5543"><path d="M 152.464844 156.429688 C 152.421875 156.144531 152.363281 155.859375 152.300781 155.585938 C 151.253906 151.054688 148.8125 147.269531 144.425781 145.792969 C 143.019531 144.816406 141.316406 144.148438 139.285156 143.894531 C 139.894531 141.988281 139.953125 139.527344 139.246094 136.515625 C 138.15625 131.859375 130.085938 92.640625 129.058594 86.109375 L 155.832031 155.339844 L 152.464844 156.429688 "/></clipPath><clipPath id="02fbe628ac"><path d="M 152.464844 156.429688 C 152.421875 156.144531 152.363281 155.859375 152.300781 155.585938 C 151.253906 151.054688 148.8125 147.269531 144.425781 145.792969 C 143.019531 144.816406 141.316406 144.148438 139.285156 143.894531 C 139.894531 141.988281 139.953125 139.527344 139.246094 136.515625 C 138.15625 131.859375 130.085938 92.640625 129.058594 86.109375 L 155.832031 155.339844 L 152.464844 156.429688 "/></clipPath><clipPath id="deaf498d91"><path d="M 131.34375 163.910156 L 175.492188 150.421875 L 153.546875 78.632812 L 109.402344 92.117188 Z M 131.34375 163.910156 "/></clipPath><linearGradient x1="-1.25459" gradientTransform="matrix(-14.254216,-46.634391,46.649653,-14.249552,122.927904,102.509218)" y1="0" x2="0.284892" gradientUnits="userSpaceOnUse" y2="0" id="fcdd194b65"><stop style="stop-color:#f9a77b;stop-opacity:1;" offset="0"/><stop style="stop-color:#f9a77b;stop-opacity:1;" offset="0.5"/><stop style="stop-color:#f9a77b;stop-opacity:1;" offset="0.75"/><stop style="stop-color:#f9a77b;stop-opacity:1;" offset="0.875"/><stop style="stop-color:#f9a77b;stop-opacity:1;" offset="0.9375"/><stop style="stop-color:#f9a77b;stop-opacity:1;" offset="0.96875"/><stop style="stop-color:#f9a77b;stop-opacity:1;" offset="0.984375"/><stop style="stop-color:#f9a77b;stop-opacity:1;" offset="1"/></linearGradient><clipPath id="321ae2294b"><path d="M 196 83.066406 L 231 83.066406 L 231 183 L 196 183 Z M 196 83.066406 "/></clipPath><clipPath id="8b767f7474"><path d="M 218.964844 182.773438 L 196.332031 169.914062 C 196.457031 168.703125 196.425781 167.511719 196.359375 166.332031 L 223.386719 83.121094 C 221.394531 97.160156 217.34375 121.128906 216.320312 127.507812 C 216.171875 128.285156 216.070312 129.027344 216.023438 129.738281 C 215.484375 129.910156 215.019531 130.144531 214.65625 130.441406 C 212.539062 132.164062 211.683594 135.066406 211.789062 137.789062 C 211.890625 140.289062 212.542969 145.542969 214.390625 147.242188 C 216.105469 148.820312 220.226562 149.144531 223.726562 149.144531 C 225.4375 149.144531 227.003906 149.066406 228.0625 149.019531 C 228.964844 148.976562 229.886719 148.902344 230.726562 148.59375 L 222.074219 178.121094 C 220.851562 179.527344 219.773438 181.058594 218.964844 182.773438 "/></clipPath><clipPath id="cfa08963d0"><path d="M 218.964844 182.773438 L 196.332031 169.914062 C 196.457031 168.703125 196.425781 167.511719 196.359375 166.332031 L 223.386719 83.121094 C 221.394531 97.160156 217.34375 121.128906 216.320312 127.507812 C 216.171875 128.285156 216.070312 129.027344 216.023438 129.738281 C 215.484375 129.910156 215.019531 130.144531 214.65625 130.441406 C 212.539062 132.164062 211.683594 135.066406 211.789062 137.789062 C 211.890625 140.289062 212.542969 145.542969 214.390625 147.242188 C 216.105469 148.820312 220.226562 149.144531 223.726562 149.144531 C 225.4375 149.144531 227.003906 149.066406 228.0625 149.019531 C 228.964844 148.976562 229.886719 148.902344 230.726562 148.59375 L 222.074219 178.121094 C 220.851562 179.527344 219.773438 181.058594 218.964844 182.773438 "/></clipPath><clipPath id="e260b84287"><path d="M 178.789062 179.582031 L 229.628906 188.824219 L 248.273438 86.308594 L 197.433594 77.070312 Z M 178.789062 179.582031 "/></clipPath><linearGradient x1="-0.734776" gradientTransform="matrix(15.550173,-85.496664,85.524649,15.545086,224.742649,123.039307)" y1="0" x2="0.464274" gradientUnits="userSpaceOnUse" y2="0" id="4a94255884"><stop style="stop-color:#f9a77b;stop-opacity:1;" offset="0"/><stop style="stop-color:#f9a77b;stop-opacity:1;" offset="0.5"/><stop style="stop-color:#f9a77b;stop-opacity:1;" offset="0.75"/><stop style="stop-color:#f9a77b;stop-opacity:1;" offset="0.8125"/><stop style="stop-color:#f9a77b;stop-opacity:1;" offset="0.828125"/><stop style="stop-color:#f9a77b;stop-opacity:1;" offset="0.84375"/><stop style="stop-color:#f9a77c;stop-opacity:1;" offset="0.851562"/><stop style="stop-color:#f9a77c;stop-opacity:1;" offset="0.855469"/><stop style="stop-color:#f9a77d;stop-opacity:1;" offset="0.859375"/><stop style="stop-color:#f9a77d;stop-opacity:1;" offset="0.867187"/><stop style="stop-color:#faa87e;stop-opacity:1;" offset="0.871094"/><stop style="stop-color:#fba97e;stop-opacity:1;" offset="0.875"/><stop style="stop-color:#fba97e;stop-opacity:1;" offset="0.890625"/><stop style="stop-color:#fba97e;stop-opacity:1;" offset="0.898438"/><stop style="stop-color:#fba97f;stop-opacity:1;" offset="0.90625"/><stop style="stop-color:#fbaa7f;stop-opacity:1;" offset="0.921875"/><stop style="stop-color:#fbaa7f;stop-opacity:1;" offset="0.9375"/><stop style="stop-color:#fbaa80;stop-opacity:1;" offset="0.945312"/><stop style="stop-color:#fbaa81;stop-opacity:1;" offset="0.953125"/><stop style="stop-color:#fbab81;stop-opacity:1;" offset="0.96875"/><stop style="stop-color:#fbab81;stop-opacity:1;" offset="0.976562"/><stop style="stop-color:#fbab82;stop-opacity:1;" offset="0.984375"/><stop style="stop-color:#fbab82;stop-opacity:1;" offset="0.992187"/><stop style="stop-color:#fbac82;stop-opacity:1;" offset="1"/></linearGradient><clipPath id="f053dc37df"><path d="M 228 131 L 268.226562 131 L 268.226562 217.34375 L 228 217.34375 Z M 228 131 "/></clipPath><clipPath id="3f4cf93402"><path d="M 239.335938 217.195312 C 235.375 217.195312 228.101562 198.527344 228.101562 198.527344 C 230.050781 194.988281 230.953125 191.113281 230.925781 187.308594 L 239.695312 174.082031 C 240.226562 174.511719 240.800781 174.890625 241.410156 175.222656 C 238.003906 176.980469 235.679688 180.527344 235.679688 184.621094 C 235.679688 190.464844 240.417969 195.199219 246.261719 195.199219 C 249.222656 195.199219 251.902344 193.980469 253.820312 192.019531 C 254.5625 192.40625 255.347656 192.671875 256.144531 192.757812 L 240.117188 216.910156 C 239.875 217.105469 239.613281 217.195312 239.335938 217.195312 M 255.769531 157.519531 C 254.84375 156.433594 253.722656 155.519531 252.457031 154.835938 L 268.015625 131.359375 C 264.132812 140.566406 259.222656 150.359375 255.769531 157.519531 "/></clipPath><clipPath id="0db258124a"><path d="M 239.335938 217.195312 C 235.375 217.195312 228.101562 198.527344 228.101562 198.527344 C 230.050781 194.988281 230.953125 191.113281 230.925781 187.308594 L 239.695312 174.082031 C 240.226562 174.511719 240.800781 174.890625 241.410156 175.222656 C 238.003906 176.980469 235.679688 180.527344 235.679688 184.621094 C 235.679688 190.464844 240.417969 195.199219 246.261719 195.199219 C 249.222656 195.199219 251.902344 193.980469 253.820312 192.019531 C 254.5625 192.40625 255.347656 192.671875 256.144531 192.757812 L 240.117188 216.910156 C 239.875 217.105469 239.613281 217.195312 239.335938 217.195312 M 255.769531 157.519531 C 254.84375 156.433594 253.722656 155.519531 252.457031 154.835938 L 268.015625 131.359375 C 264.132812 140.566406 259.222656 150.359375 255.769531 157.519531 "/></clipPath><clipPath id="df7ed0032b"><path d="M 186.316406 184.125 L 252.636719 236.617188 L 309.804688 164.429688 L 243.480469 111.941406 Z M 186.316406 184.125 "/></clipPath><linearGradient x1="-0.844301" gradientTransform="matrix(49.241878,-62.178771,62.199122,49.225768,263.756348,160.012956)" y1="0" x2="0.316599" gradientUnits="userSpaceOnUse" y2="0" id="adbebb1f84"><stop style="stop-color:#f9a375;stop-opacity:1;" offset="0"/><stop style="stop-color:#f9a375;stop-opacity:1;" offset="0.5"/><stop style="stop-color:#f9a375;stop-opacity:1;" offset="0.75"/><stop style="stop-color:#f9a375;stop-opacity:1;" offset="0.875"/><stop style="stop-color:#f9a375;stop-opacity:1;" offset="0.9375"/><stop style="stop-color:#f9a375;stop-opacity:1;" offset="0.96875"/><stop style="stop-color:#f9a375;stop-opacity:1;" offset="0.976562"/><stop style="stop-color:#f9a376;stop-opacity:1;" offset="0.984375"/><stop style="stop-color:#f9a377;stop-opacity:1;" offset="1"/></linearGradient><clipPath id="596ae713df"><path d="M 85 63.722656 L 322.296875 63.722656 L 322.296875 374.996094 L 85 374.996094 Z M 85 63.722656 "/></clipPath><clipPath id="11b301c2be"><path d="M 177.734375 172.964844 L 321.726562 172.964844 L 321.726562 374.996094 L 177.734375 374.996094 Z M 177.734375 172.964844 "/></clipPath><clipPath id="28a699eef5"><path d="M 85 117.207031 L 121.386719 117.207031 L 121.386719 374.996094 L 85 374.996094 Z M 85 117.207031 "/></clipPath></defs><g id="21e6a19330"><path style=" stroke:none;fill-rule:nonzero;fill:#cef7ff;fill-opacity:1;" d="M 124.792969 175.910156 C 108.917969 172.9375 87.316406 169.179688 71.453125 174.011719 C 58.667969 177.902344 48.15625 194.226562 51.207031 207.34375 C 54.058594 219.617188 65.90625 228.601562 78.414062 230.160156 C 67.308594 239.003906 64.839844 256.28125 71.542969 268.796875 C 78.246094 281.3125 92.648438 288.722656 106.851562 288.800781 C 121.050781 288.882812 134.792969 282.324219 145.167969 272.628906 C 146.402344 271.472656 147.625 270.238281 148.339844 268.703125 C 149.132812 267.003906 149.242188 265.078125 149.339844 263.207031 C 150.789062 235.019531 152.238281 206.832031 153.683594 178.644531 C 144.085938 180.246094 134.355469 177.703125 124.792969 175.910156 "/><path style=" stroke:none;fill-rule:nonzero;fill:#cef7ff;fill-opacity:1;" d="M 225.445312 272.296875 C 240.636719 292.5625 270.03125 280.226562 276.796875 264.859375 C 281.175781 254.914062 279.820312 242.183594 271.105469 235.6875 C 279.449219 236.078125 289.15625 232.558594 295.796875 222.808594 C 302.089844 213.5625 305.34375 193.558594 286.523438 182.972656 C 273.835938 175.835938 206.082031 210.289062 206.082031 210.289062 C 206.082031 210.289062 226.636719 273.910156 225.445312 272.296875 "/><path style=" stroke:none;fill-rule:nonzero;fill:#cef7ff;fill-opacity:1;" d="M 204.4375 65.125 C 215.734375 54.105469 232.210938 48.4375 247.8125 58.121094 C 269.449219 71.550781 271.332031 93.441406 263.019531 105.832031 C 273.023438 97.261719 290.996094 99.300781 300.886719 110.117188 C 323.746094 135.113281 305.484375 161.75 303.046875 169.058594 C 300.09375 177.917969 292.328125 184.1875 284.746094 189.636719 C 265.84375 203.230469 245.644531 215.019531 224.519531 224.800781 C 214.628906 229.378906 204.375 233.5625 193.558594 234.851562 C 190.929688 235.164062 188.214844 235.296875 185.679688 234.527344 C 182.199219 233.464844 179.460938 230.832031 176.863281 228.28125 C 157.894531 209.683594 138.726562 190.835938 124.875 168.167969 C 111.753906 146.699219 111.5 118.234375 110.046875 93.648438 C 109.386719 82.425781 115.601562 50.15625 142.679688 40.765625 C 181.578125 27.269531 204.164062 54.378906 204.4375 65.125 "/><path style=" stroke:none;fill-rule:nonzero;fill:#cef7ff;fill-opacity:1;" d="M 73.6875 153.40625 C 73.6875 153.40625 59.496094 122.328125 71.660156 109.492188 C 83.828125 96.65625 106.128906 94.628906 116.265625 112.871094 C 126.460938 131.214844 121.671875 175.027344 121.671875 175.027344 L 85.855469 167.597656 L 73.6875 153.40625 "/><path style=" stroke:none;fill-rule:nonzero;fill:#cef7ff;fill-opacity:1;" d="M 297.285156 235.863281 C 290.507812 235.863281 285.015625 241.355469 285.015625 248.128906 C 285.015625 254.902344 290.507812 260.394531 297.285156 260.394531 C 304.0625 260.394531 309.554688 254.902344 309.554688 248.128906 C 309.554688 241.355469 304.0625 235.863281 297.285156 235.863281 "/><path style=" stroke:none;fill-rule:nonzero;fill:#cef7ff;fill-opacity:1;" d="M 68.851562 71.011719 C 62.074219 71.011719 56.582031 76.503906 56.582031 83.277344 C 56.582031 90.054688 62.074219 95.542969 68.851562 95.542969 C 75.628906 95.542969 81.125 90.054688 81.125 83.277344 C 81.125 76.503906 75.628906 71.011719 68.851562 71.011719 "/><path style=" stroke:none;fill-rule:nonzero;fill:#cef7ff;fill-opacity:1;" d="M 287.824219 57.5 C 281.046875 57.5 275.554688 62.992188 275.554688 69.765625 C 275.554688 76.542969 281.046875 82.035156 287.824219 82.035156 C 294.601562 82.035156 300.09375 76.542969 300.09375 69.765625 C 300.09375 62.992188 294.601562 57.5 287.824219 57.5 "/><path style=" stroke:none;fill-rule:nonzero;fill:#ffffff;fill-opacity:1;" d="M 149.277344 49.835938 C 144.796875 49.835938 141.167969 53.464844 141.167969 57.945312 C 141.167969 62.421875 144.796875 66.050781 149.277344 66.050781 C 153.757812 66.050781 157.386719 62.421875 157.386719 57.945312 C 157.386719 53.464844 153.757812 49.835938 149.277344 49.835938 "/><g clip-rule="nonzero" clip-path="url(#4f8fc56d9d)"><g clip-rule="nonzero" clip-path="url(#8a5551240e)"><g clip-rule="nonzero" clip-path="url(#85a4805350)"><g clip-rule="nonzero" clip-path="url(#69998fc5f4)"><path style=" stroke:none;fill-rule:nonzero;fill:url(#334efae659);" d="M 164.878906 195.839844 L 232.96875 179.410156 L 188.207031 -5.976562 L 120.117188 10.453125 Z M 164.878906 195.839844 "/></g></g></g></g><path style=" stroke:none;fill-rule:nonzero;fill:#faa46f;fill-opacity:1;" d="M 178.558594 90.707031 C 176.28125 94.390625 177.035156 99.652344 180.25 102.550781 C 175.375 102.238281 170.242188 105.175781 168.785156 109.835938 C 167.328125 114.496094 170.484375 120.277344 175.332031 120.894531 C 171.507812 121.570312 168.171875 124.519531 167.042969 128.234375 C 165.910156 131.945312 167.03125 136.253906 169.828125 138.945312 C 163.585938 139.917969 158.589844 146.046875 158.894531 152.355469 C 158.984375 154.253906 159.582031 156.261719 161.082031 157.429688 C 162.476562 158.515625 164.355469 158.675781 166.121094 158.742188 C 170.535156 158.902344 174.964844 158.71875 179.351562 158.1875 C 182.890625 157.761719 186.5 157.078125 189.546875 155.21875 C 193.855469 152.585938 196.539062 147.84375 197.765625 142.945312 C 198.988281 138.046875 198.925781 132.925781 198.855469 127.878906 C 198.746094 120.398438 198.644531 112.914062 198.535156 105.4375 C 198.488281 102.042969 198.433594 98.59375 197.410156 95.355469 C 194.894531 87.378906 184.152344 81.65625 178.558594 90.707031 "/><path style=" stroke:none;fill-rule:nonzero;fill:#ffffff;fill-opacity:1;" d="M 182.613281 89.695312 C 180.335938 93.375 181.089844 98.636719 184.304688 101.535156 C 179.433594 101.222656 174.296875 104.164062 172.839844 108.820312 C 171.382812 113.480469 174.539062 119.261719 179.382812 119.882812 C 175.5625 120.558594 172.230469 123.507812 171.097656 127.21875 C 169.96875 130.933594 171.085938 135.238281 173.882812 137.929688 C 167.640625 138.90625 162.644531 145.03125 162.949219 151.34375 C 163.039062 153.242188 163.636719 155.246094 165.136719 156.414062 C 166.53125 157.5 168.410156 157.664062 170.175781 157.726562 C 174.589844 157.886719 179.019531 157.703125 183.40625 157.175781 C 186.945312 156.75 190.554688 156.066406 193.601562 154.207031 C 197.910156 151.570312 200.59375 146.832031 201.820312 141.933594 C 203.042969 137.03125 202.980469 131.914062 202.910156 126.863281 C 202.800781 119.382812 202.699219 111.902344 202.589844 104.421875 C 202.542969 101.03125 202.488281 97.578125 201.464844 94.339844 C 198.949219 86.363281 188.210938 80.640625 182.613281 89.695312 "/><g clip-rule="nonzero" clip-path="url(#cd41d34e8c)"><path style=" stroke:none;fill-rule:nonzero;fill:#fbb488;fill-opacity:1;" d="M 238.105469 297.609375 C 240.039062 293.464844 257.359375 240.492188 259.496094 235.308594 C 254.761719 240.066406 205.785156 254.214844 201.027344 258.832031 C 192.65625 266.945312 175.113281 315.800781 173.953125 318.265625 L 157.535156 374.996094 L 248.359375 374.996094 L 236.636719 344.027344 C 236.25 342.941406 228.050781 319.144531 238.105469 297.609375 "/></g><path style=" stroke:none;fill-rule:nonzero;fill:#feeade;fill-opacity:1;" d="M 201.027344 258.832031 C 202.734375 257.179688 210.121094 254.296875 219.113281 251.0625 C 210.121094 254.296875 202.734375 257.179688 201.027344 258.832031 "/><path style=" stroke:none;fill-rule:nonzero;fill:#cde3dd;fill-opacity:1;" d="M 252.542969 255.472656 C 252.550781 255.460938 252.554688 255.445312 252.558594 255.433594 C 252.554688 255.445312 252.550781 255.460938 252.542969 255.472656 M 252.566406 255.402344 C 255.910156 245.46875 258.714844 237.203125 259.496094 235.308594 C 258.714844 237.203125 255.910156 245.46875 252.566406 255.402344 M 219.113281 251.0625 C 235.199219 245.28125 256.425781 238.371094 259.488281 235.316406 C 256.429688 238.367188 235.199219 245.28125 219.113281 251.0625 "/><g clip-rule="nonzero" clip-path="url(#7b49e1b3d4)"><path style=" stroke:none;fill-rule:nonzero;fill:#faa576;fill-opacity:1;" d="M 189.257812 374.996094 L 157.535156 374.996094 L 173.953125 318.265625 C 175.113281 315.800781 192.65625 266.945312 201.027344 258.832031 C 202.734375 257.179688 210.121094 254.296875 219.113281 251.0625 C 235.199219 245.28125 256.429688 238.367188 259.488281 235.316406 C 259.488281 235.3125 259.492188 235.3125 259.496094 235.308594 C 258.714844 237.203125 255.910156 245.46875 252.566406 255.402344 C 252.566406 255.414062 252.558594 255.425781 252.558594 255.433594 C 252.554688 255.445312 252.550781 255.460938 252.542969 255.472656 C 250.910156 260.332031 249.148438 265.59375 247.429688 270.695312 C 242.210938 286.230469 231.335938 298.492188 220.277344 310.59375 C 218.105469 312.964844 209.390625 319.679688 206.152344 328.390625 C 197.367188 352.039062 189.257812 374.996094 189.257812 374.996094 "/></g><g clip-rule="nonzero" clip-path="url(#67f512253c)"><g clip-rule="nonzero" clip-path="url(#9a6343d6be)"><g clip-rule="nonzero" clip-path="url(#d3bbf5dc0e)"><g clip-rule="nonzero" clip-path="url(#24303210ee)"><path style=" stroke:none;fill-rule:nonzero;fill:url(#9d65a6b070);" d="M 127.585938 346.96875 L 229.792969 167.390625 L 66.8125 74.691406 L -35.394531 254.269531 Z M 127.585938 346.96875 "/></g></g></g></g><path style=" stroke:none;fill-rule:nonzero;fill:#faa46f;fill-opacity:1;" d="M 98.382812 184.769531 C 97.496094 190.433594 100.644531 196.320312 105.5 199.367188 C 98.492188 202.472656 94.460938 211.085938 96.566406 218.453125 C 98.671875 225.820312 106.648438 231.003906 114.238281 229.9375 C 114.9375 215.433594 115.632812 200.929688 116.328125 186.421875 C 117.058594 171.234375 100.496094 171.28125 98.382812 184.769531 "/><path style=" stroke:none;fill-rule:nonzero;fill:#ffffff;fill-opacity:1;" d="M 99.734375 180.039062 C 98.847656 185.703125 101.996094 191.59375 106.851562 194.640625 C 99.84375 197.742188 95.816406 206.359375 97.921875 213.722656 C 100.023438 221.089844 108.003906 226.273438 115.589844 225.210938 C 116.289062 210.707031 116.984375 196.199219 117.679688 181.691406 C 118.410156 166.503906 101.847656 166.554688 99.734375 180.039062 "/><path style=" stroke:none;fill-rule:nonzero;fill:#cde3dd;fill-opacity:1;" d="M 110.097656 256.691406 C 109.945312 256.414062 107.949219 251.644531 104.964844 244.648438 C 107.957031 251.652344 109.945312 256.414062 110.097656 256.691406 M 131.558594 196.96875 C 128.164062 193.140625 123.257812 187.570312 117.699219 181.210938 C 123.261719 187.570312 128.167969 193.140625 131.558594 196.964844 L 131.558594 196.96875 "/><path style=" stroke:none;fill-rule:nonzero;fill:#cde3dd;fill-opacity:1;" d="M 108.117188 170.210938 C 103.390625 164.761719 98.554688 159.148438 94.03125 153.835938 C 98.558594 159.152344 103.394531 164.765625 108.117188 170.210938 "/><g clip-rule="nonzero" clip-path="url(#db8d7dca9a)"><g clip-rule="nonzero" clip-path="url(#0b92f000ea)"><g clip-rule="nonzero" clip-path="url(#c2df91f2a5)"><path style=" stroke:none;fill-rule:nonzero;fill:#faaa7d;fill-opacity:1;" d="M 138.566406 318.320312 L 212.8125 187.867188 L 108.445312 128.507812 L 34.199219 258.957031 Z M 138.566406 318.320312 "/></g></g></g><path style=" stroke:none;fill-rule:nonzero;fill:#f99660;fill-opacity:1;" d="M 112.238281 230.078125 C 110.035156 230.078125 107.84375 229.582031 105.816406 228.695312 C 105.925781 226.953125 106.035156 225.214844 106.136719 223.46875 C 108.4375 224.667969 111.003906 225.347656 113.589844 225.347656 C 113.878906 225.347656 114.171875 225.339844 114.460938 225.324219 C 114.386719 226.863281 114.3125 228.402344 114.238281 229.9375 C 113.574219 230.035156 112.90625 230.078125 112.238281 230.078125 M 106.175781 194.960938 C 106.152344 194.683594 106.125 194.40625 106.097656 194.132812 C 106.347656 194.308594 106.597656 194.480469 106.851562 194.640625 C 106.625 194.738281 106.398438 194.847656 106.175781 194.960938 "/><path style=" stroke:none;fill-rule:nonzero;fill:#feeadd;fill-opacity:1;" d="M 113.589844 225.347656 C 111.003906 225.347656 108.4375 224.667969 106.136719 223.46875 C 106.6875 213.929688 107.027344 204.332031 106.175781 194.960938 C 106.398438 194.847656 106.625 194.738281 106.851562 194.640625 C 106.597656 194.480469 106.347656 194.308594 106.097656 194.132812 C 105.4375 187.410156 104.144531 180.800781 101.851562 174.417969 C 103.484375 172.007812 105.777344 170.59375 108.117188 170.210938 C 111.414062 174.011719 114.652344 177.730469 117.699219 181.210938 C 117.695312 181.371094 117.6875 181.53125 117.679688 181.691406 C 116.984375 196.199219 116.289062 210.707031 115.589844 225.210938 C 115.214844 225.261719 114.839844 225.300781 114.460938 225.324219 C 114.171875 225.339844 113.878906 225.347656 113.589844 225.347656 "/><g clip-rule="nonzero" clip-path="url(#e291ebb978)"><g clip-rule="nonzero" clip-path="url(#a4bec68a00)"><g clip-rule="nonzero" clip-path="url(#f29448bc7e)"><g clip-rule="nonzero" clip-path="url(#e0b68f9f6e)"><path style=" stroke:none;fill-rule:nonzero;fill:url(#6b4d8b1a18);" d="M 94.464844 193.792969 L 198.941406 161.878906 L 153.589844 13.503906 L 49.113281 45.417969 Z M 94.464844 193.792969 "/></g></g></g></g><path style=" stroke:none;fill-rule:nonzero;fill:#faa46f;fill-opacity:1;" d="M 116.878906 115.039062 C 121.804688 118.242188 123.996094 125.144531 122.90625 130.917969 C 126.429688 127.824219 133.53125 128.8125 136.25 133.160156 C 139.453125 138.28125 137.851562 143.082031 136.785156 145.429688 C 146.175781 143.832031 150.753906 148.902344 152.300781 155.585938 C 152.800781 157.742188 152.730469 160.195312 151.355469 161.933594 C 149.867188 163.820312 147.285156 164.375 144.921875 164.800781 C 140.191406 165.652344 135.320312 166.492188 130.613281 165.511719 C 124.480469 164.238281 119.367188 160.015625 115.183594 155.355469 C 108.25 147.625 98.902344 138.300781 98.886719 127.398438 C 98.875 117.5 108.195312 109.390625 116.878906 115.039062 "/><path style=" stroke:none;fill-rule:nonzero;fill:#ffffff;fill-opacity:1;" d="M 114.175781 113.6875 C 119.101562 116.890625 121.292969 123.792969 120.203125 129.566406 C 123.726562 126.472656 130.828125 127.460938 133.542969 131.808594 C 136.75 136.929688 135.148438 141.734375 134.082031 144.078125 C 143.472656 142.480469 148.050781 147.550781 149.597656 154.234375 C 150.097656 156.390625 150.027344 158.847656 148.652344 160.582031 C 147.160156 162.46875 144.582031 163.023438 142.21875 163.449219 C 137.488281 164.300781 132.617188 165.140625 127.914062 164.160156 C 121.777344 162.886719 116.664062 158.664062 112.480469 154.003906 C 105.546875 146.277344 96.199219 136.949219 96.1875 126.042969 C 96.171875 116.148438 105.492188 108.039062 114.175781 113.6875 "/><g clip-rule="nonzero" clip-path="url(#01c676e183)"><g clip-rule="nonzero" clip-path="url(#35aea4c9fc)"><g clip-rule="nonzero" clip-path="url(#a6e266c0b4)"><g clip-rule="nonzero" clip-path="url(#24faed9e14)"><path style=" stroke:none;fill-rule:nonzero;fill:url(#1cb1c6d41b);" d="M 164.609375 187.003906 L 259.210938 204.199219 L 289.835938 35.816406 L 195.238281 18.621094 Z M 164.609375 187.003906 "/></g></g></g></g><path style=" stroke:none;fill-rule:nonzero;fill:#ffffff;fill-opacity:1;" d="M 211.789062 137.789062 C 211.683594 135.066406 212.539062 132.164062 214.65625 130.441406 C 216.769531 128.71875 222.445312 129.132812 224.230469 131.195312 C 222.710938 128.492188 220.980469 124.996094 222.878906 119.792969 C 225.5 112.617188 233.855469 114.679688 233.859375 115.320312 C 233.101562 108.308594 238.726562 104.1875 243.882812 104.867188 C 249.039062 105.546875 253.296875 110.761719 252.511719 115.898438 C 252.136719 118.335938 250.8125 120.5 249.511719 122.59375 C 244.515625 130.648438 239.5 138.722656 233.601562 146.148438 C 232.941406 146.980469 232.238281 147.828125 231.300781 148.335938 C 230.320312 148.863281 229.175781 148.96875 228.0625 149.019531 C 224.851562 149.164062 216.941406 149.59375 214.390625 147.242188 C 212.542969 145.542969 211.890625 140.289062 211.789062 137.789062 "/><g clip-rule="nonzero" clip-path="url(#222a46a13a)"><g clip-rule="nonzero" clip-path="url(#67cfa4436b)"><g clip-rule="nonzero" clip-path="url(#49028e4a6c)"><g clip-rule="nonzero" clip-path="url(#54c3a96017)"><path style=" stroke:none;fill-rule:nonzero;fill:url(#df48b607c2);" d="M 161.898438 173.824219 L 277.882812 265.617188 L 373.902344 144.375 L 257.914062 52.578125 Z M 161.898438 173.824219 "/></g></g></g></g><path style=" stroke:none;fill-rule:nonzero;fill:#ffffff;fill-opacity:1;" d="M 246.261719 174.046875 C 240.417969 174.046875 235.679688 178.78125 235.679688 184.621094 C 235.679688 190.464844 240.417969 195.199219 246.261719 195.199219 C 252.101562 195.199219 256.839844 190.464844 256.839844 184.621094 C 256.839844 178.78125 252.101562 174.046875 246.261719 174.046875 "/><path style=" stroke:none;fill-rule:nonzero;fill:#ffffff;fill-opacity:1;" d="M 246.9375 153.4375 C 240.53125 153.4375 235.339844 158.628906 235.339844 165.027344 C 235.339844 171.429688 240.53125 176.617188 246.9375 176.617188 C 253.339844 176.617188 258.53125 171.429688 258.53125 165.027344 C 258.53125 158.628906 253.339844 153.4375 246.9375 153.4375 "/><path style=" stroke:none;fill-rule:nonzero;fill:#ffffff;fill-opacity:1;" d="M 268.5625 147.019531 C 264.773438 147.019531 261.699219 150.089844 261.699219 153.878906 C 261.699219 157.671875 264.773438 160.742188 268.5625 160.742188 C 272.351562 160.742188 275.425781 157.671875 275.425781 153.878906 C 275.425781 150.089844 272.351562 147.019531 268.5625 147.019531 "/><path style=" stroke:none;fill-rule:nonzero;fill:#ffffff;fill-opacity:1;" d="M 73.246094 199.71875 C 69.453125 199.71875 66.382812 202.792969 66.382812 206.582031 C 66.382812 210.371094 69.453125 213.441406 73.246094 213.441406 C 77.035156 213.441406 80.109375 210.371094 80.109375 206.582031 C 80.109375 202.792969 77.035156 199.71875 73.246094 199.71875 "/><path style=" stroke:none;fill-rule:nonzero;fill:#cdd9ce;fill-opacity:1;" d="M 190.496094 205.101562 L 190.148438 155.789062 L 190.496094 205.101562 "/><g clip-rule="nonzero" clip-path="url(#b6a42121b1)"><g clip-rule="nonzero" clip-path="url(#0442e08bdb)"><g clip-rule="nonzero" clip-path="url(#ee482e44d5)"><path style=" stroke:none;fill-rule:nonzero;fill:#f9a375;fill-opacity:1;" d="M 164.925781 211.273438 L 211.523438 200.027344 L 189.003906 106.773438 L 142.410156 118.015625 Z M 164.925781 211.273438 "/></g></g></g><path style=" stroke:none;fill-rule:nonzero;fill:#f8905a;fill-opacity:1;" d="M 169.203125 158.796875 C 168.171875 158.796875 167.148438 158.777344 166.121094 158.742188 C 165.308594 158.710938 164.476562 158.660156 163.675781 158.511719 L 163.703125 154.59375 C 164.046875 155.296875 164.515625 155.929688 165.136719 156.414062 C 166.53125 157.5 168.410156 157.664062 170.175781 157.726562 C 171.203125 157.761719 172.226562 157.785156 173.253906 157.785156 C 176.644531 157.785156 180.035156 157.578125 183.40625 157.175781 C 184.335938 157.0625 185.265625 156.933594 186.191406 156.769531 C 184 157.523438 181.660156 157.910156 179.351562 158.1875 C 175.984375 158.59375 172.59375 158.796875 169.203125 158.796875 M 163.769531 146.40625 L 163.804688 141.734375 C 165.53125 140.296875 167.601562 139.292969 169.828125 138.945312 C 167.03125 136.253906 165.910156 131.945312 167.042969 128.234375 C 167.058594 128.1875 167.070312 128.144531 167.085938 128.101562 C 167.492188 130.125 167.878906 132.035156 168.226562 133.777344 C 168.605469 135.949219 169.226562 137.773438 170.015625 139.253906 C 167.1875 140.789062 164.921875 143.398438 163.769531 146.40625 "/><path style=" stroke:none;fill-rule:nonzero;fill:#fde0ce;fill-opacity:1;" d="M 173.253906 157.785156 C 172.226562 157.785156 171.203125 157.761719 170.175781 157.726562 C 168.410156 157.664062 166.53125 157.5 165.136719 156.414062 C 164.515625 155.929688 164.046875 155.296875 163.703125 154.59375 L 163.769531 146.40625 C 164.921875 143.398438 167.1875 140.789062 170.015625 139.253906 C 171.78125 142.570312 174.390625 144.171875 177.015625 144.171875 C 181.113281 144.171875 185.246094 140.273438 186.273438 132.917969 C 187.074219 127.824219 188.421875 119.308594 189.828125 110.410156 L 190.148438 155.789062 C 188.867188 156.222656 187.539062 156.53125 186.191406 156.769531 C 185.265625 156.933594 184.335938 157.0625 183.40625 157.175781 C 180.035156 157.578125 176.644531 157.785156 173.253906 157.785156 "/><path style=" stroke:none;fill-rule:nonzero;fill:#f8915d;fill-opacity:1;" d="M 127.722656 164.414062 L 127.613281 164.097656 C 127.714844 164.121094 127.8125 164.140625 127.914062 164.160156 C 128.035156 164.1875 128.15625 164.210938 128.277344 164.234375 L 127.722656 164.414062 "/><g clip-rule="nonzero" clip-path="url(#82953639f4)"><g clip-rule="nonzero" clip-path="url(#a5d03f5543)"><g clip-rule="nonzero" clip-path="url(#02fbe628ac)"><g clip-rule="nonzero" clip-path="url(#deaf498d91)"><path style=" stroke:none;fill-rule:nonzero;fill:url(#fcdd194b65);" d="M 131.34375 163.90625 L 175.492188 150.421875 L 153.546875 78.628906 L 109.402344 92.113281 Z M 131.34375 163.90625 "/></g></g></g></g><path style=" stroke:none;fill-rule:nonzero;fill:#f8915d;fill-opacity:1;" d="M 149.855469 157.269531 C 149.933594 156.257812 149.824219 155.214844 149.597656 154.234375 C 148.789062 150.738281 147.152344 147.683594 144.425781 145.792969 C 148.8125 147.269531 151.253906 151.054688 152.300781 155.585938 C 152.363281 155.859375 152.421875 156.144531 152.464844 156.429688 L 149.855469 157.269531 "/><path style=" stroke:none;fill-rule:nonzero;fill:#fef3eb;fill-opacity:1;" d="M 128.277344 164.234375 C 128.15625 164.210938 128.035156 164.1875 127.914062 164.160156 C 127.8125 164.140625 127.714844 164.121094 127.613281 164.097656 L 117.398438 134.25 C 118.339844 136.328125 119.046875 137.921875 119.324219 138.578125 C 122.4375 145.417969 127.933594 148.816406 132.445312 148.816406 C 135.582031 148.816406 138.242188 147.171875 139.285156 143.894531 C 141.316406 144.148438 143.019531 144.816406 144.425781 145.792969 C 147.152344 147.683594 148.789062 150.738281 149.597656 154.234375 C 149.824219 155.214844 149.933594 156.257812 149.855469 157.269531 L 128.277344 164.234375 "/><path style=" stroke:none;fill-rule:nonzero;fill:#c4eaeb;fill-opacity:1;" d="M 222.074219 178.121094 L 230.726562 148.59375 C 230.925781 148.519531 231.113281 148.4375 231.300781 148.335938 C 231.3125 148.328125 231.328125 148.324219 231.339844 148.316406 L 222.859375 177.25 C 222.59375 177.535156 222.332031 177.824219 222.074219 178.121094 "/><g clip-rule="nonzero" clip-path="url(#321ae2294b)"><g clip-rule="nonzero" clip-path="url(#8b767f7474)"><g clip-rule="nonzero" clip-path="url(#cfa08963d0)"><g clip-rule="nonzero" clip-path="url(#e260b84287)"><path style=" stroke:none;fill-rule:nonzero;fill:url(#4a94255884);" d="M 178.789062 179.585938 L 229.628906 188.824219 L 248.273438 86.308594 L 197.433594 77.070312 Z M 178.789062 179.585938 "/></g></g></g></g><path style=" stroke:none;fill-rule:nonzero;fill:#fef3eb;fill-opacity:1;" d="M 223.726562 149.144531 C 220.226562 149.144531 216.105469 148.820312 214.390625 147.242188 C 212.542969 145.542969 211.890625 140.289062 211.789062 137.789062 C 211.683594 135.066406 212.539062 132.164062 214.65625 130.441406 C 215.019531 130.144531 215.484375 129.910156 216.023438 129.738281 C 215.597656 135.75 218.667969 139.277344 222.855469 139.277344 C 225.492188 139.277344 228.570312 137.882812 231.496094 134.828125 C 234.117188 131.449219 236.722656 126.539062 239.238281 121.371094 L 231.339844 148.316406 C 231.328125 148.324219 231.3125 148.328125 231.300781 148.335938 C 231.113281 148.4375 230.925781 148.519531 230.726562 148.59375 C 229.886719 148.902344 228.964844 148.976562 228.0625 149.019531 C 227.003906 149.066406 225.4375 149.144531 223.726562 149.144531 "/><path style=" stroke:none;fill-rule:nonzero;fill:#cdd9ce;fill-opacity:1;" d="M 230.925781 187.308594 C 230.925781 187.15625 230.921875 187.003906 230.917969 186.847656 L 239.492188 173.917969 C 239.558594 173.972656 239.625 174.027344 239.695312 174.082031 L 230.925781 187.308594 M 252.457031 154.835938 C 252.378906 154.792969 252.300781 154.753906 252.222656 154.710938 L 268.550781 130.082031 C 268.375 130.503906 268.195312 130.929688 268.015625 131.359375 L 252.457031 154.835938 "/><g clip-rule="nonzero" clip-path="url(#f053dc37df)"><g clip-rule="nonzero" clip-path="url(#3f4cf93402)"><g clip-rule="nonzero" clip-path="url(#0db258124a)"><g clip-rule="nonzero" clip-path="url(#df7ed0032b)"><path style=" stroke:none;fill-rule:nonzero;fill:url(#adbebb1f84);" d="M 186.3125 184.125 L 252.636719 236.613281 L 309.800781 164.429688 L 243.480469 111.941406 Z M 186.3125 184.125 "/></g></g></g></g><path style=" stroke:none;fill-rule:nonzero;fill:#fde0ce;fill-opacity:1;" d="M 246.261719 195.199219 C 240.417969 195.199219 235.679688 190.464844 235.679688 184.621094 C 235.679688 180.527344 238.003906 176.980469 241.410156 175.222656 C 243.050781 176.113281 244.933594 176.617188 246.9375 176.617188 C 247.601562 176.617188 248.25 176.5625 248.886719 176.457031 C 247.890625 181.914062 248.546875 184.972656 249.117188 186.78125 C 249.644531 188.4375 251.507812 190.808594 253.820312 192.019531 C 251.902344 193.980469 249.222656 195.199219 246.261719 195.199219 "/><path style=" stroke:none;fill-rule:nonzero;fill:#fde0ce;fill-opacity:1;" d="M 246.9375 176.617188 C 244.933594 176.617188 243.050781 176.113281 241.410156 175.222656 C 240.800781 174.890625 240.226562 174.511719 239.695312 174.082031 C 239.625 174.027344 239.558594 173.972656 239.492188 173.917969 L 252.222656 154.710938 C 252.300781 154.753906 252.378906 154.792969 252.457031 154.835938 C 253.722656 155.519531 254.84375 156.433594 255.769531 157.519531 C 254.171875 160.835938 252.886719 163.585938 252.160156 165.449219 C 250.421875 169.925781 249.417969 173.535156 248.886719 176.457031 C 248.25 176.5625 247.601562 176.617188 246.9375 176.617188 "/><path style=" stroke:none;fill-rule:nonzero;fill:#ffaf80;fill-opacity:1;" d="M 156.710938 198.703125 C 150.308594 198.703125 145.117188 203.894531 145.117188 210.292969 C 145.117188 216.699219 150.308594 221.886719 156.710938 221.886719 C 163.113281 221.886719 168.304688 216.699219 168.304688 210.292969 C 168.304688 203.894531 163.113281 198.703125 156.710938 198.703125 "/><path style=" stroke:none;fill-rule:nonzero;fill:#ffffff;fill-opacity:1;" d="M 156.710938 194.648438 C 150.308594 194.648438 145.117188 199.839844 145.117188 206.242188 C 145.117188 212.644531 150.308594 217.832031 156.710938 217.832031 C 163.113281 217.832031 168.304688 212.644531 168.304688 206.242188 C 168.304688 199.839844 163.113281 194.648438 156.710938 194.648438 "/><g clip-rule="nonzero" clip-path="url(#596ae713df)"><path style=" stroke:none;fill-rule:nonzero;fill:#ffcaab;fill-opacity:1;" d="M 319.351562 165.3125 C 314.085938 159.511719 300.320312 155.503906 289 163.863281 C 277.679688 172.226562 268.8125 185.816406 255.136719 192.660156 C 250.917969 194.773438 246.28125 189.890625 245.402344 187.117188 C 244.519531 184.34375 243.453125 178.621094 248.441406 165.789062 C 252.371094 155.699219 272.609375 119.898438 270.28125 108.578125 C 267.875 96.542969 250.265625 94.898438 245.230469 105.910156 C 240.355469 114.566406 234.308594 130.625 228.210938 138.484375 C 220.082031 146.96875 210.792969 142.664062 213.039062 131.164062 C 214.464844 122.234375 221.847656 78.765625 221.175781 76.457031 C 220.445312 60.570312 196.671875 59.546875 194.496094 75.109375 C 192.742188 86.308594 188.089844 115.597656 186.273438 127.175781 C 184.296875 141.34375 170.78125 142.6875 168.226562 128.035156 C 165.835938 116.152344 161.882812 96.621094 159.492188 84.742188 C 157.074219 69.46875 133.664062 69.753906 132.671875 85.5 C 131.679688 87.605469 136.796875 107.242188 136.941406 109.769531 C 138.175781 114.875 141.996094 135.578125 143.085938 140.234375 C 146.773438 155.847656 129.703125 156.664062 123.167969 142.289062 C 121.832031 139.15625 111.058594 115.277344 108.71875 113.378906 C 98.761719 102.148438 80.015625 114.773438 86.714844 128.199219 L 94.226562 144.058594 C 97.351562 150.535156 102.9375 165.871094 105.480469 172.582031 C 117.246094 203.589844 106.636719 234.785156 112.378906 264.632812 C 114.683594 276.621094 117.609375 282.53125 119.328125 289.332031 C 121.023438 296.050781 120.46875 303.125 117.867188 309.542969 C 110.457031 327.839844 91.355469 374.996094 91.355469 374.996094 L 177.765625 374.996094 L 198.71875 324.335938 C 200.679688 317.566406 212.910156 307.449219 226.429688 297.988281 C 233.285156 293.191406 242.152344 279.09375 259.496094 246.714844 C 271.824219 223.699219 294.078125 197.988281 321.527344 172.988281 C 323.421875 171.265625 321.46875 167.640625 319.351562 165.3125 "/></g><path style=" stroke:none;fill-rule:nonzero;fill:#eaa675;fill-opacity:1;" d="M 222.09375 142.539062 C 225.386719 141.636719 228.433594 139.308594 230.308594 136.402344 C 232.359375 133.589844 234.136719 130.605469 235.839844 127.59375 C 239.398438 120.542969 242.40625 113.21875 246.125 106.410156 C 246.578125 105.503906 247.042969 104.707031 247.613281 103.976562 C 251.261719 98.6875 259.628906 97.339844 265.453125 101.074219 C 260.066406 96.804688 251.046875 96.914062 246 102.703125 C 245.328125 103.566406 244.777344 104.503906 244.296875 105.480469 C 240.511719 112.410156 237.535156 119.683594 234.003906 126.675781 C 232.625 129.804688 231.171875 132.902344 229.449219 135.835938 C 227.882812 138.871094 225.320312 141.25 222.09375 142.539062 "/><path style=" stroke:none;fill-rule:nonzero;fill:#eaa675;fill-opacity:1;" d="M 247.765625 190.660156 C 249.453125 192.585938 252.292969 194.351562 255.214844 193.1875 C 257.714844 192.09375 260.140625 190.863281 262.4375 189.386719 C 268.140625 185.261719 273.011719 180.238281 277.859375 175.351562 C 281.375 171.320312 284.914062 167.34375 289 163.863281 C 284.503906 166.792969 280.410156 170.347656 276.402344 173.90625 C 271.542969 178.808594 266.746094 183.738281 261.238281 187.71875 C 259.226562 189.417969 257.027344 190.902344 254.785156 192.257812 C 252.617188 193.53125 249.710938 192.402344 247.765625 190.660156 "/><g clip-rule="nonzero" clip-path="url(#11b301c2be)"><path style=" stroke:none;fill-rule:nonzero;fill:#eaa675;fill-opacity:1;" d="M 321.527344 172.988281 C 302.53125 189.941406 284.4375 208.136719 269.371094 228.871094 C 264.617188 235.613281 260.347656 242.78125 256.527344 250.058594 C 252.625 257.292969 248.675781 264.5 244.558594 271.597656 C 240.398438 278.648438 236.214844 285.769531 231.09375 292.039062 C 229.796875 293.578125 228.425781 295.050781 226.925781 296.308594 C 225.449219 297.5 223.605469 298.679688 221.980469 299.894531 C 218.640625 302.320312 215.347656 304.816406 212.148438 307.445312 C 209.375 309.792969 206.675781 312.234375 204.164062 314.894531 C 201.734375 317.601562 199.210938 320.398438 198.011719 324.132812 C 198.039062 324.058594 177.765625 374.996094 177.765625 374.996094 L 199.398438 324.621094 C 200.523438 321.371094 203.007812 318.648438 205.433594 316.117188 C 207.945312 313.601562 210.660156 311.269531 213.453125 309.03125 C 216.605469 306.4375 219.871094 303.964844 223.1875 301.558594 C 224.855469 300.304688 226.496094 299.28125 228.230469 297.894531 C 229.882812 296.507812 231.320312 294.957031 232.671875 293.351562 C 237.96875 286.863281 242.140625 279.726562 246.335938 272.628906 C 250.46875 265.496094 254.429688 258.277344 258.335938 251.03125 C 262.164062 243.746094 266.332031 236.753906 271.054688 230.046875 C 285.425781 209.109375 302.992188 190.4375 321.527344 172.988281 "/></g><g clip-rule="nonzero" clip-path="url(#28a699eef5)"><path style=" stroke:none;fill-rule:nonzero;fill:#eaa675;fill-opacity:1;" d="M 91.355469 374.996094 L 107.191406 337.265625 L 115.109375 318.40625 L 119.0625 308.941406 C 120.320312 305.675781 121.082031 302.207031 121.285156 298.695312 C 121.550781 294.164062 120.644531 289.5625 119.261719 285.367188 C 117.914062 281.128906 116.4375 277.023438 115.316406 272.804688 C 113.003906 264.378906 111.820312 255.714844 111.632812 246.964844 C 111.152344 229.484375 113.570312 211.820312 111.53125 194.097656 C 110.886719 188.203125 109.519531 182.390625 107.730469 176.746094 C 105.851562 171.085938 103.558594 165.742188 101.460938 160.230469 C 99.28125 154.769531 97.144531 149.292969 94.585938 143.972656 C 93.242188 141.421875 92.144531 138.523438 90.625 136.375 C 89.550781 135.089844 89.132812 133.621094 88.453125 132.3125 L 86.597656 128.28125 L 86.84375 128.136719 C 85.078125 124.832031 84.851562 120.707031 86.480469 117.261719 C 84.761719 120.660156 84.871094 124.847656 86.589844 128.261719 L 86.832031 128.117188 L 88.75 132.054688 C 89.324219 133.394531 90.167969 134.582031 90.347656 135.953125 C 91.34375 139.113281 92.761719 141.523438 93.929688 144.285156 C 96.332031 149.613281 98.328125 155.144531 100.367188 160.644531 C 102.3125 166.164062 104.507812 171.6875 106.191406 177.226562 C 107.808594 182.8125 109.003906 188.523438 109.492188 194.332031 C 111.503906 211.714844 109.105469 229.316406 109.582031 247.019531 C 109.765625 255.875 110.980469 264.785156 113.335938 273.34375 C 115.46875 281.964844 119.839844 289.988281 119.230469 298.601562 C 119.125 301.902344 118.492188 305.191406 117.375 308.316406 L 113.683594 317.828125 L 106.238281 336.882812 L 91.355469 374.996094 "/></g><path style=" stroke:none;fill-rule:nonzero;fill:#eaa675;fill-opacity:1;" d="M 133.664062 152.175781 C 135.878906 152.832031 138.472656 152.878906 140.558594 151.546875 C 142.695312 150.265625 143.8125 147.777344 144.0625 145.378906 C 144.410156 142.949219 143.816406 140.492188 143.46875 138.222656 L 142.328125 131.285156 L 138.742188 113.523438 C 138.46875 112.089844 138.089844 110.457031 137.902344 109.191406 C 137.65625 107.578125 137.316406 106.15625 137.003906 104.660156 L 135.082031 95.816406 C 134.65625 94.097656 134.242188 92.375 133.882812 90.648438 C 133.550781 89.019531 133.136719 86.980469 133.242188 85.769531 L 133.308594 85.539062 C 133.378906 82.765625 134.265625 79.96875 136.125 77.824219 C 137.960938 75.667969 140.628906 74.234375 143.46875 73.675781 C 140.597656 74.027344 137.761719 75.265625 135.660156 77.390625 C 133.535156 79.503906 132.328125 82.464844 132.039062 85.460938 L 132.097656 85.226562 C 131.597656 87.542969 132.09375 89.066406 132.246094 90.929688 C 132.480469 92.710938 132.769531 94.476562 133.070312 96.234375 L 134.996094 105.097656 C 135.304688 106.554688 135.65625 108.074219 135.863281 109.445312 C 136.136719 111.167969 136.453125 112.472656 136.746094 114.003906 L 140.332031 131.757812 L 141.96875 138.574219 C 142.496094 140.871094 143.191406 143.019531 143.035156 145.292969 C 142.960938 147.507812 142.140625 149.796875 140.269531 151.117188 C 138.445312 152.496094 135.925781 152.675781 133.664062 152.175781 "/><path style=" stroke:none;fill-rule:nonzero;fill:#eaa675;fill-opacity:1;" d="M 176.972656 138.429688 C 179.304688 138.53125 181.558594 137.300781 183.121094 135.566406 C 184.71875 133.820312 185.75 131.617188 186.378906 129.351562 C 187.421875 124.769531 188.195312 120.292969 189.117188 115.761719 L 194.675781 80.554688 C 194.96875 78.308594 195.183594 75.902344 195.539062 73.78125 C 195.964844 71.644531 196.992188 69.640625 198.5 68.035156 C 201.546875 64.789062 206.460938 63.511719 210.96875 64.335938 C 206.542969 63.1875 201.371094 64.027344 197.78125 67.300781 C 196.011719 68.917969 194.695312 71.074219 194.046875 73.410156 C 193.460938 75.796875 193.121094 77.964844 192.644531 80.253906 L 187.085938 115.460938 C 186.511719 120.003906 186.050781 124.65625 185.378906 129.109375 C 184.945312 131.300781 184.125 133.460938 182.730469 135.230469 C 181.367188 136.988281 179.304688 138.351562 176.972656 138.429688 "/></g></svg>