<svg xmlns="http://www.w3.org/2000/svg" xmlns:xlink="http://www.w3.org/1999/xlink" width="500" zoomAndPan="magnify" viewBox="0 0 375 374.999991" height="500" preserveAspectRatio="xMidYMid meet" version="1.2"><defs><clipPath id="148b5b6cff"><path d="M 10.078125 0.246094 L 364.816406 0.246094 L 364.816406 360 L 10.078125 360 Z M 10.078125 0.246094 "/></clipPath><clipPath id="5800b20cdd"><path d="M 25.066406 123.640625 L 196.847656 123.640625 L 196.847656 374.734375 L 25.066406 374.734375 Z M 25.066406 123.640625 "/></clipPath></defs><g id="b37419e646"><g clip-rule="nonzero" clip-path="url(#148b5b6cff)"><path style=" stroke:none;fill-rule:nonzero;fill:#e2e1ff;fill-opacity:1;" d="M 332.542969 282.742188 C 331.992188 283.535156 329.066406 287.636719 323.921875 293.558594 C 310.257812 309.242188 280.945312 337.722656 238.507812 351.71875 C 221.355469 357.390625 202.070312 360.6875 180.8125 359.804688 C 97.25 356.375 24.664062 290.785156 12.015625 209.289062 C -4.257812 104.546875 84.75 15.445312 173.414062 1.910156 C 182.304688 0.550781 248.742188 -8.503906 302.992188 36.015625 C 372.132812 92.761719 385.167969 206.691406 332.542969 282.742188 "/></g><path style=" stroke:none;fill-rule:nonzero;fill:#ff9b84;fill-opacity:1;" d="M 323.921875 293.558594 C 310.257812 309.242188 280.945312 337.722656 238.507812 351.71875 C 234.601562 339.980469 230.734375 328.070312 226.902344 316.015625 C 219.820312 293.664062 213.148438 271.671875 206.917969 250.066406 C 198.1875 244.292969 191.851562 238.859375 188.03125 235.355469 C 157.871094 207.871094 161.496094 189.191406 138.703125 153.546875 C 136.792969 150.5625 131.976562 143.207031 134.644531 138.804688 C 136.835938 135.164062 143.089844 135.238281 144.804688 135.253906 C 166.058594 135.507812 181.050781 165.273438 185.613281 162.929688 C 189.269531 161.050781 181.394531 141.148438 175.097656 117.574219 C 171.234375 103.113281 155.140625 39.121094 171.847656 30.050781 C 172.292969 29.8125 174.636719 28.589844 177.46875 29.050781 C 185.449219 30.347656 188.644531 43.703125 196.414062 70.855469 C 199.113281 80.269531 202.441406 92.191406 206.109375 106.113281 C 204.1875 86.058594 203.558594 69.050781 203.394531 56.117188 C 202.992188 24.886719 205.304688 13.859375 211.554688 11.445312 C 214.136719 10.445312 216.609375 11.21875 217.238281 11.414062 C 226.039062 14.160156 228.484375 29.765625 230.453125 45.28125 C 234.0625 73.5 236.601562 100.726562 236.75 101.757812 C 236.40625 72.289062 237.613281 23.574219 251.023438 20.933594 C 253.15625 20.515625 255.050781 21.382812 255.992188 21.8125 C 263.09375 25.035156 265.65625 36.089844 266.195312 81.226562 C 266.3125 90.628906 266.296875 98.445312 266.269531 103.890625 C 266.867188 87.523438 269.101562 74.765625 271.085938 66.023438 C 273.21875 56.5625 275.695312 49.101562 280.796875 47.878906 C 283.347656 47.265625 285.613281 48.449219 285.839844 48.566406 C 292.058594 51.894531 291.613281 64.15625 289.777344 94.789062 C 289.359375 101.683594 288.824219 110.335938 288.164062 120.363281 C 290.734375 148.859375 291.523438 179.179688 289.792969 211.097656 C 289.550781 215.378906 289.285156 219.628906 288.972656 223.820312 C 298.472656 245.605469 309.957031 269.078125 323.921875 293.558594 "/><path style=" stroke:none;fill-rule:nonzero;fill:#5d3341;fill-opacity:1;" d="M 216.136719 39.503906 C 215.5625 39.503906 214.957031 39.425781 214.339844 39.238281 C 209.476562 37.746094 208.605469 30.8125 208.316406 28.53125 C 207.929688 25.460938 207.28125 20.316406 210.890625 17.460938 C 212.632812 16.082031 215.121094 15.464844 217.382812 15.847656 C 217.785156 15.917969 218.058594 16.300781 217.992188 16.710938 C 217.921875 17.113281 217.539062 17.386719 217.132812 17.320312 C 215.277344 17.007812 213.238281 17.507812 211.816406 18.628906 C 208.867188 20.964844 209.425781 25.40625 209.792969 28.34375 C 210.484375 33.824219 212.160156 37.011719 214.78125 37.8125 C 217.121094 38.523438 219.378906 37.074219 219.476562 37.011719 C 223.359375 34.441406 222.515625 27.726562 222.234375 25.523438 C 221.953125 23.269531 221.6875 21.140625 220.671875 19.570312 C 220.445312 19.226562 220.542969 18.765625 220.890625 18.539062 C 221.234375 18.316406 221.699219 18.414062 221.921875 18.761719 C 223.121094 20.613281 223.425781 23.015625 223.71875 25.335938 C 224.023438 27.769531 224.953125 35.175781 220.292969 38.253906 C 220.058594 38.410156 218.316406 39.503906 216.136719 39.503906 "/><path style=" stroke:none;fill-rule:nonzero;fill:#5d3341;fill-opacity:1;" d="M 176.710938 55.460938 C 176.226562 55.460938 175.714844 55.402344 175.195312 55.253906 C 170.695312 53.992188 169.746094 47.675781 169.4375 45.601562 C 169.015625 42.804688 168.308594 38.125 171.554688 35.421875 C 173.121094 34.121094 175.386719 33.5 177.46875 33.800781 C 177.875 33.863281 178.160156 34.238281 178.097656 34.648438 C 178.039062 35.054688 177.660156 35.324219 177.253906 35.277344 C 175.582031 35.027344 173.757812 35.527344 172.511719 36.570312 C 169.910156 38.734375 170.511719 42.734375 170.910156 45.378906 C 171.652344 50.316406 173.230469 53.152344 175.597656 53.816406 C 177.710938 54.414062 179.707031 53.050781 179.792969 52.992188 C 183.226562 50.601562 182.320312 44.550781 182.019531 42.566406 C 181.710938 40.527344 181.421875 38.605469 180.472656 37.214844 C 180.242188 36.875 180.332031 36.410156 180.671875 36.179688 C 181.011719 35.945312 181.476562 36.035156 181.707031 36.371094 C 182.847656 38.046875 183.175781 40.230469 183.492188 42.339844 C 183.828125 44.554688 184.84375 51.292969 180.640625 54.21875 C 180.421875 54.371094 178.777344 55.460938 176.710938 55.460938 "/><path style=" stroke:none;fill-rule:nonzero;fill:#5d3341;fill-opacity:1;" d="M 251.9375 45.980469 C 251.179688 45.980469 250.34375 45.847656 249.519531 45.46875 C 245.265625 43.53125 245.296875 37.148438 245.304688 35.046875 C 245.320312 32.21875 245.339844 27.484375 248.960938 25.3125 C 250.710938 24.265625 253.042969 24 255.054688 24.621094 C 255.445312 24.742188 255.667969 25.15625 255.546875 25.550781 C 255.425781 25.945312 255.007812 26.167969 254.613281 26.042969 C 252.996094 25.542969 251.125 25.757812 249.726562 26.59375 C 246.828125 28.335938 246.808594 32.378906 246.796875 35.054688 C 246.773438 40.046875 247.898438 43.089844 250.136719 44.113281 C 252.136719 45.023438 254.3125 43.984375 254.402344 43.941406 C 258.167969 42.101562 258.195312 35.984375 258.207031 33.976562 C 258.214844 32.007812 258.226562 29.976562 257.5 28.457031 C 257.324219 28.082031 257.480469 27.636719 257.851562 27.460938 C 258.226562 27.28125 258.667969 27.441406 258.847656 27.8125 C 259.71875 29.640625 259.707031 31.847656 259.695312 33.984375 C 259.6875 36.222656 259.65625 43.039062 255.058594 45.28125 C 254.855469 45.378906 253.5625 45.980469 251.9375 45.980469 "/><path style=" stroke:none;fill-rule:nonzero;fill:#5d3341;fill-opacity:1;" d="M 281.539062 68.507812 C 280.847656 68.507812 280.074219 68.378906 279.316406 67.992188 C 275.90625 66.25 276.160156 61.082031 276.242188 59.382812 C 276.355469 57.09375 276.542969 53.261719 279.585938 51.621094 C 281.054688 50.820312 282.976562 50.691406 284.59375 51.273438 C 284.984375 51.410156 285.183594 51.835938 285.042969 52.226562 C 284.90625 52.613281 284.480469 52.8125 284.09375 52.675781 C 282.855469 52.234375 281.402344 52.335938 280.292969 52.933594 C 277.992188 54.175781 277.835938 57.355469 277.734375 59.457031 C 277.539062 63.375 278.300781 65.800781 279.992188 66.664062 C 281.503906 67.433594 283.203125 66.707031 283.277344 66.675781 C 286.261719 65.378906 286.5 60.566406 286.578125 58.984375 C 286.65625 57.359375 286.734375 55.828125 286.222656 54.621094 C 286.0625 54.242188 286.238281 53.804688 286.617188 53.644531 C 286.996094 53.480469 287.4375 53.660156 287.597656 54.039062 C 288.238281 55.558594 288.152344 57.335938 288.070312 59.054688 C 287.980469 60.871094 287.707031 66.378906 283.875 68.042969 C 283.714844 68.109375 282.757812 68.507812 281.539062 68.507812 "/><path style=" stroke:none;fill-rule:nonzero;fill:#5d3341;fill-opacity:1;" d="M 149.207031 163.410156 C 148.890625 163.410156 148.597656 163.207031 148.496094 162.890625 C 148.371094 162.5 148.585938 162.078125 148.980469 161.953125 C 150.003906 161.625 152.507812 160.59375 153.621094 158.117188 C 154.710938 155.683594 153.8125 153.339844 153.089844 151.453125 C 151.371094 146.957031 146.761719 140.960938 141.910156 141.742188 C 140.269531 142.003906 138.667969 143.039062 137.269531 144.746094 C 137.011719 145.066406 136.542969 145.113281 136.21875 144.851562 C 135.902344 144.589844 135.855469 144.121094 136.117188 143.800781 C 137.75 141.808594 139.671875 140.585938 141.675781 140.265625 C 147.679688 139.332031 152.714844 146.296875 154.484375 150.917969 C 155.21875 152.835938 156.328125 155.734375 154.980469 158.730469 C 153.621094 161.75 150.648438 162.984375 149.433594 163.375 C 149.359375 163.398438 149.28125 163.410156 149.207031 163.410156 "/><path style=" stroke:none;fill-rule:nonzero;fill:#5d3341;fill-opacity:1;" d="M 214.535156 66.386719 C 214.195312 66.386719 213.890625 66.15625 213.808594 65.8125 C 213.714844 65.414062 213.960938 65.011719 214.363281 64.914062 C 219.328125 63.726562 223.046875 63.707031 223.207031 63.707031 C 223.617188 63.707031 223.953125 64.039062 223.953125 64.449219 C 223.953125 64.859375 223.621094 65.195312 223.207031 65.199219 C 223.171875 65.199219 219.496094 65.222656 214.707031 66.367188 C 214.648438 66.382812 214.589844 66.386719 214.535156 66.386719 "/><path style=" stroke:none;fill-rule:nonzero;fill:#5d3341;fill-opacity:1;" d="M 218.113281 70.171875 C 217.773438 70.171875 217.464844 69.933594 217.386719 69.589844 C 217.296875 69.183594 217.550781 68.785156 217.949219 68.695312 C 220.601562 68.105469 222.300781 68.445312 222.371094 68.460938 C 222.773438 68.542969 223.03125 68.941406 222.949219 69.34375 C 222.863281 69.746094 222.480469 70.003906 222.066406 69.921875 C 222.054688 69.917969 220.585938 69.632812 218.277344 70.152344 C 218.222656 70.164062 218.167969 70.171875 218.113281 70.171875 "/><path style=" stroke:none;fill-rule:nonzero;fill:#5d3341;fill-opacity:1;" d="M 179.988281 82.664062 C 179.703125 82.664062 179.425781 82.496094 179.304688 82.214844 C 179.140625 81.839844 179.3125 81.398438 179.6875 81.234375 C 183.773438 79.453125 187.992188 79.246094 188.171875 79.238281 C 188.578125 79.253906 188.929688 79.539062 188.949219 79.953125 C 188.96875 80.363281 188.648438 80.710938 188.234375 80.730469 C 188.195312 80.730469 184.105469 80.933594 180.289062 82.601562 C 180.1875 82.644531 180.085938 82.664062 179.988281 82.664062 "/><path style=" stroke:none;fill-rule:nonzero;fill:#5d3341;fill-opacity:1;" d="M 182.738281 85.929688 C 182.476562 85.929688 182.222656 85.792969 182.089844 85.550781 C 181.886719 85.191406 182.015625 84.734375 182.378906 84.535156 C 183.945312 83.660156 187.007812 83.484375 187.140625 83.476562 C 187.539062 83.421875 187.902344 83.765625 187.925781 84.179688 C 187.949219 84.589844 187.632812 84.945312 187.222656 84.964844 C 186.433594 85.011719 184.152344 85.25 183.101562 85.835938 C 182.988281 85.902344 182.863281 85.929688 182.738281 85.929688 "/><path style=" stroke:none;fill-rule:nonzero;fill:#5d3341;fill-opacity:1;" d="M 248.992188 69.914062 C 248.640625 69.914062 248.328125 69.667969 248.261719 69.3125 C 248.183594 68.910156 248.445312 68.515625 248.851562 68.4375 C 252.570312 67.71875 256.878906 68.105469 257.058594 68.125 C 257.46875 68.164062 257.769531 68.527344 257.734375 68.9375 C 257.695312 69.347656 257.328125 69.636719 256.921875 69.609375 C 256.878906 69.605469 252.640625 69.222656 249.136719 69.902344 C 249.089844 69.910156 249.039062 69.914062 248.992188 69.914062 "/><path style=" stroke:none;fill-rule:nonzero;fill:#5d3341;fill-opacity:1;" d="M 250.863281 74.375 C 250.566406 74.375 250.285156 74.199219 250.167969 73.902344 C 250.019531 73.519531 250.207031 73.089844 250.589844 72.933594 C 252.277344 72.265625 253.824219 72.367188 253.882812 72.367188 C 254.292969 72.398438 254.601562 72.753906 254.574219 73.160156 C 254.546875 73.574219 254.183594 73.886719 253.78125 73.855469 C 253.769531 73.855469 252.496094 73.78125 251.140625 74.324219 C 251.046875 74.359375 250.953125 74.375 250.863281 74.375 "/><path style=" stroke:none;fill-rule:nonzero;fill:#5d3341;fill-opacity:1;" d="M 282.121094 87.871094 C 282.035156 87.871094 281.949219 87.855469 281.863281 87.824219 C 281.835938 87.816406 279 86.789062 276.328125 86.683594 C 275.914062 86.671875 275.597656 86.320312 275.613281 85.910156 C 275.628906 85.5 276 85.191406 276.382812 85.191406 C 279.296875 85.304688 282.253906 86.378906 282.375 86.421875 C 282.761719 86.566406 282.960938 86.996094 282.820312 87.378906 C 282.710938 87.683594 282.421875 87.871094 282.121094 87.871094 "/><path style=" stroke:none;fill-rule:nonzero;fill:#5d3341;fill-opacity:1;" d="M 279.511719 91.207031 C 279.417969 91.207031 279.320312 91.1875 279.226562 91.148438 C 279.210938 91.144531 277.792969 90.574219 276.421875 90.570312 C 276.417969 90.570312 276.414062 90.570312 276.410156 90.570312 C 276.003906 90.570312 275.671875 90.246094 275.664062 89.835938 C 275.660156 89.425781 275.988281 89.085938 276.398438 89.082031 C 278.058594 89.074219 279.734375 89.742188 279.800781 89.773438 C 280.179688 89.933594 280.359375 90.367188 280.199219 90.746094 C 280.082031 91.035156 279.804688 91.207031 279.511719 91.207031 "/><path style=" stroke:none;fill-rule:nonzero;fill:#5d3341;fill-opacity:1;" d="M 199.570312 121.445312 C 199.164062 121.445312 198.832031 121.117188 198.824219 120.710938 C 198.746094 116.601562 197.359375 114.539062 197.34375 114.519531 C 197.113281 114.179688 197.195312 113.71875 197.535156 113.484375 C 197.871094 113.25 198.332031 113.328125 198.566406 113.664062 C 198.636719 113.757812 200.226562 116.074219 200.316406 120.683594 C 200.324219 121.09375 199.996094 121.4375 199.582031 121.445312 C 199.578125 121.445312 199.574219 121.445312 199.570312 121.445312 "/><path style=" stroke:none;fill-rule:nonzero;fill:#5d3341;fill-opacity:1;" d="M 226.671875 114.902344 C 226.625 114.902344 226.578125 114.898438 226.53125 114.886719 C 226.125 114.8125 225.859375 114.421875 225.9375 114.015625 C 226.710938 109.976562 225.78125 107.671875 225.769531 107.648438 C 225.609375 107.269531 225.789062 106.832031 226.167969 106.671875 C 226.546875 106.515625 226.980469 106.6875 227.140625 107.066406 C 227.1875 107.171875 228.269531 109.769531 227.402344 114.296875 C 227.335938 114.652344 227.023438 114.902344 226.671875 114.902344 "/><path style=" stroke:none;fill-rule:nonzero;fill:#5d3341;fill-opacity:1;" d="M 253.410156 115.5625 C 253.363281 115.5625 253.316406 115.558594 253.269531 115.546875 C 252.867188 115.472656 252.601562 115.078125 252.675781 114.675781 C 253.449219 110.636719 252.519531 108.332031 252.507812 108.3125 C 252.351562 107.933594 252.527344 107.496094 252.90625 107.335938 C 253.285156 107.171875 253.71875 107.347656 253.878906 107.726562 C 253.925781 107.832031 255.007812 110.425781 254.144531 114.957031 C 254.074219 115.3125 253.761719 115.5625 253.410156 115.5625 "/><path style=" stroke:none;fill-rule:nonzero;fill:#5d3341;fill-opacity:1;" d="M 276.925781 122.511719 C 276.789062 122.511719 276.65625 122.476562 276.53125 122.402344 C 276.179688 122.183594 276.074219 121.722656 276.292969 121.371094 C 277.914062 118.765625 277.902344 116.984375 277.902344 116.96875 C 277.894531 116.558594 278.21875 116.214844 278.628906 116.207031 C 279.007812 116.222656 279.378906 116.511719 279.394531 116.925781 C 279.394531 117.011719 279.445312 119.136719 277.558594 122.160156 C 277.417969 122.386719 277.175781 122.511719 276.925781 122.511719 "/><path style=" stroke:none;fill-rule:nonzero;fill:#5d3341;fill-opacity:1;" d="M 245.074219 342.542969 C 244.769531 342.542969 244.484375 342.355469 244.371094 342.054688 C 244.371094 342.054688 243.09375 338.582031 241.195312 333.339844 C 241.054688 332.953125 241.253906 332.527344 241.640625 332.386719 C 242.027344 332.242188 242.457031 332.445312 242.597656 332.832031 C 244.496094 338.070312 245.769531 341.539062 245.773438 341.539062 C 245.914062 341.925781 245.71875 342.355469 245.328125 342.496094 C 245.246094 342.527344 245.160156 342.542969 245.074219 342.542969 "/><path style=" stroke:none;fill-rule:nonzero;fill:#5d3341;fill-opacity:1;" d="M 236.929688 320.015625 C 236.625 320.015625 236.335938 319.824219 236.226562 319.519531 C 231.65625 306.660156 228.421875 297.15625 226.617188 291.269531 C 226.496094 290.875 226.71875 290.457031 227.109375 290.339844 C 227.503906 290.210938 227.921875 290.4375 228.039062 290.832031 C 229.839844 296.695312 233.066406 306.179688 237.632812 319.019531 C 237.769531 319.40625 237.566406 319.835938 237.179688 319.972656 C 237.097656 320.003906 237.015625 320.015625 236.929688 320.015625 "/><path style=" stroke:none;fill-rule:nonzero;fill:#fee7d5;fill-opacity:1;" d="M 225.074219 177.949219 C 238.992188 184.890625 245.503906 196.835938 242.691406 204.824219 C 240.777344 210.253906 234.972656 212.6875 234.214844 212.996094 C 226.929688 215.9375 217.722656 213.234375 211.363281 205.886719 C 211.558594 207.117188 213.199219 218.570312 205.269531 225.695312 C 204.488281 226.398438 201.132812 229.410156 197.148438 229.757812 C 188.628906 230.496094 178.390625 218.980469 173.28125 200.804688 C 170.257812 197.25 168.382812 193.765625 167.183594 190.710938 C 157.917969 167.0625 178.402344 141.519531 180.707031 138.71875 C 181.261719 137.6875 183.894531 133.007812 189.414062 131.4375 C 197.265625 129.203125 203.511719 135.367188 204.140625 136.007812 C 210.449219 142.445312 208.464844 151.417969 208.316406 152.046875 C 214.328125 145.121094 223.089844 143.183594 228.273438 146.363281 C 235.214844 150.632812 233.226562 162.542969 231.464844 167.808594 C 229.800781 172.777344 226.902344 176.136719 225.074219 177.949219 "/><g clip-rule="nonzero" clip-path="url(#5800b20cdd)"><path style=" stroke:none;fill-rule:nonzero;fill:#ff9b84;fill-opacity:1;" d="M 187.496094 161.441406 C 183.644531 172.21875 178.746094 189.121094 178.570312 207.28125 C 178.496094 214.9375 179.375 220.667969 182.164062 226.519531 C 186.210938 234.996094 192.621094 239.988281 196.386719 242.449219 C 193.546875 249.066406 188.183594 259.347656 178.359375 269.375 C 168.765625 279.167969 158.867188 284.699219 152.398438 287.691406 C 147.015625 307.492188 141.535156 327.371094 135.945312 347.335938 C 133.382812 356.496094 130.808594 365.628906 128.222656 374.734375 C 111.457031 372.402344 90.023438 367.710938 66.527344 357.972656 C 50.171875 351.195312 36.457031 343.480469 25.398438 336.261719 C 33.160156 321.539062 41.644531 306.425781 50.925781 291.023438 C 55.125 284.054688 59.34375 277.265625 63.570312 270.652344 C 59.503906 238.199219 63.847656 212.910156 67.859375 197.308594 C 71.6875 182.417969 83.148438 137.863281 105.492188 135.324219 C 108.132812 135.027344 110.375 135.378906 111.871094 135.726562 C 117.621094 126.84375 126.660156 122.433594 134.050781 124.488281 C 135.636719 124.929688 138.660156 126.085938 141.597656 129.546875 C 146.816406 125.339844 153.269531 123.828125 158.359375 125.980469 C 161.460938 127.289062 163.464844 129.714844 163.757812 130.074219 C 166.492188 133.457031 166.863281 137.117188 166.933594 138.457031 C 170.25 135.640625 174.527344 134.828125 177.847656 136.425781 C 179.9375 137.429688 181.101562 139.125 181.648438 140.097656 C 183.597656 147.214844 185.546875 154.328125 187.496094 161.441406 "/></g><path style=" stroke:none;fill-rule:nonzero;fill:#5d3341;fill-opacity:1;" d="M 149.792969 168.789062 C 149.726562 168.789062 149.65625 168.78125 149.585938 168.761719 C 149.191406 168.644531 148.964844 168.234375 149.078125 167.835938 C 151.53125 159.394531 155.332031 151.710938 160.371094 145.011719 C 161.125 144.011719 161.921875 143.011719 162.742188 142.039062 C 163.007812 141.726562 163.476562 141.683594 163.796875 141.949219 C 164.109375 142.214844 164.148438 142.6875 163.882812 143 C 163.078125 143.953125 162.300781 144.933594 161.5625 145.910156 C 156.632812 152.464844 152.914062 159.984375 150.511719 168.25 C 150.414062 168.578125 150.117188 168.789062 149.792969 168.789062 "/><path style=" stroke:none;fill-rule:nonzero;fill:#5d3341;fill-opacity:1;" d="M 122.5625 163.457031 C 122.492188 163.457031 122.421875 163.445312 122.347656 163.425781 C 121.957031 163.308594 121.730469 162.894531 121.847656 162.5 C 124.746094 152.75 129.203125 143.886719 135.09375 136.15625 C 136.140625 134.78125 137.242188 133.425781 138.378906 132.125 C 138.648438 131.816406 139.121094 131.789062 139.429688 132.054688 C 139.738281 132.324219 139.769531 132.796875 139.5 133.109375 C 138.390625 134.382812 137.304688 135.710938 136.277344 137.058594 C 130.5 144.644531 126.125 153.347656 123.277344 162.925781 C 123.179688 163.246094 122.886719 163.457031 122.5625 163.457031 "/><path style=" stroke:none;fill-rule:nonzero;fill:#5d3341;fill-opacity:1;" d="M 96.855469 164.601562 C 96.796875 164.601562 96.734375 164.589844 96.671875 164.574219 C 96.273438 164.476562 96.03125 164.070312 96.132812 163.671875 C 97.859375 156.863281 100.648438 150.503906 104.421875 144.773438 C 105.878906 142.5625 107.5 140.421875 109.242188 138.410156 C 109.507812 138.101562 109.984375 138.066406 110.292969 138.335938 C 110.605469 138.605469 110.636719 139.078125 110.367188 139.390625 C 108.667969 141.351562 107.085938 143.4375 105.664062 145.597656 C 101.988281 151.1875 99.265625 157.390625 97.578125 164.035156 C 97.496094 164.375 97.191406 164.601562 96.855469 164.601562 "/><path style=" stroke:none;fill-rule:nonzero;fill:#5d3341;fill-opacity:1;" d="M 131.589844 292.078125 C 131.054688 292.078125 130.519531 292.074219 129.988281 292.070312 C 125.910156 292.03125 121.796875 291.84375 117.75 291.511719 C 117.339844 291.476562 117.03125 291.117188 117.066406 290.707031 C 117.101562 290.296875 117.457031 290 117.871094 290.027344 C 121.882812 290.355469 125.960938 290.539062 130 290.578125 C 134.523438 290.613281 139.113281 290.476562 143.636719 290.15625 C 144.054688 290.105469 144.40625 290.4375 144.433594 290.847656 C 144.464844 291.257812 144.15625 291.617188 143.746094 291.644531 C 139.710938 291.929688 135.628906 292.078125 131.589844 292.078125 "/><path style=" stroke:none;fill-rule:nonzero;fill:#5d3341;fill-opacity:1;" d="M 192.429688 240.28125 C 192.261719 240.28125 192.09375 240.222656 191.953125 240.109375 C 187.417969 236.347656 183.898438 231.886719 181.492188 226.84375 C 178.808594 221.21875 177.746094 215.546875 177.828125 207.269531 C 177.914062 198.304688 179.160156 188.722656 181.53125 178.792969 C 181.628906 178.394531 182.035156 178.144531 182.429688 178.242188 C 182.832031 178.335938 183.078125 178.742188 182.984375 179.140625 C 180.640625 188.960938 179.402344 198.429688 179.320312 207.285156 C 179.242188 215.316406 180.261719 220.796875 182.839844 226.199219 C 185.152344 231.046875 188.539062 235.339844 192.90625 238.960938 C 193.222656 239.222656 193.265625 239.691406 193.003906 240.007812 C 192.855469 240.1875 192.644531 240.28125 192.429688 240.28125 "/><path style=" stroke:none;fill-rule:nonzero;fill:#5d3341;fill-opacity:1;" d="M 189.832031 193.277344 C 188.515625 193.277344 187.128906 193.941406 186.371094 195.0625 C 185.753906 195.980469 185.574219 197.128906 185.863281 198.292969 C 186.167969 199.484375 186.941406 200.507812 187.9375 201.035156 C 189.222656 201.710938 190.910156 201.601562 191.953125 200.765625 C 192.9375 199.984375 193.457031 198.507812 193.300781 196.914062 C 193.15625 195.410156 192.445312 194.1875 191.394531 193.640625 C 190.921875 193.394531 190.382812 193.277344 189.832031 193.277344 Z M 189.765625 202.96875 C 188.902344 202.96875 188.023438 202.765625 187.242188 202.355469 C 185.878906 201.636719 184.824219 200.253906 184.417969 198.65625 C 184.019531 197.078125 184.277344 195.503906 185.132812 194.230469 C 186.628906 192.007812 189.816406 191.136719 192.085938 192.316406 C 193.582031 193.097656 194.59375 194.761719 194.785156 196.769531 C 194.988281 198.863281 194.257812 200.839844 192.882812 201.933594 C 192.027344 202.617188 190.90625 202.96875 189.765625 202.96875 "/><path style=" stroke:none;fill-rule:nonzero;fill:#5d3341;fill-opacity:1;" d="M 195.140625 155.8125 C 195.675781 156.089844 196.371094 156.050781 196.796875 155.710938 C 197.195312 155.394531 197.414062 154.75 197.347656 154.066406 C 197.285156 153.425781 196.992188 152.90625 196.566406 152.683594 C 195.976562 152.378906 194.960938 152.570312 194.476562 153.289062 C 194.21875 153.675781 194.144531 154.152344 194.269531 154.644531 C 194.398438 155.15625 194.722656 155.589844 195.140625 155.8125 Z M 195.902344 157.484375 C 195.402344 157.484375 194.898438 157.371094 194.445312 157.132812 C 193.648438 156.710938 193.058594 155.9375 192.824219 155.007812 C 192.597656 154.117188 192.75 153.183594 193.238281 152.457031 C 194.117188 151.15625 195.917969 150.664062 197.257812 151.359375 C 198.132812 151.816406 198.71875 152.773438 198.832031 153.925781 C 198.945312 155.113281 198.523438 156.246094 197.726562 156.882812 C 197.222656 157.28125 196.566406 157.484375 195.902344 157.484375 "/><path style=" stroke:none;fill-rule:nonzero;fill:#5d3341;fill-opacity:1;" d="M 269.460938 156.023438 C 268.273438 156.023438 267.097656 156.171875 265.964844 156.472656 C 260.761719 157.859375 256.246094 162.65625 254.171875 168.996094 C 252.203125 175.023438 252.945312 181 256.160156 184.984375 C 261.097656 191.109375 271.183594 192.519531 278.183594 188.066406 C 282.171875 185.527344 284.828125 181.375 285.65625 176.378906 C 286.503906 171.273438 285.230469 166 282.246094 162.269531 C 279.101562 158.339844 274.1875 156.023438 269.460938 156.023438 Z M 268.980469 192.144531 C 263.597656 192.144531 258.269531 189.976562 255 185.921875 C 251.464844 181.542969 250.628906 175.042969 252.757812 168.53125 C 254.980469 161.71875 259.898438 156.546875 265.582031 155.03125 C 271.785156 153.375 279.117188 155.972656 283.410156 161.339844 C 286.65625 165.394531 288.042969 171.105469 287.128906 176.625 C 286.230469 182.042969 283.335938 186.554688 278.984375 189.328125 C 275.988281 191.230469 272.472656 192.144531 268.980469 192.144531 "/><path style=" stroke:none;fill-rule:nonzero;fill:#5d3341;fill-opacity:1;" d="M 268.203125 188.5 C 267.496094 188.5 266.78125 188.449219 266.070312 188.347656 C 265.660156 188.289062 265.378906 187.914062 265.433594 187.503906 C 265.488281 187.097656 265.867188 186.816406 266.277344 186.871094 C 267.734375 187.078125 269.175781 187.054688 270.558594 186.792969 C 270.960938 186.71875 271.351562 186.980469 271.429688 187.386719 C 271.503906 187.792969 271.234375 188.183594 270.832031 188.257812 C 269.972656 188.417969 269.089844 188.5 268.203125 188.5 "/><path style=" stroke:none;fill-rule:nonzero;fill:#5d3341;fill-opacity:1;" d="M 276.984375 185.445312 C 276.753906 185.445312 276.53125 185.34375 276.382812 185.144531 C 276.140625 184.816406 276.207031 184.347656 276.539062 184.101562 C 279.847656 181.636719 281.839844 178.199219 282.144531 174.421875 C 282.542969 169.480469 280.070312 164.625 275.6875 161.753906 C 275.339844 161.527344 275.246094 161.0625 275.472656 160.71875 C 275.699219 160.375 276.160156 160.277344 276.503906 160.503906 C 281.34375 163.675781 284.074219 169.054688 283.628906 174.539062 C 283.289062 178.753906 281.089844 182.574219 277.429688 185.300781 C 277.292969 185.398438 277.136719 185.445312 276.984375 185.445312 "/><path style=" stroke:none;fill-rule:nonzero;fill:#5d3341;fill-opacity:1;" d="M 119.171875 53.378906 C 116.398438 53.378906 113.65625 53.902344 111.128906 55 C 104.609375 57.832031 99.851562 64.695312 98.394531 73.359375 C 96.867188 82.464844 99.339844 91.261719 104.847656 96.3125 C 110.828125 101.804688 120.597656 103.183594 128.597656 99.667969 C 134.660156 97.007812 139.617188 91.347656 141.855469 84.539062 C 144.046875 77.867188 143.449219 71.0625 140.179688 65.371094 C 135.894531 57.917969 127.378906 53.378906 119.171875 53.378906 Z M 119.285156 103.085938 C 113.527344 103.085938 107.882812 101.125 103.835938 97.410156 C 97.960938 92.023438 95.3125 82.710938 96.925781 73.113281 C 98.460938 63.949219 103.550781 56.664062 110.535156 53.628906 C 121.210938 48.996094 135.378906 54.027344 141.472656 64.628906 C 144.960938 70.691406 145.597656 77.925781 143.269531 85.003906 C 140.902344 92.210938 135.640625 98.203125 129.195312 101.035156 C 126.054688 102.417969 122.652344 103.085938 119.285156 103.085938 "/><path style=" stroke:none;fill-rule:nonzero;fill:#5d3341;fill-opacity:1;" d="M 140.644531 111.910156 C 137.261719 111.910156 133.960938 110.960938 131.316406 109.15625 C 128.691406 107.363281 126.589844 104.695312 125.40625 101.628906 C 125.257812 101.242188 125.445312 100.8125 125.832031 100.664062 C 126.214844 100.511719 126.648438 100.703125 126.792969 101.089844 C 127.875 103.875 129.777344 106.300781 132.15625 107.921875 C 135.585938 110.265625 140.242188 111.015625 144.609375 109.9375 C 148.878906 108.886719 152.296875 106.308594 154.226562 102.683594 C 157.621094 96.328125 155.730469 87.683594 150.097656 83.808594 C 148.246094 82.535156 145.960938 81.824219 143.484375 81.753906 C 143.074219 81.742188 142.75 81.398438 142.757812 80.984375 C 142.769531 80.574219 143.113281 80.277344 143.523438 80.261719 C 146.289062 80.339844 148.851562 81.144531 150.941406 82.578125 C 157.167969 86.863281 159.277344 96.390625 155.542969 103.386719 C 153.410156 107.386719 149.65625 110.234375 144.964844 111.386719 C 143.539062 111.738281 142.082031 111.910156 140.644531 111.910156 "/><path style=" stroke:none;fill-rule:nonzero;fill:#5d3341;fill-opacity:1;" d="M 130.5 62.152344 C 130.339844 62.152344 130.175781 62.097656 130.039062 61.992188 C 128.5 60.78125 126.742188 59.816406 124.8125 59.128906 C 124.425781 58.996094 124.222656 58.566406 124.359375 58.179688 C 124.496094 57.789062 124.921875 57.582031 125.3125 57.726562 C 127.394531 58.464844 129.292969 59.507812 130.960938 60.820312 C 131.285156 61.070312 131.339844 61.542969 131.089844 61.867188 C 130.941406 62.054688 130.722656 62.152344 130.5 62.152344 "/><path style=" stroke:none;fill-rule:nonzero;fill:#5d3341;fill-opacity:1;" d="M 120.292969 97.640625 C 119.910156 97.640625 119.589844 97.351562 119.550781 96.964844 C 119.511719 96.554688 119.808594 96.191406 120.21875 96.152344 C 127.46875 95.4375 133.640625 91.054688 136.332031 84.707031 C 138.394531 79.847656 138.160156 74.324219 135.671875 69.160156 C 135.492188 68.785156 135.648438 68.339844 136.019531 68.164062 C 136.390625 67.984375 136.835938 68.140625 137.015625 68.511719 C 139.691406 74.070312 139.9375 80.027344 137.707031 85.289062 C 134.800781 92.140625 128.15625 96.871094 120.367188 97.636719 C 120.339844 97.636719 120.316406 97.640625 120.292969 97.640625 "/><path style=" stroke:none;fill-rule:nonzero;fill:#5d3341;fill-opacity:1;" d="M 145.203125 107.308594 C 144.9375 107.308594 144.679688 107.164062 144.546875 106.914062 C 144.351562 106.546875 144.488281 106.097656 144.855469 105.902344 C 146.523438 105.019531 149.542969 102.949219 151.039062 99.050781 C 151.488281 97.890625 152.671875 94.804688 151.402344 91.273438 C 150.503906 88.777344 148.816406 87.203125 147.554688 86.320312 C 147.214844 86.082031 147.132812 85.617188 147.371094 85.277344 C 147.609375 84.941406 148.074219 84.859375 148.410156 85.097656 C 149.847656 86.101562 151.777344 87.902344 152.808594 90.765625 C 154.261719 94.820312 152.933594 98.285156 152.433594 99.585938 C 150.761719 103.9375 147.40625 106.238281 145.550781 107.222656 C 145.441406 107.28125 145.320312 107.308594 145.203125 107.308594 "/><path style=" stroke:none;fill-rule:nonzero;fill:#5d3341;fill-opacity:1;" d="M 102.675781 83.152344 L 104.117188 83.445312 C 104.488281 81.054688 105.089844 78.703125 105.910156 76.4375 C 107.089844 73.171875 108.710938 70.089844 110.742188 67.257812 L 106.8125 64.65625 C 104.410156 68.386719 102.929688 72.585938 102.523438 76.839844 C 102.320312 78.929688 102.371094 81.054688 102.675781 83.152344 Z M 104.742188 85.082031 C 104.691406 85.082031 104.640625 85.074219 104.59375 85.066406 L 101.871094 84.511719 C 101.566406 84.453125 101.332031 84.207031 101.28125 83.898438 C 100.890625 81.507812 100.808594 79.085938 101.035156 76.695312 C 101.492188 71.957031 103.203125 67.292969 105.988281 63.207031 C 106.21875 62.867188 106.675781 62.773438 107.015625 63.003906 L 112.21875 66.445312 C 112.390625 66.558594 112.507812 66.734375 112.539062 66.9375 C 112.578125 67.140625 112.527344 67.347656 112.402344 67.511719 C 110.242188 70.398438 108.53125 73.570312 107.3125 76.941406 C 106.441406 79.355469 105.824219 81.878906 105.480469 84.433594 C 105.453125 84.640625 105.339844 84.820312 105.171875 84.941406 C 105.042969 85.03125 104.894531 85.082031 104.742188 85.082031 "/><path style=" stroke:none;fill-rule:nonzero;fill:#5d3341;fill-opacity:1;" d="M 232.167969 148.398438 C 231.648438 148.398438 231.125 148.457031 230.613281 148.582031 C 228.777344 149.03125 227.238281 150.265625 226.277344 152.058594 C 225.292969 153.898438 225.097656 156.074219 225.75 157.871094 C 226.59375 160.203125 228.871094 162.003906 231.152344 162.160156 C 233.308594 162.304688 235.636719 161.046875 237.253906 158.886719 C 238.785156 156.839844 239.28125 154.476562 238.578125 152.570312 C 237.664062 150.082031 234.9375 148.398438 232.167969 148.398438 Z M 231.480469 163.664062 C 231.335938 163.664062 231.195312 163.65625 231.054688 163.648438 C 228.160156 163.453125 225.402344 161.289062 224.347656 158.382812 C 223.554688 156.191406 223.78125 153.5625 224.960938 151.355469 C 226.125 149.183594 228.007812 147.683594 230.261719 147.128906 C 234.191406 146.164062 238.644531 148.421875 239.976562 152.054688 C 240.855469 154.441406 240.28125 157.328125 238.449219 159.78125 C 236.636719 162.207031 234 163.660156 231.480469 163.664062 "/><path style=" stroke:none;fill-rule:nonzero;fill:#5d3341;fill-opacity:1;" d="M 231.59375 160.628906 C 230.113281 160.628906 229.007812 160.070312 228.945312 160.035156 C 228.578125 159.84375 228.4375 159.394531 228.625 159.027344 C 228.816406 158.664062 229.265625 158.519531 229.628906 158.710938 C 229.664062 158.726562 231.21875 159.492188 232.882812 158.929688 C 234.09375 158.519531 235.101562 157.5 235.871094 155.890625 C 236.046875 155.519531 236.492188 155.367188 236.867188 155.542969 C 237.238281 155.71875 237.390625 156.164062 237.214844 156.535156 C 236.261719 158.527344 234.957031 159.8125 233.335938 160.351562 C 232.726562 160.554688 232.136719 160.628906 231.59375 160.628906 "/><path style=" stroke:none;fill-rule:nonzero;fill:#5d3341;fill-opacity:1;" d="M 198.761719 183.265625 C 198.757812 183.265625 198.753906 183.265625 198.75 183.265625 C 198.480469 183.261719 198.234375 183.109375 198.109375 182.875 C 198.007812 182.6875 195.554688 178.28125 189.453125 177.675781 C 189.042969 177.636719 188.746094 177.269531 188.785156 176.859375 C 188.828125 176.449219 189.195312 176.148438 189.601562 176.191406 C 194.699219 176.699219 197.550781 179.582031 198.746094 181.15625 C 204.808594 172.320312 215.707031 175.167969 215.816406 175.199219 C 216.214844 175.304688 216.449219 175.714844 216.339844 176.113281 C 216.234375 176.507812 215.816406 176.738281 215.425781 176.636719 C 214.992188 176.519531 204.722656 173.867188 199.40625 182.898438 C 199.273438 183.125 199.027344 183.265625 198.761719 183.265625 "/><path style=" stroke:none;fill-rule:nonzero;fill:#5d3341;fill-opacity:1;" d="M 227.46875 210.578125 C 223.449219 210.578125 220.050781 209.003906 219.847656 208.910156 C 219.476562 208.734375 219.316406 208.289062 219.492188 207.917969 C 219.667969 207.546875 220.113281 207.382812 220.484375 207.558594 C 220.550781 207.589844 227.085938 210.605469 232.308594 208.042969 C 235.320312 206.5625 237.355469 203.5 238.367188 198.929688 C 238.457031 198.53125 238.855469 198.273438 239.257812 198.363281 C 239.660156 198.449219 239.914062 198.851562 239.824219 199.253906 C 238.710938 204.289062 236.398438 207.699219 232.957031 209.386719 C 231.15625 210.269531 229.25 210.578125 227.46875 210.578125 "/><path style=" stroke:none;fill-rule:nonzero;fill:#5d3341;fill-opacity:1;" d="M 186.050781 219.011719 C 185.832031 219.011719 185.621094 218.921875 185.472656 218.742188 C 184.007812 216.964844 182.730469 214.878906 181.675781 212.542969 C 181.503906 212.164062 181.671875 211.722656 182.046875 211.554688 C 182.425781 211.386719 182.867188 211.554688 183.035156 211.925781 C 184.035156 214.144531 185.242188 216.117188 186.625 217.792969 C 186.886719 218.113281 186.84375 218.582031 186.523438 218.84375 C 186.386719 218.957031 186.214844 219.011719 186.050781 219.011719 "/><path style=" stroke:none;fill-rule:nonzero;fill:#5d3341;fill-opacity:1;" d="M 195.785156 224.425781 C 195.386719 224.425781 195.054688 224.109375 195.039062 223.710938 C 195.023438 223.296875 195.34375 222.949219 195.753906 222.933594 C 196.507812 222.90625 197.722656 222.738281 199.242188 222.109375 C 203.910156 220.179688 205.972656 215.710938 206.640625 213.878906 C 206.78125 213.492188 207.210938 213.292969 207.597656 213.433594 C 207.984375 213.574219 208.183594 214.003906 208.042969 214.390625 C 207.304688 216.40625 205.027344 221.332031 199.8125 223.484375 C 198.089844 224.199219 196.6875 224.390625 195.8125 224.425781 C 195.800781 224.425781 195.792969 224.425781 195.785156 224.425781 "/><path style=" stroke:none;fill-rule:nonzero;fill:#fee7d5;fill-opacity:1;" d="M 264.660156 256.527344 C 269.339844 261.808594 270.785156 268.960938 268.152344 274.453125 C 264.011719 283.089844 251.128906 284.832031 243.949219 279.804688 C 240.167969 277.160156 238.695312 273.144531 238.132812 271.195312 C 234.445312 272.53125 230.484375 271.96875 228.230469 269.664062 C 224.980469 266.34375 225.261719 259.390625 230.449219 255.132812 C 229.167969 254.773438 224.722656 253.355469 222.015625 248.976562 C 219.339844 244.65625 218.570312 237.796875 222.539062 233.714844 C 226.714844 229.417969 235.070312 229.304688 240.691406 234.878906 C 241.214844 233.949219 244.117188 228.984375 250.230469 227.433594 C 255.523438 226.085938 260.570312 227.96875 263.496094 230.457031 C 269.488281 235.550781 270.625 246.609375 264.660156 256.527344 "/><path style=" stroke:none;fill-rule:nonzero;fill:#5d3341;fill-opacity:1;" d="M 194.101562 289.457031 C 191.472656 289.457031 188.636719 290.382812 186.113281 292.144531 C 182.546875 294.636719 180.484375 298.214844 180.601562 301.714844 C 180.78125 307.101562 185.726562 312.027344 191.394531 312.476562 C 194.628906 312.714844 197.789062 311.550781 200.304688 309.15625 C 202.875 306.703125 204.355469 303.289062 204.257812 300.015625 C 204.132812 295.703125 201.453125 291.640625 197.746094 290.136719 C 196.621094 289.679688 195.386719 289.457031 194.101562 289.457031 Z M 192.261719 314 C 191.933594 314 191.605469 313.984375 191.277344 313.960938 C 184.886719 313.460938 179.316406 307.875 179.113281 301.761719 C 178.976562 297.757812 181.277344 293.707031 185.261719 290.921875 C 189.429688 288.011719 194.425781 287.179688 198.304688 288.753906 C 202.542969 290.472656 205.605469 295.085938 205.75 299.972656 C 205.855469 303.660156 204.207031 307.496094 201.332031 310.234375 C 198.757812 312.683594 195.570312 314 192.261719 314 "/><path style=" stroke:none;fill-rule:nonzero;fill:#5d3341;fill-opacity:1;" d="M 192.222656 309.929688 C 189.472656 309.929688 186.789062 308.726562 185.042969 306.550781 L 184.878906 306.335938 C 184.632812 306.007812 184.699219 305.542969 185.027344 305.292969 C 185.359375 305.042969 185.824219 305.113281 186.074219 305.441406 L 186.203125 305.613281 C 188.269531 308.1875 191.898438 309.125 195.035156 307.914062 C 198.796875 306.457031 200.222656 302.332031 199.957031 299.113281 C 199.824219 297.519531 199.21875 295.941406 198.199219 294.550781 C 197.957031 294.21875 198.027344 293.75 198.363281 293.507812 C 198.695312 293.265625 199.160156 293.339844 199.40625 293.671875 C 200.585938 295.285156 201.292969 297.121094 201.445312 298.988281 C 201.753906 302.742188 200.050781 307.570312 195.574219 309.304688 C 194.488281 309.726562 193.347656 309.929688 192.222656 309.929688 "/><path style=" stroke:none;fill-rule:nonzero;fill:#5d3341;fill-opacity:1;" d="M 263.226562 227.730469 C 262.703125 227.730469 262.183594 227.789062 261.671875 227.914062 C 259.832031 228.363281 258.292969 229.601562 257.335938 231.394531 C 256.351562 233.234375 256.152344 235.40625 256.808594 237.207031 C 257.652344 239.535156 259.921875 241.339844 262.210938 241.492188 C 264.367188 241.628906 266.691406 240.382812 268.308594 238.222656 C 269.839844 236.175781 270.335938 233.8125 269.632812 231.902344 C 268.722656 229.417969 265.992188 227.730469 263.226562 227.730469 Z M 262.535156 242.996094 C 262.394531 242.996094 262.253906 242.988281 262.109375 242.980469 C 259.214844 242.785156 256.457031 240.621094 255.40625 237.714844 C 254.605469 235.523438 254.835938 232.898438 256.015625 230.691406 C 257.179688 228.519531 259.0625 227.019531 261.316406 226.464844 C 265.253906 225.496094 269.699219 227.757812 271.035156 231.386719 C 271.914062 233.773438 271.339844 236.664062 269.503906 239.117188 C 267.691406 241.539062 265.054688 242.996094 262.535156 242.996094 "/><path style=" stroke:none;fill-rule:nonzero;fill:#5d3341;fill-opacity:1;" d="M 262.652344 239.964844 C 261.167969 239.964844 260.0625 239.402344 260 239.367188 C 259.632812 239.179688 259.492188 238.726562 259.683594 238.363281 C 259.871094 237.996094 260.320312 237.855469 260.683594 238.042969 C 260.722656 238.0625 262.28125 238.832031 263.9375 238.265625 C 265.148438 237.855469 266.15625 236.832031 266.925781 235.226562 C 267.105469 234.855469 267.546875 234.699219 267.917969 234.875 C 268.292969 235.054688 268.449219 235.496094 268.269531 235.871094 C 267.316406 237.863281 266.011719 239.148438 264.394531 239.6875 C 263.785156 239.890625 263.191406 239.964844 262.652344 239.964844 "/><path style=" stroke:none;fill-rule:nonzero;fill:#5d3341;fill-opacity:1;" d="M 85.847656 117.105469 C 85.328125 117.105469 84.804688 117.164062 84.292969 117.289062 C 82.457031 117.738281 80.917969 118.976562 79.957031 120.769531 C 78.972656 122.609375 78.777344 124.78125 79.429688 126.582031 C 80.273438 128.910156 82.546875 130.714844 84.832031 130.867188 C 87.003906 131.007812 89.316406 129.757812 90.933594 127.597656 C 92.464844 125.550781 92.960938 123.1875 92.257812 121.277344 C 91.34375 118.792969 88.617188 117.105469 85.847656 117.105469 Z M 85.160156 132.371094 C 85.019531 132.371094 84.875 132.363281 84.734375 132.355469 C 81.839844 132.160156 79.082031 129.996094 78.027344 127.089844 C 77.234375 124.898438 77.460938 122.273438 78.640625 120.066406 C 79.804688 117.894531 81.683594 116.394531 83.941406 115.839844 C 87.875 114.871094 92.324219 117.132812 93.65625 120.761719 C 94.535156 123.148438 93.960938 126.039062 92.125 128.492188 C 90.3125 130.914062 87.679688 132.367188 85.160156 132.371094 "/><path style=" stroke:none;fill-rule:nonzero;fill:#5d3341;fill-opacity:1;" d="M 85.277344 129.339844 C 83.792969 129.339844 82.6875 128.777344 82.625 128.742188 C 82.257812 128.554688 82.117188 128.101562 82.304688 127.738281 C 82.496094 127.371094 82.945312 127.230469 83.308594 127.417969 C 83.347656 127.4375 84.902344 128.207031 86.5625 127.640625 C 87.773438 127.230469 88.78125 126.207031 89.550781 124.601562 C 89.726562 124.230469 90.171875 124.070312 90.546875 124.25 C 90.917969 124.429688 91.070312 124.871094 90.894531 125.246094 C 89.941406 127.238281 88.636719 128.523438 87.015625 129.0625 C 86.410156 129.265625 85.816406 129.339844 85.277344 129.339844 "/><path style=" stroke:none;fill-rule:nonzero;fill:#5d3341;fill-opacity:1;" d="M 254.597656 279.75 C 252.292969 279.75 249.785156 278.976562 247.5 277.507812 C 243.53125 274.960938 240.773438 270.78125 239.796875 265.90625 C 237.328125 267.886719 234.28125 268.488281 231.875 267.390625 C 230.707031 266.855469 229.710938 265.917969 228.988281 264.671875 C 228.78125 264.316406 228.902344 263.859375 229.257812 263.648438 C 229.613281 263.441406 230.066406 263.566406 230.277344 263.921875 C 230.671875 264.601562 231.375 265.519531 232.496094 266.03125 C 234.679688 267.035156 237.605469 266.179688 239.769531 263.910156 C 239.964844 263.699219 240.265625 263.625 240.539062 263.714844 C 240.8125 263.804688 241.011719 264.042969 241.046875 264.328125 C 241.695312 269.359375 244.339844 273.703125 248.308594 276.253906 C 251.15625 278.082031 254.347656 278.710938 256.84375 277.933594 C 258.707031 277.351562 260.464844 275.902344 261.796875 273.847656 C 262.019531 273.503906 262.480469 273.402344 262.828125 273.625 C 263.171875 273.851562 263.269531 274.3125 263.046875 274.65625 C 261.527344 277.003906 259.484375 278.671875 257.285156 279.359375 C 256.445312 279.621094 255.539062 279.75 254.597656 279.75 "/><path style=" stroke:none;fill-rule:nonzero;fill:#5d3341;fill-opacity:1;" d="M 264.832031 268.125 C 264.800781 268.125 264.773438 268.125 264.742188 268.117188 C 264.332031 268.070312 264.039062 267.699219 264.089844 267.292969 C 264.292969 265.597656 264.246094 263.863281 263.949219 262.136719 C 263.878906 261.730469 264.148438 261.34375 264.554688 261.273438 C 264.964844 261.207031 265.347656 261.480469 265.417969 261.882812 C 265.738281 263.75 265.789062 265.628906 265.570312 267.46875 C 265.527344 267.847656 265.203125 268.125 264.832031 268.125 "/></g></svg>