<svg xmlns="http://www.w3.org/2000/svg" xmlns:xlink="http://www.w3.org/1999/xlink" width="500" zoomAndPan="magnify" viewBox="0 0 375 374.999991" height="500" preserveAspectRatio="xMidYMid meet" version="1.2"><defs><clipPath id="e1f4f04755"><path d="M 14.609375 13.6875 L 360.347656 13.6875 L 360.347656 367.664062 L 14.609375 367.664062 Z M 14.609375 13.6875 "/></clipPath><clipPath id="6365e29ffa"><path d="M 29 71 L 292.714844 71 L 292.714844 374.828125 L 29 374.828125 Z M 29 71 "/></clipPath></defs><g id="ad43c71690"><g clip-rule="nonzero" clip-path="url(#e1f4f04755)"><path style=" stroke:none;fill-rule:nonzero;fill:#e2e1ff;fill-opacity:1;" d="M 315.390625 299.976562 C 292.203125 327.574219 262.140625 348.71875 230.316406 359.214844 C 229.570312 359.460938 228.402344 359.839844 226.84375 360.292969 C 212.339844 364.582031 164.300781 376.066406 114.976562 354.996094 C 109.910156 352.851562 104.820312 350.339844 99.753906 347.4375 C 75.515625 333.570312 55.847656 313.15625 41.546875 289.121094 C 11.03125 237.835938 4.933594 170.09375 31.054688 114.316406 C 31.902344 112.523438 40.378906 95.15625 57.480469 75.351562 C 58.34375 74.347656 59.230469 73.339844 60.152344 72.316406 C 62.644531 69.527344 65.316406 66.695312 68.175781 63.867188 C 69.171875 62.890625 70.191406 61.898438 71.242188 60.90625 C 76.058594 56.335938 81.324219 51.796875 87.058594 47.449219 C 88.808594 46.105469 90.621094 44.792969 92.460938 43.523438 C 95.421875 41.421875 98.5 39.40625 101.699219 37.480469 C 103.636719 36.285156 105.609375 35.132812 107.636719 34.023438 C 112.976562 31.042969 118.609375 28.316406 124.5625 25.878906 C 125.757812 25.367188 126.984375 24.886719 128.210938 24.433594 C 131.988281 22.972656 135.886719 21.660156 139.898438 20.480469 C 141.15625 20.097656 142.410156 19.75 143.679688 19.414062 C 150.421875 17.605469 157.46875 16.191406 164.867188 15.253906 C 246.03125 4.953125 326.726562 56.378906 352.222656 132.910156 C 372.460938 193.722656 352.9375 255.304688 315.390625 299.976562 "/></g><path style=" stroke:none;fill-rule:nonzero;fill:#ff9b84;fill-opacity:1;" d="M 315.390625 299.976562 C 292.203125 327.574219 262.140625 348.71875 230.316406 359.214844 C 229.570312 359.460938 228.402344 359.839844 226.84375 360.292969 C 220.582031 342.386719 213.710938 323.894531 206.121094 304.9375 C 203.652344 298.765625 201.160156 292.664062 198.664062 286.667969 C 191.089844 268.558594 183.414062 251.265625 175.679688 234.757812 C 172.574219 234.042969 167.363281 232.773438 161.015625 230.890625 C 151.632812 228.117188 144.730469 225.460938 138.746094 222.644531 C 129.496094 218.265625 123.367188 214.824219 117.585938 211.347656 C 108.554688 205.90625 100.382812 200.375 82.433594 191.050781 C 67.886719 183.492188 55.65625 178.238281 55.773438 170.441406 C 55.816406 167.933594 57.144531 166.050781 57.609375 165.421875 C 63.375 157.46875 79.984375 160.535156 88.3125 162.167969 C 109.53125 166.328125 118.652344 174.894531 121.425781 171.960938 C 123.367188 169.945312 118.476562 159.410156 105.535156 140.453125 C 90.707031 118.726562 76.203125 100.496094 76.203125 100.496094 C 67.636719 89.726562 60.910156 81.789062 57.480469 75.351562 C 54.988281 70.738281 54.199219 66.917969 55.597656 63.371094 C 55.847656 62.714844 57.042969 59.695312 59.933594 58.382812 C 63.027344 56.980469 66.835938 58.117188 71.242188 60.90625 C 76.304688 64.101562 82.1875 69.457031 88.753906 75.613281 C 112.597656 97.972656 124.941406 111.53125 126.023438 110.683594 C 127.539062 109.515625 108.203125 80.050781 101.390625 69.71875 C 95.550781 60.859375 90.632812 53.5625 87.058594 47.449219 C 81.207031 37.4375 78.917969 30.578125 81.878906 25.164062 C 82.230469 24.539062 84.226562 20.890625 88.054688 19.941406 C 91.800781 19.007812 96.648438 20.832031 107.636719 34.023438 C 113.75 41.378906 121.777344 52.265625 132.589844 68.171875 C 138.835938 77.351562 144.640625 86.207031 148.464844 91.785156 C 151.046875 95.550781 152.742188 97.8125 153.035156 97.636719 C 153.324219 97.460938 152.230469 94.90625 150.1875 90.410156 C 146.128906 81.453125 138.339844 64.742188 130.429688 43.683594 C 128.066406 37.394531 125.90625 31.25 124.5625 25.878906 C 122.609375 18.101562 122.375 11.914062 125.730469 9.128906 C 127.21875 7.886719 128.953125 7.710938 129.480469 7.664062 C 133.933594 7.273438 138.308594 11.167969 143.679688 19.414062 C 148.394531 26.640625 153.878906 37.203125 160.855469 51.171875 C 168.96875 67.398438 174.542969 78.839844 177.8125 84.589844 C 179.488281 87.566406 180.570312 89.027344 181.050781 88.835938 C 181.5625 88.648438 181.300781 86.707031 180.582031 83.117188 C 179.355469 76.914062 176.804688 65.734375 174.628906 50.148438 C 171.945312 30.882812 172.105469 21.109375 177.125 18.304688 C 178.859375 17.328125 180.6875 17.460938 181.429688 17.5625 C 192.34375 19.105469 193.660156 46.660156 205.945312 81.554688 C 205.988281 81.671875 206.03125 81.800781 206.078125 81.921875 C 207.316406 85.4375 208.558594 88.703125 209.914062 91.988281 C 212.527344 98.367188 215.503906 104.832031 219.546875 113.339844 C 220.421875 115.148438 221.328125 117.0625 222.304688 119.089844 C 222.84375 120.242188 223.414062 121.425781 223.996094 122.648438 C 228.84375 132.804688 233.628906 142.160156 237.230469 152.289062 C 237.628906 153.386719 238.003906 154.476562 238.371094 155.589844 C 240.894531 163.351562 242.691406 171.640625 243.273438 181.128906 C 243.460938 184.164062 243.476562 186.65625 243.476562 188.289062 C 244.835938 190.449219 246.191406 192.609375 247.550781 194.785156 C 249.488281 197.878906 251.445312 200.988281 253.414062 204.109375 C 254.261719 205.453125 255.109375 206.796875 255.953125 208.136719 C 257.546875 210.632812 259.136719 213.144531 260.710938 215.65625 C 262.332031 218.207031 263.964844 220.761719 265.585938 223.316406 C 267.933594 226.992188 270.300781 230.6875 272.648438 234.394531 C 272.648438 234.394531 272.648438 234.394531 272.664062 234.394531 C 275.960938 239.53125 279.273438 244.695312 282.617188 249.863281 C 283.386719 251.058594 284.179688 252.269531 284.964844 253.480469 C 286.90625 256.503906 288.875 259.523438 290.84375 262.558594 C 299.03125 275.152344 307.21875 287.628906 315.390625 299.976562 "/><path style=" stroke:none;fill-rule:nonzero;fill:#5d3341;fill-opacity:1;" d="M 95.820312 45.3125 C 91.484375 45.3125 88.011719 40.507812 86.800781 38.835938 C 85.027344 36.378906 82.058594 32.273438 83.816406 28.125 C 84.664062 26.125 86.507812 24.425781 88.628906 23.695312 C 89.007812 23.5625 89.421875 23.765625 89.554688 24.148438 C 89.6875 24.527344 89.484375 24.941406 89.101562 25.074219 C 87.359375 25.675781 85.851562 27.0625 85.160156 28.695312 C 83.722656 32.085938 86.289062 35.632812 87.984375 37.980469 C 91.148438 42.355469 94.078125 44.304688 96.707031 43.765625 C 99.0625 43.277344 100.308594 40.96875 100.359375 40.867188 C 102.488281 36.839844 98.613281 31.480469 97.339844 29.71875 C 96.09375 27.992188 94.804688 26.214844 93.199219 25.34375 C 92.84375 25.152344 92.710938 24.710938 92.902344 24.355469 C 93.09375 24 93.535156 23.867188 93.894531 24.0625 C 95.792969 25.089844 97.179688 27.007812 98.519531 28.859375 C 99.925781 30.804688 104.203125 36.71875 101.648438 41.550781 C 101.488281 41.859375 99.96875 44.582031 97.003906 45.191406 C 96.605469 45.277344 96.207031 45.3125 95.820312 45.3125 "/><path style=" stroke:none;fill-rule:nonzero;fill:#5d3341;fill-opacity:1;" d="M 70.804688 81.34375 C 67.21875 81.34375 63.910156 77.917969 62.707031 76.675781 C 60.8125 74.714844 57.644531 71.433594 58.683594 67.5 C 59.183594 65.597656 60.617188 63.839844 62.417969 62.914062 C 62.78125 62.730469 63.21875 62.871094 63.402344 63.230469 C 63.585938 63.589844 63.445312 64.03125 63.085938 64.214844 C 61.636719 64.957031 60.492188 66.359375 60.09375 67.871094 C 59.265625 71.011719 61.96875 73.808594 63.757812 75.660156 C 67.089844 79.109375 69.90625 80.453125 72.132812 79.652344 C 74.125 78.9375 74.917969 76.765625 74.953125 76.675781 C 76.308594 72.882812 72.222656 68.652344 70.875 67.261719 C 69.496094 65.835938 68.199219 64.492188 66.683594 63.9375 C 66.304688 63.796875 66.113281 63.375 66.25 63 C 66.390625 62.621094 66.8125 62.429688 67.1875 62.566406 C 69.015625 63.238281 70.492188 64.765625 71.921875 66.242188 C 73.425781 67.800781 77.988281 72.523438 76.324219 77.167969 C 76.21875 77.460938 75.210938 80.09375 72.628906 81.027344 C 72.015625 81.246094 71.40625 81.34375 70.804688 81.34375 "/><path style=" stroke:none;fill-rule:nonzero;fill:#5d3341;fill-opacity:1;" d="M 135.398438 32.152344 C 130.933594 32.152344 128.402344 26.605469 127.566406 24.78125 C 126.441406 22.316406 124.554688 18.191406 126.832031 14.84375 C 127.933594 13.226562 129.859375 12.054688 131.859375 11.785156 C 132.257812 11.730469 132.625 12.007812 132.679688 12.410156 C 132.734375 12.804688 132.453125 13.175781 132.054688 13.230469 C 130.453125 13.445312 128.914062 14.378906 128.039062 15.664062 C 126.222656 18.332031 127.832031 21.847656 128.894531 24.175781 C 130.871094 28.5 133.058594 30.695312 135.402344 30.695312 C 135.40625 30.695312 135.414062 30.695312 135.421875 30.695312 C 137.519531 30.679688 138.988281 28.910156 139.046875 28.835938 C 141.574219 25.730469 139.144531 20.410156 138.347656 18.664062 C 137.527344 16.871094 136.753906 15.183594 135.515625 14.15625 C 135.207031 13.902344 135.164062 13.441406 135.421875 13.132812 C 135.679688 12.820312 136.136719 12.777344 136.449219 13.035156 C 137.945312 14.273438 138.820312 16.195312 139.671875 18.054688 C 140.566406 20.007812 143.28125 25.949219 140.179688 29.757812 C 139.980469 30 138.160156 32.136719 135.429688 32.152344 C 135.421875 32.152344 135.410156 32.152344 135.398438 32.152344 "/><path style=" stroke:none;fill-rule:nonzero;fill:#5d3341;fill-opacity:1;" d="M 182.363281 37.652344 C 182.113281 37.652344 181.851562 37.628906 181.585938 37.582031 C 177.914062 36.929688 176.6875 32.050781 176.285156 30.445312 C 175.742188 28.285156 174.832031 24.671875 177.195312 22.277344 C 178.339844 21.125 180.089844 20.460938 181.757812 20.535156 C 182.160156 20.554688 182.472656 20.898438 182.453125 21.300781 C 182.433594 21.703125 182.09375 22.027344 181.691406 21.992188 C 180.410156 21.921875 179.09375 22.4375 178.234375 23.304688 C 176.445312 25.113281 177.203125 28.109375 177.699219 30.089844 C 178.628906 33.785156 180.023438 35.824219 181.839844 36.144531 C 183.453125 36.429688 184.832031 35.277344 184.890625 35.226562 C 187.296875 33.179688 186.160156 28.640625 185.78125 27.152344 C 185.398438 25.617188 185.03125 24.171875 184.214844 23.195312 C 183.960938 22.882812 184 22.425781 184.308594 22.167969 C 184.621094 21.90625 185.078125 21.949219 185.335938 22.257812 C 186.367188 23.492188 186.789062 25.167969 187.195312 26.792969 C 187.625 28.503906 188.933594 33.703125 185.839844 36.339844 C 185.664062 36.488281 184.238281 37.652344 182.363281 37.652344 "/><path style=" stroke:none;fill-rule:nonzero;fill:#5d3341;fill-opacity:1;" d="M 78.089844 186.804688 C 77.890625 186.804688 77.695312 186.726562 77.550781 186.570312 C 77.28125 186.273438 77.296875 185.8125 77.597656 185.539062 C 78.371094 184.828125 80.171875 182.886719 80.144531 180.230469 C 80.117188 177.625 78.355469 175.90625 76.941406 174.527344 C 73.570312 171.242188 67.019531 167.816406 63.03125 170.488281 C 61.679688 171.394531 60.679688 172.972656 60.140625 175.0625 C 60.039062 175.453125 59.636719 175.691406 59.25 175.585938 C 58.863281 175.488281 58.628906 175.085938 58.726562 174.695312 C 59.359375 172.253906 60.566406 170.382812 62.21875 169.277344 C 67.152344 165.972656 74.492188 170.105469 77.960938 173.484375 C 79.398438 174.886719 81.566406 177 81.601562 180.214844 C 81.636719 183.457031 79.503906 185.769531 78.582031 186.613281 C 78.441406 186.742188 78.265625 186.804688 78.089844 186.804688 "/><path style=" stroke:none;fill-rule:nonzero;fill:#5d3341;fill-opacity:1;" d="M 180.59375 236.015625 C 180.191406 236.015625 179.863281 235.691406 179.863281 235.289062 C 179.863281 234.886719 180.1875 234.558594 180.589844 234.558594 C 180.734375 234.558594 195.382812 234.449219 205.027344 230.453125 C 205.398438 230.300781 205.828125 230.476562 205.980469 230.847656 C 206.132812 231.222656 205.957031 231.648438 205.585938 231.804688 C 195.671875 235.90625 181.207031 236.011719 180.59375 236.015625 "/><path style=" stroke:none;fill-rule:nonzero;fill:#5d3341;fill-opacity:1;" d="M 102.457031 199.558594 C 102.324219 199.558594 102.1875 199.523438 102.066406 199.441406 C 101.726562 199.226562 101.628906 198.777344 101.84375 198.433594 C 103.859375 195.273438 104.300781 192.300781 104.304688 192.273438 C 104.359375 191.871094 104.730469 191.59375 105.128906 191.652344 C 105.527344 191.707031 105.804688 192.078125 105.75 192.476562 C 105.730469 192.609375 105.261719 195.796875 103.074219 199.222656 C 102.933594 199.4375 102.699219 199.558594 102.457031 199.558594 "/><path style=" stroke:none;fill-rule:nonzero;fill:#5d3341;fill-opacity:1;" d="M 105.738281 201.351562 C 105.597656 201.351562 105.449219 201.308594 105.324219 201.21875 C 104.992188 200.988281 104.914062 200.535156 105.144531 200.203125 C 106.695312 197.988281 106.933594 197 106.9375 196.988281 C 107.027344 196.601562 107.410156 196.347656 107.800781 196.429688 C 108.1875 196.515625 108.441406 196.886719 108.367188 197.277344 C 108.34375 197.402344 108.085938 198.546875 106.339844 201.039062 C 106.199219 201.242188 105.96875 201.351562 105.738281 201.351562 "/><path style=" stroke:none;fill-rule:nonzero;fill:#5d3341;fill-opacity:1;" d="M 145.980469 61.582031 C 145.722656 61.582031 145.472656 61.445312 145.339844 61.207031 C 145.144531 60.851562 145.273438 60.410156 145.625 60.214844 C 149.582031 58.035156 154.007812 56.652344 154.195312 56.59375 C 154.582031 56.476562 154.988281 56.6875 155.109375 57.074219 C 155.230469 57.457031 155.015625 57.867188 154.628906 57.984375 C 154.582031 58 150.152344 59.386719 146.328125 61.492188 C 146.21875 61.554688 146.097656 61.582031 145.980469 61.582031 "/><path style=" stroke:none;fill-rule:nonzero;fill:#5d3341;fill-opacity:1;" d="M 149.644531 64.289062 C 149.390625 64.289062 149.140625 64.152344 149.003906 63.910156 C 148.8125 63.558594 148.941406 63.113281 149.292969 62.921875 C 151.117188 61.917969 153.652344 61.191406 153.757812 61.160156 C 154.144531 61.046875 154.550781 61.273438 154.660156 61.664062 C 154.769531 62.046875 154.542969 62.453125 154.15625 62.5625 C 154.132812 62.570312 151.675781 63.277344 149.996094 64.199219 C 149.886719 64.261719 149.765625 64.289062 149.644531 64.289062 "/><path style=" stroke:none;fill-rule:nonzero;fill:#5d3341;fill-opacity:1;" d="M 184.949219 63.210938 C 184.660156 63.210938 184.390625 63.039062 184.273438 62.757812 C 184.121094 62.386719 184.300781 61.960938 184.671875 61.808594 C 187.660156 60.585938 190.804688 60.765625 190.9375 60.777344 C 191.339844 60.800781 191.644531 61.148438 191.621094 61.550781 C 191.59375 61.953125 191.25 62.246094 190.847656 62.234375 C 190.816406 62.230469 187.894531 62.0625 185.226562 63.15625 C 185.136719 63.195312 185.042969 63.210938 184.949219 63.210938 "/><path style=" stroke:none;fill-rule:nonzero;fill:#5d3341;fill-opacity:1;" d="M 112.835938 73.488281 C 112.65625 73.488281 112.472656 73.417969 112.332031 73.285156 C 112.039062 73.003906 112.03125 72.542969 112.3125 72.253906 C 114.84375 69.621094 120.273438 66.488281 120.503906 66.355469 C 120.851562 66.15625 121.296875 66.277344 121.5 66.621094 C 121.699219 66.972656 121.578125 67.417969 121.230469 67.617188 C 121.175781 67.652344 115.75 70.785156 113.363281 73.265625 C 113.222656 73.414062 113.027344 73.488281 112.835938 73.488281 "/><path style=" stroke:none;fill-rule:nonzero;fill:#5d3341;fill-opacity:1;" d="M 91.660156 105.40625 C 91.5 105.40625 91.335938 105.351562 91.199219 105.238281 C 90.886719 104.984375 90.84375 104.523438 91.097656 104.210938 C 93.125 101.738281 97.054688 98.121094 97.21875 97.96875 C 97.519531 97.695312 97.980469 97.714844 98.25 98.011719 C 98.527344 98.308594 98.507812 98.769531 98.210938 99.042969 C 98.167969 99.078125 94.191406 102.746094 92.226562 105.136719 C 92.082031 105.3125 91.871094 105.40625 91.660156 105.40625 "/><path style=" stroke:none;fill-rule:nonzero;fill:#5d3341;fill-opacity:1;" d="M 116.875 75.179688 C 116.652344 75.179688 116.433594 75.078125 116.289062 74.886719 C 116.046875 74.5625 116.117188 74.105469 116.441406 73.867188 C 117.875 72.804688 120.414062 70.824219 120.414062 70.824219 L 121.316406 71.972656 C 121.316406 71.972656 118.753906 73.96875 117.308594 75.039062 C 117.179688 75.132812 117.027344 75.179688 116.875 75.179688 "/><path style=" stroke:none;fill-rule:nonzero;fill:#5d3341;fill-opacity:1;" d="M 95.96875 105.867188 C 95.851562 105.867188 95.738281 105.839844 95.632812 105.785156 C 95.273438 105.601562 95.136719 105.160156 95.320312 104.800781 C 95.976562 103.542969 97.886719 102.203125 98.101562 102.054688 C 98.433594 101.824219 98.886719 101.910156 99.117188 102.242188 C 99.34375 102.574219 99.261719 103.027344 98.929688 103.253906 C 98.425781 103.601562 97.03125 104.679688 96.613281 105.476562 C 96.484375 105.726562 96.230469 105.867188 95.96875 105.867188 "/><path style=" stroke:none;fill-rule:nonzero;fill:#fee7d5;fill-opacity:1;" d="M 300.597656 202.828125 C 295.441406 209.070312 287.605469 210.371094 284.511719 210.714844 C 286.335938 212.578125 294.265625 221.089844 293.976562 233.742188 C 293.914062 236.351562 293.730469 244.351562 288.039062 250.679688 C 281.410156 258.042969 269.847656 260.308594 258.652344 256.765625 C 258.597656 257.433594 257.460938 268.925781 247.929688 273.480469 C 242.117188 276.261719 236.050781 275.09375 232.472656 273.480469 C 222.691406 269.078125 217.167969 254.902344 219.855469 238.46875 C 213.03125 236.878906 204.742188 234.222656 195.925781 229.640625 C 177.574219 220.101562 166.152344 207.019531 160.011719 198.652344 C 158.800781 199.832031 151.617188 206.636719 142.742188 205.273438 C 131.265625 203.511719 124.082031 189.175781 126.421875 178.070312 C 127.617188 172.394531 131.089844 168.5625 133.046875 166.714844 C 127.878906 162.015625 126.90625 157.40625 126.660156 155.597656 C 125.328125 145.871094 133.589844 134.675781 147.710938 129.8125 C 140.542969 122.816406 137.835938 112.722656 140.695312 103.789062 C 143.164062 96.066406 150.824219 86.007812 161.828125 87.074219 C 170.921875 87.953125 178.753906 96.089844 179.644531 106.628906 C 177.378906 96.753906 182.042969 88.160156 188.273438 86.378906 C 192.914062 85.050781 197.988281 87.632812 200.925781 90.371094 C 205.378906 94.535156 205.828125 99.929688 205.902344 101.1875 C 207.3125 93.511719 212.550781 87.285156 219.542969 85.179688 C 220.347656 84.9375 231.441406 81.796875 237.835938 89.59375 C 241.726562 94.339844 242.355469 101.273438 239.414062 107.257812 C 243.257812 105.433594 254.652344 100.679688 266.535156 105.050781 C 285.191406 111.914062 294.421875 137.359375 286.722656 152.679688 C 284.339844 157.414062 280.726562 160.417969 278.207031 162.140625 C 281.109375 161.769531 288.855469 161.195312 295.550781 165.925781 C 306.6875 173.796875 309.265625 192.34375 300.597656 202.828125 "/><g clip-rule="nonzero" clip-path="url(#6365e29ffa)"><path style=" stroke:none;fill-rule:nonzero;fill:#ff9b84;fill-opacity:1;" d="M 279.144531 225.0625 C 279.710938 230.074219 272.417969 234.625 269.5 236.496094 C 234.628906 258.796875 230.199219 276.863281 192.140625 288.910156 C 187.304688 290.449219 179.449219 292.664062 169.339844 294.21875 C 154.933594 310.839844 140 327.648438 124.535156 344.585938 C 115.152344 354.859375 105.804688 364.941406 96.492188 374.828125 C 95.425781 373.992188 94.355469 373.128906 93.289062 372.261719 C 63.84375 348.28125 43.363281 321.402344 29.15625 297.59375 C 34.214844 294.210938 39.339844 290.6875 44.5 287.046875 C 68.199219 270.304688 89.054688 253.414062 107.222656 237.265625 C 108.660156 233.402344 110.15625 229.519531 111.703125 225.617188 C 123.25 196.570312 136.398438 169.972656 150.355469 145.714844 C 153.886719 136.554688 156.964844 128.636719 159.417969 122.347656 C 170.339844 94.394531 174.972656 83.3125 181.855469 82.914062 C 182.105469 82.898438 184.609375 82.792969 186.621094 84.378906 C 190.652344 87.554688 189.789062 95.191406 187.804688 104.476562 C 185.988281 113.046875 182.738281 125.285156 176.558594 140.074219 C 178.761719 135.21875 181.960938 128.277344 185.914062 119.976562 C 204.90625 80.117188 211.707031 71.351562 219.339844 71.398438 C 220.363281 71.40625 222.390625 71.414062 224.113281 72.667969 C 234.941406 80.515625 216.035156 124.253906 203.648438 150.285156 C 204.203125 149.429688 217.628906 126.292969 232.398438 102.714844 C 240.511719 89.753906 249.082031 76.902344 258.023438 78.070312 C 258.652344 78.152344 261.179688 78.484375 263.0625 80.433594 C 267.621094 85.140625 265.15625 95.875 251.992188 123.441406 C 246.542969 134.867188 239.011719 149.699219 229.078125 166.71875 C 238.046875 155.871094 245.894531 146.640625 252.148438 139.386719 C 270.179688 118.464844 278.496094 107.921875 286.113281 110.035156 C 288.816406 110.796875 290.402344 112.832031 290.699219 113.238281 C 301.816406 128.136719 261.273438 178.367188 251.917969 189.625 C 236.667969 207.96875 221.507812 222.414062 223.984375 225.582031 C 227.078125 229.527344 252.601562 209.246094 271.578125 217.742188 C 273.113281 218.4375 278.691406 220.9375 279.144531 225.0625 "/></g><path style=" stroke:none;fill-rule:nonzero;fill:#5d3341;fill-opacity:1;" d="M 249.976562 104.015625 C 249.71875 104.015625 249.453125 104 249.1875 103.964844 C 246.1875 103.554688 244.488281 100.945312 244.304688 100.648438 C 241.429688 96.003906 245.289062 89.808594 246.5625 87.773438 C 247.773438 85.832031 249.023438 83.824219 250.851562 82.667969 C 251.195312 82.453125 251.644531 82.554688 251.859375 82.894531 C 252.074219 83.234375 251.972656 83.6875 251.632812 83.902344 C 250.085938 84.878906 248.921875 86.742188 247.800781 88.542969 C 246.648438 90.390625 243.148438 96.003906 245.542969 99.878906 C 245.601562 99.972656 247.007812 102.195312 249.382812 102.515625 C 252.027344 102.886719 254.832031 100.734375 257.691406 96.152344 C 259.226562 93.695312 261.542969 89.980469 259.882812 86.695312 C 259.078125 85.117188 257.476562 83.835938 255.699219 83.355469 C 255.308594 83.25 255.082031 82.851562 255.183594 82.460938 C 255.289062 82.070312 255.6875 81.839844 256.078125 81.945312 C 258.246094 82.53125 260.203125 84.101562 261.183594 86.039062 C 263.214844 90.054688 260.53125 94.355469 258.929688 96.925781 C 257.808594 98.726562 254.507812 104.015625 249.976562 104.015625 "/><path style=" stroke:none;fill-rule:nonzero;fill:#5d3341;fill-opacity:1;" d="M 278.242188 134.308594 C 277.960938 134.308594 277.675781 134.289062 277.386719 134.242188 C 274.648438 133.800781 273.140625 131.363281 272.976562 131.089844 C 270.445312 126.769531 274.109375 121.199219 275.3125 119.367188 C 276.464844 117.621094 277.648438 115.820312 279.347656 114.804688 C 279.695312 114.597656 280.140625 114.710938 280.347656 115.054688 C 280.554688 115.402344 280.441406 115.847656 280.097656 116.058594 C 278.683594 116.902344 277.640625 118.488281 276.535156 120.167969 C 275.453125 121.8125 272.164062 126.8125 274.234375 130.351562 C 274.285156 130.433594 275.5 132.460938 277.617188 132.800781 C 280.003906 133.183594 282.558594 131.308594 285.242188 127.230469 C 286.683594 125.042969 288.855469 121.738281 287.433594 118.75 C 286.753906 117.3125 285.339844 116.128906 283.753906 115.660156 C 283.367188 115.542969 283.144531 115.136719 283.261719 114.75 C 283.375 114.367188 283.78125 114.140625 284.167969 114.257812 C 286.140625 114.84375 287.894531 116.324219 288.753906 118.125 C 290.527344 121.855469 287.984375 125.722656 286.460938 128.03125 C 285.40625 129.636719 282.332031 134.308594 278.242188 134.308594 "/><path style=" stroke:none;fill-rule:nonzero;fill:#5d3341;fill-opacity:1;" d="M 215.417969 95.066406 C 215.410156 95.066406 215.398438 95.066406 215.390625 95.066406 C 212.609375 95.054688 210.75 92.875 210.550781 92.628906 C 207.386719 88.75 210.148438 82.6875 211.058594 80.691406 C 211.929688 78.789062 212.824219 76.824219 214.347656 75.558594 C 214.65625 75.300781 215.117188 75.347656 215.375 75.65625 C 215.628906 75.964844 215.589844 76.425781 215.277344 76.683594 C 214.011719 77.734375 213.222656 79.464844 212.390625 81.292969 C 211.574219 83.085938 209.089844 88.527344 211.679688 91.707031 C 211.742188 91.78125 213.25 93.597656 215.398438 93.609375 C 215.402344 93.609375 215.410156 93.609375 215.417969 93.609375 C 217.816406 93.609375 220.058594 91.363281 222.078125 86.933594 C 223.164062 84.550781 224.804688 80.953125 222.945312 78.21875 C 222.046875 76.902344 220.472656 75.949219 218.828125 75.730469 C 218.429688 75.671875 218.148438 75.308594 218.203125 74.90625 C 218.257812 74.507812 218.613281 74.230469 219.023438 74.28125 C 221.0625 74.558594 223.027344 75.75 224.148438 77.398438 C 226.472656 80.808594 224.554688 85.019531 223.40625 87.539062 C 222.554688 89.40625 219.972656 95.066406 215.417969 95.066406 "/><path style=" stroke:none;fill-rule:nonzero;fill:#5d3341;fill-opacity:1;" d="M 179.515625 102.847656 C 177.3125 102.847656 175.792969 101.210938 175.621094 101.019531 C 172.902344 97.96875 174.917969 92.964844 175.582031 91.324219 C 176.210938 89.757812 176.863281 88.140625 178.058594 87.058594 C 178.355469 86.789062 178.816406 86.808594 179.089844 87.105469 C 179.359375 87.40625 179.335938 87.867188 179.042969 88.136719 C 178.09375 89 177.527344 90.390625 176.933594 91.863281 C 176.355469 93.304688 174.59375 97.675781 176.710938 100.050781 C 176.761719 100.105469 178 101.449219 179.632812 101.386719 C 181.492188 101.3125 183.160156 99.472656 184.597656 95.914062 C 185.367188 94.003906 186.53125 91.117188 184.996094 89.070312 C 184.257812 88.082031 183.003906 87.402344 181.726562 87.285156 C 181.324219 87.25 181.03125 86.894531 181.066406 86.492188 C 181.101562 86.089844 181.457031 85.800781 181.855469 85.832031 C 183.535156 85.984375 185.1875 86.886719 186.164062 88.195312 C 188.191406 90.902344 186.789062 94.378906 185.953125 96.457031 C 185.328125 98.003906 183.433594 102.695312 179.6875 102.84375 C 179.632812 102.84375 179.570312 102.847656 179.515625 102.847656 "/><path style=" stroke:none;fill-rule:nonzero;fill:#5d3341;fill-opacity:1;" d="M 256.425781 241.007812 C 256.25 241.007812 256.074219 240.945312 255.933594 240.816406 C 255.015625 239.972656 252.878906 237.660156 252.914062 234.417969 C 252.949219 231.203125 255.121094 229.085938 256.554688 227.683594 C 260.023438 224.308594 267.363281 220.179688 272.296875 223.476562 C 273.949219 224.585938 275.15625 226.460938 275.789062 228.902344 C 275.890625 229.289062 275.65625 229.6875 275.265625 229.789062 C 274.875 229.886719 274.476562 229.65625 274.375 229.265625 C 273.835938 227.179688 272.835938 225.597656 271.484375 224.691406 C 267.492188 222.019531 260.949219 225.441406 257.574219 228.730469 C 256.160156 230.109375 254.402344 231.824219 254.371094 234.433594 C 254.34375 237.085938 256.144531 239.027344 256.921875 239.742188 C 257.214844 240.011719 257.238281 240.476562 256.964844 240.769531 C 256.820312 240.929688 256.625 241.007812 256.425781 241.007812 "/><path style=" stroke:none;fill-rule:nonzero;fill:#5d3341;fill-opacity:1;" d="M 238.1875 128.058594 C 238.03125 128.058594 237.871094 128.007812 237.738281 127.902344 C 233.957031 124.921875 230.699219 123.390625 230.667969 123.375 C 230.300781 123.207031 230.144531 122.773438 230.316406 122.40625 C 230.484375 122.042969 230.917969 121.882812 231.28125 122.050781 C 231.421875 122.117188 234.71875 123.664062 238.644531 126.753906 C 238.960938 127.003906 239.011719 127.460938 238.765625 127.777344 C 238.621094 127.960938 238.40625 128.058594 238.1875 128.058594 "/><path style=" stroke:none;fill-rule:nonzero;fill:#5d3341;fill-opacity:1;" d="M 233.457031 129.949219 C 233.304688 129.949219 233.148438 129.902344 233.015625 129.800781 C 231.175781 128.394531 229.757812 128.042969 229.742188 128.039062 C 229.351562 127.941406 229.109375 127.550781 229.203125 127.160156 C 229.292969 126.769531 229.691406 126.53125 230.074219 126.617188 C 230.144531 126.632812 231.789062 127.027344 233.902344 128.640625 C 234.222656 128.882812 234.28125 129.34375 234.039062 129.664062 C 233.894531 129.851562 233.679688 129.949219 233.457031 129.949219 "/><path style=" stroke:none;fill-rule:nonzero;fill:#5d3341;fill-opacity:1;" d="M 262.199219 156.679688 C 262 156.679688 261.800781 156.597656 261.652344 156.4375 C 258.9375 153.378906 255.394531 151.53125 255.359375 151.515625 C 255.003906 151.328125 254.863281 150.890625 255.046875 150.53125 C 255.230469 150.171875 255.667969 150.035156 256.03125 150.214844 C 256.183594 150.296875 259.851562 152.207031 262.746094 155.464844 C 263.011719 155.765625 262.984375 156.230469 262.683594 156.496094 C 262.546875 156.621094 262.371094 156.679688 262.199219 156.679688 "/><path style=" stroke:none;fill-rule:nonzero;fill:#5d3341;fill-opacity:1;" d="M 258.414062 158.453125 C 258.1875 158.453125 257.96875 158.351562 257.824219 158.152344 C 257.128906 157.199219 255.207031 156.054688 254.527344 155.691406 C 254.167969 155.503906 254.03125 155.0625 254.222656 154.707031 C 254.410156 154.351562 254.851562 154.214844 255.207031 154.402344 C 255.320312 154.460938 257.972656 155.875 259.003906 157.296875 C 259.242188 157.625 259.167969 158.078125 258.84375 158.316406 C 258.714844 158.410156 258.5625 158.453125 258.414062 158.453125 "/><path style=" stroke:none;fill-rule:nonzero;fill:#5d3341;fill-opacity:1;" d="M 206.136719 117.058594 C 205.992188 117.058594 205.84375 117.011719 205.710938 116.921875 C 202.878906 114.878906 198.957031 113.480469 198.917969 113.46875 C 198.535156 113.332031 198.339844 112.914062 198.472656 112.535156 C 198.605469 112.15625 199.019531 111.957031 199.402344 112.089844 C 199.570312 112.148438 203.558594 113.570312 206.5625 115.734375 C 206.890625 115.96875 206.964844 116.425781 206.730469 116.753906 C 206.589844 116.953125 206.363281 117.058594 206.136719 117.058594 "/><path style=" stroke:none;fill-rule:nonzero;fill:#5d3341;fill-opacity:1;" d="M 202.648438 120.25 C 202.457031 120.25 202.265625 120.175781 202.121094 120.023438 C 201.125 118.972656 199.976562 118.53125 199.964844 118.523438 C 199.585938 118.382812 199.398438 117.960938 199.542969 117.582031 C 199.6875 117.207031 200.105469 117.015625 200.484375 117.160156 C 200.542969 117.183594 201.957031 117.730469 203.179688 119.019531 C 203.457031 119.3125 203.445312 119.773438 203.152344 120.050781 C 203.011719 120.183594 202.828125 120.25 202.648438 120.25 "/><path style=" stroke:none;fill-rule:nonzero;fill:#5d3341;fill-opacity:1;" d="M 174.960938 120.722656 C 174.863281 120.722656 174.769531 120.707031 174.679688 120.667969 C 172.257812 119.660156 169.324219 119.410156 169.296875 119.410156 C 168.894531 119.375 168.597656 119.027344 168.628906 118.625 C 168.660156 118.222656 169.027344 117.925781 169.414062 117.953125 C 169.542969 117.964844 172.609375 118.222656 175.238281 119.320312 C 175.613281 119.476562 175.789062 119.902344 175.632812 120.273438 C 175.515625 120.554688 175.246094 120.722656 174.960938 120.722656 "/><path style=" stroke:none;fill-rule:nonzero;fill:#5d3341;fill-opacity:1;" d="M 173.316406 124.15625 C 173.210938 124.15625 173.105469 124.128906 173.003906 124.082031 C 171.804688 123.507812 170.292969 123.445312 170.277344 123.445312 C 169.875 123.429688 169.558594 123.089844 169.574219 122.6875 C 169.589844 122.285156 169.925781 121.964844 170.328125 121.984375 C 170.402344 121.988281 172.152344 122.058594 173.632812 122.765625 C 173.996094 122.9375 174.152344 123.375 173.976562 123.738281 C 173.851562 124 173.589844 124.15625 173.316406 124.15625 "/><path style=" stroke:none;fill-rule:nonzero;fill:#5d3341;fill-opacity:1;" d="M 228.90625 183.085938 C 228.796875 183.085938 228.691406 183.0625 228.585938 183.011719 C 228.226562 182.835938 228.074219 182.398438 228.25 182.039062 C 230.214844 177.980469 232.578125 176.578125 232.679688 176.519531 C 233.027344 176.316406 233.476562 176.4375 233.675781 176.785156 C 233.878906 177.136719 233.761719 177.578125 233.414062 177.78125 C 233.359375 177.8125 231.304688 179.082031 229.5625 182.675781 C 229.4375 182.9375 229.175781 183.085938 228.90625 183.085938 "/><path style=" stroke:none;fill-rule:nonzero;fill:#5d3341;fill-opacity:1;" d="M 207.519531 166.160156 C 207.460938 166.160156 207.398438 166.152344 207.34375 166.136719 C 206.949219 166.039062 206.714844 165.644531 206.808594 165.253906 C 207.898438 160.878906 209.921875 159.015625 210.007812 158.941406 C 210.304688 158.671875 210.765625 158.695312 211.035156 158.996094 C 211.308594 159.292969 211.28125 159.753906 210.984375 160.023438 C 210.953125 160.054688 209.191406 161.71875 208.226562 165.605469 C 208.144531 165.9375 207.847656 166.160156 207.519531 166.160156 "/><path style=" stroke:none;fill-rule:nonzero;fill:#5d3341;fill-opacity:1;" d="M 183.5 155.777344 C 183.441406 155.777344 183.382812 155.769531 183.324219 155.753906 C 182.933594 155.660156 182.695312 155.265625 182.792969 154.871094 C 183.878906 150.496094 185.902344 148.636719 185.988281 148.5625 C 186.289062 148.289062 186.75 148.3125 187.019531 148.613281 C 187.285156 148.910156 187.265625 149.371094 186.964844 149.644531 C 186.933594 149.671875 185.175781 151.335938 184.207031 155.222656 C 184.125 155.554688 183.828125 155.777344 183.5 155.777344 "/><path style=" stroke:none;fill-rule:nonzero;fill:#5d3341;fill-opacity:1;" d="M 159.761719 152.304688 C 159.402344 152.304688 159.085938 152.035156 159.042969 151.667969 C 158.605469 148.207031 159.519531 146.339844 159.558594 146.261719 C 159.738281 145.902344 160.175781 145.753906 160.539062 145.9375 C 160.894531 146.117188 161.039062 146.550781 160.863281 146.914062 C 160.84375 146.953125 160.117188 148.53125 160.488281 151.484375 C 160.539062 151.882812 160.253906 152.25 159.855469 152.296875 C 159.824219 152.304688 159.792969 152.304688 159.761719 152.304688 "/><path style=" stroke:none;fill-rule:nonzero;fill:#5d3341;fill-opacity:1;" d="M 97.832031 360.75 C 97.644531 360.75 97.460938 360.679688 97.316406 360.539062 C 97.03125 360.253906 97.03125 359.789062 97.316406 359.503906 C 97.316406 359.503906 99.875 356.949219 103.707031 353.078125 C 103.992188 352.792969 104.453125 352.789062 104.738281 353.070312 C 105.023438 353.355469 105.027344 353.816406 104.742188 354.101562 C 100.90625 357.976562 98.347656 360.539062 98.347656 360.539062 C 98.207031 360.679688 98.019531 360.75 97.832031 360.75 "/><path style=" stroke:none;fill-rule:nonzero;fill:#5d3341;fill-opacity:1;" d="M 114.300781 344.085938 C 114.117188 344.085938 113.933594 344.015625 113.789062 343.878906 C 113.503906 343.597656 113.496094 343.136719 113.777344 342.847656 C 123.097656 333.320312 129.855469 326.222656 133.855469 321.753906 C 134.125 321.453125 134.589844 321.425781 134.886719 321.695312 C 135.183594 321.964844 135.210938 322.425781 134.941406 322.726562 C 130.929688 327.210938 124.15625 334.324219 114.820312 343.867188 C 114.679688 344.015625 114.488281 344.085938 114.300781 344.085938 "/><path style=" stroke:none;fill-rule:nonzero;fill:#5d3341;fill-opacity:1;" d="M 119.503906 207.632812 C 119.40625 207.632812 119.308594 207.613281 119.210938 207.574219 C 118.84375 207.410156 118.675781 206.980469 118.835938 206.613281 C 123.53125 195.84375 128.609375 185.066406 133.921875 174.574219 C 134.105469 174.214844 134.542969 174.070312 134.90625 174.253906 C 135.265625 174.433594 135.40625 174.875 135.226562 175.234375 C 129.921875 185.699219 124.859375 196.453125 120.175781 207.195312 C 120.054688 207.46875 119.785156 207.632812 119.503906 207.632812 "/><path style=" stroke:none;fill-rule:nonzero;fill:#5d3341;fill-opacity:1;" d="M 127.605469 134.324219 C 127.300781 134.324219 127.019531 134.132812 126.917969 133.832031 C 125.511719 129.726562 121.234375 128.023438 121.191406 128.007812 C 120.816406 127.863281 120.628906 127.441406 120.777344 127.066406 C 120.921875 126.691406 121.339844 126.5 121.71875 126.644531 C 121.917969 126.726562 126.664062 128.597656 128.296875 133.359375 C 128.425781 133.742188 128.222656 134.15625 127.84375 134.285156 C 127.761719 134.3125 127.683594 134.324219 127.605469 134.324219 "/><path style=" stroke:none;fill-rule:nonzero;fill:#5d3341;fill-opacity:1;" d="M 254.136719 9.804688 C 255.394531 10.464844 257.046875 10.355469 258.066406 9.542969 C 259.03125 8.777344 259.535156 7.335938 259.386719 5.777344 C 259.246094 4.304688 258.546875 3.105469 257.519531 2.574219 C 255.949219 1.753906 253.652344 2.40625 252.605469 3.964844 C 252 4.867188 251.824219 5.988281 252.113281 7.121094 C 252.40625 8.289062 253.164062 9.292969 254.136719 9.804688 Z M 255.925781 11.699219 C 255.082031 11.699219 254.222656 11.5 253.457031 11.097656 C 252.121094 10.394531 251.089844 9.042969 250.695312 7.480469 C 250.308594 5.933594 250.554688 4.398438 251.394531 3.148438 C 252.855469 0.976562 255.96875 0.121094 258.191406 1.277344 C 259.660156 2.042969 260.648438 3.671875 260.835938 5.636719 C 261.03125 7.679688 260.320312 9.617188 258.972656 10.6875 C 258.136719 11.355469 257.042969 11.699219 255.925781 11.699219 "/><path style=" stroke:none;fill-rule:nonzero;fill:#5d3341;fill-opacity:1;" d="M 272.132812 178.9375 C 270.84375 178.9375 269.484375 179.585938 268.746094 180.683594 C 268.140625 181.582031 267.964844 182.703125 268.25 183.839844 C 268.546875 185.007812 269.300781 186.011719 270.277344 186.523438 C 271.53125 187.183594 273.1875 187.074219 274.207031 186.261719 C 275.167969 185.496094 275.671875 184.054688 275.523438 182.496094 C 275.382812 181.023438 274.6875 179.824219 273.660156 179.292969 C 273.195312 179.050781 272.667969 178.9375 272.132812 178.9375 Z M 272.066406 188.417969 C 271.21875 188.417969 270.363281 188.21875 269.597656 187.816406 C 268.261719 187.113281 267.230469 185.761719 266.835938 184.199219 C 266.445312 182.65625 266.691406 181.117188 267.535156 179.871094 C 268.996094 177.695312 272.105469 176.835938 274.332031 177.996094 C 275.800781 178.761719 276.785156 180.390625 276.976562 182.355469 C 277.175781 184.402344 276.460938 186.335938 275.113281 187.40625 C 274.277344 188.070312 273.179688 188.414062 272.066406 188.417969 "/><path style=" stroke:none;fill-rule:nonzero;fill:#5d3341;fill-opacity:1;" d="M 255.003906 204.261719 C 254.492188 204.261719 253.921875 204.496094 253.585938 204.992188 C 253.335938 205.367188 253.261719 205.839844 253.382812 206.320312 C 253.511719 206.816406 253.828125 207.242188 254.234375 207.457031 C 254.238281 207.457031 254.238281 207.457031 254.238281 207.457031 C 254.761719 207.734375 255.441406 207.691406 255.855469 207.363281 C 256.246094 207.050781 256.460938 206.421875 256.394531 205.753906 C 256.335938 205.121094 256.050781 204.617188 255.632812 204.402344 C 255.453125 204.304688 255.234375 204.261719 255.003906 204.261719 Z M 254.984375 209.09375 C 254.492188 209.09375 254 208.984375 253.558594 208.75 C 252.777344 208.339844 252.199219 207.582031 251.96875 206.675781 C 251.75 205.800781 251.898438 204.890625 252.375 204.179688 C 253.230469 202.902344 254.996094 202.421875 256.308594 203.105469 C 257.164062 203.550781 257.738281 204.488281 257.847656 205.613281 C 257.960938 206.777344 257.542969 207.882812 256.761719 208.503906 C 256.273438 208.894531 255.632812 209.09375 254.984375 209.09375 "/><path style=" stroke:none;fill-rule:nonzero;fill:#5d3341;fill-opacity:1;" d="M 263.734375 116.0625 C 264.257812 116.339844 264.933594 116.300781 265.351562 115.964844 C 265.742188 115.652344 265.953125 115.023438 265.890625 114.355469 C 265.832031 113.726562 265.546875 113.21875 265.128906 113.003906 C 264.550781 112.703125 263.554688 112.894531 263.082031 113.597656 C 262.832031 113.972656 262.757812 114.441406 262.878906 114.921875 C 263.007812 115.421875 263.324219 115.847656 263.734375 116.0625 Z M 264.480469 117.699219 C 263.988281 117.699219 263.496094 117.585938 263.054688 117.355469 C 262.273438 116.941406 261.695312 116.1875 261.464844 115.277344 C 261.242188 114.402344 261.394531 113.496094 261.871094 112.78125 C 262.730469 111.507812 264.492188 111.027344 265.804688 111.710938 C 266.660156 112.15625 267.234375 113.09375 267.34375 114.214844 C 267.453125 115.378906 267.039062 116.488281 266.257812 117.109375 C 265.765625 117.5 265.128906 117.699219 264.480469 117.699219 "/><path style=" stroke:none;fill-rule:nonzero;fill:#5d3341;fill-opacity:1;" d="M 324.925781 17.539062 C 323.765625 17.539062 322.617188 17.683594 321.507812 17.980469 C 316.417969 19.332031 311.996094 24.027344 309.972656 30.226562 C 308.042969 36.125 308.769531 41.96875 311.914062 45.867188 C 316.75 51.855469 326.617188 53.238281 333.460938 48.878906 C 337.363281 46.398438 339.960938 42.335938 340.769531 37.449219 C 341.601562 32.457031 340.355469 27.296875 337.433594 23.652344 C 334.359375 19.804688 329.550781 17.539062 324.925781 17.539062 Z M 324.457031 52.871094 C 319.191406 52.871094 313.980469 50.75 310.777344 46.78125 C 307.324219 42.5 306.503906 36.144531 308.585938 29.773438 C 310.761719 23.109375 315.570312 18.050781 321.132812 16.566406 C 327.203125 14.953125 334.375 17.488281 338.574219 22.738281 C 341.746094 26.703125 343.105469 32.292969 342.210938 37.6875 C 341.332031 42.988281 338.503906 47.402344 334.246094 50.109375 C 331.316406 51.976562 327.875 52.871094 324.457031 52.871094 "/><path style=" stroke:none;fill-rule:nonzero;fill:#5d3341;fill-opacity:1;" d="M 323.699219 49.304688 C 323.007812 49.304688 322.308594 49.253906 321.609375 49.15625 C 321.210938 49.097656 320.929688 48.730469 320.988281 48.332031 C 321.042969 47.929688 321.410156 47.652344 321.8125 47.710938 C 323.238281 47.910156 324.648438 47.886719 326 47.632812 C 326.394531 47.566406 326.777344 47.820312 326.851562 48.21875 C 326.925781 48.613281 326.664062 48.992188 326.265625 49.070312 C 325.429688 49.226562 324.566406 49.304688 323.699219 49.304688 "/><path style=" stroke:none;fill-rule:nonzero;fill:#5d3341;fill-opacity:1;" d="M 332.285156 46.316406 C 332.0625 46.316406 331.84375 46.214844 331.699219 46.023438 C 331.460938 45.699219 331.527344 45.242188 331.851562 45 C 335.085938 42.589844 337.035156 39.230469 337.335938 35.53125 C 337.726562 30.699219 335.304688 25.949219 331.019531 23.144531 C 330.683594 22.921875 330.589844 22.46875 330.808594 22.132812 C 331.027344 21.796875 331.484375 21.703125 331.820312 21.921875 C 336.554688 25.023438 339.222656 30.285156 338.789062 35.648438 C 338.457031 39.773438 336.300781 43.507812 332.722656 46.171875 C 332.589844 46.269531 332.4375 46.316406 332.285156 46.316406 "/><path style=" stroke:none;fill-rule:nonzero;fill:#5d3341;fill-opacity:1;" d="M 257.328125 31.925781 C 254.757812 31.925781 251.984375 32.832031 249.515625 34.554688 C 246.023438 36.996094 244.007812 40.492188 244.125 43.914062 C 244.300781 49.183594 249.136719 54.003906 254.679688 54.4375 C 257.84375 54.683594 260.9375 53.535156 263.398438 51.191406 C 265.914062 48.796875 267.359375 45.453125 267.265625 42.253906 C 267.140625 38.035156 264.519531 34.058594 260.894531 32.59375 C 259.796875 32.148438 258.585938 31.925781 257.328125 31.925781 Z M 255.53125 55.933594 C 255.210938 55.933594 254.886719 55.921875 254.566406 55.894531 C 248.316406 55.402344 242.867188 49.9375 242.667969 43.964844 C 242.535156 40.046875 244.78125 36.082031 248.683594 33.359375 C 252.757812 30.515625 257.648438 29.703125 261.445312 31.238281 C 265.589844 32.917969 268.582031 37.433594 268.726562 42.210938 C 268.832031 45.820312 267.214844 49.574219 264.402344 52.25 C 261.886719 54.644531 258.769531 55.933594 255.53125 55.933594 "/><path style=" stroke:none;fill-rule:nonzero;fill:#5d3341;fill-opacity:1;" d="M 255.488281 51.949219 C 252.804688 51.949219 250.175781 50.773438 248.46875 48.644531 L 248.308594 48.4375 C 248.066406 48.117188 248.128906 47.660156 248.453125 47.414062 C 248.773438 47.175781 249.234375 47.242188 249.476562 47.5625 L 249.605469 47.730469 C 251.621094 50.246094 255.171875 51.167969 258.242188 49.980469 C 261.921875 48.554688 263.320312 44.515625 263.058594 41.371094 C 262.929688 39.8125 262.335938 38.269531 261.339844 36.910156 C 261.101562 36.585938 261.171875 36.128906 261.5 35.890625 C 261.824219 35.652344 262.28125 35.722656 262.519531 36.046875 C 263.671875 37.625 264.363281 39.425781 264.515625 41.25 C 264.816406 44.921875 263.148438 49.644531 258.769531 51.339844 C 257.707031 51.753906 256.59375 51.949219 255.488281 51.949219 "/><path style=" stroke:none;fill-rule:nonzero;fill:#5d3341;fill-opacity:1;" d="M 320.472656 165.785156 C 327.53125 165.992188 334.890625 162.808594 340.164062 157.273438 C 345.324219 151.851562 347.863281 145.023438 347.3125 138.050781 C 346.351562 125.824219 335.703125 115.164062 324.066406 114.769531 C 316.492188 114.542969 308.765625 118.949219 303.40625 126.628906 C 297.773438 134.695312 296.132812 144.292969 299.125 151.683594 C 302.378906 159.710938 311.160156 165.507812 320.472656 165.785156 Z M 321.125 167.25 C 320.890625 167.25 320.660156 167.246094 320.429688 167.242188 C 310.554688 166.949219 301.238281 160.777344 297.773438 152.230469 C 294.597656 144.390625 296.292969 134.257812 302.210938 125.792969 C 307.855469 117.707031 316.039062 113.015625 324.117188 113.3125 C 336.457031 113.726562 347.746094 125 348.769531 137.9375 C 349.351562 145.328125 346.667969 152.554688 341.222656 158.28125 C 335.839844 163.929688 328.375 167.25 321.125 167.25 "/><path style=" stroke:none;fill-rule:nonzero;fill:#5d3341;fill-opacity:1;" d="M 334.664062 184.769531 C 333.417969 184.769531 332.148438 184.640625 330.871094 184.378906 C 325.765625 183.335938 321.257812 180.21875 318.816406 176.039062 C 317.117188 173.132812 316.324219 169.621094 316.578125 166.148438 C 316.605469 165.746094 316.957031 165.441406 317.359375 165.476562 C 317.761719 165.503906 318.0625 165.855469 318.03125 166.253906 C 317.800781 169.433594 318.523438 172.648438 320.074219 175.304688 C 322.3125 179.128906 326.457031 181.988281 331.164062 182.949219 C 335.769531 183.894531 340.242188 182.972656 343.765625 180.359375 C 349.953125 175.78125 352.082031 166.578125 348.425781 160.257812 C 347.21875 158.179688 345.332031 156.441406 342.980469 155.242188 C 342.621094 155.0625 342.480469 154.621094 342.660156 154.261719 C 342.84375 153.902344 343.28125 153.761719 343.640625 153.945312 C 346.246094 155.269531 348.339844 157.203125 349.6875 159.527344 C 353.699219 166.457031 351.386719 176.535156 344.632812 181.53125 C 341.757812 183.664062 338.308594 184.769531 334.664062 184.769531 "/><path style=" stroke:none;fill-rule:nonzero;fill:#5d3341;fill-opacity:1;" d="M 339.757812 130.558594 C 339.488281 130.558594 339.230469 130.410156 339.101562 130.152344 C 338.175781 128.277344 336.917969 126.546875 335.375 125.003906 C 335.089844 124.722656 335.089844 124.257812 335.375 123.972656 C 335.65625 123.6875 336.121094 123.6875 336.40625 123.972656 C 338.0625 125.628906 339.410156 127.488281 340.410156 129.503906 C 340.589844 129.867188 340.441406 130.300781 340.082031 130.480469 C 339.976562 130.535156 339.867188 130.558594 339.757812 130.558594 "/><path style=" stroke:none;fill-rule:nonzero;fill:#5d3341;fill-opacity:1;" d="M 321.433594 161.34375 C 318.796875 161.34375 316.117188 160.886719 313.515625 159.949219 C 313.136719 159.8125 312.9375 159.394531 313.074219 159.015625 C 313.214844 158.636719 313.628906 158.441406 314.007812 158.574219 C 321.320312 161.207031 329.277344 159.808594 334.777344 154.921875 C 338.988281 151.179688 341.285156 145.753906 341.25 139.632812 C 341.25 139.230469 341.578125 138.902344 341.976562 138.902344 C 341.980469 138.902344 341.980469 138.902344 341.984375 138.902344 C 342.382812 138.902344 342.710938 139.226562 342.710938 139.625 C 342.75 146.171875 340.273438 151.988281 335.746094 156.011719 C 331.8125 159.507812 326.710938 161.34375 321.433594 161.34375 "/><path style=" stroke:none;fill-rule:nonzero;fill:#5d3341;fill-opacity:1;" d="M 333.289062 180.648438 C 332.898438 180.648438 332.578125 180.339844 332.558594 179.949219 C 332.542969 179.546875 332.851562 179.207031 333.253906 179.1875 C 335.269531 179.097656 339.136719 178.484375 342.363281 175.410156 C 343.332031 174.496094 345.890625 172.054688 346.28125 168.0625 C 346.5625 165.238281 345.648438 162.9375 344.835938 161.511719 C 344.636719 161.160156 344.757812 160.714844 345.109375 160.515625 C 345.457031 160.316406 345.90625 160.4375 346.105469 160.789062 C 347.023438 162.402344 348.046875 164.996094 347.734375 168.207031 C 347.289062 172.738281 344.441406 175.449219 343.371094 176.46875 C 339.800781 179.867188 335.542969 180.546875 333.324219 180.648438 C 333.308594 180.648438 333.296875 180.648438 333.289062 180.648438 "/><path style=" stroke:none;fill-rule:nonzero;fill:#5d3341;fill-opacity:1;" d="M 303.027344 138.050781 L 304.367188 139.054688 C 305.824219 136.910156 307.484375 134.910156 309.320312 133.09375 C 311.949219 130.488281 314.929688 128.257812 318.191406 126.457031 L 315.535156 122.058594 C 311.492188 124.554688 308.128906 127.925781 305.78125 131.855469 C 304.625 133.789062 303.699219 135.871094 303.027344 138.050781 Z M 304.546875 140.832031 C 304.390625 140.832031 304.238281 140.78125 304.109375 140.6875 L 301.746094 138.910156 C 301.503906 138.730469 301.398438 138.417969 301.480469 138.125 C 302.199219 135.652344 303.222656 133.289062 304.527344 131.105469 C 307.121094 126.769531 310.886719 123.078125 315.417969 120.429688 C 315.757812 120.226562 316.203125 120.339844 316.410156 120.683594 L 319.839844 126.359375 C 319.941406 126.53125 319.96875 126.738281 319.914062 126.929688 C 319.863281 127.125 319.730469 127.285156 319.554688 127.382812 C 316.152344 129.171875 313.054688 131.445312 310.347656 134.128906 C 308.402344 136.054688 306.65625 138.195312 305.160156 140.5 C 305.050781 140.667969 304.875 140.785156 304.675781 140.820312 C 304.632812 140.828125 304.589844 140.832031 304.546875 140.832031 "/><path style=" stroke:none;fill-rule:nonzero;fill:#5d3341;fill-opacity:1;" d="M 279.21875 67.714844 C 278.707031 67.714844 278.199219 67.773438 277.695312 67.894531 C 275.898438 68.335938 274.390625 69.542969 273.453125 71.300781 C 272.492188 73.097656 272.296875 75.222656 272.9375 76.984375 C 273.765625 79.265625 275.988281 81.027344 278.222656 81.175781 C 280.320312 81.3125 282.609375 80.089844 284.191406 77.976562 C 285.6875 75.972656 286.175781 73.664062 285.488281 71.796875 C 284.59375 69.367188 281.925781 67.714844 279.21875 67.714844 Z M 278.542969 82.648438 C 278.402344 82.648438 278.265625 82.640625 278.125 82.632812 C 275.296875 82.441406 272.597656 80.328125 271.566406 77.480469 C 270.789062 75.339844 271.011719 72.769531 272.167969 70.609375 C 273.304688 68.484375 275.144531 67.019531 277.351562 66.476562 C 281.191406 65.535156 285.550781 67.742188 286.859375 71.292969 C 287.714844 73.625 287.152344 76.453125 285.359375 78.851562 C 283.585938 81.222656 281.007812 82.648438 278.542969 82.648438 "/><path style=" stroke:none;fill-rule:nonzero;fill:#5d3341;fill-opacity:1;" d="M 278.65625 79.679688 C 277.207031 79.679688 276.125 79.128906 276.0625 79.097656 C 275.703125 78.914062 275.566406 78.472656 275.753906 78.113281 C 275.9375 77.757812 276.375 77.617188 276.734375 77.804688 C 276.746094 77.8125 278.277344 78.574219 279.914062 78.019531 C 281.101562 77.617188 282.085938 76.617188 282.835938 75.046875 C 283.011719 74.683594 283.445312 74.527344 283.8125 74.703125 C 284.171875 74.878906 284.328125 75.3125 284.152344 75.679688 C 283.21875 77.628906 281.941406 78.878906 280.359375 79.410156 C 279.765625 79.609375 279.183594 79.679688 278.65625 79.679688 "/><path style=" stroke:none;fill-rule:nonzero;fill:#5d3341;fill-opacity:1;" d="M 289.277344 227.75 C 290.101562 230.03125 292.328125 231.792969 294.5625 231.941406 C 296.648438 232.078125 298.949219 230.859375 300.53125 228.746094 C 302.027344 226.742188 302.515625 224.433594 301.828125 222.566406 C 300.765625 219.675781 297.199219 217.890625 294.035156 218.664062 C 292.238281 219.105469 290.730469 220.3125 289.792969 222.066406 C 288.832031 223.863281 288.636719 225.992188 289.277344 227.75 Z M 294.882812 233.414062 C 294.742188 233.414062 294.605469 233.40625 294.464844 233.398438 C 291.636719 233.210938 288.9375 231.09375 287.90625 228.25 C 287.125 226.105469 287.351562 223.535156 288.503906 221.378906 C 289.640625 219.253906 291.484375 217.785156 293.691406 217.246094 C 297.535156 216.296875 301.890625 218.507812 303.195312 222.058594 C 304.054688 224.394531 303.492188 227.21875 301.699219 229.617188 C 299.925781 231.988281 297.347656 233.414062 294.882812 233.414062 "/><path style=" stroke:none;fill-rule:nonzero;fill:#5d3341;fill-opacity:1;" d="M 294.996094 230.449219 C 293.542969 230.449219 292.460938 229.898438 292.402344 229.863281 C 292.042969 229.679688 291.90625 229.238281 292.089844 228.882812 C 292.277344 228.523438 292.714844 228.382812 293.074219 228.570312 C 293.085938 228.578125 294.621094 229.339844 296.253906 228.789062 C 297.441406 228.386719 298.421875 227.382812 299.175781 225.816406 C 299.351562 225.449219 299.785156 225.296875 300.152344 225.472656 C 300.511719 225.644531 300.667969 226.082031 300.492188 226.445312 C 299.558594 228.394531 298.28125 229.648438 296.699219 230.175781 C 296.105469 230.375 295.523438 230.449219 294.996094 230.449219 "/><path style=" stroke:none;fill-rule:nonzero;fill:#5d3341;fill-opacity:1;" d="M 276.097656 208.277344 C 276.089844 208.277344 276.085938 208.277344 276.082031 208.277344 C 275.679688 208.273438 275.355469 207.945312 275.359375 207.542969 C 275.363281 207.140625 275.6875 206.820312 276.089844 206.820312 C 276.105469 206.820312 276.132812 206.820312 276.171875 206.820312 C 277.878906 206.820312 299.546875 206.421875 300.433594 186.699219 C 300.453125 186.296875 300.8125 185.96875 301.195312 186 C 301.597656 186.023438 301.910156 186.363281 301.894531 186.761719 C 300.9375 208.054688 276.832031 208.277344 276.097656 208.277344 "/><path style=" stroke:none;fill-rule:nonzero;fill:#5d3341;fill-opacity:1;" d="M 144.722656 107.734375 C 144.664062 107.734375 144.605469 107.726562 144.546875 107.710938 C 144.152344 107.613281 143.917969 107.21875 144.015625 106.828125 C 144.515625 104.835938 145.359375 102.839844 146.382812 101.203125 C 146.601562 100.859375 147.050781 100.757812 147.390625 100.972656 C 147.730469 101.1875 147.835938 101.636719 147.621094 101.976562 C 147.070312 102.851562 146.058594 104.691406 145.429688 107.183594 C 145.347656 107.515625 145.050781 107.734375 144.722656 107.734375 "/><path style=" stroke:none;fill-rule:nonzero;fill:#5d3341;fill-opacity:1;" d="M 151.496094 126.753906 C 151.34375 126.753906 151.191406 126.707031 151.058594 126.609375 C 149.128906 125.160156 145.667969 121.9375 144.140625 116.605469 C 144.03125 116.214844 144.257812 115.8125 144.640625 115.699219 C 145.027344 115.59375 145.433594 115.8125 145.542969 116.199219 C 146.953125 121.125 150.152344 124.105469 151.933594 125.441406 C 152.257812 125.683594 152.320312 126.140625 152.078125 126.464844 C 151.9375 126.65625 151.71875 126.753906 151.496094 126.753906 "/><path style=" stroke:none;fill-rule:nonzero;fill:#5d3341;fill-opacity:1;" d="M 136.121094 163.1875 C 135.976562 163.1875 135.828125 163.144531 135.699219 163.054688 C 127.253906 157.089844 132.101562 146.632812 132.148438 146.53125 C 132.324219 146.167969 132.761719 146.011719 133.121094 146.1875 C 133.488281 146.355469 133.644531 146.792969 133.46875 147.15625 C 133.289062 147.539062 129.105469 156.609375 136.542969 161.859375 C 136.871094 162.09375 136.949219 162.546875 136.71875 162.878906 C 136.574219 163.078125 136.351562 163.1875 136.121094 163.1875 "/><path style=" stroke:none;fill-rule:nonzero;fill:#5d3341;fill-opacity:1;" d="M 268.664062 254.292969 C 265.058594 254.292969 262.351562 253.804688 262.066406 253.75 C 261.667969 253.675781 261.410156 253.292969 261.484375 252.898438 C 261.554688 252.503906 261.941406 252.242188 262.335938 252.316406 C 262.511719 252.351562 280.332031 255.554688 286 244.960938 C 286.191406 244.605469 286.632812 244.46875 286.988281 244.664062 C 287.34375 244.851562 287.476562 245.296875 287.285156 245.652344 C 283.40625 252.898438 274.753906 254.292969 268.664062 254.292969 "/><path style=" stroke:none;fill-rule:nonzero;fill:#5d3341;fill-opacity:1;" d="M 202.875 285.742188 C 202.585938 285.742188 202.316406 285.574219 202.203125 285.292969 C 202.046875 284.921875 202.222656 284.492188 202.59375 284.335938 C 218.648438 277.644531 227.78125 269.453125 238.351562 259.964844 C 246.382812 252.761719 255.488281 244.59375 269.113281 235.878906 L 269.28125 235.769531 C 272.167969 233.925781 278.917969 229.609375 278.421875 225.144531 C 278.148438 222.679688 275.746094 220.417969 271.28125 218.414062 C 259.429688 213.109375 244.726562 219.394531 234.996094 223.5625 C 228.683594 226.261719 224.871094 227.894531 223.414062 226.027344 C 221.410156 223.46875 226.695312 217.300781 237.871094 204.703125 C 239.75 202.585938 241.734375 200.351562 243.777344 198.015625 C 244.042969 197.710938 244.503906 197.679688 244.808594 197.945312 C 245.109375 198.210938 245.140625 198.675781 244.875 198.976562 C 242.832031 201.316406 240.84375 203.554688 238.964844 205.671875 C 231.222656 214.394531 223.21875 223.414062 224.5625 225.128906 C 225.328125 226.109375 229.949219 224.132812 234.421875 222.21875 C 244.382812 217.957031 259.441406 211.507812 271.871094 217.082031 C 276.847656 219.3125 279.535156 221.96875 279.875 224.980469 C 280.472656 230.347656 273.179688 235.007812 270.070312 236.996094 L 269.898438 237.109375 C 256.375 245.757812 247.316406 253.882812 239.324219 261.054688 C 228.65625 270.628906 219.4375 278.898438 203.152344 285.683594 C 203.0625 285.722656 202.96875 285.742188 202.875 285.742188 "/></g></svg>