<svg xmlns="http://www.w3.org/2000/svg" xmlns:xlink="http://www.w3.org/1999/xlink" width="500" zoomAndPan="magnify" viewBox="0 0 375 374.999991" height="500" preserveAspectRatio="xMidYMid meet" version="1.2"><defs><clipPath id="a5aeae1cae"><path d="M 79.21875 181 L 107 181 L 107 209 L 79.21875 209 Z M 79.21875 181 "/></clipPath></defs><g id="17e4f063e4"><path style=" stroke:none;fill-rule:evenodd;fill:#71422e;fill-opacity:1;" d="M 126.339844 196.699219 C 126.871094 195.191406 127.382812 193.695312 127.691406 192.191406 C 128.71875 187.457031 126.707031 183.804688 123.554688 180.566406 C 122.175781 179.175781 120.574219 178.042969 119.3125 176.523438 C 114.402344 170.527344 113.917969 163.726562 115.96875 156.546875 C 116.925781 153.304688 118.535156 150.375 120.515625 147.664062 C 122.113281 145.496094 123.257812 143.121094 123.816406 140.410156 C 124.695312 136.144531 123.199219 132.640625 120.601562 129.535156 C 119.035156 127.6875 117.289062 126.078125 115.761719 124.230469 C 111.449219 119.011719 110.070312 112.988281 111.15625 106.320312 C 111.714844 102.613281 112.300781 98.917969 112.875 95.210938 C 113.519531 91.09375 111.714844 86.007812 107.359375 83.910156 C 100.417969 80.570312 97.003906 74.398438 95.167969 67.113281 C 93.011719 58.4375 94.785156 50.230469 98.410156 42.347656 C 101.578125 35.472656 105.933594 29.492188 111.199219 24.144531 C 121.617188 13.578125 136.988281 4.535156 151.777344 2.703125 C 170.917969 0.300781 189.753906 8.945312 203.085938 22.3125 C 212.738281 31.984375 216.027344 44.503906 223.050781 55.757812 C 227.230469 62.5 232.246094 68.320312 239.84375 71.234375 C 241.519531 71.878906 243.011719 72.859375 244.527344 73.796875 C 251.609375 78.109375 255.671875 84.539062 257.316406 92.660156 C 257.800781 95.035156 258.035156 97.410156 258.546875 99.738281 C 259.824219 105.46875 263.109375 109.660156 268.183594 112.414062 C 271.957031 114.453125 275.8125 116.445312 279.011719 119.375 C 287.605469 127.230469 290.394531 136.863281 287.226562 148.21875 C 286.492188 150.8125 285.566406 153.390625 285.140625 156.089844 C 284.496094 160.207031 285.671875 163.902344 288.074219 167.167969 C 290.027344 169.835938 291.773438 172.621094 292.914062 175.757812 C 295.96875 184.300781 293.503906 194.0625 286.8125 200.101562 C 283.851562 202.753906 280.535156 205.054688 277.808594 208.027344 C 276.109375 209.902344 274.609375 211.925781 273.730469 214.347656 C 272.175781 218.640625 273.496094 221.878906 277.648438 223.460938 C 278.980469 223.960938 278.894531 224.515625 278.175781 225.410156 C 275.417969 228.824219 271.765625 230.144531 267.542969 230.027344 C 264.433594 229.96875 261.675781 228.898438 259.152344 227.023438 C 255.75 232.5625 251.257812 235.917969 244.511719 234.804688 C 233.117188 234.46875 211.683594 221.261719 211.683594 221.261719 C 211.683594 221.261719 145.414062 222.40625 145.339844 222.40625 C 142.683594 222.4375 138.328125 219.53125 136.199219 218.285156 C 131.769531 215.707031 126.210938 211.195312 125.039062 205.933594 C 124.316406 202.785156 125.3125 199.71875 126.339844 196.699219 Z M 126.339844 196.699219 "/><path style=" stroke:none;fill-rule:nonzero;fill:#633120;fill-opacity:1;" d="M 136.859375 178.71875 C 136.84375 178.71875 136.824219 178.71875 136.804688 178.71875 C 136.171875 178.691406 135.683594 178.15625 135.714844 177.523438 C 135.894531 173.605469 133.734375 170.863281 131.441406 167.957031 C 129.285156 165.222656 127.050781 162.394531 126.839844 158.511719 C 126.6875 154.988281 128.152344 151.632812 129.441406 148.675781 L 129.601562 148.304688 C 129.90625 147.605469 130.234375 146.890625 130.5625 146.160156 C 133.03125 140.738281 135.578125 135.128906 132.25 130.078125 C 130.148438 126.902344 127.355469 123.925781 123.710938 120.96875 C 123.21875 120.574219 123.144531 119.851562 123.542969 119.359375 C 123.941406 118.867188 124.664062 118.792969 125.15625 119.191406 C 128.984375 122.292969 131.929688 125.445312 134.160156 128.816406 C 138.1875 134.925781 135.246094 141.398438 132.648438 147.105469 C 132.324219 147.824219 132.003906 148.527344 131.703125 149.21875 L 131.542969 149.589844 C 130.292969 152.457031 129 155.417969 129.128906 158.402344 C 129.300781 161.546875 131.214844 163.972656 133.242188 166.542969 C 135.691406 169.648438 138.222656 172.863281 138.003906 177.628906 C 137.976562 178.242188 137.46875 178.71875 136.859375 178.71875 Z M 136.859375 178.71875 "/><path style=" stroke:none;fill-rule:nonzero;fill:#633120;fill-opacity:1;" d="M 144.777344 147.726562 C 144.589844 147.726562 144.402344 147.675781 144.222656 147.582031 C 143.671875 147.273438 143.46875 146.578125 143.777344 146.027344 C 150.128906 134.566406 143.558594 127.695312 143.277344 127.410156 C 142.835938 126.960938 142.835938 126.234375 143.285156 125.792969 C 143.734375 125.347656 144.453125 125.347656 144.898438 125.792969 C 144.980469 125.875 152.992188 134.117188 145.78125 147.132812 C 145.574219 147.507812 145.183594 147.726562 144.777344 147.726562 Z M 144.777344 147.726562 "/><path style=" stroke:none;fill-rule:evenodd;fill:#fed2b9;fill-opacity:1;" d="M 160.59375 65.296875 C 151.101562 66.234375 144.574219 64.242188 135.1875 62.164062 C 126.019531 60.140625 117.847656 56.210938 111.230469 49.410156 C 110.25 48.386719 109.253906 47.375 108.253906 46.363281 C 107.519531 45.628906 107.066406 45.851562 106.804688 46.816406 C 106.554688 47.710938 106.273438 48.589844 106.023438 49.484375 C 105.320312 51.140625 105.4375 52.898438 105.320312 54.601562 C 105.132812 58.335938 105.496094 61.988281 106.890625 65.503906 C 106.964844 65.679688 107.066406 65.828125 107.125 66.015625 C 108.695312 70.796875 110.761719 75.261719 114.472656 78.839844 C 118.359375 82.605469 119.769531 87.339844 119.59375 92.691406 C 119.550781 95.035156 119.359375 97.394531 119.242188 99.710938 C 119.125 102.1875 120.269531 103.40625 122.734375 103.507812 C 124.480469 103.609375 126.210938 103.359375 127.835938 102.6875 C 129.085938 102.160156 129.863281 102.554688 130.539062 103.65625 C 133.601562 108.652344 138.988281 112.167969 143.445312 115.820312 C 148.417969 119.863281 153.625 119.863281 159.171875 117.152344 C 162.734375 115.421875 165.667969 112.855469 168.617188 110.277344 C 170.1875 111.496094 171.300781 113.105469 172.578125 114.585938 C 173.898438 116.960938 175.484375 119.21875 175.980469 121.976562 C 175.601562 122.382812 175.234375 122.824219 174.867188 123.21875 C 174.585938 123.453125 174.308594 123.675781 174.027344 123.878906 C 173.222656 124.863281 172.371094 125.8125 171.609375 126.824219 C 168.953125 130.355469 166.589844 134.050781 165.640625 138.433594 C 165.109375 140.996094 165.917969 143.28125 169.171875 144.175781 C 171.785156 144.835938 174.25 144.398438 176.683594 143.738281 C 181.703125 142.386719 185.984375 139.605469 190.089844 136.570312 C 195.972656 132.175781 201.472656 127.234375 207.796875 123.453125 C 212.09375 120.886719 216.464844 118.574219 221.746094 119.117188 C 221.996094 119.128906 222.304688 119.1875 222.507812 118.910156 C 221.539062 120.128906 207.925781 111.128906 206.316406 110.058594 C 204.085938 108.578125 200.828125 105.574219 199.1875 103.421875 C 196.25 99.582031 194.386719 95.199219 192.597656 90.757812 C 191.585938 88.265625 190.648438 85.773438 189.472656 83.34375 C 184.445312 72.757812 172.871094 64.078125 160.59375 65.296875 Z M 160.59375 65.296875 "/><path style=" stroke:none;fill-rule:evenodd;fill:#f8a58c;fill-opacity:1;" d="M 168.617188 110.277344 C 169.804688 108.796875 171.019531 107.316406 172.195312 105.761719 C 173.472656 104.105469 174.675781 102.363281 175.660156 100.457031 C 176.625 98.65625 177.507812 96.808594 178.152344 94.503906 C 178.535156 97.820312 178.019531 100.707031 177.375 103.621094 C 176.625 107.199219 175.425781 110.585938 173.457031 113.691406 C 173.222656 114.058594 172.988281 114.410156 172.578125 114.585938 C 171.300781 113.105469 170.1875 111.492188 168.617188 110.277344 Z M 168.617188 110.277344 "/><path style=" stroke:none;fill-rule:evenodd;fill:#6e391e;fill-opacity:1;" d="M 125.519531 64.125 C 127.984375 64.15625 129.742188 64.417969 131.503906 64.828125 C 132.089844 64.960938 132.792969 65.167969 132.679688 65.972656 C 132.589844 66.835938 131.871094 66.777344 131.238281 66.691406 C 128.480469 66.355469 125.722656 66.265625 123.027344 67.277344 C 121.585938 67.835938 120.164062 68.421875 118.800781 69.195312 C 118.332031 69.492188 117.816406 69.84375 117.320312 69.195312 C 116.835938 68.609375 117.203125 68.113281 117.570312 67.703125 C 119.859375 65.152344 122.867188 64.273438 125.519531 64.125 Z M 125.519531 64.125 "/><path style=" stroke:none;fill-rule:evenodd;fill:#3e2433;fill-opacity:1;" d="M 131.5625 84.496094 C 129.101562 84.746094 126.238281 82.882812 125.492188 80.511719 C 125.34375 80.027344 125.035156 79.308594 125.710938 79.015625 C 126.238281 78.765625 126.828125 79.089844 127.195312 79.570312 C 127.382812 79.761719 127.542969 80.027344 127.660156 80.289062 C 128.777344 82.898438 131.59375 82.238281 132.882812 80.847656 C 133.75 79.921875 134.203125 78.824219 134.378906 77.578125 C 134.4375 77.050781 134.628906 76.464844 135.289062 76.507812 C 135.847656 76.523438 136.167969 76.949219 136.300781 77.503906 C 137.019531 80.320312 134.378906 84.21875 131.5625 84.496094 Z M 131.5625 84.496094 "/><path style=" stroke:none;fill-rule:evenodd;fill:#ff9aaa;fill-opacity:1;" d="M 261.042969 353.652344 C 257.976562 329.277344 256.71875 304.539062 249.320312 280.945312 C 247.195312 274.1875 244.730469 267.535156 242.28125 260.910156 C 241.679688 259.210938 235.152344 244.277344 236.179688 243.484375 C 237.148438 242.722656 238.011719 241.875 238.804688 240.976562 C 247.121094 231.347656 246.800781 217.617188 247.0625 205.660156 C 247.226562 198.386719 246.800781 191.148438 246.59375 183.878906 C 246.445312 179.070312 246.242188 174.277344 246.035156 169.472656 C 245.773438 163.347656 245.097656 157.25 244.246094 151.167969 C 243.160156 143.398438 240.976562 135.957031 236.121094 129.566406 C 232.558594 124.863281 228.289062 121.023438 222.800781 118.660156 C 217.785156 118.132812 213.296875 119.671875 209.042969 122.152344 C 205.597656 124.203125 202.292969 126.457031 199.113281 128.90625 C 194.597656 132.421875 190.296875 136.207031 185.425781 139.195312 C 181.289062 141.742188 176.976562 143.898438 171.988281 144.046875 C 167.792969 144.160156 164.917969 142.09375 166.355469 137.535156 C 166.429688 137.230469 166.503906 136.96875 166.589844 136.671875 C 167.972656 132.449219 170.523438 128.890625 173.308594 125.445312 C 173.664062 124.992188 174.25 124.609375 174.058594 123.878906 C 173.5 123.453125 172.972656 123.730469 172.445312 123.949219 C 169.644531 125.226562 166.988281 126.765625 164.554688 128.65625 C 160.285156 131.96875 157.101562 136.261719 154.316406 140.835938 C 151.1875 145.90625 148.023438 150.933594 144.121094 155.460938 C 142.359375 157.484375 140.6875 159.609375 139.089844 161.761719 C 132.707031 170.46875 132.382812 180.949219 138.3125 189.976562 C 138.839844 190.808594 138.824219 191.25 137.929688 191.777344 C 124.40625 199.191406 112.246094 211.300781 104.441406 224.546875 C 102.152344 228.476562 100.171875 232.621094 98.515625 236.875 C 94 248.539062 92.636719 260.542969 94.820312 272.941406 C 96.285156 281.308594 99.03125 289.269531 102.226562 297.066406 C 105.410156 304.804688 107.613281 312.71875 107.667969 321.144531 C 107.730469 329.820312 106.640625 338.351562 105.574219 346.910156 C 104.429688 356.199219 103.035156 365.433594 101.390625 374.652344 L 263.757812 374.652344 C 262.820312 367.648438 261.921875 360.65625 261.042969 353.652344 Z M 261.042969 353.652344 "/><path style=" stroke:none;fill-rule:evenodd;fill:#fed2b9;fill-opacity:1;" d="M 175.789062 275.507812 C 170.964844 270.539062 168.527344 264.601562 168.292969 257.714844 C 168.292969 257.316406 168.394531 256.804688 167.792969 256.730469 C 167.117188 257.261719 166.300781 257.261719 165.507812 257.316406 C 162.851562 257.550781 160.375 256.761719 157.878906 256.085938 C 154.621094 255.148438 151.457031 254.019531 148.050781 253.582031 C 143.738281 253.007812 139.457031 252.539062 135.15625 252.011719 C 134.085938 251.894531 132.941406 251.691406 131.914062 252.085938 C 130.246094 252.757812 130.140625 254.605469 131.738281 256 C 133.121094 257.214844 134.71875 258.152344 136.492188 258.679688 C 138.839844 259.386719 141.214844 260.070312 143.589844 260.6875 C 144.707031 260.980469 144.472656 261.464844 143.914062 262.035156 C 143.664062 262.300781 143.296875 262.460938 142.976562 262.609375 C 139.222656 264.074219 135.40625 265.246094 131.476562 266.15625 C 126.210938 267.417969 120.796875 267.785156 115.472656 268.664062 C 114.167969 268.882812 113.390625 269.570312 113.347656 270.902344 C 113.316406 271.621094 113.566406 272.0625 113.960938 272.371094 L 114.621094 273.921875 L 113.273438 274.1875 C 112.523438 274.1875 111.996094 274.652344 111.542969 275.3125 C 110.925781 276.191406 111.203125 276.898438 111.894531 277.570312 C 112.378906 278.054688 112.917969 278.347656 113.550781 278.582031 C 114.050781 278.773438 114.550781 278.917969 115.0625 279.035156 L 115.898438 280.003906 L 115.339844 281.425781 L 115.386719 281.484375 C 115.136719 281.644531 114.929688 281.9375 114.8125 282.289062 C 114.492188 283.242188 115.164062 283.8125 115.941406 284.105469 C 117.171875 284.605469 118.421875 285.117188 119.695312 285.367188 L 122.558594 286.933594 C 122.558594 286.933594 121.589844 287.609375 122.144531 288.460938 C 122.175781 288.925781 122.617188 289.207031 123.027344 289.398438 C 124.140625 290.027344 125.34375 290.46875 126.605469 290.777344 C 133.410156 292.417969 140.234375 292.3125 147.007812 290.539062 C 154.035156 288.738281 160.34375 285.367188 166.328125 281.367188 C 169.425781 279.300781 172.710938 277.511719 176.257812 276.3125 C 176.300781 275.917969 176.007812 275.726562 175.789062 275.507812 Z M 175.789062 275.507812 "/><path style=" stroke:none;fill-rule:nonzero;fill:#e07288;fill-opacity:1;" d="M 212.839844 221.144531 C 212.242188 221.144531 211.683594 220.75 211.476562 220.164062 C 207.765625 207.753906 203.675781 160.605469 203.527344 158.613281 C 203.4375 157.820312 204.027344 157.144531 204.820312 157.074219 C 205.609375 157.027344 206.285156 157.585938 206.34375 158.347656 C 206.371094 158.859375 210.570312 207.226562 214.207031 219.347656 C 214.441406 220.09375 214 220.867188 213.253906 221.117188 C 213.121094 221.132812 212.972656 221.144531 212.839844 221.144531 Z M 212.839844 221.144531 "/><path style=" stroke:none;fill-rule:nonzero;fill:#f8a58c;fill-opacity:1;" d="M 125.738281 275.574219 C 119.1875 275.574219 114.816406 274.367188 114.535156 274.285156 C 114.085938 274.15625 113.824219 273.6875 113.949219 273.238281 C 114.078125 272.785156 114.550781 272.523438 115 272.652344 C 115.101562 272.679688 125.441406 275.523438 138.089844 272.363281 C 138.542969 272.253906 139.007812 272.527344 139.121094 272.984375 C 139.234375 273.4375 138.957031 273.902344 138.503906 274.015625 C 133.785156 275.191406 129.417969 275.574219 125.738281 275.574219 Z M 125.738281 275.574219 "/><path style=" stroke:none;fill-rule:nonzero;fill:#f8a58c;fill-opacity:1;" d="M 127.960938 282.113281 C 121.214844 282.113281 116.421875 281.019531 116.113281 280.949219 C 115.65625 280.84375 115.375 280.386719 115.480469 279.929688 C 115.585938 279.472656 116.042969 279.1875 116.5 279.292969 C 116.613281 279.320312 127.96875 281.898438 140.230469 279.074219 C 140.6875 278.96875 141.144531 279.253906 141.25 279.710938 C 141.355469 280.171875 141.070312 280.628906 140.613281 280.730469 C 136.085938 281.773438 131.722656 282.113281 127.960938 282.113281 Z M 127.960938 282.113281 "/><path style=" stroke:none;fill-rule:nonzero;fill:#f8a58c;fill-opacity:1;" d="M 132.71875 288.25 C 126.703125 288.25 121.828125 287.117188 121.523438 287.042969 C 121.066406 286.933594 120.785156 286.476562 120.890625 286.023438 C 121 285.566406 121.457031 285.28125 121.914062 285.390625 C 122.027344 285.417969 132.980469 287.957031 142.082031 285.386719 C 142.53125 285.257812 143.003906 285.519531 143.132812 285.972656 C 143.257812 286.425781 142.996094 286.894531 142.542969 287.019531 C 139.285156 287.945312 135.847656 288.25 132.71875 288.25 Z M 132.71875 288.25 "/><path style=" stroke:none;fill-rule:evenodd;fill:#ff9aaa;fill-opacity:1;" d="M 215.410156 219.375 C 208.601562 222.214844 168.910156 255.910156 168.910156 255.910156 C 168.910156 255.910156 166.679688 271.238281 178.574219 278.171875 C 178.574219 278.171875 220.761719 259.925781 234.785156 243.363281 "/><path style=" stroke:none;fill-rule:nonzero;fill:#e07288;fill-opacity:1;" d="M 178.574219 279.582031 C 178.328125 279.582031 178.0625 279.523438 177.859375 279.375 C 165.273438 272.0625 167.414062 256.367188 167.5 255.722656 C 167.558594 255.367188 167.738281 255.0625 167.972656 254.828125 C 169.628906 253.476562 207.929688 220.957031 214.851562 218.085938 C 215.585938 217.761719 216.40625 218.113281 216.726562 218.832031 C 217.023438 219.566406 216.671875 220.402344 215.9375 220.695312 C 210.613281 222.921875 181.585938 247.03125 170.261719 256.65625 C 170.023438 259.195312 169.570312 270.773438 178.679688 276.5625 C 184.105469 274.1875 221.011719 257.449219 233.6875 242.457031 C 234.214844 241.855469 235.09375 241.769531 235.679688 242.28125 C 236.296875 242.792969 236.355469 243.6875 235.855469 244.273438 C 221.800781 260.90625 180.863281 278.699219 179.132812 279.492188 C 178.941406 279.535156 178.765625 279.582031 178.574219 279.582031 Z M 178.574219 279.582031 "/><path style=" stroke:none;fill-rule:nonzero;fill:#e07288;fill-opacity:1;" d="M 183.652344 203.238281 C 183.34375 203.238281 183.003906 203.136719 182.757812 202.914062 C 167.792969 190.664062 141.246094 192.730469 140.953125 192.757812 C 140.21875 192.820312 139.5 192.246094 139.441406 191.484375 C 139.367188 190.664062 139.953125 190.003906 140.746094 189.945312 C 141.859375 189.828125 168.703125 187.777344 184.542969 200.734375 C 185.160156 201.214844 185.25 202.125 184.734375 202.726562 C 184.445312 203.0625 184.046875 203.238281 183.652344 203.238281 Z M 183.652344 203.238281 "/><path style=" stroke:none;fill-rule:nonzero;fill:#e58076;fill-opacity:1;" d="M 138.105469 108.765625 C 141.097656 106.773438 142.855469 103.859375 143.34375 100.207031 C 143.53125 98.917969 142.945312 98.539062 142.386719 98.449219 C 142.066406 98.390625 141.773438 98.449219 141.566406 98.609375 C 141.113281 98.890625 141.039062 99.492188 140.980469 99.828125 C 140.714844 101.660156 140.070312 103.199219 139.042969 104.558594 C 137.632812 106.421875 136.082031 107.476562 133.820312 107.84375 C 134.320312 108.621094 135.316406 109.265625 136.109375 109.851562 C 136.699219 109.675781 136.300781 109.734375 136.917969 109.457031 C 137.34375 109.234375 137.726562 108.988281 138.105469 108.765625 Z M 138.105469 108.765625 "/><path style=" stroke:none;fill-rule:evenodd;fill:#ffa492;fill-opacity:1;" d="M 145.367188 79.160156 C 149.621094 77.226562 154.375 78.3125 156.117188 81.828125 C 157.644531 85.1875 156.265625 89.597656 151.453125 91.957031 C 146.847656 94.140625 142.214844 93.042969 140.453125 89.4375 C 138.867188 86.316406 140.820312 81.183594 145.367188 79.160156 Z M 145.367188 79.160156 "/><path style=" stroke:none;fill-rule:evenodd;fill:#fed2b9;fill-opacity:1;" d="M 184.808594 66.160156 C 187.125 73.050781 183.34375 81.097656 178.648438 82.28125 C 173.957031 83.382812 170.140625 77.195312 167.839844 70.339844 C 165.535156 63.507812 167.414062 57.074219 172.136719 55.917969 C 176.816406 54.71875 182.519531 59.347656 184.808594 66.160156 Z M 184.808594 66.160156 "/><path style=" stroke:none;fill-rule:evenodd;fill:#f8a58c;fill-opacity:0.7;" d="M 171.019531 63.40625 C 171.019531 63.40625 171.742188 56.707031 178.765625 63.40625 C 178.765625 63.40625 184.253906 68.902344 177.503906 76.726562 Z M 171.019531 63.40625 "/><path style=" stroke:none;fill-rule:nonzero;fill:#633120;fill-opacity:1;" d="M 162.523438 50.144531 C 140.113281 50.144531 116.285156 40.667969 115.042969 40.167969 C 114.457031 39.933594 114.171875 39.265625 114.410156 38.679688 C 114.644531 38.09375 115.3125 37.808594 115.902344 38.046875 C 116.273438 38.195312 153.421875 52.96875 177.90625 45.921875 C 178.515625 45.75 179.148438 46.097656 179.324219 46.707031 C 179.5 47.316406 179.148438 47.949219 178.542969 48.125 C 173.53125 49.5625 168.070312 50.144531 162.523438 50.144531 Z M 162.523438 50.144531 "/><path style=" stroke:none;fill-rule:nonzero;fill:#633120;fill-opacity:1;" d="M 266.160156 207.34375 C 265.867188 207.34375 265.574219 207.234375 265.351562 207.007812 C 264.902344 206.5625 264.902344 205.839844 265.351562 205.390625 C 272.640625 198.09375 276.042969 191.628906 275.1875 186.691406 C 274.457031 182.472656 270.867188 180.722656 270.832031 180.707031 C 270.730469 180.65625 270.632812 180.59375 270.546875 180.511719 C 257.699219 168.695312 266.566406 155.746094 267.878906 153.984375 C 269.257812 149.097656 268.710938 144.101562 266.328125 139.898438 C 263.816406 135.464844 259.523438 132.265625 254.238281 130.890625 L 253.128906 130.605469 C 249.710938 129.738281 246.480469 128.921875 244.125 125.527344 C 241.863281 122.242188 241.789062 118.851562 241.71875 115.574219 C 241.695312 114.480469 241.671875 113.347656 241.566406 112.230469 C 240.738281 103.65625 233.929688 102.449219 226.722656 101.171875 C 224.71875 100.816406 222.648438 100.453125 220.734375 99.917969 C 211.136719 97.269531 200.339844 90.257812 198.824219 78.519531 C 196.316406 59.34375 185.246094 37.394531 166.171875 31.585938 C 153.003906 27.566406 133.503906 25.09375 118.257812 30.199219 C 117.65625 30.402344 117.007812 30.078125 116.808594 29.476562 C 116.605469 28.875 116.929688 28.226562 117.527344 28.027344 C 133.289062 22.753906 153.332031 25.277344 166.839844 29.394531 C 186.890625 35.5 198.492188 58.320312 201.101562 78.222656 C 202.46875 88.855469 212.457031 95.261719 221.347656 97.710938 C 223.160156 98.21875 225.175781 98.574219 227.125 98.917969 C 234.496094 100.222656 242.855469 101.707031 243.847656 112.015625 C 243.960938 113.214844 243.988281 114.390625 244.015625 115.527344 C 244.082031 118.738281 244.140625 121.507812 246.011719 124.226562 C 247.878906 126.914062 250.445312 127.566406 253.695312 128.386719 L 254.824219 128.675781 C 260.707031 130.210938 265.503906 133.796875 268.324219 138.769531 C 271.046875 143.578125 271.652344 149.28125 270.019531 154.832031 C 269.976562 154.976562 269.90625 155.113281 269.8125 155.230469 C 269.402344 155.734375 260.019531 167.585938 271.988281 178.726562 C 272.855469 179.1875 276.609375 181.449219 277.445312 186.300781 C 278.449219 192.085938 274.925781 199.054688 266.972656 207.011719 C 266.75 207.230469 266.453125 207.34375 266.160156 207.34375 Z M 266.160156 207.34375 "/><path style=" stroke:none;fill-rule:nonzero;fill:#633120;fill-opacity:1;" d="M 188.5625 38.507812 C 188.128906 38.507812 187.710938 38.257812 187.519531 37.835938 C 174.988281 10.128906 137.15625 19.46875 136.777344 19.566406 C 136.160156 19.722656 135.539062 19.355469 135.382812 18.742188 C 135.222656 18.128906 135.59375 17.503906 136.207031 17.347656 C 136.605469 17.246094 176.285156 7.425781 189.609375 36.890625 C 189.871094 37.46875 189.613281 38.144531 189.039062 38.40625 C 188.882812 38.476562 188.722656 38.507812 188.5625 38.507812 Z M 188.5625 38.507812 "/><path style=" stroke:none;fill-rule:evenodd;fill:#e74e6d;fill-opacity:1;" d="M 131.679688 223.007812 C 131.578125 220.253906 132.105469 217.644531 133.351562 215.09375 C 134.761719 212.148438 136.945312 209.863281 140.308594 209.203125 C 144.164062 208.46875 146.980469 210.347656 149.136719 213.171875 C 151.746094 216.722656 152.363281 220.796875 152.363281 225.0625 C 152.320312 231.902344 150.222656 238.265625 147.4375 244.433594 C 147.007812 245.472656 146.410156 246.472656 145.894531 247.496094 C 145.675781 248.011719 145.441406 248.15625 144.882812 248.15625 C 138.371094 247.644531 131.945312 246.558594 125.855469 244.097656 C 121.691406 242.351562 117.953125 240.007812 115.339844 236.226562 C 113.332031 233.148438 112.289062 229.898438 113.640625 226.25 C 115.03125 222.351562 118.964844 219.976562 123.378906 220.28125 C 126.238281 220.472656 128.863281 221.339844 131.242188 222.921875 C 131.355469 222.921875 131.417969 223.039062 131.679688 223.007812 Z M 131.679688 223.007812 "/><g clip-rule="nonzero" clip-path="url(#a5aeae1cae)"><path style=" stroke:none;fill-rule:evenodd;fill:#ff869d;fill-opacity:1;" d="M 92.414062 191.148438 C 92.339844 189.269531 92.722656 187.496094 93.558594 185.769531 C 94.511719 183.757812 95.992188 182.21875 98.265625 181.765625 C 100.890625 181.253906 102.8125 182.527344 104.265625 184.476562 C 106.054688 186.878906 106.464844 189.636719 106.464844 192.539062 C 106.421875 197.152344 105.011719 201.507812 103.121094 205.683594 C 102.8125 206.414062 102.429688 207.0625 102.078125 207.777344 C 101.914062 208.101562 101.757812 208.21875 101.390625 208.191406 C 96.960938 207.851562 92.574219 207.132812 88.453125 205.464844 C 85.621094 204.261719 83.097656 202.707031 81.324219 200.113281 C 79.941406 198.03125 79.253906 195.804688 80.179688 193.328125 C 81.089844 190.691406 83.789062 189.09375 86.777344 189.285156 C 88.726562 189.417969 90.503906 190 92.117188 191.054688 C 92.222656 191.058594 92.253906 191.175781 92.414062 191.148438 Z M 92.414062 191.148438 "/></g><path style=" stroke:none;fill-rule:evenodd;fill:#ff6177;fill-opacity:1;" d="M 100.949219 157.132812 C 101.832031 156.328125 102.828125 155.738281 104.015625 155.433594 C 105.378906 155.066406 106.746094 155.121094 107.890625 156.0625 C 109.210938 157.074219 109.414062 158.523438 109.089844 160.03125 C 108.667969 161.863281 107.507812 163.226562 106.128906 164.445312 C 103.871094 166.351562 101.230469 167.476562 98.414062 168.296875 C 97.957031 168.460938 97.445312 168.550781 96.992188 168.679688 C 96.769531 168.726562 96.652344 168.707031 96.507812 168.53125 C 94.820312 166.277344 93.355469 163.871094 92.445312 161.175781 C 91.828125 159.332031 91.535156 157.484375 92.03125 155.535156 C 92.457031 154.007812 93.238281 152.765625 94.820312 152.164062 C 96.460938 151.546875 98.355469 152.132812 99.5 153.671875 C 100.246094 154.640625 100.714844 155.738281 100.863281 156.925781 C 100.90625 157.011719 100.875 157.058594 100.949219 157.132812 Z M 100.949219 157.132812 "/></g></svg>