<svg xmlns="http://www.w3.org/2000/svg" xmlns:xlink="http://www.w3.org/1999/xlink" width="500" zoomAndPan="magnify" viewBox="0 0 375 374.999991" height="500" preserveAspectRatio="xMidYMid meet" version="1.2"><g id="dc9fe3995b"><path style=" stroke:none;fill-rule:evenodd;fill:#6c4e4a;fill-opacity:1;" d="M 128.546875 1.722656 C 120.675781 0.449219 107.464844 4.816406 104.332031 5.445312 C 93.542969 7.597656 79.710938 17.660156 72.617188 25.628906 C 51.867188 48.953125 46.085938 83.359375 59.988281 111.140625 C 63.457031 118.066406 69.894531 129.730469 78.511719 131.886719 C 91.984375 135.25 108.308594 129.921875 122.855469 129.921875 C 131.316406 129.921875 154.300781 140.355469 160.742188 135.53125 C 178.816406 121.988281 189.964844 71.039062 187.40625 50.582031 C 186.984375 47.230469 186.460938 44.304688 185.714844 41.75 C 178.785156 18.0625 169.34375 15.324219 155.410156 16.65625 C 150.480469 17.128906 147.269531 9.105469 142.589844 8.066406 C 140.402344 7.582031 130.796875 2.085938 128.546875 1.722656 Z M 128.546875 1.722656 "/><path style=" stroke:none;fill-rule:evenodd;fill:#ffcb9f;fill-opacity:1;" d="M 159.632812 222.621094 C 156.695312 216.863281 163.203125 236.59375 163.992188 238.011719 C 169.058594 247.113281 183.625 261.546875 191.351562 264.148438 C 193.644531 264.921875 194.589844 265.074219 194.941406 264.722656 C 196.445312 263.222656 205.742188 261.476562 207.476562 260.261719 C 208.292969 259.691406 193.992188 239.109375 188.632812 231.976562 C 184.355469 226.277344 181.199219 211.707031 177.609375 211.964844 C 175.773438 212.09375 162.582031 222.621094 159.632812 222.621094 Z M 159.632812 222.621094 "/><path style=" stroke:none;fill-rule:evenodd;fill:#ffcb9f;fill-opacity:1;" d="M 66.71875 292.886719 C 65.390625 290.300781 59.292969 293.261719 57.945312 295.277344 C 54.71875 300.117188 54.652344 313.246094 53.210938 319.007812 C 50.699219 329.046875 41.386719 334.550781 38.40625 343.484375 C 37.511719 346.164062 39.660156 348.683594 41.992188 349.464844 C 51.839844 352.742188 88.425781 332.039062 84.269531 319.582031 C 81.695312 311.867188 66.71875 298.980469 66.71875 292.886719 Z M 66.71875 292.886719 "/><path style=" stroke:none;fill-rule:evenodd;fill:#6c4e4a;fill-opacity:1;" d="M 47.320312 345.496094 C 46.839844 346.09375 45.976562 347.332031 45.0625 348.226562 C 44.511719 348.773438 43.949219 349.199219 43.4375 349.199219 C 43.285156 349.199219 43.164062 349.324219 43.164062 349.476562 C 43.164062 349.628906 43.285156 349.75 43.4375 349.75 C 44.058594 349.75 44.777344 349.285156 45.453125 348.625 C 46.382812 347.710938 47.261719 346.449219 47.75 345.839844 C 47.84375 345.722656 47.828125 345.550781 47.707031 345.453125 C 47.589844 345.359375 47.414062 345.375 47.320312 345.496094 Z M 50.332031 346.574219 C 49.613281 347.328125 49.398438 347.863281 48.457031 348.816406 C 48.351562 348.925781 48.351562 349.097656 48.457031 349.207031 C 48.566406 349.316406 48.742188 349.3125 48.851562 349.207031 C 49.800781 348.25 50.011719 347.710938 50.730469 346.957031 C 50.835938 346.84375 50.832031 346.671875 50.71875 346.566406 C 50.609375 346.464844 50.433594 346.46875 50.332031 346.574219 Z M 43.585938 344.753906 C 43.488281 345.265625 43.109375 345.75 42.632812 346.179688 C 41.863281 346.871094 40.84375 347.417969 40.15625 347.714844 C 40.015625 347.777344 39.949219 347.9375 40.011719 348.074219 C 40.070312 348.21875 40.234375 348.28125 40.371094 348.222656 C 41.097656 347.910156 42.1875 347.324219 43 346.59375 C 43.574219 346.070312 44.011719 345.476562 44.128906 344.859375 C 44.160156 344.707031 44.058594 344.5625 43.910156 344.53125 C 43.757812 344.507812 43.613281 344.605469 43.585938 344.753906 Z M 43.585938 344.753906 "/><path style=" stroke:none;fill-rule:evenodd;fill:#6c4e4a;fill-opacity:1;" d="M 66.222656 280.195312 C 65.429688 280.226562 65.734375 285.265625 65.675781 286.0625 C 65.503906 288.503906 65.207031 290.859375 65.207031 293.320312 C 65.207031 308.351562 76.132812 321.421875 85.125 332.65625 C 105.839844 358.519531 161.070312 374.851562 189.375 347.667969 C 193.648438 343.5625 198.167969 333.28125 198.648438 328.953125 C 200.960938 308.195312 189.824219 303.230469 178.542969 286.324219 C 176.695312 283.566406 169.492188 273.40625 167.199219 272.257812 C 166.578125 271.945312 160.328125 274.386719 159.890625 274.589844 C 155.648438 276.570312 150.484375 277.535156 145.832031 277.867188 C 126.128906 279.273438 106.726562 283.609375 87 285.125 C 82.285156 285.488281 77.835938 285.125 73.175781 285.125 C 72.203125 285.125 66.222656 280.367188 66.222656 280.195312 Z M 66.222656 280.195312 "/><path style=" stroke:none;fill-rule:evenodd;fill:#ffcb9f;fill-opacity:1;" d="M 151.71875 292.988281 C 151.640625 292.691406 151.398438 292.457031 151.078125 292.414062 C 150.648438 292.355469 149.746094 292.808594 150.371094 293.75 C 150.605469 294.109375 151.328125 294.917969 151.613281 295.195312 L 155.921875 299.265625 C 157.46875 300.738281 158.917969 302.289062 160.324219 303.882812 C 162.445312 306.289062 164.464844 308.789062 166.550781 311.25 C 172.824219 318.648438 179.667969 326.125 184.738281 334.46875 C 188.125 340.046875 190.722656 346.003906 191.816406 352.585938 C 191.851562 352.792969 192.046875 352.9375 192.257812 352.902344 C 192.46875 352.871094 192.613281 352.671875 192.578125 352.460938 C 191.539062 345.757812 188.960938 339.671875 185.578125 333.96875 C 180.566406 325.519531 173.765625 317.925781 167.539062 310.421875 C 165.476562 307.933594 163.480469 305.40625 161.371094 302.96875 C 159.957031 301.328125 158.496094 299.734375 156.933594 298.21875 L 152.667969 294.101562 C 152.472656 293.910156 151.902344 293.210938 151.71875 292.988281 Z M 151.207031 293.910156 C 151.097656 293.941406 150.984375 293.957031 150.867188 293.9375 C 150.996094 293.957031 151.109375 293.941406 151.207031 293.910156 Z M 151.207031 293.910156 "/><path style=" stroke:none;fill-rule:evenodd;fill:#b33a67;fill-opacity:1;" d="M 170.160156 149.8125 C 157.347656 128.476562 104.152344 129.714844 102.078125 130.230469 C 83.285156 134.925781 72.304688 141.445312 65.230469 159.105469 C 56.1875 181.695312 61.898438 204.113281 71.929688 224.15625 C 73.113281 226.519531 67.132812 238.128906 66.351562 240.878906 C 63.886719 249.488281 57.277344 281.253906 64.117188 288.085938 C 66.261719 290.230469 73.09375 291.070312 76.027344 291.800781 C 94.457031 296.402344 157.539062 289.542969 169.789062 277.304688 C 172.421875 274.675781 162.757812 233.339844 165.699219 224.523438 C 167.957031 217.75 187.050781 220.476562 186.28125 213.363281 C 185.3125 204.441406 182.152344 194.730469 180.894531 184.652344 C 179.273438 171.6875 177.195312 161.527344 170.160156 149.8125 Z M 170.160156 149.8125 "/><path style=" stroke:none;fill-rule:evenodd;fill:#6c4e4a;fill-opacity:1;" d="M 90.136719 159.601562 C 93 164.265625 95.132812 169.464844 97.710938 174.359375 C 98.371094 175.605469 99.058594 176.824219 99.785156 178.015625 C 103.136719 183.472656 106.949219 189.25 111.101562 194.617188 C 113.90625 198.238281 116.867188 201.671875 119.945312 204.683594 C 120.0625 204.804688 120.25 204.804688 120.363281 204.683594 C 120.472656 204.574219 120.472656 204.386719 120.363281 204.273438 C 117.363281 201.214844 114.496094 197.75 111.78125 194.101562 C 107.757812 188.6875 104.078125 182.863281 100.855469 177.378906 C 98.070312 172.632812 96.035156 167.386719 93.5625 162.457031 C 92.929688 161.195312 92.269531 159.957031 91.558594 158.746094 C 91.324219 158.355469 90.8125 158.226562 90.421875 158.460938 C 90.03125 158.695312 89.898438 159.207031 90.136719 159.601562 Z M 90.136719 159.601562 "/><path style=" stroke:none;fill-rule:evenodd;fill:#6c4e4a;fill-opacity:1;" d="M 74.253906 227.089844 C 74.261719 226.714844 74.019531 226.371094 73.644531 226.265625 C 72.917969 226.089844 72.609375 226.472656 72.507812 226.660156 C 72.40625 226.851562 72.300781 227.152344 72.507812 227.527344 C 72.582031 227.664062 72.761719 227.890625 73.023438 228.132812 C 73.492188 228.570312 74.277344 229.191406 74.605469 229.546875 C 75.304688 230.296875 76.125 231.910156 77.019531 233.074219 C 77.523438 233.738281 78.050781 234.269531 78.585938 234.519531 C 79.222656 234.816406 80.023438 234.691406 80.894531 234.222656 C 82.050781 233.597656 83.378906 232.394531 84.621094 231.421875 C 85.542969 230.707031 86.402344 230.105469 87.101562 230.085938 C 87.261719 230.085938 87.398438 229.953125 87.398438 229.792969 C 87.398438 229.628906 87.261719 229.496094 87.101562 229.496094 C 86.460938 229.480469 85.671875 229.839844 84.816406 230.378906 C 83.394531 231.277344 81.777344 232.675781 80.433594 233.3125 C 79.910156 233.554688 79.457031 233.699219 79.089844 233.507812 C 78.710938 233.300781 78.367188 232.863281 78.023438 232.355469 C 77.164062 231.09375 76.402344 229.390625 75.726562 228.566406 C 75.4375 228.222656 74.808594 227.640625 74.332031 227.171875 C 74.304688 227.144531 74.28125 227.121094 74.253906 227.089844 Z M 73.230469 227.871094 L 73.199219 227.863281 C 73.210938 227.867188 73.21875 227.871094 73.230469 227.871094 Z M 73.230469 227.871094 "/><path style=" stroke:none;fill-rule:evenodd;fill:#6c4e4a;fill-opacity:1;" d="M 156.804688 166.699219 C 158.707031 179.714844 161.699219 193.175781 163.386719 206.535156 C 164.117188 212.300781 164.609375 218.054688 164.664062 223.738281 C 164.664062 223.902344 164.792969 224.03125 164.957031 224.03125 C 165.121094 224.03125 165.25 223.902344 165.25 223.738281 C 165.304688 218.023438 164.917969 212.238281 164.292969 206.425781 C 162.847656 193.042969 160.109375 179.527344 158.453125 166.472656 C 158.390625 166.023438 157.972656 165.703125 157.519531 165.765625 C 157.0625 165.824219 156.746094 166.242188 156.804688 166.699219 Z M 156.804688 166.699219 "/><path style=" stroke:none;fill-rule:evenodd;fill:#ffcb9f;fill-opacity:1;" d="M 272.652344 328.675781 C 272.300781 328.550781 274.925781 327.199219 275.089844 327.140625 C 275.914062 326.867188 276.546875 326.515625 277.402344 326.371094 C 279.761719 325.980469 283.136719 324.933594 285.226562 326.5 C 288.203125 328.730469 289.394531 332.796875 291.878906 336.195312 C 293.902344 338.964844 296.273438 342.515625 299.394531 344.042969 C 301.527344 345.082031 303.394531 345.25 305.375 346.238281 C 306.671875 346.890625 308.246094 349.414062 307.167969 350.851562 C 305.316406 353.316406 298.988281 353.542969 296.132812 353.796875 C 293.734375 354.019531 291.21875 354.273438 288.820312 353.929688 C 286.246094 353.558594 284.375 352.960938 281.96875 352.003906 C 280.1875 351.289062 276.453125 348.824219 275.824219 346.925781 C 274.582031 343.140625 273.621094 340.097656 273.167969 336.5 C 272.882812 334.246094 271.894531 330.949219 272.652344 328.675781 Z M 272.652344 328.675781 "/><path style=" stroke:none;fill-rule:evenodd;fill:#6c4e4a;fill-opacity:1;" d="M 297.457031 350.988281 C 297.460938 350.945312 297.753906 351.207031 298.082031 351.476562 C 298.226562 351.597656 298.378906 351.710938 298.507812 351.8125 C 298.632812 351.902344 298.742188 351.972656 298.808594 352.011719 C 298.996094 352.101562 299.179688 352.191406 299.359375 352.273438 C 299.550781 352.359375 299.742188 352.429688 299.933594 352.492188 C 300.546875 352.703125 301.148438 352.832031 301.761719 352.859375 C 301.953125 352.867188 302.148438 352.863281 302.347656 352.84375 C 302.429688 352.835938 302.515625 352.828125 302.597656 352.8125 C 302.796875 352.765625 302.992188 352.707031 303.195312 352.628906 C 303.386719 352.554688 303.5625 352.46875 303.757812 352.367188 C 303.773438 352.363281 303.78125 352.351562 303.777344 352.335938 C 303.773438 352.324219 303.757812 352.316406 303.746094 352.320312 C 303.566406 352.332031 303.40625 352.332031 303.242188 352.332031 C 303.082031 352.335938 302.945312 352.332031 302.796875 352.328125 C 302.695312 352.324219 302.601562 352.320312 302.503906 352.320312 C 302.382812 352.320312 302.265625 352.320312 302.148438 352.316406 C 301.867188 352.3125 301.589844 352.289062 301.316406 352.25 C 300.855469 352.179688 300.394531 352.0625 299.914062 351.910156 C 299.792969 351.871094 299.667969 351.828125 299.542969 351.789062 C 299.359375 351.734375 299.167969 351.679688 298.976562 351.613281 C 298.832031 351.574219 298.550781 351.441406 298.265625 351.3125 C 298.09375 351.226562 297.917969 351.148438 297.773438 351.089844 C 297.582031 351.011719 297.453125 350.964844 297.457031 350.988281 Z M 301.457031 349.953125 C 301.71875 350.109375 301.960938 350.242188 302.21875 350.355469 C 302.394531 350.4375 302.574219 350.503906 302.753906 350.5625 C 302.941406 350.621094 303.128906 350.667969 303.316406 350.707031 C 303.441406 350.734375 303.566406 350.75 303.691406 350.761719 C 304.1875 350.824219 304.679688 350.832031 305.191406 350.824219 C 305.386719 350.820312 305.582031 350.816406 305.78125 350.800781 C 305.914062 350.792969 306.042969 350.785156 306.175781 350.761719 C 306.347656 350.738281 306.511719 350.699219 306.691406 350.652344 C 306.871094 350.613281 307.03125 350.570312 307.21875 350.527344 C 307.230469 350.527344 307.242188 350.515625 307.242188 350.503906 C 307.242188 350.488281 307.230469 350.476562 307.21875 350.476562 C 306.925781 350.410156 306.671875 350.34375 306.394531 350.300781 C 306.273438 350.285156 306.160156 350.273438 306.042969 350.261719 C 305.851562 350.25 305.667969 350.253906 305.484375 350.253906 C 305.203125 350.257812 304.925781 350.257812 304.65625 350.257812 C 304.378906 350.253906 304.105469 350.246094 303.832031 350.234375 C 303.652344 350.21875 303.476562 350.207031 303.292969 350.195312 C 303.140625 350.179688 302.992188 350.167969 302.839844 350.152344 C 302.6875 350.140625 302.539062 350.128906 302.378906 350.105469 C 302.082031 350.070312 301.78125 350.027344 301.457031 349.953125 Z M 301.457031 349.953125 "/><path style=" stroke:none;fill-rule:evenodd;fill:#6c4e4a;fill-opacity:1;" d="M 190.894531 318.230469 C 186.871094 322.535156 181.425781 324.902344 178.179688 330.308594 C 176.15625 333.679688 173.59375 337.96875 172.457031 341.742188 C 166.613281 361.210938 183.140625 369.765625 200.433594 365.449219 C 202.421875 364.953125 205.746094 364.164062 207.214844 362.699219 C 207.445312 362.472656 208.648438 360.324219 208.90625 360.578125 C 217.453125 369.117188 240.085938 365.339844 250.65625 362.699219 C 254.46875 361.746094 260.40625 359.328125 263.828125 357.277344 C 267.523438 355.0625 273.890625 352.804688 276.722656 349.972656 C 277.480469 349.214844 276.363281 345.949219 276.296875 345.128906 C 275.914062 340.128906 275.226562 337.835938 275.125 332.515625 C 275.089844 330.671875 275.113281 325.742188 274.324219 324.78125 C 273.460938 323.726562 272.140625 323.910156 271.386719 323.941406 C 268.929688 324.050781 264.386719 324.59375 261.886719 324.59375 C 250.824219 324.59375 239.355469 322.617188 228.617188 319.9375 C 220.464844 317.902344 202.214844 317.199219 193.628906 318.820312 C 190.761719 319.363281 190.210938 317.199219 189.230469 317.199219 "/><path style=" stroke:none;fill-rule:evenodd;fill:#ffcb9f;fill-opacity:1;" d="M 221.382812 322.578125 C 208.648438 330.753906 206.320312 341.164062 207.167969 351.871094 C 207.355469 354.214844 207.285156 355.464844 207.734375 357.304688 C 207.890625 357.945312 208.105469 359.011719 208.492188 359.933594 C 208.777344 360.617188 209.160156 361.226562 209.648438 361.589844 C 209.867188 361.75 210.179688 361.703125 210.339844 361.488281 C 210.5 361.265625 210.453125 360.957031 210.234375 360.792969 C 209.875 360.527344 209.613281 360.0625 209.402344 359.554688 C 209.039062 358.679688 208.835938 357.675781 208.691406 357.070312 C 208.261719 355.285156 208.332031 354.070312 208.152344 351.792969 C 207.335938 341.421875 209.582031 331.332031 221.914062 323.40625 C 222.144531 323.261719 222.210938 322.953125 222.0625 322.726562 C 221.914062 322.496094 221.609375 322.429688 221.382812 322.578125 Z M 221.382812 322.578125 "/><path style=" stroke:none;fill-rule:evenodd;fill:#ffcb9f;fill-opacity:1;" d="M 173.710938 341.664062 C 170.402344 346.558594 171.363281 353.859375 173.851562 358.828125 C 173.917969 358.96875 174.085938 359.019531 174.21875 358.953125 C 174.359375 358.882812 174.410156 358.71875 174.347656 358.582031 C 171.9375 353.773438 170.96875 346.707031 174.167969 341.972656 C 174.253906 341.847656 174.21875 341.675781 174.09375 341.589844 C 173.96875 341.503906 173.796875 341.539062 173.710938 341.664062 Z M 173.710938 341.664062 "/><path style=" stroke:none;fill-rule:evenodd;fill:#ffcb9f;fill-opacity:1;" d="M 189.617188 320.441406 C 191.449219 320.097656 197.621094 319.390625 197.003906 321.351562 C 196.25 323.730469 196.933594 330.808594 195.953125 334.445312 C 195.722656 335.292969 195.570312 338.15625 194.496094 338.425781 C 192.378906 338.953125 192.164062 334.984375 192.164062 333.667969 C 192.164062 333.085938 191.972656 331.925781 191.972656 331.925781 C 191.972656 331.925781 191.808594 332.574219 191.585938 332.792969 C 191.113281 333.261719 190.664062 334.066406 190.027344 334.542969 C 188.132812 335.960938 186.320312 337.605469 184.105469 338.714844 C 183.585938 338.972656 182.902344 339.605469 182.257812 339.394531 C 180.421875 338.78125 184.136719 335.378906 184.492188 335.027344 C 184.832031 334.691406 185.5625 333.578125 185.5625 334.058594 C 185.5625 334.320312 184.425781 335.289062 184.199219 335.511719 C 183.242188 336.472656 180.125 339.789062 178.566406 338.230469 C 177.714844 337.375 179.054688 336 179.539062 335.414062 C 179.578125 335.371094 180.171875 334.691406 180.21875 334.738281 C 180.355469 334.871094 179.410156 335.738281 179.34375 335.800781 C 178.59375 336.554688 177.273438 337.582031 176.234375 337.839844 C 175.992188 337.902344 175.023438 338.136719 174.875 337.839844 C 174.421875 336.9375 175.5 335.617188 175.941406 335.027344 C 176.203125 334.679688 176.816406 334.058594 176.816406 334.058594 C 176.816406 334.058594 174.324219 336.839844 173.804688 335.800781 C 173.335938 334.863281 174.9375 333.214844 175.554688 332.601562 C 177.753906 330.402344 179.429688 327.199219 181.449219 325.179688 C 181.902344 324.730469 184.625 321.707031 185.109375 321.589844 C 186.722656 321.1875 188.210938 320.703125 189.617188 320.441406 Z M 189.617188 320.441406 "/><path style=" stroke:none;fill-rule:evenodd;fill:#ffcb9f;fill-opacity:1;" d="M 243.355469 327.234375 C 241.84375 326.90625 238.191406 332.25 237.332031 333.480469 C 237.136719 333.757812 236.320312 335.058594 236.171875 335.445312 C 235.839844 336.355469 237.253906 336.464844 237.5625 336.390625 C 238.703125 336.101562 242.351562 333.636719 243.355469 334.636719 C 244.835938 336.117188 243.179688 342.71875 246.011719 342.148438 C 247.449219 341.867188 248.34375 338.199219 248.90625 337.0625 C 248.984375 336.90625 249.355469 335.558594 249.488281 335.558594 C 249.722656 335.558594 249.605469 337.125 249.605469 337.292969 C 249.605469 338.554688 248.984375 341.597656 250.644531 342.148438 C 252.621094 342.8125 252.859375 339.054688 253.078125 337.871094 C 253.175781 337.324219 253.230469 336.796875 253.308594 336.253906 C 253.332031 336.058594 253.425781 335.480469 253.425781 335.675781 C 253.425781 336.832031 253.210938 342.039062 255.042969 342.039062 C 256.46875 342.039062 256.550781 337.5625 256.550781 336.601562 L 256.550781 334.980469 C 256.550781 334.980469 256.882812 335.746094 257.011719 336.136719 C 257.269531 336.902344 259.960938 340.824219 260.367188 339.027344 C 261.460938 334.246094 254.949219 327.144531 254.234375 327.234375 C 250.730469 327.671875 246.839844 327.234375 243.355469 327.234375 Z M 243.355469 327.234375 "/><path style=" stroke:none;fill-rule:evenodd;fill:#6c4e4a;fill-opacity:1;" d="M 183.289062 336.617188 C 183.308594 336.59375 183.386719 336.488281 183.449219 336.425781 C 183.59375 336.28125 183.761719 336.136719 183.804688 336.089844 C 184.339844 335.515625 184.839844 334.941406 185.414062 334.402344 C 187.335938 332.59375 185.960938 333.824219 187.832031 331.953125 C 187.902344 331.886719 187.902344 331.769531 187.832031 331.699219 C 187.765625 331.628906 187.644531 331.628906 187.578125 331.699219 C 185.714844 333.558594 187.082031 332.335938 185.164062 334.140625 C 184.585938 334.683594 184.078125 335.261719 183.539062 335.839844 C 183.472656 335.921875 183.128906 336.207031 183.007812 336.386719 C 182.941406 336.476562 182.925781 336.5625 182.929688 336.617188 C 182.941406 336.714844 183.027344 336.789062 183.128906 336.777344 C 183.214844 336.769531 183.28125 336.699219 183.289062 336.617188 Z M 179.542969 335.9375 C 180.84375 334.277344 182.476562 332.785156 183.917969 331.203125 C 183.980469 331.128906 183.976562 331.015625 183.902344 330.945312 C 183.828125 330.882812 183.714844 330.886719 183.648438 330.960938 C 182.203125 332.550781 180.5625 334.046875 179.257812 335.714844 C 179.199219 335.792969 179.210938 335.90625 179.289062 335.96875 C 179.367188 336.027344 179.480469 336.015625 179.542969 335.9375 Z M 176.433594 334.597656 C 177.992188 332.746094 179.5625 330.945312 181.285156 329.230469 C 181.355469 329.160156 181.355469 329.046875 181.285156 328.976562 C 181.214844 328.902344 181.101562 328.902344 181.027344 328.976562 C 179.304688 330.699219 177.722656 332.503906 176.15625 334.367188 C 176.09375 334.441406 176.105469 334.558594 176.183594 334.621094 C 176.257812 334.683594 176.371094 334.675781 176.433594 334.597656 Z M 176.433594 334.597656 "/><path style=" stroke:none;fill-rule:evenodd;fill:#6c4e4a;fill-opacity:1;" d="M 248.199219 332.394531 C 249.257812 331.742188 250.300781 331.730469 251.34375 331.875 C 252.441406 332.03125 253.539062 332.355469 254.648438 332.355469 C 255.3125 332.355469 255.957031 332.074219 256.628906 332.074219 C 256.730469 332.074219 256.8125 331.992188 256.8125 331.894531 C 256.8125 331.792969 256.730469 331.710938 256.628906 331.710938 C 255.957031 331.710938 255.3125 331.992188 254.648438 331.992188 C 253.554688 331.992188 252.476562 331.671875 251.398438 331.519531 C 250.269531 331.359375 249.148438 331.382812 248.007812 332.089844 C 247.925781 332.140625 247.898438 332.25 247.949219 332.335938 C 248.003906 332.425781 248.117188 332.449219 248.199219 332.394531 Z M 248.199219 332.394531 "/><path style=" stroke:none;fill-rule:evenodd;fill:#95b14e;fill-opacity:1;" d="M 199.347656 238.4375 C 198.441406 236.507812 188.121094 243.886719 186.175781 249.074219 C 182.308594 259.371094 182.824219 271.292969 181.269531 282.128906 C 180.1875 289.71875 180.078125 297.339844 180.035156 305.503906 C 180.003906 310.957031 178.585938 316.195312 178.585938 321.558594 C 178.585938 321.714844 178.480469 323.074219 178.585938 323.125 C 181.308594 324.484375 186.609375 321.339844 189.789062 321.367188 C 196.652344 321.4375 200.949219 322.007812 206.703125 322.21875 C 214.25 322.5 217.523438 321.410156 225.324219 321.601562 C 228.882812 321.691406 239.390625 322.484375 239.835938 322.933594 C 241.144531 324.238281 238.648438 327.441406 240.175781 328.496094 C 241.882812 329.667969 244.699219 329.753906 250.074219 329.976562 C 252.625 330.082031 262.019531 331.972656 264.992188 327.929688 C 268.269531 323.46875 269.335938 306.339844 269.742188 303.210938 C 273.945312 270.847656 278.320312 256.671875 259.652344 241.09375 C 256.855469 238.761719 250.980469 239.46875 247.792969 237.875 C 246.507812 237.238281 242.769531 239.785156 241.523438 240.335938 C 235.820312 242.871094 228.925781 247.207031 222.707031 247.722656 C 214.554688 248.402344 199.347656 238.09375 199.347656 238.4375 Z M 199.347656 238.4375 "/><path style=" stroke:none;fill-rule:evenodd;fill:#6c4e4a;fill-opacity:1;" d="M 197.832031 321.363281 C 197.609375 316.980469 199.761719 300.863281 199.449219 295.839844 C 199.203125 291.875 199.605469 287.398438 199.828125 283.421875 C 200.117188 278.207031 200.988281 270.277344 200.988281 265.105469 C 200.988281 265.003906 200.910156 264.921875 200.8125 264.921875 C 200.710938 264.921875 200.628906 265.003906 200.628906 265.105469 C 200.628906 270.273438 199.753906 278.195312 199.460938 283.398438 C 199.242188 287.390625 198.839844 291.882812 199.089844 295.859375 C 199.402344 300.886719 197.246094 317 197.46875 321.382812 C 197.472656 321.480469 197.5625 321.558594 197.660156 321.554688 C 197.761719 321.550781 197.839844 321.464844 197.832031 321.363281 Z M 197.832031 321.363281 "/><path style=" stroke:none;fill-rule:evenodd;fill:#6c4e4a;fill-opacity:1;" d="M 240.65625 322.945312 C 240.921875 322.273438 240.933594 321.417969 240.902344 320.550781 C 240.875 319.726562 240.804688 318.886719 240.914062 318.199219 C 241.53125 314.175781 243.175781 310.234375 243.824219 306.1875 C 245.808594 293.804688 250.570312 280.492188 250.570312 267.933594 C 250.570312 267.835938 250.488281 267.753906 250.386719 267.753906 C 250.289062 267.753906 250.210938 267.835938 250.210938 267.933594 C 250.210938 280.472656 245.449219 293.765625 243.46875 306.128906 C 242.820312 310.175781 241.175781 314.121094 240.550781 318.148438 C 240.441406 318.851562 240.511719 319.710938 240.542969 320.5625 C 240.570312 321.378906 240.570312 322.179688 240.320312 322.8125 C 240.28125 322.90625 240.328125 323.011719 240.421875 323.046875 C 240.515625 323.085938 240.621094 323.039062 240.65625 322.945312 Z M 240.65625 322.945312 "/><path style=" stroke:none;fill-rule:evenodd;fill:#ffcb9f;fill-opacity:1;" d="M 212.507812 174.484375 C 204.265625 173.039062 195.917969 180.757812 191.539062 189.746094 C 188.199219 196.59375 187.796875 205.109375 187.765625 205.457031 C 187.449219 208.613281 187.644531 211.957031 187.335938 215.113281 C 186.699219 221.679688 189.042969 231.046875 198.859375 240.257812 C 207.566406 248.433594 222.011719 250.992188 234.265625 249.632812 C 238.519531 249.164062 244.054688 247.179688 247.757812 244.714844 C 252.042969 241.863281 252.660156 241.773438 255.878906 238.554688 C 256.605469 237.828125 260.828125 236.722656 261.953125 236.222656 C 265.199219 234.777344 271.394531 228.550781 271.144531 225.191406 C 270.8125 220.863281 265.207031 221.25 264.480469 220.941406 C 259.386719 218.785156 263.40625 218.582031 263.839844 217.59375 C 264.699219 215.660156 267.269531 206.367188 266.320312 203.085938 C 265.128906 198.964844 263.601562 198.964844 262.890625 194.699219 C 261.199219 184.492188 246.414062 177.007812 238.679688 172.503906 C 232.339844 168.808594 220 175.800781 212.507812 174.484375 Z M 212.507812 174.484375 "/><path style=" stroke:none;fill-rule:evenodd;fill:#6c4e4a;fill-opacity:1;" d="M 258.453125 225.207031 C 258.375 227.734375 257.316406 231.527344 256.375 234.324219 C 256.34375 234.414062 256.398438 234.519531 256.492188 234.550781 C 256.585938 234.585938 256.691406 234.53125 256.71875 234.4375 C 257.671875 231.609375 258.734375 227.773438 258.816406 225.214844 C 258.816406 225.113281 258.738281 225.03125 258.640625 225.03125 C 258.539062 225.027344 258.457031 225.105469 258.453125 225.207031 Z M 258.453125 225.207031 "/><path style=" stroke:none;fill-rule:evenodd;fill:#6c4e4a;fill-opacity:1;" d="M 203.441406 200.578125 C 203.96875 200.980469 204.496094 201.292969 205.03125 201.546875 C 205.640625 201.832031 206.25 202.015625 206.851562 202.121094 C 207.738281 202.28125 208.601562 202.253906 209.40625 202.132812 C 210.777344 201.929688 212.007812 201.464844 212.933594 200.910156 C 213.324219 200.679688 213.644531 200.425781 213.921875 200.195312 C 214.332031 199.859375 214.597656 199.574219 214.773438 199.429688 C 215.105469 199.234375 215.222656 198.804688 215.027344 198.472656 C 214.835938 198.136719 214.40625 198.023438 214.070312 198.214844 C 213.730469 198.347656 212.976562 198.644531 211.988281 199.050781 C 211.167969 199.390625 210.191406 199.816406 209.066406 200.003906 C 208.589844 200.085938 208.097656 200.132812 207.578125 200.136719 C 207.253906 200.136719 206.921875 200.128906 206.582031 200.097656 C 205.78125 200.023438 204.941406 199.886719 204.054688 199.511719 C 203.761719 199.34375 203.386719 199.441406 203.21875 199.738281 C 203.046875 200.03125 203.148438 200.40625 203.441406 200.578125 Z M 203.441406 200.578125 "/><path style=" stroke:none;fill-rule:evenodd;fill:#6c4e4a;fill-opacity:1;" d="M 238.875 203.34375 C 239.328125 204.28125 239.855469 205.199219 240.527344 206.039062 C 240.796875 206.378906 241.097656 206.691406 241.417969 206.988281 C 241.902344 207.433594 242.433594 207.828125 243.011719 208.167969 C 244.105469 208.8125 245.359375 209.308594 246.789062 209.421875 C 247.050781 209.445312 247.3125 209.445312 247.585938 209.429688 C 248.167969 209.390625 248.753906 209.289062 249.378906 209.132812 C 249.769531 209.097656 250.050781 208.757812 250.015625 208.371094 C 249.980469 207.988281 249.640625 207.703125 249.257812 207.738281 C 248.941406 207.710938 248.652344 207.65625 248.355469 207.613281 C 247.902344 207.550781 247.484375 207.441406 247.070312 207.355469 C 245.957031 207.128906 244.972656 206.804688 244.09375 206.304688 C 243.625 206.035156 243.179688 205.734375 242.761719 205.410156 C 242.472656 205.183594 242.191406 204.953125 241.917969 204.714844 C 241.183594 204.078125 240.507812 203.414062 239.914062 202.683594 C 239.730469 202.398438 239.351562 202.3125 239.066406 202.496094 C 238.777344 202.675781 238.695312 203.058594 238.875 203.34375 Z M 238.875 203.34375 "/><path style=" stroke:none;fill-rule:evenodd;fill:#6c4e4a;fill-opacity:1;" d="M 206.011719 202.71875 C 206.351562 202.183594 207.003906 202.054688 207.726562 202.117188 C 208.191406 202.15625 208.679688 202.277344 209.136719 202.414062 C 209.679688 202.578125 210.167969 202.769531 210.492188 202.917969 C 211.15625 203.203125 211.792969 203.578125 212.375 204.015625 C 212.964844 204.453125 213.496094 204.960938 213.9375 205.519531 C 214.253906 205.921875 214.523438 206.351562 214.746094 206.796875 C 214.84375 206.992188 214.933594 207.1875 215.015625 207.386719 C 215.152344 207.726562 215.265625 208.070312 215.335938 208.425781 C 215.410156 208.785156 215.453125 209.152344 215.445312 209.535156 C 215.445312 209.546875 215.457031 209.558594 215.472656 209.558594 C 215.488281 209.5625 215.496094 209.550781 215.496094 209.539062 C 215.582031 209.15625 215.617188 208.777344 215.613281 208.398438 C 215.605469 208.007812 215.550781 207.621094 215.453125 207.242188 C 215.394531 207.015625 215.316406 206.792969 215.222656 206.578125 C 215.011719 206.078125 214.71875 205.617188 214.382812 205.175781 C 213.914062 204.570312 213.34375 204.027344 212.714844 203.5625 C 212.089844 203.101562 211.402344 202.722656 210.691406 202.4375 C 210.347656 202.304688 209.820312 202.125 209.246094 202.003906 C 208.75 201.898438 208.226562 201.832031 207.734375 201.851562 C 206.964844 201.878906 206.292969 202.105469 206.011719 202.71875 Z M 206.011719 202.71875 "/><path style=" stroke:none;fill-rule:evenodd;fill:#6c4e4a;fill-opacity:1;" d="M 235.953125 207.710938 C 236.292969 207.171875 236.949219 207.046875 237.671875 207.109375 C 238.136719 207.144531 238.625 207.265625 239.078125 207.402344 C 239.625 207.570312 240.109375 207.761719 240.433594 207.910156 C 241.101562 208.191406 241.738281 208.566406 242.320312 209.003906 C 242.910156 209.441406 243.4375 209.953125 243.882812 210.511719 C 244.199219 210.914062 244.464844 211.339844 244.6875 211.785156 C 244.789062 211.984375 244.875 212.179688 244.957031 212.375 C 245.097656 212.714844 245.207031 213.058594 245.277344 213.414062 C 245.351562 213.777344 245.398438 214.140625 245.390625 214.523438 C 245.390625 214.535156 245.398438 214.546875 245.414062 214.550781 C 245.429688 214.550781 245.441406 214.539062 245.441406 214.53125 C 245.523438 214.144531 245.5625 213.765625 245.558594 213.386719 C 245.550781 212.996094 245.496094 212.613281 245.394531 212.234375 C 245.339844 212.007812 245.261719 211.78125 245.167969 211.566406 C 244.953125 211.070312 244.664062 210.605469 244.328125 210.167969 C 243.859375 209.558594 243.289062 209.015625 242.65625 208.550781 C 242.035156 208.09375 241.347656 207.714844 240.632812 207.425781 C 240.289062 207.292969 239.765625 207.117188 239.1875 206.992188 C 238.695312 206.886719 238.167969 206.820312 237.675781 206.839844 C 236.910156 206.871094 236.234375 207.09375 235.953125 207.710938 Z M 235.953125 207.710938 "/><path style=" stroke:none;fill-rule:nonzero;fill:#6c4e4a;fill-opacity:1;" d="M 211.933594 207.5625 C 211.933594 207.824219 211.90625 208.085938 211.855469 208.34375 C 211.804688 208.605469 211.726562 208.855469 211.625 209.097656 C 211.523438 209.34375 211.398438 209.574219 211.25 209.792969 C 211.101562 210.011719 210.929688 210.214844 210.742188 210.402344 C 210.554688 210.589844 210.347656 210.753906 210.125 210.902344 C 209.90625 211.046875 209.671875 211.171875 209.421875 211.273438 C 209.175781 211.375 208.921875 211.449219 208.660156 211.503906 C 208.398438 211.554688 208.132812 211.578125 207.867188 211.578125 C 207.601562 211.578125 207.335938 211.554688 207.074219 211.503906 C 206.8125 211.449219 206.558594 211.375 206.3125 211.273438 C 206.0625 211.171875 205.828125 211.046875 205.609375 210.902344 C 205.386719 210.753906 205.179688 210.589844 204.992188 210.402344 C 204.800781 210.214844 204.632812 210.011719 204.484375 209.792969 C 204.335938 209.574219 204.210938 209.34375 204.109375 209.097656 C 204.007812 208.855469 203.929688 208.605469 203.878906 208.34375 C 203.828125 208.085938 203.800781 207.824219 203.800781 207.5625 C 203.800781 207.296875 203.828125 207.035156 203.878906 206.777344 C 203.929688 206.519531 204.007812 206.269531 204.109375 206.023438 C 204.210938 205.78125 204.335938 205.550781 204.484375 205.328125 C 204.632812 205.109375 204.800781 204.90625 204.992188 204.722656 C 205.179688 204.535156 205.386719 204.367188 205.609375 204.222656 C 205.828125 204.074219 206.0625 203.953125 206.3125 203.851562 C 206.558594 203.75 206.8125 203.671875 207.074219 203.621094 C 207.335938 203.570312 207.601562 203.542969 207.867188 203.542969 C 208.132812 203.542969 208.398438 203.570312 208.660156 203.621094 C 208.921875 203.671875 209.175781 203.75 209.421875 203.851562 C 209.671875 203.953125 209.90625 204.074219 210.125 204.222656 C 210.347656 204.367188 210.554688 204.535156 210.742188 204.722656 C 210.929688 204.90625 211.101562 205.109375 211.25 205.328125 C 211.398438 205.550781 211.523438 205.78125 211.625 206.023438 C 211.726562 206.269531 211.804688 206.519531 211.855469 206.777344 C 211.90625 207.035156 211.933594 207.296875 211.933594 207.5625 Z M 211.933594 207.5625 "/><path style=" stroke:none;fill-rule:nonzero;fill:#6c4e4a;fill-opacity:1;" d="M 241.875 212.550781 C 241.875 212.816406 241.851562 213.078125 241.796875 213.335938 C 241.746094 213.59375 241.667969 213.84375 241.566406 214.089844 C 241.464844 214.332031 241.339844 214.5625 241.191406 214.78125 C 241.042969 215.003906 240.875 215.207031 240.683594 215.390625 C 240.496094 215.578125 240.292969 215.746094 240.070312 215.890625 C 239.847656 216.039062 239.613281 216.160156 239.367188 216.261719 C 239.121094 216.363281 238.863281 216.441406 238.601562 216.492188 C 238.339844 216.542969 238.078125 216.570312 237.808594 216.570312 C 237.542969 216.570312 237.277344 216.542969 237.015625 216.492188 C 236.753906 216.441406 236.5 216.363281 236.253906 216.261719 C 236.007812 216.160156 235.773438 216.039062 235.550781 215.890625 C 235.328125 215.746094 235.121094 215.578125 234.933594 215.390625 C 234.746094 215.207031 234.578125 215.003906 234.429688 214.78125 C 234.28125 214.5625 234.15625 214.332031 234.050781 214.089844 C 233.949219 213.84375 233.875 213.59375 233.820312 213.335938 C 233.769531 213.078125 233.742188 212.816406 233.742188 212.550781 C 233.742188 212.289062 233.769531 212.027344 233.820312 211.765625 C 233.875 211.507812 233.949219 211.257812 234.050781 211.015625 C 234.15625 210.769531 234.28125 210.539062 234.429688 210.320312 C 234.578125 210.101562 234.746094 209.898438 234.933594 209.710938 C 235.121094 209.523438 235.328125 209.359375 235.550781 209.210938 C 235.773438 209.066406 236.007812 208.941406 236.253906 208.839844 C 236.5 208.738281 236.753906 208.664062 237.015625 208.609375 C 237.277344 208.558594 237.542969 208.535156 237.808594 208.535156 C 238.078125 208.535156 238.339844 208.558594 238.601562 208.609375 C 238.863281 208.664062 239.121094 208.738281 239.367188 208.839844 C 239.613281 208.941406 239.847656 209.066406 240.070312 209.210938 C 240.292969 209.359375 240.496094 209.523438 240.683594 209.710938 C 240.875 209.898438 241.042969 210.101562 241.191406 210.320312 C 241.339844 210.539062 241.464844 210.769531 241.566406 211.015625 C 241.667969 211.257812 241.746094 211.507812 241.796875 211.765625 C 241.851562 212.027344 241.875 212.289062 241.875 212.550781 Z M 241.875 212.550781 "/><path style=" stroke:none;fill-rule:evenodd;fill:#6c4e4a;fill-opacity:1;" d="M 218.296875 217.738281 C 217.988281 217.855469 217.699219 217.996094 217.414062 218.175781 C 217.132812 218.351562 216.871094 218.558594 216.632812 218.792969 C 216.433594 218.980469 216.257812 219.183594 216.105469 219.40625 C 215.863281 219.738281 215.679688 220.109375 215.539062 220.484375 C 215.363281 220.960938 215.273438 221.457031 215.285156 221.949219 C 215.300781 222.28125 215.347656 222.617188 215.472656 222.929688 C 215.53125 223.085938 215.609375 223.234375 215.703125 223.375 C 215.792969 223.503906 215.882812 223.621094 215.992188 223.734375 C 216.144531 223.894531 216.308594 224.035156 216.503906 224.171875 C 216.519531 224.183594 216.53125 224.183594 216.542969 224.171875 C 216.554688 224.160156 216.554688 224.148438 216.542969 224.136719 C 216.417969 223.957031 216.328125 223.78125 216.238281 223.605469 C 216.175781 223.464844 216.125 223.332031 216.078125 223.191406 C 216.03125 223.050781 216 222.914062 215.964844 222.773438 C 215.894531 222.5 215.851562 222.21875 215.851562 221.941406 C 215.847656 221.511719 215.925781 221.085938 216.070312 220.675781 C 216.1875 220.335938 216.347656 220.003906 216.539062 219.6875 C 216.664062 219.480469 216.800781 219.269531 216.949219 219.074219 C 217.140625 218.824219 217.339844 218.582031 217.5625 218.363281 C 217.792969 218.132812 218.03125 217.921875 218.296875 217.738281 Z M 218.296875 217.738281 "/><path style=" stroke:none;fill-rule:evenodd;fill:#6c4e4a;fill-opacity:1;" d="M 214.96875 233.300781 C 215.226562 233.894531 215.601562 234.464844 216.082031 234.976562 C 216.554688 235.476562 217.125 235.902344 217.738281 236.214844 C 218.261719 236.480469 218.820312 236.648438 219.382812 236.714844 C 220.277344 236.820312 221.171875 236.636719 221.984375 236.148438 C 222.394531 235.890625 222.78125 235.453125 223.085938 234.886719 C 223.417969 234.269531 223.671875 233.507812 223.785156 232.722656 C 223.8125 232.523438 223.835938 232.320312 223.839844 232.125 C 223.84375 231.8125 223.820312 231.507812 223.769531 231.214844 C 223.710938 230.898438 223.628906 230.605469 223.511719 230.335938 C 223.308594 229.875 223.050781 229.507812 222.699219 229.257812 C 222.679688 229.238281 222.648438 229.238281 222.628906 229.257812 C 222.605469 229.277344 222.609375 229.3125 222.625 229.332031 C 222.964844 229.824219 223 230.5 222.925781 231.253906 C 222.90625 231.425781 222.878906 231.59375 222.851562 231.773438 C 222.820312 232.027344 222.773438 232.285156 222.722656 232.539062 C 222.585938 233.191406 222.375 233.828125 222.085938 234.34375 C 221.882812 234.710938 221.652344 235.019531 221.382812 235.191406 C 220.796875 235.566406 220.136719 235.691406 219.472656 235.65625 C 219.003906 235.632812 218.539062 235.546875 218.082031 235.394531 C 217.492188 235.203125 216.925781 234.933594 216.40625 234.589844 C 215.847656 234.214844 215.355469 233.789062 214.96875 233.300781 Z M 214.96875 233.300781 "/><path style=" stroke:none;fill-rule:evenodd;fill:#ea846a;fill-opacity:1;" d="M 207 219.046875 C 206.015625 215.300781 200.03125 213.578125 196.707031 215.746094 C 194.085938 217.453125 192.90625 220.390625 192.980469 221.484375 C 193.242188 225.15625 196.753906 227.65625 200.089844 227.808594 C 200.914062 227.84375 201.878906 227.496094 202.675781 227.1875 C 203.554688 226.855469 204.667969 226.464844 205.335938 225.867188 C 206.277344 225.023438 207.328125 223.863281 207.457031 222.695312 C 207.578125 221.621094 207.292969 220.167969 207 219.046875 Z M 207 219.046875 "/><path style=" stroke:none;fill-rule:evenodd;fill:#ea846a;fill-opacity:1;" d="M 247.898438 233.976562 C 249.808594 230.605469 246.730469 225.203125 242.832031 224.433594 C 239.765625 223.832031 236.867188 225.113281 236.15625 225.949219 C 233.777344 228.757812 234.546875 233 236.832031 235.433594 C 237.394531 236.035156 238.328125 236.457031 239.113281 236.792969 C 239.980469 237.167969 241.046875 237.664062 241.945312 237.699219 C 243.207031 237.753906 244.769531 237.65625 245.679688 236.910156 C 246.515625 236.222656 247.328125 234.984375 247.898438 233.976562 Z M 247.898438 233.976562 "/><path style=" stroke:none;fill-rule:evenodd;fill:#6c4e4a;fill-opacity:1;" d="M 232.261719 200.757812 C 227.769531 198.007812 230.125 190.996094 231.648438 188.511719 C 231.960938 188.003906 230.425781 190.769531 228.792969 192.964844 C 227.769531 194.347656 226.613281 195.328125 226.160156 195.671875 C 225.679688 196.027344 223.820312 197.304688 222.003906 197.75 C 218.972656 198.488281 215.597656 198.25 216.058594 197.847656 C 217.152344 196.871094 221.417969 196.933594 225.804688 191.679688 C 226.449219 190.910156 227.992188 188.132812 227.667969 188.132812 C 227.34375 188.132812 221.171875 192.820312 220.238281 193.328125 C 216.027344 195.625 209.121094 198.292969 204.246094 197.320312 C 203.71875 197.214844 209.386719 195.554688 213.414062 192.585938 C 215.882812 190.765625 217.449219 187.214844 217.449219 186.875 C 217.449219 186.761719 209.6875 191.246094 209.5625 191.292969 C 208.371094 191.738281 203.457031 193.441406 202.226562 193.53125 C 198.347656 193.804688 198.796875 195.039062 192.78125 194.488281 C 191.738281 194.398438 189.671875 193.75 189.15625 192.730469 C 188.539062 191.492188 192.554688 185.3125 193.324219 184.402344 C 199.417969 177.207031 206.589844 171.171875 215.164062 167.179688 C 219.261719 165.269531 224.425781 163.609375 228.910156 163.234375 C 244.589844 161.925781 259.082031 171.246094 268.253906 182.210938 C 271.726562 186.367188 272.605469 195.519531 271.609375 200.699219 C 270.507812 206.390625 267.632812 214.203125 265.542969 217.199219 C 263.097656 220.707031 257.59375 226.863281 257.59375 224.035156 C 257.59375 218.679688 259.421875 210.800781 259.421875 205.359375 C 259.421875 204.390625 259.421875 203.191406 259.277344 202.203125 C 259.203125 201.675781 259.667969 200.625 259.136719 200.625 C 258.921875 200.625 256.121094 205.59375 256.121094 206.21875 C 256.121094 206.921875 256.71875 208.953125 256.695312 208.949219 C 252.324219 207.859375 248.855469 200.464844 248.503906 196.601562 C 248.414062 195.65625 248.371094 192.503906 246.683594 192.328125 C 245.691406 192.230469 244.859375 193.007812 244.117188 193.488281 C 242.820312 194.339844 241.886719 196.085938 241.726562 197.554688 C 241.683594 197.941406 241.46875 199.65625 241.914062 200.90625 C 242.453125 202.457031 243.621094 203.527344 242.898438 203.351562 C 240.648438 202.789062 238.195312 202.242188 237.0625 200.59375 C 235.761719 198.703125 235.25 196.75 235.195312 194.304688 C 235.191406 193.988281 236.066406 189.007812 235.285156 189.855469 C 234.636719 190.5625 233.507812 192.421875 233.0625 194.371094 C 232.703125 195.941406 232.949219 197.707031 232.988281 198.007812 C 233.378906 201 233.527344 201.535156 232.261719 200.757812 Z M 232.261719 200.757812 "/><path style=" stroke:none;fill-rule:evenodd;fill:#ffcb9f;fill-opacity:1;" d="M 88.105469 228.863281 C 88.6875 231.242188 94.230469 234.066406 96.003906 235.546875 C 104.21875 242.378906 116.933594 250.761719 127.460938 242.875 C 142.792969 231.382812 155.148438 220.792969 168.8125 207.382812 C 176.488281 199.851562 185.308594 188.59375 198.027344 186.539062 C 204.539062 185.484375 216.015625 180.953125 226.753906 176.203125 C 228 175.652344 232.945312 174.566406 233.351562 173.746094 C 234.738281 170.980469 230.054688 172.019531 229.421875 171.390625 C 229.167969 171.140625 230.171875 170.878906 230.207031 170.871094 C 230.609375 170.734375 232.492188 170.617188 233.066406 169.832031 C 233.550781 169.167969 232.851562 167.847656 232.132812 167.550781 C 228.773438 166.183594 232.277344 166.910156 231.953125 163.84375 C 231.863281 163.027344 227.542969 163.578125 227.585938 163.535156 C 233.273438 158.417969 219.445312 158.636719 213.277344 160.425781 C 211.265625 161.011719 209.421875 161.855469 210.285156 160.65625 C 210.886719 159.820312 216.824219 155.160156 191.9375 163.011719 C 187.75 164.335938 183.769531 168.863281 180.582031 172.046875 C 176.011719 176.613281 176.507812 176.886719 170.402344 180.542969 C 159.417969 187.125 146.539062 196.816406 135.058594 202.550781 C 131.011719 204.574219 127.40625 206.039062 123.378906 206.480469 C 122.65625 206.558594 118.316406 206.277344 118.019531 206.480469 C 108.765625 212.894531 106.136719 215 96.390625 222.199219 C 95.28125 223.023438 89.339844 228.863281 88.105469 228.863281 Z M 88.105469 228.863281 "/><path style=" stroke:none;fill-rule:evenodd;fill:#6c4e4a;fill-opacity:1;" d="M 203.847656 163.972656 C 205.6875 163.199219 207.457031 162.203125 209.355469 161.527344 C 209.449219 161.492188 209.5 161.386719 209.464844 161.296875 C 209.429688 161.199219 209.324219 161.152344 209.234375 161.1875 C 207.328125 161.863281 205.546875 162.863281 203.707031 163.644531 C 203.613281 163.679688 203.570312 163.785156 203.609375 163.878906 C 203.648438 163.96875 203.757812 164.011719 203.847656 163.972656 Z M 203.847656 163.972656 "/><path style=" stroke:none;fill-rule:evenodd;fill:#6c4e4a;fill-opacity:1;" d="M 208.859375 166.277344 C 208.800781 166.246094 208.738281 166.242188 208.675781 166.277344 C 208.484375 166.390625 208.566406 166.550781 208.597656 166.585938 C 208.621094 166.609375 208.6875 166.664062 208.8125 166.652344 C 209.082031 166.621094 210.148438 166.320312 210.246094 166.292969 C 211.585938 165.898438 212.910156 165.523438 214.285156 165.265625 C 218.324219 164.507812 222.710938 163.59375 226.683594 163.59375 C 226.785156 163.59375 226.863281 163.511719 226.863281 163.414062 C 226.863281 163.3125 226.785156 163.234375 226.683594 163.234375 C 222.691406 163.234375 218.277344 164.148438 214.222656 164.910156 C 212.832031 165.167969 211.496094 165.546875 210.144531 165.941406 C 210.054688 165.96875 209.203125 166.214844 208.859375 166.277344 Z M 208.859375 166.277344 "/><path style=" stroke:none;fill-rule:evenodd;fill:#6c4e4a;fill-opacity:1;" d="M 211.066406 170.804688 C 215.421875 169.34375 219.871094 168.605469 224.335938 167.707031 C 226.410156 167.296875 228.417969 166.6875 230.550781 166.6875 C 230.648438 166.6875 230.734375 166.605469 230.734375 166.503906 C 230.734375 166.402344 230.648438 166.320312 230.550781 166.320312 C 228.390625 166.320312 226.363281 166.933594 224.265625 167.355469 C 219.78125 168.253906 215.320312 168.996094 210.953125 170.460938 C 210.855469 170.492188 210.804688 170.59375 210.839844 170.6875 C 210.871094 170.78125 210.972656 170.835938 211.066406 170.804688 Z M 211.066406 170.804688 "/><path style=" stroke:none;fill-rule:evenodd;fill:#6c4e4a;fill-opacity:1;" d="M 212.777344 174.167969 C 212.71875 174.191406 212.675781 174.238281 212.664062 174.300781 C 212.640625 174.398438 212.703125 174.496094 212.800781 174.515625 C 212.804688 174.515625 212.867188 174.53125 212.949219 174.492188 C 213.089844 174.417969 213.746094 174.042969 213.851562 174.011719 C 215.261719 173.613281 216.6875 173.230469 218.097656 172.855469 C 221.925781 171.84375 225.863281 171.882812 229.683594 171.121094 C 229.78125 171.101562 229.84375 171.003906 229.828125 170.910156 C 229.804688 170.808594 229.710938 170.746094 229.613281 170.765625 C 225.785156 171.53125 221.835938 171.492188 218.007812 172.503906 C 216.59375 172.878906 215.160156 173.261719 213.75 173.664062 C 213.636719 173.695312 212.933594 174.089844 212.785156 174.164062 Z M 212.777344 174.167969 "/><path style=" stroke:none;fill-rule:evenodd;fill:#ffcb9f;fill-opacity:1;" d="M 111.488281 117.195312 C 100.972656 114.53125 93.769531 108.972656 89.332031 102.589844 C 88.34375 101.171875 87.152344 98.4375 86.292969 96.90625 C 83.898438 92.632812 82.59375 89.019531 82.59375 83.097656 C 82.59375 82.125 83.023438 80.683594 82.179688 80.203125 C 79.769531 78.828125 78.246094 79.34375 74.890625 77.03125 C 73.96875 76.394531 72.207031 74.6875 72.496094 70.691406 C 72.863281 65.648438 75.839844 63.558594 78.359375 62.363281 C 82.777344 60.265625 84.863281 63.277344 83.632812 61.941406 C 83.144531 61.417969 84.269531 54.234375 85.078125 52.070312 C 89.503906 40.203125 104.410156 30.199219 114.195312 22.660156 C 136.847656 5.203125 170.066406 11.765625 175.308594 46.945312 C 175.605469 48.9375 176.371094 54.8125 176.585938 60.125 C 176.824219 65.78125 176.234375 71.152344 176.148438 72.035156 C 175.628906 77.167969 174.378906 82.257812 172.882812 85.992188 C 166.199219 102.6875 165.761719 105.511719 148.921875 116.476562 C 145.949219 118.414062 142.324219 119.878906 137.785156 120.402344 C 137.15625 125.75 136.675781 130.757812 136.492188 134.238281 C 136.148438 140.726562 136.253906 154.117188 129.984375 158.300781 C 125.863281 161.039062 120.710938 153.652344 118.699219 151.148438 C 112.652344 143.59375 109.78125 135.582031 110.671875 125.789062 C 110.878906 123.550781 111.101562 120.367188 111.488281 117.195312 Z M 111.488281 117.195312 "/><path style=" stroke:none;fill-rule:evenodd;fill:#6c4e4a;fill-opacity:1;" d="M 152.398438 57.605469 C 153.199219 57.660156 153.933594 57.699219 154.628906 57.722656 C 155.417969 57.746094 156.136719 57.765625 156.820312 57.777344 C 158.28125 57.800781 159.523438 57.871094 160.785156 58.324219 C 161.53125 58.589844 162.273438 59.003906 163.109375 59.546875 C 163.542969 59.828125 164.015625 60.117188 164.511719 60.46875 C 164.808594 60.679688 165.125 60.890625 165.445312 61.132812 C 165.71875 61.40625 166.164062 61.40625 166.4375 61.132812 C 166.710938 60.863281 166.710938 60.417969 166.4375 60.144531 C 165.953125 59.515625 165.507812 58.972656 165.039062 58.5 C 164.808594 58.265625 164.578125 58.054688 164.34375 57.863281 C 163.386719 57.089844 162.4375 56.609375 161.515625 56.277344 C 160.722656 55.992188 159.929688 55.832031 159.105469 55.761719 C 158.359375 55.699219 157.589844 55.699219 156.757812 55.769531 C 156.0625 55.828125 155.332031 55.925781 154.535156 56.042969 C 153.851562 56.144531 153.136719 56.269531 152.355469 56.378906 C 152.015625 56.390625 151.75 56.675781 151.761719 57.015625 C 151.769531 57.351562 152.058594 57.617188 152.398438 57.605469 Z M 152.398438 57.605469 "/><path style=" stroke:none;fill-rule:evenodd;fill:#6c4e4a;fill-opacity:1;" d="M 112.875 117.757812 C 113.007812 117.75 113.167969 117.800781 113.335938 117.882812 C 113.703125 118.066406 114.101562 118.382812 114.292969 118.484375 C 114.988281 118.84375 115.832031 119.191406 116.703125 119.476562 C 117.566406 119.761719 118.457031 119.988281 119.230469 120.136719 C 119.617188 120.203125 120.011719 120.28125 120.417969 120.347656 C 121.320312 120.511719 122.253906 120.671875 123.207031 120.824219 C 125.175781 121.132812 127.226562 121.40625 129.253906 121.488281 C 129.886719 121.519531 130.523438 121.527344 131.152344 121.503906 C 131.425781 121.496094 131.695312 121.484375 131.964844 121.457031 C 132.652344 121.402344 133.328125 121.304688 133.984375 121.179688 C 134.660156 121.042969 135.3125 120.871094 135.945312 120.65625 C 135.960938 120.652344 135.96875 120.640625 135.964844 120.628906 C 135.960938 120.613281 135.945312 120.605469 135.933594 120.609375 C 135.285156 120.746094 134.621094 120.832031 133.945312 120.894531 C 133.28125 120.949219 132.617188 120.976562 131.941406 120.980469 C 131.675781 120.984375 131.410156 120.984375 131.144531 120.984375 C 130.527344 120.980469 129.902344 120.964844 129.277344 120.9375 C 127.273438 120.835938 125.246094 120.566406 123.289062 120.269531 C 122.339844 120.128906 121.40625 119.976562 120.5 119.839844 C 120.097656 119.78125 119.695312 119.722656 119.304688 119.667969 C 118.539062 119.570312 117.660156 119.394531 116.792969 119.167969 C 115.917969 118.941406 115.058594 118.671875 114.351562 118.363281 C 114.15625 118.28125 113.734375 117.996094 113.351562 117.847656 C 113.175781 117.78125 113.007812 117.738281 112.875 117.757812 Z M 112.875 117.757812 "/><path style=" stroke:none;fill-rule:evenodd;fill:#6c4e4a;fill-opacity:1;" d="M 114.210938 49.539062 C 115.609375 49.144531 117.148438 49.0625 118.742188 49.148438 C 119.347656 49.179688 119.953125 49.234375 120.566406 49.3125 C 121.46875 49.425781 122.371094 49.59375 123.265625 49.8125 C 125.070312 50.257812 126.800781 50.960938 128.378906 51.769531 C 129.042969 52.113281 129.6875 52.445312 130.289062 52.828125 C 130.710938 53.097656 131.117188 53.359375 131.496094 53.65625 C 131.769531 53.925781 132.210938 53.921875 132.480469 53.648438 C 132.757812 53.371094 132.753906 52.929688 132.476562 52.65625 C 131.882812 51.945312 131.199219 51.273438 130.417969 50.660156 C 130.097656 50.410156 129.761719 50.175781 129.410156 49.957031 C 127.738281 48.929688 125.777344 48.191406 123.769531 47.71875 C 122.78125 47.484375 121.769531 47.324219 120.769531 47.25 C 120.085938 47.203125 119.402344 47.191406 118.738281 47.230469 C 116.957031 47.335938 115.273438 47.722656 113.789062 48.382812 C 113.472656 48.5 113.304688 48.851562 113.425781 49.171875 C 113.539062 49.488281 113.894531 49.65625 114.210938 49.539062 Z M 114.210938 49.539062 "/><path style=" stroke:none;fill-rule:evenodd;fill:#6c4e4a;fill-opacity:1;" d="M 107.472656 62.269531 C 108.078125 61.96875 108.71875 61.785156 109.375 61.644531 C 110.339844 61.4375 111.335938 61.421875 112.332031 61.507812 C 113.976562 61.648438 115.609375 62.136719 116.9375 63.035156 C 117.140625 63.164062 117.324219 63.3125 117.488281 63.464844 C 117.804688 63.757812 118.082031 64.078125 118.351562 64.398438 C 118.863281 65.007812 119.355469 65.59375 119.96875 66.066406 C 120.242188 66.339844 120.6875 66.339844 120.960938 66.066406 C 121.230469 65.792969 121.230469 65.351562 120.960938 65.078125 C 120.597656 64.609375 120.371094 64.066406 120.082031 63.535156 C 119.859375 63.128906 119.625 62.738281 119.339844 62.367188 C 119.011719 61.945312 118.609375 61.574219 118.132812 61.246094 C 116.480469 60.164062 114.46875 59.476562 112.441406 59.4375 C 111.632812 59.421875 110.824219 59.503906 110.046875 59.695312 C 108.871094 59.988281 107.777344 60.496094 106.816406 61.230469 C 106.53125 61.410156 106.449219 61.792969 106.625 62.078125 C 106.808594 62.367188 107.1875 62.453125 107.472656 62.269531 Z M 107.472656 62.269531 "/><path style=" stroke:none;fill-rule:evenodd;fill:#6c4e4a;fill-opacity:1;" d="M 149.171875 71.109375 C 150.296875 70.574219 151.519531 70.253906 152.75 70.082031 C 153.554688 69.96875 154.355469 69.941406 155.152344 70 C 156.125 70.070312 157.078125 70.285156 157.96875 70.6875 C 158.8125 71.066406 159.613281 71.601562 160.316406 72.34375 C 160.585938 72.597656 160.785156 72.925781 160.976562 73.261719 C 161.242188 73.71875 161.492188 74.179688 161.789062 74.574219 C 161.980469 74.828125 162.171875 75.066406 162.40625 75.253906 C 162.683594 75.527344 163.125 75.527344 163.398438 75.253906 C 163.675781 74.980469 163.675781 74.535156 163.398438 74.261719 C 163.164062 73.964844 163.074219 73.566406 162.9375 73.167969 C 162.777344 72.671875 162.621094 72.167969 162.390625 71.703125 C 162.246094 71.414062 162.058594 71.15625 161.859375 70.917969 C 160.972656 69.933594 159.957031 69.199219 158.867188 68.707031 C 157.71875 68.191406 156.496094 67.917969 155.253906 67.890625 C 154.292969 67.871094 153.316406 67.976562 152.375 68.230469 C 151.003906 68.601562 149.710938 69.234375 148.550781 70.046875 C 148.257812 70.214844 148.160156 70.59375 148.328125 70.886719 C 148.503906 71.179688 148.875 71.277344 149.171875 71.109375 Z M 149.171875 71.109375 "/><path style=" stroke:none;fill-rule:nonzero;fill:#6c4e4a;fill-opacity:1;" d="M 119.378906 71.375 C 119.378906 71.738281 119.34375 72.097656 119.273438 72.453125 C 119.207031 72.808594 119.105469 73.152344 118.96875 73.488281 C 118.835938 73.824219 118.671875 74.140625 118.476562 74.445312 C 118.28125 74.746094 118.058594 75.023438 117.808594 75.28125 C 117.558594 75.539062 117.289062 75.765625 116.996094 75.96875 C 116.703125 76.171875 116.394531 76.339844 116.070312 76.480469 C 115.746094 76.617188 115.410156 76.722656 115.066406 76.792969 C 114.71875 76.863281 114.371094 76.898438 114.019531 76.902344 C 113.667969 76.898438 113.320312 76.863281 112.976562 76.792969 C 112.628906 76.722656 112.296875 76.617188 111.96875 76.480469 C 111.644531 76.339844 111.335938 76.171875 111.042969 75.96875 C 110.75 75.765625 110.480469 75.539062 110.230469 75.28125 C 109.984375 75.023438 109.761719 74.746094 109.566406 74.445312 C 109.371094 74.140625 109.203125 73.824219 109.070312 73.488281 C 108.9375 73.152344 108.835938 72.808594 108.765625 72.453125 C 108.695312 72.097656 108.664062 71.738281 108.664062 71.375 C 108.664062 71.011719 108.695312 70.652344 108.765625 70.296875 C 108.835938 69.941406 108.9375 69.59375 109.070312 69.257812 C 109.203125 68.921875 109.371094 68.605469 109.566406 68.304688 C 109.761719 68 109.984375 67.722656 110.230469 67.464844 C 110.480469 67.207031 110.75 66.980469 111.042969 66.777344 C 111.335938 66.578125 111.644531 66.40625 111.96875 66.265625 C 112.292969 66.128906 112.628906 66.023438 112.976562 65.953125 C 113.320312 65.882812 113.667969 65.847656 114.019531 65.847656 C 114.371094 65.847656 114.71875 65.882812 115.066406 65.953125 C 115.410156 66.023438 115.746094 66.128906 116.070312 66.265625 C 116.394531 66.40625 116.703125 66.578125 116.996094 66.777344 C 117.289062 66.980469 117.558594 67.210938 117.808594 67.464844 C 118.058594 67.722656 118.28125 68 118.476562 68.304688 C 118.671875 68.605469 118.835938 68.921875 118.96875 69.257812 C 119.105469 69.59375 119.207031 69.941406 119.273438 70.296875 C 119.34375 70.652344 119.378906 71.011719 119.378906 71.375 Z M 119.378906 71.375 "/><path style=" stroke:none;fill-rule:nonzero;fill:#6c4e4a;fill-opacity:1;" d="M 160.699219 80.257812 C 160.574219 80.597656 160.421875 80.921875 160.234375 81.234375 C 160.046875 81.542969 159.832031 81.835938 159.589844 82.101562 C 159.347656 82.371094 159.085938 82.613281 158.796875 82.832031 C 158.511719 83.046875 158.207031 83.234375 157.882812 83.390625 C 157.5625 83.542969 157.230469 83.667969 156.886719 83.757812 C 156.542969 83.84375 156.191406 83.898438 155.839844 83.917969 C 155.488281 83.9375 155.136719 83.921875 154.789062 83.867188 C 154.4375 83.816406 154.101562 83.730469 153.769531 83.609375 C 153.4375 83.488281 153.125 83.335938 152.824219 83.152344 C 152.523438 82.96875 152.246094 82.753906 151.988281 82.511719 C 151.730469 82.269531 151.5 82.003906 151.292969 81.714844 C 151.089844 81.425781 150.914062 81.117188 150.765625 80.792969 C 150.621094 80.464844 150.507812 80.125 150.429688 79.777344 C 150.351562 79.425781 150.304688 79.070312 150.292969 78.707031 C 150.28125 78.347656 150.304688 77.988281 150.363281 77.628906 C 150.421875 77.273438 150.511719 76.921875 150.636719 76.582031 C 150.761719 76.242188 150.917969 75.914062 151.105469 75.605469 C 151.289062 75.292969 151.503906 75.003906 151.746094 74.734375 C 151.988281 74.46875 152.253906 74.222656 152.539062 74.007812 C 152.828125 73.792969 153.132812 73.605469 153.453125 73.449219 C 153.773438 73.292969 154.109375 73.171875 154.453125 73.082031 C 154.796875 72.992188 155.144531 72.941406 155.496094 72.921875 C 155.851562 72.902344 156.199219 72.917969 156.550781 72.96875 C 156.898438 73.023438 157.238281 73.109375 157.566406 73.230469 C 157.898438 73.347656 158.210938 73.5 158.511719 73.6875 C 158.8125 73.871094 159.089844 74.085938 159.347656 74.328125 C 159.605469 74.570312 159.835938 74.835938 160.042969 75.125 C 160.25 75.414062 160.425781 75.722656 160.570312 76.046875 C 160.714844 76.375 160.828125 76.710938 160.90625 77.0625 C 160.988281 77.414062 161.03125 77.769531 161.042969 78.128906 C 161.054688 78.492188 161.03125 78.851562 160.972656 79.207031 C 160.917969 79.566406 160.824219 79.914062 160.699219 80.257812 Z M 160.699219 80.257812 "/><path style=" stroke:none;fill-rule:evenodd;fill:#6c4e4a;fill-opacity:1;" d="M 134.667969 85.542969 C 134.9375 86.472656 135.054688 87.257812 135.140625 87.945312 C 135.179688 88.273438 135.199219 88.566406 135.207031 88.839844 C 135.21875 89.289062 135.175781 89.660156 135.074219 89.964844 C 134.859375 90.609375 134.296875 90.796875 133.710938 90.832031 C 133.390625 90.851562 133.070312 90.890625 132.746094 90.835938 C 132.507812 90.800781 132.28125 90.789062 132.0625 90.714844 C 131.730469 90.523438 131.296875 90.636719 131.105469 90.976562 C 130.914062 91.3125 131.03125 91.738281 131.367188 91.929688 C 131.808594 92.308594 132.335938 92.578125 132.90625 92.769531 C 133.15625 92.855469 133.414062 92.894531 133.675781 92.914062 C 134.691406 93.003906 135.679688 92.648438 136.367188 91.933594 C 137.078125 91.191406 137.597656 89.9375 137.164062 88.082031 C 137.050781 87.589844 136.871094 87.054688 136.589844 86.472656 C 136.378906 86.019531 136.113281 85.554688 135.789062 85.042969 C 135.65625 84.734375 135.289062 84.589844 134.980469 84.730469 C 134.667969 84.867188 134.527344 85.230469 134.667969 85.542969 Z M 134.667969 85.542969 "/><path style=" stroke:none;fill-rule:evenodd;fill:#ea846a;fill-opacity:1;" d="M 137.960938 97.945312 C 137.566406 98.433594 135.644531 98.214844 135.105469 98.214844 C 131.9375 98.214844 131.367188 97.394531 127.097656 96.6875 C 126.75 96.632812 122.632812 94.898438 122.175781 95.355469 C 121.421875 96.109375 120.9375 99.28125 120.9375 100.242188 C 120.9375 102.992188 121.21875 107.46875 124.523438 108.878906 C 129.195312 110.878906 133.652344 106.449219 135.890625 102.722656 C 136.558594 101.605469 137.960938 99.148438 137.960938 97.945312 Z M 137.960938 97.945312 "/><path style=" stroke:none;fill-rule:evenodd;fill:#6c4e4a;fill-opacity:1;" d="M 137.960938 97.945312 C 137.824219 98.101562 137.511719 98.164062 137.148438 98.183594 C 136.421875 98.214844 135.464844 98.0625 135.105469 98.042969 C 134.117188 97.988281 133.394531 97.863281 132.730469 97.699219 C 131.269531 97.328125 130.097656 96.742188 127.195312 96.121094 C 127.125 96.101562 126.882812 95.984375 126.53125 95.839844 C 125.671875 95.484375 124.304688 94.929688 123.347656 94.679688 C 122.90625 94.5625 122.527344 94.523438 122.285156 94.546875 C 121.988281 94.566406 121.785156 94.695312 121.644531 94.824219 C 121.261719 95.195312 120.882812 96.050781 120.621094 97.027344 C 120.300781 98.242188 120.117188 99.644531 120.113281 100.242188 C 120.105469 102.007812 120.21875 104.4375 121.074219 106.414062 C 121.6875 107.828125 122.671875 109.015625 124.1875 109.664062 C 126.332031 110.570312 128.4375 110.316406 130.335938 109.359375 C 131.632812 108.703125 132.847656 107.730469 133.871094 106.601562 C 134.367188 106.050781 134.816406 105.460938 135.21875 104.863281 C 135.640625 104.238281 136.003906 103.597656 136.316406 102.980469 C 136.660156 102.292969 137.21875 101.144531 137.605469 100.050781 C 137.890625 99.242188 138.082031 98.472656 138.039062 97.945312 Z M 122.613281 96.027344 C 123.839844 96.136719 126.71875 97.222656 127.007812 97.257812 C 129.925781 97.597656 131.132812 98.082031 132.609375 98.296875 C 133.316406 98.402344 134.078125 98.445312 135.105469 98.390625 C 135.46875 98.367188 136.4375 98.40625 137.160156 98.289062 C 137.460938 98.238281 137.722656 98.160156 137.875 98.035156 C 137.808594 98.523438 137.511719 99.171875 137.144531 99.84375 C 136.597656 100.835938 135.894531 101.859375 135.464844 102.46875 C 134.746094 103.511719 133.8125 104.570312 132.785156 105.554688 C 131.820312 106.480469 130.757812 107.324219 129.605469 107.871094 C 128.125 108.582031 126.507812 108.8125 124.855469 108.097656 C 123.765625 107.628906 123.082031 106.75 122.636719 105.738281 C 121.863281 103.976562 121.765625 101.8125 121.757812 100.242188 C 121.753906 99.714844 121.902344 98.484375 122.160156 97.410156 C 122.25 97.023438 122.355469 96.65625 122.476562 96.351562 C 122.523438 96.226562 122.566406 96.121094 122.613281 96.027344 Z M 122.613281 96.027344 "/><path style=" stroke:none;fill-rule:evenodd;fill:#ea846a;fill-opacity:1;" d="M 161.84375 92.722656 C 160.882812 88.652344 155.0625 86.777344 151.824219 89.132812 C 149.273438 90.988281 148.125 94.183594 148.199219 95.375 C 148.449219 99.367188 151.871094 102.089844 155.117188 102.253906 C 155.917969 102.292969 156.859375 101.914062 157.632812 101.582031 C 158.492188 101.214844 159.574219 100.792969 160.222656 100.140625 C 161.140625 99.222656 162.164062 97.964844 162.289062 96.695312 C 162.40625 95.523438 162.128906 93.941406 161.84375 92.722656 Z M 161.84375 92.722656 "/><path style=" stroke:none;fill-rule:evenodd;fill:#ea846a;fill-opacity:1;" d="M 113.816406 83.726562 C 112.449219 78.460938 104.132812 76.039062 99.511719 79.085938 C 95.867188 81.484375 94.226562 85.613281 94.332031 87.152344 C 94.695312 92.3125 99.578125 95.828125 104.214844 96.042969 C 105.359375 96.09375 106.699219 95.605469 107.808594 95.171875 C 109.03125 94.699219 110.578125 94.15625 111.503906 93.3125 C 112.816406 92.125 114.277344 90.496094 114.457031 88.855469 C 114.625 87.34375 114.226562 85.300781 113.816406 83.726562 Z M 113.816406 83.726562 "/><path style=" stroke:none;fill-rule:evenodd;fill:#6c4e4a;fill-opacity:1;" d="M 150.730469 24.066406 C 131.085938 47.355469 121.898438 45.285156 106.886719 51.820312 C 101.226562 54.285156 92.105469 56.589844 85.375 56.949219 C 83.390625 57.054688 79.039062 54.484375 78.683594 50.941406 C 78.128906 45.363281 79.5625 40.394531 80.753906 35.0625 C 83.832031 21.203125 94.195312 13.820312 105.464844 6.894531 C 109.09375 4.660156 114.664062 2.265625 119.089844 1.894531 C 130.257812 0.964844 146.882812 0.171875 153.796875 9.96875 C 156.945312 14.445312 152.816406 21.597656 150.730469 24.066406 Z M 150.730469 24.066406 "/><path style=" stroke:none;fill-rule:evenodd;fill:#6c4e4a;fill-opacity:1;" d="M 155.289062 14.242188 C 153.675781 15.566406 153.019531 18.421875 152.578125 21.351562 C 152.464844 22.101562 152.359375 35.019531 154.546875 40.949219 C 158.195312 50.84375 168.554688 59.453125 175.644531 61.222656 C 176.976562 61.554688 179.835938 62.1875 181.191406 61.507812 C 182.875 60.664062 183.75 49.53125 183.59375 47.773438 C 182.585938 36.703125 180.300781 27.488281 173.765625 19.332031 C 173.265625 18.707031 171.125 16.089844 167.273438 14.226562 C 163.503906 12.40625 157.550781 12.371094 155.289062 14.242188 Z M 155.289062 14.242188 "/><path style=" stroke:none;fill-rule:evenodd;fill:#6c4e4a;fill-opacity:1;" d="M 151.523438 21.378906 C 151.546875 21.339844 151.570312 21.296875 151.589844 21.25 C 151.839844 20.730469 151.617188 20.105469 151.09375 19.859375 C 150.882812 19.757812 150.660156 19.730469 150.429688 19.777344 C 150.246094 19.816406 149.976562 19.90625 149.757812 20.226562 C 149.699219 20.3125 149.589844 20.523438 149.5 20.839844 C 149.265625 21.667969 148.867188 23.789062 148.792969 24.070312 C 148.59375 24.804688 148.246094 25.480469 147.835938 26.128906 C 147.160156 27.214844 146.328125 28.238281 145.65625 29.320312 C 144.449219 31.253906 143.226562 33.226562 141.921875 35.117188 C 141.050781 36.375 140.144531 37.597656 139.1875 38.75 C 138.183594 39.957031 136.933594 41.21875 135.589844 42.453125 C 133.609375 44.273438 131.429688 46.03125 129.546875 47.460938 C 124.976562 50.925781 120.429688 53.644531 115.636719 55.839844 C 110.824219 58.046875 105.773438 59.726562 100.21875 61.109375 C 97.570312 61.765625 94.125 62.453125 90.796875 62.738281 C 88.550781 62.929688 86.355469 62.941406 84.503906 62.628906 C 84.214844 62.582031 83.945312 62.769531 83.898438 63.054688 C 83.84375 63.339844 84.035156 63.609375 84.324219 63.660156 C 86.253906 64.007812 88.542969 64.03125 90.882812 63.859375 C 94.285156 63.613281 97.808594 62.957031 100.515625 62.320312 C 106.167969 60.988281 111.320312 59.34375 116.234375 57.164062 C 121.152344 54.984375 125.835938 52.265625 130.539062 48.785156 C 132.480469 47.351562 134.722656 45.582031 136.773438 43.75 C 138.191406 42.476562 139.515625 41.171875 140.582031 39.921875 C 141.589844 38.742188 142.542969 37.484375 143.460938 36.195312 C 144.804688 34.292969 146.074219 32.3125 147.320312 30.371094 C 148.132812 29.101562 149.152344 27.914062 149.902344 26.613281 C 150.265625 25.980469 150.5625 25.320312 150.765625 24.617188 C 150.847656 24.339844 151.265625 22.238281 151.507812 21.417969 Z M 150.597656 21.847656 C 150.464844 21.84375 150.328125 21.808594 150.199219 21.75 C 150.328125 21.8125 150.460938 21.84375 150.597656 21.847656 Z M 150.597656 21.847656 "/></g></svg>