<svg xmlns="http://www.w3.org/2000/svg" xmlns:xlink="http://www.w3.org/1999/xlink" width="500" zoomAndPan="magnify" viewBox="0 0 375 374.999991" height="500" preserveAspectRatio="xMidYMid meet" version="1.2"><defs><clipPath id="d646915f5f"><path d="M 7.5 66 L 84 66 L 84 371 L 7.5 371 Z M 7.5 66 "/></clipPath></defs><g id="2bdf5ddefb"><path style=" stroke:none;fill-rule:nonzero;fill:#f8c73b;fill-opacity:1;" d="M 187.667969 43.0625 C 187.667969 43.0625 187.582031 43.0625 187.582031 43.0625 C 184.480469 42.980469 181.964844 40.546875 181.964844 37.445312 C 182.214844 26.625 186.914062 14.714844 195.382812 7.75 C 197.816406 5.738281 201.421875 6.074219 203.4375 8.507812 C 205.449219 10.9375 205.113281 14.546875 202.683594 16.558594 C 197.3125 21.003906 193.789062 29.054688 193.371094 37.695312 C 193.203125 40.632812 190.6875 43.0625 187.667969 43.0625 Z M 187.667969 43.0625 "/><path style=" stroke:none;fill-rule:nonzero;fill:#f8c73b;fill-opacity:1;" d="M 119.894531 54.804688 C 119.894531 54.804688 119.8125 54.804688 119.8125 54.804688 C 116.707031 54.722656 114.191406 52.207031 114.191406 49.101562 L 114.191406 47.761719 C 114.191406 47.171875 114.277344 46.671875 114.441406 46.167969 C 115.535156 35.347656 120.398438 25.535156 127.613281 19.496094 C 130.042969 17.480469 133.652344 17.816406 135.664062 20.25 C 137.675781 22.683594 137.339844 26.289062 134.910156 28.300781 C 129.539062 32.746094 126.019531 40.800781 125.597656 49.4375 C 125.515625 52.375 123 54.804688 119.894531 54.804688 Z M 119.894531 54.804688 "/><path style=" stroke:none;fill-rule:nonzero;fill:#f8c73b;fill-opacity:1;" d="M 53.882812 66.800781 C 53.882812 66.800781 53.800781 66.800781 53.800781 66.800781 C 50.695312 66.71875 48.179688 64.285156 48.179688 61.179688 L 48.179688 59.671875 C 48.179688 59.167969 48.265625 58.582031 48.433594 58.078125 C 49.523438 47.257812 54.386719 37.445312 61.601562 31.40625 C 64.03125 29.390625 67.640625 29.726562 69.652344 32.160156 C 71.664062 34.59375 71.332031 38.199219 68.898438 40.210938 C 63.53125 44.65625 60.007812 52.710938 59.585938 61.347656 C 59.503906 64.367188 56.902344 66.800781 53.882812 66.800781 Z M 53.882812 66.800781 "/><g clip-rule="nonzero" clip-path="url(#d646915f5f)"><path style=" stroke:none;fill-rule:nonzero;fill:#6f6ecf;fill-opacity:1;" d="M 83.660156 370.351562 L 42.5625 320.109375 L 10.601562 298.804688 C 8.589844 297.460938 7.5 295.113281 7.667969 292.683594 L 29.390625 66.550781 Z M 83.660156 370.351562 "/><path style=" stroke:none;fill-rule:nonzero;fill:#595ab7;fill-opacity:1;" d="M 7.667969 292.683594 C 7.5 295.03125 8.589844 297.460938 10.601562 298.722656 L 42.5625 320.027344 L 83.660156 370.269531 L 78.878906 343.089844 L 59.921875 319.941406 L 28.050781 298.636719 C 26.035156 297.296875 24.863281 294.945312 25.113281 292.597656 L 40.800781 129.707031 L 29.476562 66.464844 Z M 7.667969 292.683594 "/></g><path style=" stroke:none;fill-rule:nonzero;fill:#c6bfe0;fill-opacity:1;" d="M 296.792969 307.277344 C 296.707031 306.6875 293.773438 286.640625 294.023438 287.902344 C 271.796875 166.78125 279.765625 209.894531 246.550781 29.222656 C 44.40625 63.78125 287.480469 22.261719 29.644531 66.296875 C 30.984375 74.433594 79.800781 363.222656 79.632812 362.46875 C 80.390625 367.25 82.988281 369.261719 83.492188 369.933594 C 83.578125 370.101562 83.660156 370.183594 83.746094 370.183594 C 87.183594 373.539062 92.132812 374.964844 96.996094 373.621094 L 286.558594 322.710938 C 293.351562 320.949219 297.796875 314.238281 296.792969 307.277344 Z M 231.621094 32.746094 C 240.34375 32.746094 247.386719 39.875 247.386719 48.515625 C 247.386719 57.238281 240.34375 64.285156 231.621094 64.285156 C 222.894531 64.285156 215.851562 57.15625 215.851562 48.515625 C 215.851562 39.792969 222.894531 32.746094 231.621094 32.746094 Z M 162.253906 44.238281 C 170.976562 44.238281 178.023438 51.285156 178.023438 60.007812 C 178.023438 68.730469 170.976562 75.777344 162.253906 75.777344 C 153.53125 75.777344 146.484375 68.730469 146.484375 60.007812 C 146.484375 51.285156 153.53125 44.238281 162.253906 44.238281 Z M 96.242188 58.328125 C 96.578125 58.328125 96.996094 58.328125 97.332031 58.414062 C 105.550781 59 112.011719 65.792969 112.011719 74.183594 C 112.011719 82.90625 104.882812 89.949219 96.242188 89.949219 C 87.601562 89.949219 80.472656 82.820312 80.472656 74.183594 C 80.472656 65.542969 87.519531 58.328125 96.242188 58.328125 Z M 96.242188 58.328125 "/><path style=" stroke:none;fill-rule:nonzero;fill:#b0a9d3;fill-opacity:1;" d="M 65.710938 280.6875 L 76.277344 343.175781 C 76.613281 343.425781 76.949219 343.679688 77.371094 343.761719 C 88.441406 348.460938 98.84375 343.34375 107.902344 341.246094 C 128.871094 336.128906 274.3125 301.488281 295.199219 296.457031 L 294.023438 287.902344 L 278.253906 201.84375 C 259.132812 199.410156 238.917969 201.507812 220.128906 206.457031 C 186.324219 215.261719 155.375 232.375 123.082031 245.792969 C 110.753906 250.910156 98.085938 255.609375 86.597656 262.484375 C 78.710938 267.351562 71.246094 273.304688 65.710938 280.6875 Z M 65.710938 280.6875 "/><path style=" stroke:none;fill-rule:nonzero;fill:#dcd9ea;fill-opacity:1;" d="M 305.347656 263.828125 C 285.972656 152.019531 292.429688 189.09375 282.617188 131.972656 L 281.191406 123.753906 L 266.511719 38.785156 C 264.917969 29.726562 256.195312 23.6875 247.136719 25.367188 C 165.691406 40.546875 193.789062 35.261719 187.667969 36.4375 L 187.582031 36.519531 C 135.746094 46.167969 31.070312 65.625 29.390625 65.960938 C 44.070312 154.957031 39.539062 127.445312 40.464844 132.894531 C 73.257812 329.585938 70.574219 320.78125 73.34375 325.898438 C 77.539062 333.949219 87.015625 338.730469 96.492188 336.296875 C 301.742188 284.125 290.5 287.398438 293.519531 286.054688 C 301.992188 282.113281 306.855469 273.054688 305.347656 263.828125 Z M 96.242188 89.867188 C 87.519531 89.867188 80.472656 82.738281 80.472656 74.097656 C 80.472656 65.457031 87.601562 58.328125 96.242188 58.328125 C 104.882812 58.328125 112.011719 65.375 112.011719 74.097656 C 112.011719 82.820312 104.964844 89.867188 96.242188 89.867188 Z M 162.253906 75.859375 C 153.53125 75.859375 146.484375 68.8125 146.484375 60.089844 C 146.484375 51.367188 153.53125 44.320312 162.253906 44.320312 C 170.976562 44.320312 178.023438 51.367188 178.023438 60.089844 C 178.023438 68.8125 170.976562 75.859375 162.253906 75.859375 Z M 231.621094 64.285156 C 222.894531 64.285156 215.851562 57.15625 215.851562 48.515625 C 215.851562 39.792969 222.894531 32.746094 231.621094 32.746094 C 240.34375 32.746094 247.386719 39.875 247.386719 48.515625 C 247.386719 57.238281 240.34375 64.285156 231.621094 64.285156 Z M 231.621094 64.285156 "/><path style=" stroke:none;fill-rule:nonzero;fill:#c6bfe0;fill-opacity:1;" d="M 294.023438 198.234375 L 273.558594 208.21875 C 261.144531 213.921875 259.96875 215.429688 256.53125 215.429688 C 251.5 215.429688 247.554688 211.070312 248.226562 205.867188 C 248.3125 205.28125 253.761719 161.332031 253.425781 164.097656 C 253.679688 161.917969 254.683594 159.988281 256.277344 158.5625 C 258.292969 155.207031 278.171875 127.863281 281.273438 123.667969 Z M 294.023438 198.234375 "/><path style=" stroke:none;fill-rule:nonzero;fill:#f8c73b;fill-opacity:1;" d="M 96.410156 74.183594 C 93.222656 73.929688 90.875 71.164062 91.125 68.058594 C 91.542969 62.273438 91.878906 56.566406 90.875 51.367188 C 89.867188 46.082031 87.433594 41.804688 84.078125 39.375 C 79.800781 36.1875 73.257812 36.605469 68.8125 40.210938 C 66.382812 42.226562 62.773438 41.890625 60.761719 39.457031 C 58.75 37.023438 59.085938 33.417969 61.515625 31.40625 C 69.988281 24.359375 82.316406 23.855469 90.875 30.148438 C 96.492188 34.257812 100.519531 41.050781 102.113281 49.101562 C 103.457031 55.730469 103.121094 62.273438 102.53125 68.898438 C 102.363281 72 99.597656 74.351562 96.410156 74.183594 Z M 96.410156 74.183594 "/><path style=" stroke:none;fill-rule:nonzero;fill:#f8c73b;fill-opacity:1;" d="M 162.421875 62.105469 C 159.234375 61.851562 156.886719 59.085938 157.136719 55.980469 C 157.554688 50.195312 157.890625 44.574219 156.886719 39.289062 C 155.792969 34.003906 153.445312 29.8125 150.089844 27.296875 C 145.8125 24.109375 139.269531 24.527344 134.824219 28.132812 C 132.394531 30.148438 128.785156 29.8125 126.773438 27.378906 C 124.761719 24.945312 125.09375 21.339844 127.527344 19.328125 C 136 12.28125 148.328125 11.777344 156.886719 18.070312 C 162.503906 22.179688 166.53125 28.972656 168.125 37.023438 C 169.464844 43.734375 169.046875 50.445312 168.542969 56.820312 C 168.375 60.007812 165.691406 62.355469 162.421875 62.105469 Z M 162.421875 62.105469 "/><path style=" stroke:none;fill-rule:nonzero;fill:#f8c73b;fill-opacity:1;" d="M 230.195312 50.359375 C 227.007812 50.109375 224.65625 47.339844 224.910156 44.238281 C 225.328125 38.449219 225.664062 32.746094 224.65625 27.546875 C 223.652344 22.261719 221.21875 17.984375 217.863281 15.550781 C 213.585938 12.363281 207.042969 12.785156 202.597656 16.390625 C 200.164062 18.402344 196.558594 18.070312 194.546875 15.636719 C 192.53125 13.203125 192.867188 9.597656 195.300781 7.582031 C 203.773438 0.539062 216.101562 0.0351562 224.65625 6.324219 C 230.277344 10.4375 234.304688 17.230469 235.898438 25.28125 C 237.238281 31.90625 236.902344 38.449219 236.316406 45.078125 C 236.066406 48.265625 233.378906 50.613281 230.195312 50.359375 Z M 230.195312 50.359375 "/><path style=" stroke:none;fill-rule:nonzero;fill:#feeeb7;fill-opacity:1;" d="M 217.277344 148.246094 L 252.085938 141.785156 C 257.539062 140.78125 261.144531 135.582031 260.136719 130.128906 L 255.019531 102.617188 C 254.015625 97.164062 248.8125 93.558594 243.363281 94.5625 L 208.554688 101.023438 C 203.101562 102.03125 199.496094 107.230469 200.5 112.683594 L 205.617188 140.195312 C 206.625 145.644531 211.824219 149.253906 217.277344 148.246094 Z M 217.277344 148.246094 "/><path style=" stroke:none;fill-rule:nonzero;fill:#6dd356;fill-opacity:1;" d="M 149.585938 161.582031 L 184.398438 155.125 C 189.847656 154.117188 193.457031 148.917969 192.449219 143.464844 L 187.332031 115.953125 C 186.324219 110.5 181.125 106.894531 175.671875 107.902344 L 140.863281 114.359375 C 135.414062 115.367188 131.804688 120.566406 132.8125 126.019531 L 137.929688 153.53125 C 138.933594 158.980469 144.136719 162.589844 149.585938 161.582031 Z M 149.585938 161.582031 "/><path style=" stroke:none;fill-rule:nonzero;fill:#feeeb7;fill-opacity:1;" d="M 80.890625 174.332031 L 115.703125 167.871094 C 121.152344 166.867188 124.761719 161.664062 123.753906 156.214844 L 118.636719 128.703125 C 117.628906 123.25 112.429688 119.644531 106.976562 120.648438 L 72.167969 127.109375 C 66.71875 128.113281 63.109375 133.316406 64.117188 138.765625 L 69.234375 166.277344 C 70.238281 171.730469 75.441406 175.335938 80.890625 174.332031 Z M 80.890625 174.332031 "/><path style=" stroke:none;fill-rule:nonzero;fill:#6dd356;fill-opacity:1;" d="M 267.601562 221.21875 L 232.878906 228.011719 C 227.507812 229.101562 222.140625 225.582031 221.050781 220.042969 L 215.683594 192.699219 C 214.59375 187.25 218.113281 181.964844 223.652344 180.875 L 251.917969 175.335938 L 258.292969 174.078125 C 263.746094 172.988281 269.027344 176.511719 270.117188 182.046875 C 270.203125 182.636719 275.824219 211.152344 275.488281 209.390625 C 276.578125 214.84375 273.054688 220.210938 267.601562 221.21875 Z M 267.601562 221.21875 "/><path style=" stroke:none;fill-rule:nonzero;fill:#4aba2f;fill-opacity:1;" d="M 275.152344 207.460938 L 273.558594 208.300781 C 261.144531 214.003906 259.96875 215.515625 256.53125 215.515625 C 251.5 215.515625 247.554688 211.152344 248.226562 205.953125 C 248.3125 205.367188 252.253906 173.910156 252 175.421875 L 258.375 174.164062 C 263.828125 173.074219 269.113281 176.597656 270.203125 182.132812 Z M 275.152344 207.460938 "/><path style=" stroke:none;fill-rule:nonzero;fill:#feeeb7;fill-opacity:1;" d="M 165.355469 242.105469 L 200.082031 235.308594 C 205.535156 234.21875 209.054688 228.933594 207.964844 223.566406 L 202.597656 196.140625 C 201.507812 190.6875 196.222656 187.164062 190.855469 188.253906 L 156.128906 195.050781 C 150.679688 196.140625 147.15625 201.421875 148.246094 206.792969 L 153.613281 234.21875 C 154.621094 239.671875 159.90625 243.195312 165.355469 242.105469 Z M 165.355469 242.105469 "/><path style=" stroke:none;fill-rule:nonzero;fill:#feeeb7;fill-opacity:1;" d="M 96.746094 255.691406 L 131.46875 248.898438 C 136.921875 247.808594 140.445312 242.523438 139.355469 237.15625 L 133.988281 209.726562 C 132.894531 204.273438 127.613281 200.753906 122.242188 201.84375 L 87.519531 208.636719 C 82.066406 209.726562 78.542969 215.011719 79.632812 220.378906 L 85.003906 247.808594 C 86.09375 253.175781 91.292969 256.699219 96.746094 255.691406 Z M 96.746094 255.691406 "/><path style=" stroke:none;fill-rule:nonzero;fill:#f56357;fill-opacity:1;" d="M 362.300781 98.171875 C 293.183594 194.882812 297.296875 189.429688 296.203125 189.765625 C 295.367188 189.933594 292.429688 190.183594 289.410156 189.679688 C 280.601562 187.917969 274.5625 182.636719 268.023438 176.261719 C 265.085938 173.324219 262.066406 170.136719 260.722656 166.195312 C 259.96875 163.847656 259.71875 163.929688 261.226562 161.832031 L 325.5625 71.917969 C 330.761719 64.621094 340.742188 63.027344 347.957031 68.226562 L 358.523438 75.777344 C 365.824219 80.890625 367.5 90.957031 362.300781 98.171875 Z M 362.300781 98.171875 "/><path style=" stroke:none;fill-rule:nonzero;fill:#feeeb7;fill-opacity:1;" d="M 295.703125 191.273438 C 295.113281 191.527344 269.449219 204.109375 271.042969 203.269531 L 257.871094 209.644531 C 255.777344 210.648438 253.679688 209.140625 253.929688 206.792969 C 254.015625 206.203125 259.214844 164.433594 259.132812 165.019531 C 259.464844 162.671875 261.984375 161.332031 263.828125 162.671875 L 296.457031 185.988281 C 298.21875 187.332031 297.796875 190.183594 295.703125 191.273438 Z M 295.703125 191.273438 "/><path style=" stroke:none;fill-rule:nonzero;fill:#f8c73b;fill-opacity:1;" d="M 362.300781 98.171875 L 351.394531 113.351562 L 314.65625 87.015625 L 325.5625 71.832031 C 330.761719 64.535156 340.742188 62.941406 347.957031 68.144531 L 358.523438 75.691406 C 365.824219 80.890625 367.5 90.957031 362.300781 98.171875 Z M 362.300781 98.171875 "/><path style=" stroke:none;fill-rule:nonzero;fill:#727083;fill-opacity:1;" d="M 271.042969 203.269531 L 257.871094 209.644531 C 255.777344 210.648438 253.679688 209.140625 253.929688 206.792969 L 255.777344 192.195312 Z M 271.042969 203.269531 "/><path style=" stroke:none;fill-rule:nonzero;fill:#6f6ecf;fill-opacity:1;" d="M 312.644531 89.949219 L 316.671875 84.332031 L 353.410156 110.667969 L 349.382812 116.289062 Z M 312.644531 89.949219 "/><path style=" stroke:none;fill-rule:nonzero;fill:#e11a17;fill-opacity:1;" d="M 312.894531 112.347656 C 314.488281 113.519531 314.824219 115.703125 313.734375 117.296875 L 294.359375 144.386719 C 293.269531 145.980469 291.089844 146.316406 289.496094 145.226562 C 287.902344 144.136719 287.566406 141.953125 288.65625 140.359375 L 308.03125 113.269531 C 309.207031 111.589844 311.386719 111.253906 312.894531 112.347656 Z M 312.894531 112.347656 "/><path style=" stroke:none;fill-rule:nonzero;fill:#e11a17;fill-opacity:1;" d="M 320.445312 129.121094 C 322.039062 130.296875 322.375 132.476562 321.285156 134.070312 L 312.8125 145.898438 C 311.722656 147.492188 309.539062 147.828125 307.949219 146.734375 C 306.355469 145.644531 306.019531 143.464844 307.109375 141.871094 L 315.582031 130.042969 C 316.753906 128.367188 318.851562 128.03125 320.445312 129.121094 Z M 320.445312 129.121094 "/><path style=" stroke:none;fill-rule:nonzero;fill:#f6f3fe;fill-opacity:1;" d="M 159.738281 144.972656 C 159.402344 144.804688 154.957031 140.277344 151.601562 138.097656 C 150.007812 137.089844 149.585938 134.992188 150.59375 133.398438 C 151.601562 131.804688 153.699219 131.386719 155.292969 132.394531 C 157.976562 134.070312 160.40625 136.082031 162.503906 138.433594 C 162.925781 137.675781 163.09375 137.425781 170.304688 124.507812 C 171.226562 122.832031 173.324219 122.328125 175.003906 123.25 C 176.679688 124.171875 177.265625 126.269531 176.261719 127.949219 C 168.460938 141.871094 168.964844 140.863281 168.542969 141.703125 C 167.871094 143.046875 166.867188 145.394531 164.351562 145.980469 C 162.839844 146.234375 161.164062 145.898438 159.738281 144.972656 Z M 159.738281 144.972656 "/><path style=" stroke:none;fill-rule:nonzero;fill:#ffffff;fill-opacity:0.32;" d="M 129.121094 275.65625 C 137.339844 277.582031 144.050781 285.214844 144.554688 293.605469 C 144.890625 300.0625 141.535156 306.519531 136.167969 310.042969 C 125.261719 317.339844 106.308594 305.429688 103.957031 300.398438 C 101.273438 294.695312 104.125 286.976562 108.070312 282.617188 C 113.183594 276.914062 121.574219 273.894531 129.121094 275.65625 Z M 129.121094 275.65625 "/><path style=" stroke:none;fill-rule:nonzero;fill:#ffffff;fill-opacity:0.32;" d="M 155.375 260.472656 C 159.484375 261.394531 162.839844 265.171875 163.007812 269.449219 C 163.175781 272.636719 161.5 275.90625 158.8125 277.667969 C 153.363281 281.273438 143.96875 275.320312 142.792969 272.886719 C 141.453125 270.035156 142.878906 266.261719 144.804688 264.078125 C 147.40625 261.058594 151.601562 259.550781 155.375 260.472656 Z M 155.375 260.472656 "/><path style=" stroke:none;fill-rule:nonzero;fill:#ffffff;fill-opacity:0.32;" d="M 341.664062 82.820312 C 344.183594 77.621094 353.15625 76.613281 355.925781 84.917969 C 356.597656 87.015625 356.765625 89.363281 355.925781 91.378906 C 351.984375 100.519531 337.472656 91.292969 341.664062 82.820312 Z M 341.664062 82.820312 "/></g></svg>