<svg xmlns="http://www.w3.org/2000/svg" xmlns:xlink="http://www.w3.org/1999/xlink" width="500" zoomAndPan="magnify" viewBox="0 0 375 374.999991" height="500" preserveAspectRatio="xMidYMid meet" version="1.2"><g id="8612bc2dbe"><path style=" stroke:none;fill-rule:nonzero;fill:#ffc05a;fill-opacity:1;" d="M 187.5 0 C 291.054688 0 375 83.945312 375 187.5 C 375 291.054688 291.054688 375 187.5 375 C 83.945312 375 0 291.054688 0 187.5 C 0 83.945312 83.945312 0 187.5 0 Z M 187.5 0 "/><path style=" stroke:none;fill-rule:nonzero;fill:#53b79a;fill-opacity:1;" d="M 347.222656 187.5 L 201.386719 187.5 C 201.386719 179.824219 195.175781 173.613281 187.5 173.613281 L 187.5 27.777344 C 275.714844 27.777344 347.222656 99.285156 347.222656 187.5 Z M 274.535156 170.140625 L 313.738281 130.949219 C 312.375 126.488281 308.988281 117.488281 300.664062 109.171875 C 297.375 105.878906 290.148438 99.535156 278.890625 96.109375 C 275.464844 84.851562 269.121094 77.625 265.828125 74.335938 C 257.511719 66.011719 248.511719 62.625 244.050781 61.261719 L 204.859375 100.464844 C 209.3125 101.816406 218.316406 105.203125 226.632812 113.527344 C 229.929688 116.816406 236.273438 124.042969 239.699219 135.300781 C 250.957031 138.726562 258.183594 145.070312 261.472656 148.367188 C 269.796875 156.683594 273.183594 165.6875 274.535156 170.140625 Z M 274.535156 170.140625 "/><path style=" stroke:none;fill-rule:nonzero;fill:#c3ddda;fill-opacity:1;" d="M 300.664062 109.171875 C 297.375 105.878906 290.148438 99.535156 278.890625 96.109375 C 275.464844 84.851562 269.121094 77.625 265.828125 74.335938 C 257.511719 66.011719 248.511719 62.625 244.050781 61.261719 L 204.859375 100.464844 C 209.3125 101.816406 218.316406 105.203125 226.632812 113.527344 C 229.929688 116.816406 236.273438 124.042969 239.699219 135.300781 C 250.957031 138.726562 258.183594 145.070312 261.472656 148.367188 C 269.796875 156.683594 273.183594 165.6875 274.535156 170.140625 L 313.738281 130.949219 C 312.375 126.488281 308.988281 117.488281 300.664062 109.171875 Z M 300.664062 109.171875 "/><path style=" stroke:none;fill-rule:nonzero;fill:#fda171;fill-opacity:1;" d="M 284.613281 260.421875 C 292.152344 263.429688 301.1875 258.546875 304.800781 249.511719 C 308.421875 240.46875 305.246094 230.699219 297.710938 227.683594 C 290.179688 224.675781 281.136719 229.558594 277.523438 238.59375 C 273.910156 247.636719 277.085938 257.402344 284.613281 260.421875 Z M 347.222656 187.5 C 347.222656 275.714844 275.714844 347.222656 187.5 347.222656 L 187.5 312.496094 C 193.285156 303.242188 199.074219 293.980469 204.859375 284.71875 C 201.183594 284.71875 195.777344 284.71875 187.5 284.71875 L 187.5 201.386719 C 190.253906 201.386719 192.816406 200.59375 194.96875 199.210938 C 198.832031 196.746094 201.386719 192.421875 201.386719 187.5 Z M 347.222656 187.5 "/><path style=" stroke:none;fill-rule:nonzero;fill:#655f68;fill-opacity:1;" d="M 297.710938 227.683594 C 305.246094 230.699219 308.421875 240.46875 304.800781 249.511719 C 301.1875 258.546875 292.152344 263.429688 284.613281 260.421875 C 277.085938 257.402344 273.910156 247.636719 277.523438 238.59375 C 281.136719 229.558594 290.179688 224.675781 297.710938 227.683594 Z M 297.710938 227.683594 "/><path style=" stroke:none;fill-rule:nonzero;fill:#f48ca7;fill-opacity:1;" d="M 124 87.972656 C 128.875 84.867188 133.761719 81.75 138.636719 78.636719 C 128.777344 73.941406 118.917969 69.253906 109.058594 64.558594 C 109.164062 75.476562 109.265625 86.394531 109.371094 97.3125 C 114.246094 94.203125 119.121094 91.089844 124 87.972656 Z M 180.03125 175.789062 C 176.167969 178.253906 173.613281 182.578125 173.613281 187.5 C 173.613281 191.339844 175.160156 194.8125 177.679688 197.320312 L 74.5625 300.4375 C 45.648438 271.542969 27.777344 231.609375 27.777344 187.5 C 27.777344 143.390625 45.648438 103.457031 74.5625 74.5625 C 103.457031 45.648438 143.390625 27.777344 187.5 27.777344 L 187.5 173.613281 C 184.746094 173.613281 182.183594 174.40625 180.03125 175.789062 Z M 180.03125 175.789062 "/><path style=" stroke:none;fill-rule:nonzero;fill:#1498b7;fill-opacity:1;" d="M 187.5 312.496094 L 187.5 347.222656 C 143.390625 347.222656 103.457031 329.351562 74.5625 300.4375 L 177.679688 197.320312 C 180.1875 199.839844 183.660156 201.386719 187.5 201.386719 L 187.5 284.71875 C 182.738281 284.71875 177.019531 284.71875 170.140625 284.71875 C 175.925781 293.980469 181.714844 303.242188 187.5 312.496094 Z M 187.5 312.496094 "/><path style=" stroke:none;fill-rule:nonzero;fill:#d6eae8;fill-opacity:1;" d="M 62.503906 184.476562 L 32.800781 184.476562 C 31.128906 184.476562 29.777344 185.828125 29.777344 187.5 C 29.777344 189.171875 31.128906 190.523438 32.800781 190.523438 L 62.503906 190.523438 C 64.171875 190.523438 65.527344 189.171875 65.527344 187.5 C 65.527344 185.828125 64.171875 184.476562 62.503906 184.476562 Z M 62.503906 184.476562 "/><path style=" stroke:none;fill-rule:nonzero;fill:#d6eae8;fill-opacity:1;" d="M 80.878906 76.601562 C 79.699219 75.421875 77.785156 75.421875 76.605469 76.601562 C 75.421875 77.785156 75.421875 79.699219 76.605469 80.878906 L 96.972656 101.25 C 97.5625 101.839844 98.335938 102.132812 99.109375 102.132812 C 99.886719 102.132812 100.660156 101.839844 101.25 101.25 C 102.429688 100.066406 102.429688 98.152344 101.25 96.972656 Z M 80.878906 76.601562 "/><path style=" stroke:none;fill-rule:nonzero;fill:#655f68;fill-opacity:1;" d="M 287.128906 254.136719 C 285.574219 253.515625 283.816406 254.269531 283.199219 255.820312 L 266.535156 297.484375 C 265.914062 299.035156 266.667969 300.796875 268.21875 301.417969 C 268.585938 301.5625 268.96875 301.632812 269.339844 301.632812 C 270.542969 301.632812 271.675781 300.914062 272.148438 299.730469 L 288.8125 258.066406 C 289.433594 256.515625 288.679688 254.753906 287.128906 254.136719 Z M 287.128906 254.136719 "/><path style=" stroke:none;fill-rule:nonzero;fill:#655f68;fill-opacity:1;" d="M 268.824219 212.878906 C 267.273438 212.257812 265.511719 213.011719 264.894531 214.5625 L 257.257812 233.65625 C 256.101562 236.546875 253.886719 238.816406 251.023438 240.046875 C 249.109375 240.863281 247.0625 241.140625 245.050781 240.902344 L 256.871094 211.351562 C 257.492188 209.800781 256.738281 208.039062 255.183594 207.417969 C 253.636719 206.800781 251.875 207.554688 251.253906 209.105469 L 239.433594 238.660156 C 236.523438 236.496094 234.753906 233.074219 234.753906 229.316406 C 234.753906 227.839844 235.035156 226.386719 235.59375 224.988281 L 243.230469 205.890625 C 243.851562 204.339844 243.097656 202.582031 241.546875 201.960938 C 239.996094 201.339844 238.234375 202.09375 237.617188 203.644531 L 229.980469 222.742188 C 229.132812 224.851562 228.703125 227.066406 228.703125 229.316406 C 228.703125 235.574219 231.9375 241.214844 237.136719 244.402344 L 222.886719 280.03125 C 222.269531 281.582031 223.019531 283.339844 224.574219 283.960938 C 224.941406 284.109375 225.320312 284.175781 225.695312 284.175781 C 226.894531 284.175781 228.03125 283.457031 228.503906 282.273438 L 242.753906 246.644531 C 243.96875 246.902344 245.199219 247.046875 246.429688 247.046875 C 248.796875 247.046875 251.164062 246.566406 253.40625 245.605469 C 257.757812 243.742188 261.121094 240.292969 262.875 235.898438 L 270.507812 216.808594 C 271.128906 215.257812 270.375 213.496094 268.824219 212.878906 Z M 268.824219 212.878906 "/><path style=" stroke:none;fill-rule:nonzero;fill:#acccc6;fill-opacity:1;" d="M 241.875 136.148438 C 242.648438 136.148438 243.421875 135.855469 244.015625 135.265625 L 279.828125 99.449219 C 281.007812 98.269531 281.007812 96.355469 279.828125 95.171875 C 278.644531 93.992188 276.730469 93.992188 275.550781 95.171875 L 239.738281 130.988281 C 238.554688 132.167969 238.554688 134.082031 239.738281 135.265625 C 240.328125 135.855469 241.101562 136.148438 241.875 136.148438 Z M 241.875 136.148438 "/><path style=" stroke:none;fill-rule:nonzero;fill:#087d99;fill-opacity:1;" d="M 148.148438 309.472656 L 131.453125 309.472656 L 150.46875 286.65625 C 151.222656 285.753906 151.382812 284.5 150.886719 283.4375 C 150.386719 282.375 149.320312 281.695312 148.148438 281.695312 L 124.996094 281.695312 C 123.328125 281.695312 121.972656 283.050781 121.972656 284.71875 C 121.972656 286.390625 123.328125 287.746094 124.996094 287.746094 L 141.691406 287.746094 L 122.675781 310.5625 C 121.921875 311.460938 121.761719 312.71875 122.257812 313.78125 C 122.757812 314.84375 123.824219 315.523438 124.996094 315.523438 L 148.148438 315.523438 C 149.816406 315.523438 151.171875 314.167969 151.171875 312.496094 C 151.171875 310.828125 149.816406 309.472656 148.148438 309.472656 Z M 148.148438 309.472656 "/><path style=" stroke:none;fill-rule:nonzero;fill:#087d99;fill-opacity:1;" d="M 173.613281 267.808594 L 156.917969 267.808594 L 175.933594 244.992188 C 176.683594 244.089844 176.847656 242.835938 176.351562 241.773438 C 175.851562 240.710938 174.785156 240.03125 173.609375 240.03125 L 150.460938 240.03125 C 148.789062 240.03125 147.4375 241.382812 147.4375 243.054688 C 147.4375 244.722656 148.789062 246.078125 150.460938 246.078125 L 167.152344 246.078125 L 148.136719 268.894531 C 147.386719 269.796875 147.222656 271.050781 147.722656 272.113281 C 148.21875 273.175781 149.285156 273.855469 150.460938 273.855469 L 173.613281 273.855469 C 175.28125 273.855469 176.636719 272.5 176.636719 270.832031 C 176.636719 269.160156 175.28125 267.808594 173.613281 267.808594 Z M 173.613281 267.808594 "/><path style=" stroke:none;fill-rule:nonzero;fill:#d6eae8;fill-opacity:1;" d="M 187.5 198.363281 C 185.828125 198.363281 184.476562 199.71875 184.476562 201.386719 L 184.476562 284.71875 C 184.476562 286.390625 185.828125 287.746094 187.5 287.746094 C 189.171875 287.746094 190.523438 286.390625 190.523438 284.71875 L 190.523438 201.386719 C 190.523438 199.71875 189.171875 198.363281 187.5 198.363281 Z M 187.5 198.363281 "/><path style=" stroke:none;fill-rule:nonzero;fill:#d6eae8;fill-opacity:1;" d="M 126.550781 86.347656 C 125.652344 84.9375 123.78125 84.523438 122.375 85.421875 C 120.964844 86.320312 120.550781 88.191406 121.449219 89.597656 L 177.480469 177.414062 C 178.058594 178.320312 179.035156 178.8125 180.035156 178.8125 C 180.589844 178.8125 181.152344 178.660156 181.65625 178.335938 C 183.0625 177.4375 183.476562 175.570312 182.578125 174.160156 Z M 126.550781 86.347656 "/><path style=" stroke:none;fill-rule:nonzero;fill:#d6eae8;fill-opacity:1;" d="M 197.519531 197.585938 C 196.621094 196.175781 194.753906 195.761719 193.34375 196.660156 C 191.933594 197.558594 191.519531 199.429688 192.421875 200.839844 L 211.882812 231.335938 C 212.457031 232.242188 213.433594 232.734375 214.433594 232.734375 C 214.988281 232.734375 215.554688 232.582031 216.058594 232.261719 C 217.464844 231.363281 217.878906 229.492188 216.980469 228.082031 Z M 197.519531 197.585938 "/><path style=" stroke:none;fill-rule:nonzero;fill:#e15c63;fill-opacity:1;" d="M 204.859375 284.71875 C 199.074219 293.980469 193.285156 303.242188 187.5 312.496094 C 181.714844 303.242188 175.925781 293.980469 170.140625 284.71875 C 177.019531 284.71875 182.738281 284.71875 187.5 284.71875 C 195.777344 284.71875 201.183594 284.71875 204.859375 284.71875 Z M 204.859375 284.71875 "/><path style=" stroke:none;fill-rule:nonzero;fill:#e15c63;fill-opacity:1;" d="M 138.636719 78.636719 C 133.761719 81.75 128.875 84.867188 124 87.972656 C 119.121094 91.089844 114.246094 94.203125 109.371094 97.3125 C 109.265625 86.394531 109.164062 75.476562 109.058594 64.558594 C 118.917969 69.253906 128.777344 73.941406 138.636719 78.636719 Z M 138.636719 78.636719 "/><path style=" stroke:none;fill-rule:nonzero;fill:#e15c63;fill-opacity:1;" d="M 187.5 173.613281 C 195.175781 173.613281 201.386719 179.824219 201.386719 187.5 C 201.386719 192.421875 198.832031 196.746094 194.96875 199.210938 C 192.816406 200.59375 190.253906 201.386719 187.5 201.386719 C 183.660156 201.386719 180.1875 199.839844 177.679688 197.320312 C 175.160156 194.8125 173.613281 191.339844 173.613281 187.5 C 173.613281 182.578125 176.167969 178.253906 180.03125 175.789062 C 182.183594 174.40625 184.746094 173.613281 187.5 173.613281 Z M 187.5 173.613281 "/></g></svg>