<svg xmlns="http://www.w3.org/2000/svg" xmlns:xlink="http://www.w3.org/1999/xlink" width="500" zoomAndPan="magnify" viewBox="0 0 375 374.999991" height="500" preserveAspectRatio="xMidYMid meet" version="1.2"><defs><clipPath id="61951ed480"><path d="M 226.601562 95.371094 L 375 95.371094 L 375 310 L 226.601562 310 Z M 226.601562 95.371094 "/></clipPath><clipPath id="5d5bff232f"><path d="M 187.507812 0 C 291.0625 0 375.015625 83.949219 375.015625 187.507812 C 375.015625 291.0625 291.0625 375.015625 187.507812 375.015625 C 83.949219 375.015625 0 291.0625 0 187.507812 C 0 83.949219 83.949219 0 187.507812 0 Z M 187.507812 0 "/></clipPath><clipPath id="b8be68e3b6"><path d="M 261.699219 92.320312 L 375 92.320312 L 375 303.664062 L 261.699219 303.664062 Z M 261.699219 92.320312 "/></clipPath><clipPath id="d857639276"><path d="M 187.507812 0 C 291.0625 0 375.015625 83.949219 375.015625 187.507812 C 375.015625 291.0625 291.0625 375.015625 187.507812 375.015625 C 83.949219 375.015625 0 291.0625 0 187.507812 C 0 83.949219 83.949219 0 187.507812 0 Z M 187.507812 0 "/></clipPath><clipPath id="b6c3e9733b"><path d="M 262.460938 95.371094 L 375 95.371094 L 375 310 L 262.460938 310 Z M 262.460938 95.371094 "/></clipPath><clipPath id="a5fe2a51f1"><path d="M 187.507812 0 C 291.0625 0 375.015625 83.949219 375.015625 187.507812 C 375.015625 291.0625 291.0625 375.015625 187.507812 375.015625 C 83.949219 375.015625 0 291.0625 0 187.507812 C 0 83.949219 83.949219 0 187.507812 0 Z M 187.507812 0 "/></clipPath><clipPath id="8c8fcff405"><path d="M 286.113281 107.578125 L 375 107.578125 L 375 325.789062 L 286.113281 325.789062 Z M 286.113281 107.578125 "/></clipPath><clipPath id="b0eb8c8829"><path d="M 187.507812 0 C 291.0625 0 375.015625 83.949219 375.015625 187.507812 C 375.015625 291.0625 291.0625 375.015625 187.507812 375.015625 C 83.949219 375.015625 0 291.0625 0 187.507812 C 0 83.949219 83.949219 0 187.507812 0 Z M 187.507812 0 "/></clipPath><clipPath id="18ae2b94f9"><path d="M 290 117.496094 L 375 117.496094 L 375 348.675781 L 290 348.675781 Z M 290 117.496094 "/></clipPath><clipPath id="7e424a1806"><path d="M 187.507812 0 C 291.0625 0 375.015625 83.949219 375.015625 187.507812 C 375.015625 291.0625 291.0625 375.015625 187.507812 375.015625 C 83.949219 375.015625 0 291.0625 0 187.507812 C 0 83.949219 83.949219 0 187.507812 0 Z M 187.507812 0 "/></clipPath><clipPath id="ba6ea46f0c"><path d="M 290 140 L 375 140 L 375 350 L 290 350 Z M 290 140 "/></clipPath><clipPath id="ea9cc552f0"><path d="M 187.507812 0 C 291.0625 0 375.015625 83.949219 375.015625 187.507812 C 375.015625 291.0625 291.0625 375.015625 187.507812 375.015625 C 83.949219 375.015625 0 291.0625 0 187.507812 C 0 83.949219 83.949219 0 187.507812 0 Z M 187.507812 0 "/></clipPath><clipPath id="903b0615d5"><path d="M 153 92.320312 L 362.410156 92.320312 L 362.410156 303.664062 L 153 303.664062 Z M 153 92.320312 "/></clipPath><clipPath id="4d7f4939be"><path d="M 187.507812 0 C 291.0625 0 375.015625 83.949219 375.015625 187.507812 C 375.015625 291.0625 291.0625 375.015625 187.507812 375.015625 C 83.949219 375.015625 0 291.0625 0 187.507812 C 0 83.949219 83.949219 0 187.507812 0 Z M 187.507812 0 "/></clipPath><clipPath id="01e0363efc"><path d="M 154.121094 95.371094 L 362.410156 95.371094 L 362.410156 310 L 154.121094 310 Z M 154.121094 95.371094 "/></clipPath><clipPath id="c205265876"><path d="M 187.507812 0 C 291.0625 0 375.015625 83.949219 375.015625 187.507812 C 375.015625 291.0625 291.0625 375.015625 187.507812 375.015625 C 83.949219 375.015625 0 291.0625 0 187.507812 C 0 83.949219 83.949219 0 187.507812 0 Z M 187.507812 0 "/></clipPath><clipPath id="94d175cfcb"><path d="M 274 241.097656 L 375 241.097656 L 375 375 L 274 375 Z M 274 241.097656 "/></clipPath><clipPath id="00b6050bbc"><path d="M 187.507812 0 C 291.0625 0 375.015625 83.949219 375.015625 187.507812 C 375.015625 291.0625 291.0625 375.015625 187.507812 375.015625 C 83.949219 375.015625 0 291.0625 0 187.507812 C 0 83.949219 83.949219 0 187.507812 0 Z M 187.507812 0 "/></clipPath><clipPath id="e49dcabfe0"><path d="M 210 245.675781 L 375 245.675781 L 375 375 L 210 375 Z M 210 245.675781 "/></clipPath><clipPath id="3ca3f25d88"><path d="M 187.507812 0 C 291.0625 0 375.015625 83.949219 375.015625 187.507812 C 375.015625 291.0625 291.0625 375.015625 187.507812 375.015625 C 83.949219 375.015625 0 291.0625 0 187.507812 C 0 83.949219 83.949219 0 187.507812 0 Z M 187.507812 0 "/></clipPath><clipPath id="399fe78f1f"><path d="M 205.238281 245 L 375 245 L 375 375 L 205.238281 375 Z M 205.238281 245 "/></clipPath><clipPath id="5870af1e8f"><path d="M 187.507812 0 C 291.0625 0 375.015625 83.949219 375.015625 187.507812 C 375.015625 291.0625 291.0625 375.015625 187.507812 375.015625 C 83.949219 375.015625 0 291.0625 0 187.507812 C 0 83.949219 83.949219 0 187.507812 0 Z M 187.507812 0 "/></clipPath><clipPath id="20dc852e3c"><path d="M 192.269531 245 L 375 245 L 375 375 L 192.269531 375 Z M 192.269531 245 "/></clipPath><clipPath id="0f28d05686"><path d="M 187.507812 0 C 291.0625 0 375.015625 83.949219 375.015625 187.507812 C 375.015625 291.0625 291.0625 375.015625 187.507812 375.015625 C 83.949219 375.015625 0 291.0625 0 187.507812 C 0 83.949219 83.949219 0 187.507812 0 Z M 187.507812 0 "/></clipPath><clipPath id="c9782938dd"><path d="M 147.253906 265 L 375 265 L 375 375 L 147.253906 375 Z M 147.253906 265 "/></clipPath><clipPath id="fe181dfca3"><path d="M 187.507812 0 C 291.0625 0 375.015625 83.949219 375.015625 187.507812 C 375.015625 291.0625 291.0625 375.015625 187.507812 375.015625 C 83.949219 375.015625 0 291.0625 0 187.507812 C 0 83.949219 83.949219 0 187.507812 0 Z M 187.507812 0 "/></clipPath><clipPath id="f063957f67"><path d="M 106.054688 268 L 356 268 L 356 375 L 106.054688 375 Z M 106.054688 268 "/></clipPath><clipPath id="c2d17af36f"><path d="M 187.507812 0 C 291.0625 0 375.015625 83.949219 375.015625 187.507812 C 375.015625 291.0625 291.0625 375.015625 187.507812 375.015625 C 83.949219 375.015625 0 291.0625 0 187.507812 C 0 83.949219 83.949219 0 187.507812 0 Z M 187.507812 0 "/></clipPath><clipPath id="536caf7445"><path d="M 189.214844 92.320312 L 375 92.320312 L 375 303.664062 L 189.214844 303.664062 Z M 189.214844 92.320312 "/></clipPath><clipPath id="c5697e7fb8"><path d="M 187.507812 0 C 291.0625 0 375.015625 83.949219 375.015625 187.507812 C 375.015625 291.0625 291.0625 375.015625 187.507812 375.015625 C 83.949219 375.015625 0 291.0625 0 187.507812 C 0 83.949219 83.949219 0 187.507812 0 Z M 187.507812 0 "/></clipPath><clipPath id="9cc2e520c4"><path d="M 285.351562 230 L 375 230 L 375 375 L 285.351562 375 Z M 285.351562 230 "/></clipPath><clipPath id="19fb5fabc7"><path d="M 187.507812 0 C 291.0625 0 375.015625 83.949219 375.015625 187.507812 C 375.015625 291.0625 291.0625 375.015625 187.507812 375.015625 C 83.949219 375.015625 0 291.0625 0 187.507812 C 0 83.949219 83.949219 0 187.507812 0 Z M 187.507812 0 "/></clipPath><clipPath id="f7920a8867"><path d="M 190 95.371094 L 375 95.371094 L 375 310 L 190 310 Z M 190 95.371094 "/></clipPath><clipPath id="da91f95d1f"><path d="M 187.507812 0 C 291.0625 0 375.015625 83.949219 375.015625 187.507812 C 375.015625 291.0625 291.0625 375.015625 187.507812 375.015625 C 83.949219 375.015625 0 291.0625 0 187.507812 C 0 83.949219 83.949219 0 187.507812 0 Z M 187.507812 0 "/></clipPath><clipPath id="e63574a340"><path d="M 225.078125 92.320312 L 375 92.320312 L 375 303.664062 L 225.078125 303.664062 Z M 225.078125 92.320312 "/></clipPath><clipPath id="41032ddf52"><path d="M 187.507812 0 C 291.0625 0 375.015625 83.949219 375.015625 187.507812 C 375.015625 291.0625 291.0625 375.015625 187.507812 375.015625 C 83.949219 375.015625 0 291.0625 0 187.507812 C 0 83.949219 83.949219 0 187.507812 0 Z M 187.507812 0 "/></clipPath><clipPath id="f7410e9b9e"><path d="M 290 141.148438 L 375 141.148438 L 375 375 L 290 375 Z M 290 141.148438 "/></clipPath><clipPath id="d843a3812e"><path d="M 187.507812 0 C 291.0625 0 375.015625 83.949219 375.015625 187.507812 C 375.015625 291.0625 291.0625 375.015625 187.507812 375.015625 C 83.949219 375.015625 0 291.0625 0 187.507812 C 0 83.949219 83.949219 0 187.507812 0 Z M 187.507812 0 "/></clipPath><clipPath id="9772332acc"><path d="M 84.691406 91 L 290.691406 91 L 290.691406 283.824219 L 84.691406 283.824219 Z M 84.691406 91 "/></clipPath><clipPath id="a5b83e1553"><path d="M 187.507812 0 C 291.0625 0 375.015625 83.949219 375.015625 187.507812 C 375.015625 291.0625 291.0625 375.015625 187.507812 375.015625 C 83.949219 375.015625 0 291.0625 0 187.507812 C 0 83.949219 83.949219 0 187.507812 0 Z M 187.507812 0 "/></clipPath></defs><g id="c8f4a3c010"><path style=" stroke:none;fill-rule:evenodd;fill:#0288d1;fill-opacity:1;" d="M 187.507812 0 C 291.0625 0 375.015625 83.949219 375.015625 187.507812 C 375.015625 291.0625 291.0625 375.015625 187.507812 375.015625 C 83.949219 375.015625 0 291.0625 0 187.507812 C 0 83.949219 83.949219 0 187.507812 0 "/><g clip-rule="nonzero" clip-path="url(#61951ed480)"><g clip-rule="nonzero" clip-path="url(#5d5bff232f)"><path style=" stroke:none;fill-rule:evenodd;fill:#01579b;fill-opacity:1;" d="M 226.726562 95.402344 L 434.71875 303.398438 L 434.71875 309.964844 L 226.726562 101.96875 L 226.726562 95.402344 "/></g></g><g clip-rule="nonzero" clip-path="url(#b8be68e3b6)"><g clip-rule="nonzero" clip-path="url(#d857639276)"><path style=" stroke:none;fill-rule:evenodd;fill:#01579b;fill-opacity:1;" d="M 261.957031 92.746094 L 469.949219 300.742188 L 470.191406 301.0625 L 470.402344 301.40625 L 470.578125 301.773438 L 470.71875 302.152344 L 470.820312 302.554688 L 470.882812 302.972656 L 470.90625 303.398438 L 262.910156 95.402344 L 262.890625 94.976562 L 262.828125 94.5625 L 262.722656 94.160156 L 262.585938 93.777344 L 262.410156 93.414062 L 262.199219 93.066406 L 261.957031 92.746094 "/></g></g><g clip-rule="nonzero" clip-path="url(#b6c3e9733b)"><g clip-rule="nonzero" clip-path="url(#a5fe2a51f1)"><path style=" stroke:none;fill-rule:evenodd;fill:#01579b;fill-opacity:1;" d="M 262.910156 95.402344 L 470.90625 303.398438 L 470.90625 309.964844 L 262.910156 101.96875 L 262.910156 95.402344 "/></g></g><g clip-rule="nonzero" clip-path="url(#8c8fcff405)"><g clip-rule="nonzero" clip-path="url(#b0eb8c8829)"><path style=" stroke:none;fill-rule:evenodd;fill:#01579b;fill-opacity:1;" d="M 286.464844 107.679688 L 494.460938 315.671875 L 494.695312 315.964844 L 494.925781 316.265625 L 495.148438 316.570312 L 495.363281 316.878906 L 495.570312 317.191406 L 495.769531 317.515625 L 495.964844 317.839844 L 496.148438 318.171875 L 496.328125 318.503906 L 496.496094 318.84375 L 496.65625 319.191406 L 496.808594 319.539062 L 496.957031 319.890625 L 497.089844 320.246094 L 497.21875 320.613281 L 497.335938 320.976562 L 497.449219 321.34375 L 497.550781 321.71875 L 497.640625 322.09375 L 497.726562 322.472656 L 497.800781 322.855469 L 497.863281 323.242188 L 497.917969 323.632812 L 497.964844 324.023438 L 498 324.421875 L 498.023438 324.820312 L 498.039062 325.21875 L 498.042969 325.621094 L 290.050781 117.628906 L 290.046875 117.222656 L 290.03125 116.824219 L 290.007812 116.425781 L 289.96875 116.03125 L 289.921875 115.636719 L 289.871094 115.25 L 289.804688 114.863281 L 289.730469 114.476562 L 289.648438 114.101562 L 289.554688 113.722656 L 289.453125 113.351562 L 289.34375 112.980469 L 289.226562 112.617188 L 289.097656 112.253906 L 288.960938 111.898438 L 288.816406 111.542969 L 288.664062 111.195312 L 288.5 110.851562 L 288.332031 110.511719 L 288.15625 110.175781 L 287.96875 109.847656 L 287.777344 109.519531 L 287.578125 109.199219 L 287.367188 108.882812 L 287.152344 108.574219 L 286.929688 108.269531 L 286.703125 107.972656 L 286.464844 107.679688 "/></g></g><g clip-rule="nonzero" clip-path="url(#18ae2b94f9)"><g clip-rule="nonzero" clip-path="url(#7e424a1806)"><path style=" stroke:none;fill-rule:evenodd;fill:#01579b;fill-opacity:1;" d="M 290.050781 117.628906 L 498.042969 325.621094 L 498.042969 348.0625 L 290.050781 140.070312 L 290.050781 117.628906 "/></g></g><g clip-rule="nonzero" clip-path="url(#ba6ea46f0c)"><g clip-rule="nonzero" clip-path="url(#ea9cc552f0)"><path style=" stroke:none;fill-rule:evenodd;fill:#01579b;fill-opacity:1;" d="M 290.050781 140.070312 L 498.042969 348.0625 L 498.042969 349.671875 L 290.050781 141.675781 L 290.050781 140.070312 "/></g></g><g clip-rule="nonzero" clip-path="url(#903b0615d5)"><g clip-rule="nonzero" clip-path="url(#4d7f4939be)"><path style=" stroke:none;fill-rule:evenodd;fill:#01579b;fill-opacity:1;" d="M 153.132812 92.449219 L 361.125 300.445312 L 361.398438 300.742188 L 361.636719 301.0625 L 361.847656 301.40625 L 362.019531 301.773438 L 362.164062 302.152344 L 362.265625 302.554688 L 362.332031 302.972656 L 362.351562 303.398438 L 154.355469 95.402344 L 154.335938 94.976562 L 154.273438 94.5625 L 154.167969 94.160156 L 154.027344 93.777344 L 153.851562 93.414062 L 153.644531 93.066406 L 153.402344 92.746094 L 153.132812 92.449219 "/></g></g><g clip-rule="nonzero" clip-path="url(#01e0363efc)"><g clip-rule="nonzero" clip-path="url(#c205265876)"><path style=" stroke:none;fill-rule:evenodd;fill:#01579b;fill-opacity:1;" d="M 154.355469 95.402344 L 362.351562 303.398438 L 362.351562 309.964844 L 154.355469 101.96875 L 154.355469 95.402344 "/></g></g><g clip-rule="nonzero" clip-path="url(#94d175cfcb)"><g clip-rule="nonzero" clip-path="url(#00b6050bbc)"><path style=" stroke:none;fill-rule:evenodd;fill:#01579b;fill-opacity:1;" d="M 285.457031 241.113281 L 493.449219 449.109375 L 493.179688 449.371094 L 492.90625 449.628906 L 492.621094 449.878906 L 492.335938 450.121094 L 492.042969 450.359375 L 491.746094 450.585938 L 491.4375 450.808594 L 491.132812 451.023438 L 490.816406 451.230469 L 490.496094 451.429688 L 490.167969 451.625 L 489.839844 451.808594 L 489.503906 451.988281 L 489.164062 452.15625 L 488.820312 452.320312 L 488.472656 452.472656 L 488.121094 452.613281 L 487.761719 452.75 L 487.398438 452.878906 L 487.035156 453 L 486.664062 453.109375 L 486.292969 453.210938 L 485.917969 453.304688 L 485.535156 453.386719 L 485.152344 453.460938 L 484.765625 453.523438 L 484.375 453.578125 L 483.984375 453.625 L 483.589844 453.660156 L 483.191406 453.683594 L 482.789062 453.699219 L 482.386719 453.707031 L 274.394531 245.710938 L 274.796875 245.707031 L 275.195312 245.691406 L 275.597656 245.664062 L 275.988281 245.628906 L 276.382812 245.585938 L 276.773438 245.53125 L 277.15625 245.464844 L 277.542969 245.390625 L 277.921875 245.308594 L 278.300781 245.21875 L 278.667969 245.113281 L 279.042969 245.003906 L 279.40625 244.886719 L 279.765625 244.757812 L 280.125 244.621094 L 280.476562 244.476562 L 280.828125 244.324219 L 281.167969 244.164062 L 281.507812 243.992188 L 281.847656 243.8125 L 282.175781 243.628906 L 282.5 243.4375 L 282.820312 243.238281 L 283.136719 243.03125 L 283.445312 242.816406 L 283.75 242.59375 L 284.046875 242.363281 L 284.34375 242.125 L 284.628906 241.882812 L 284.910156 241.636719 L 285.183594 241.378906 L 285.457031 241.113281 "/></g></g><g clip-rule="nonzero" clip-path="url(#e49dcabfe0)"><g clip-rule="nonzero" clip-path="url(#3ca3f25d88)"><path style=" stroke:none;fill-rule:evenodd;fill:#01579b;fill-opacity:1;" d="M 274.394531 245.710938 L 482.386719 453.707031 L 418.152344 453.707031 L 210.15625 245.710938 L 274.394531 245.710938 "/></g></g><g clip-rule="nonzero" clip-path="url(#399fe78f1f)"><g clip-rule="nonzero" clip-path="url(#5870af1e8f)"><path style=" stroke:none;fill-rule:evenodd;fill:#01579b;fill-opacity:1;" d="M 210.15625 245.710938 L 418.152344 453.707031 L 417.875 453.679688 L 417.601562 453.652344 L 416.777344 453.578125 L 416.5 453.558594 L 416.226562 453.539062 L 415.40625 453.484375 L 414.855469 453.453125 L 414.035156 453.417969 L 413.761719 453.410156 L 205.765625 245.414062 L 206.039062 245.425781 L 206.316406 245.433594 L 206.589844 245.445312 L 207.6875 245.507812 L 207.960938 245.523438 L 208.234375 245.546875 L 208.507812 245.5625 L 208.78125 245.585938 L 209.058594 245.609375 L 209.332031 245.632812 L 209.609375 245.660156 L 209.882812 245.683594 L 210.15625 245.710938 "/></g></g><g clip-rule="nonzero" clip-path="url(#20dc852e3c)"><g clip-rule="nonzero" clip-path="url(#0f28d05686)"><path style=" stroke:none;fill-rule:evenodd;fill:#01579b;fill-opacity:1;" d="M 205.765625 245.414062 L 413.761719 453.410156 L 413.457031 454.109375 L 413.148438 454.808594 L 412.828125 455.503906 L 412.5 456.191406 L 412.167969 456.875 L 411.824219 457.554688 L 411.472656 458.230469 L 411.117188 458.898438 L 410.75 459.5625 L 410.375 460.21875 L 409.992188 460.875 L 409.601562 461.527344 L 409.203125 462.171875 L 408.800781 462.808594 L 408.390625 463.445312 L 407.96875 464.074219 L 407.539062 464.695312 L 407.105469 465.3125 L 406.667969 465.925781 L 406.214844 466.535156 L 405.761719 467.136719 L 405.296875 467.730469 L 404.828125 468.324219 L 404.351562 468.90625 L 403.867188 469.484375 L 403.378906 470.058594 L 402.882812 470.625 L 402.378906 471.183594 L 401.867188 471.738281 L 401.351562 472.289062 L 400.828125 472.832031 L 400.296875 473.367188 L 192.304688 265.371094 L 192.832031 264.835938 L 193.355469 264.292969 L 193.875 263.742188 L 194.382812 263.1875 L 194.886719 262.628906 L 195.382812 262.0625 L 195.875 261.492188 L 196.359375 260.910156 L 196.835938 260.328125 L 197.304688 259.738281 L 197.765625 259.140625 L 198.222656 258.539062 L 198.671875 257.933594 L 199.113281 257.320312 L 199.546875 256.703125 L 199.972656 256.078125 L 200.394531 255.449219 L 200.804688 254.8125 L 201.210938 254.175781 L 201.605469 253.53125 L 201.996094 252.882812 L 202.382812 252.226562 L 202.753906 251.570312 L 203.121094 250.902344 L 203.476562 250.234375 L 203.828125 249.558594 L 204.171875 248.878906 L 204.507812 248.195312 L 204.835938 247.507812 L 205.15625 246.816406 L 205.464844 246.117188 L 205.765625 245.414062 "/></g></g><g clip-rule="nonzero" clip-path="url(#c9782938dd)"><g clip-rule="nonzero" clip-path="url(#fe181dfca3)"><path style=" stroke:none;fill-rule:evenodd;fill:#01579b;fill-opacity:1;" d="M 192.304688 265.371094 L 400.296875 473.367188 L 399.21875 474.417969 L 398.117188 475.445312 L 396.984375 476.449219 L 395.832031 477.421875 L 394.660156 478.371094 L 393.457031 479.292969 L 392.234375 480.183594 L 390.992188 481.042969 L 389.730469 481.875 L 388.441406 482.679688 L 387.136719 483.453125 L 385.808594 484.195312 L 384.460938 484.902344 L 383.097656 485.582031 L 381.714844 486.226562 L 380.3125 486.839844 L 378.890625 487.421875 L 377.457031 487.96875 L 376.003906 488.480469 L 374.535156 488.957031 L 373.050781 489.398438 L 371.550781 489.804688 L 370.039062 490.171875 L 368.507812 490.507812 L 366.96875 490.800781 L 365.414062 491.058594 L 363.84375 491.277344 L 362.265625 491.457031 L 360.675781 491.601562 L 359.074219 491.703125 L 357.460938 491.761719 L 355.835938 491.78125 L 147.84375 283.789062 L 149.464844 283.769531 L 151.082031 283.707031 L 152.679688 283.605469 L 154.273438 283.464844 L 155.851562 283.28125 L 157.417969 283.0625 L 158.972656 282.804688 L 160.515625 282.511719 L 162.042969 282.175781 L 163.554688 281.808594 L 165.058594 281.402344 L 166.539062 280.960938 L 168.007812 280.484375 L 169.464844 279.972656 L 170.898438 279.425781 L 172.316406 278.847656 L 173.71875 278.234375 L 175.105469 277.585938 L 176.464844 276.90625 L 177.8125 276.199219 L 179.140625 275.457031 L 180.449219 274.683594 L 181.734375 273.882812 L 183 273.046875 L 184.242188 272.1875 L 185.464844 271.296875 L 186.664062 270.378906 L 187.839844 269.429688 L 188.988281 268.457031 L 190.121094 267.449219 L 191.226562 266.425781 L 192.304688 265.371094 "/></g></g><g clip-rule="nonzero" clip-path="url(#f063957f67)"><g clip-rule="nonzero" clip-path="url(#c2d17af36f)"><path style=" stroke:none;fill-rule:evenodd;fill:#01579b;fill-opacity:1;" d="M 147.84375 283.789062 L 355.835938 491.78125 L 354.214844 491.761719 L 352.601562 491.703125 L 351 491.601562 L 349.40625 491.457031 L 347.828125 491.277344 L 346.261719 491.058594 L 344.707031 490.800781 L 343.164062 490.507812 L 341.636719 490.171875 L 340.125 489.804688 L 338.625 489.398438 L 337.140625 488.957031 L 335.671875 488.480469 L 334.21875 487.96875 L 332.78125 487.421875 L 331.363281 486.839844 L 329.960938 486.226562 L 328.578125 485.582031 L 327.214844 484.902344 L 325.867188 484.195312 L 324.539062 483.453125 L 323.230469 482.679688 L 321.945312 481.875 L 320.683594 481.042969 L 319.4375 480.183594 L 318.214844 479.292969 L 317.015625 478.371094 L 315.839844 477.421875 L 314.6875 476.449219 L 106.695312 268.457031 L 107.847656 269.429688 L 109.023438 270.378906 L 110.222656 271.296875 L 111.445312 272.1875 L 112.6875 273.046875 L 113.953125 273.882812 L 115.238281 274.683594 L 116.546875 275.457031 L 117.871094 276.199219 L 119.21875 276.90625 L 120.582031 277.585938 L 121.964844 278.234375 L 123.367188 278.847656 L 124.789062 279.425781 L 126.222656 279.972656 L 127.675781 280.484375 L 129.144531 280.960938 L 130.628906 281.402344 L 132.128906 281.808594 L 133.640625 282.175781 L 135.171875 282.511719 L 136.710938 282.804688 L 138.265625 283.0625 L 139.835938 283.28125 L 141.414062 283.464844 L 143.007812 283.605469 L 144.605469 283.707031 L 146.21875 283.769531 L 147.84375 283.789062 "/></g></g><g clip-rule="nonzero" clip-path="url(#536caf7445)"><g clip-rule="nonzero" clip-path="url(#c5697e7fb8)"><path style=" stroke:none;fill-rule:evenodd;fill:#01579b;fill-opacity:1;" d="M 189.316406 92.449219 L 397.3125 300.445312 L 397.582031 300.742188 L 397.824219 301.0625 L 398.03125 301.40625 L 398.207031 301.773438 L 398.347656 302.152344 L 398.449219 302.554688 L 398.515625 302.972656 L 398.535156 303.398438 L 190.539062 95.402344 L 190.519531 94.976562 L 190.457031 94.5625 L 190.351562 94.160156 L 190.210938 93.777344 L 190.035156 93.414062 L 189.828125 93.066406 L 189.585938 92.746094 L 189.316406 92.449219 "/></g></g><g clip-rule="nonzero" clip-path="url(#9cc2e520c4)"><g clip-rule="nonzero" clip-path="url(#19fb5fabc7)"><path style=" stroke:none;fill-rule:evenodd;fill:#01579b;fill-opacity:1;" d="M 290.050781 230.054688 L 498.042969 438.050781 L 498.039062 438.453125 L 498.023438 438.851562 L 498 439.25 L 497.964844 439.644531 L 497.917969 440.039062 L 497.863281 440.425781 L 497.800781 440.8125 L 497.726562 441.195312 L 497.640625 441.574219 L 497.550781 441.953125 L 497.449219 442.328125 L 497.335938 442.695312 L 497.21875 443.058594 L 497.089844 443.421875 L 496.957031 443.777344 L 496.808594 444.132812 L 496.65625 444.480469 L 496.496094 444.824219 L 496.328125 445.164062 L 496.148438 445.5 L 495.964844 445.832031 L 495.769531 446.15625 L 495.570312 446.476562 L 495.363281 446.789062 L 495.148438 447.101562 L 494.925781 447.40625 L 494.695312 447.703125 L 494.460938 447.996094 L 494.21875 448.285156 L 493.96875 448.5625 L 493.714844 448.839844 L 493.449219 449.109375 L 285.457031 241.113281 L 285.71875 240.84375 L 285.972656 240.570312 L 286.222656 240.289062 L 286.464844 240 L 286.703125 239.710938 L 286.929688 239.410156 L 287.152344 239.105469 L 287.367188 238.796875 L 287.578125 238.480469 L 287.777344 238.160156 L 287.96875 237.835938 L 288.15625 237.503906 L 288.332031 237.171875 L 288.5 236.832031 L 288.664062 236.484375 L 288.816406 236.136719 L 288.960938 235.785156 L 289.097656 235.425781 L 289.226562 235.066406 L 289.34375 234.699219 L 289.453125 234.332031 L 289.554688 233.957031 L 289.648438 233.582031 L 289.730469 233.199219 L 289.804688 232.820312 L 289.871094 232.433594 L 289.921875 232.042969 L 289.96875 231.652344 L 290.007812 231.253906 L 290.03125 230.859375 L 290.046875 230.457031 L 290.050781 230.054688 "/></g></g><g clip-rule="nonzero" clip-path="url(#f7920a8867)"><g clip-rule="nonzero" clip-path="url(#da91f95d1f)"><path style=" stroke:none;fill-rule:evenodd;fill:#01579b;fill-opacity:1;" d="M 190.539062 95.402344 L 398.535156 303.398438 L 398.535156 309.964844 L 190.539062 101.96875 L 190.539062 95.402344 "/></g></g><g clip-rule="nonzero" clip-path="url(#e63574a340)"><g clip-rule="nonzero" clip-path="url(#41032ddf52)"><path style=" stroke:none;fill-rule:evenodd;fill:#01579b;fill-opacity:1;" d="M 225.773438 92.746094 L 433.765625 300.742188 L 434.007812 301.0625 L 434.214844 301.40625 L 434.390625 301.773438 L 434.53125 302.152344 L 434.636719 302.554688 L 434.699219 302.972656 L 434.71875 303.398438 L 226.726562 95.402344 L 226.707031 94.976562 L 226.640625 94.5625 L 226.539062 94.160156 L 226.398438 93.777344 L 226.222656 93.414062 L 226.015625 93.066406 L 225.773438 92.746094 "/></g></g><g clip-rule="nonzero" clip-path="url(#f7410e9b9e)"><g clip-rule="nonzero" clip-path="url(#d843a3812e)"><path style=" stroke:none;fill-rule:evenodd;fill:#01579b;fill-opacity:1;" d="M 290.050781 141.675781 L 498.042969 349.671875 L 498.042969 438.050781 L 290.050781 230.054688 L 290.050781 141.675781 "/></g></g><g clip-rule="nonzero" clip-path="url(#9772332acc)"><g clip-rule="nonzero" clip-path="url(#a5b83e1553)"><path style=" stroke:none;fill-rule:evenodd;fill:#01579b;fill-opacity:1;" d="M 226.726562 95.402344 L 226.726562 101.96875 L 254.5625 101.96875 L 254.5625 95.402344 C 254.5625 93.097656 256.429688 91.226562 258.738281 91.226562 C 261.042969 91.226562 262.910156 93.097656 262.910156 95.402344 L 262.910156 101.96875 L 274.394531 101.96875 C 278.703125 101.96875 282.621094 103.730469 285.457031 106.566406 C 288.289062 109.402344 290.050781 113.316406 290.050781 117.628906 L 290.050781 230.054688 C 290.050781 234.363281 288.289062 238.277344 285.457031 241.113281 C 282.621094 243.949219 278.703125 245.710938 274.394531 245.710938 L 210.15625 245.710938 C 208.691406 245.558594 207.226562 245.464844 205.765625 245.414062 C 202.585938 252.925781 197.984375 259.691406 192.304688 265.371094 C 180.925781 276.75 165.203125 283.789062 147.84375 283.789062 C 130.480469 283.789062 114.761719 276.75 103.378906 265.371094 C 92.003906 253.992188 84.964844 238.273438 84.964844 220.910156 C 84.964844 203.546875 92.003906 187.828125 103.378906 176.449219 C 107.863281 171.964844 113.019531 168.15625 118.6875 165.1875 C 118.742188 163.625 118.800781 162.039062 118.867188 160.421875 L 118.867188 117.628906 C 118.867188 113.316406 120.625 109.402344 123.460938 106.566406 C 126.296875 103.730469 130.210938 101.96875 134.523438 101.96875 L 146.003906 101.96875 L 146.003906 95.402344 C 146.003906 93.097656 147.875 91.226562 150.179688 91.226562 C 152.488281 91.226562 154.355469 93.097656 154.355469 95.402344 L 154.355469 101.96875 L 182.1875 101.96875 L 182.1875 95.402344 C 182.1875 93.097656 184.0625 91.226562 186.367188 91.226562 C 188.671875 91.226562 190.539062 93.097656 190.539062 95.402344 L 190.539062 101.96875 L 218.375 101.96875 L 218.375 95.402344 C 218.375 93.097656 220.246094 91.226562 222.550781 91.226562 C 224.859375 91.226562 226.726562 93.097656 226.726562 95.402344 "/></g></g><path style=" stroke:none;fill-rule:nonzero;fill:#fffffe;fill-opacity:1;" d="M 210.15625 245.710938 L 274.394531 245.710938 C 278.703125 245.710938 282.621094 243.949219 285.457031 241.113281 C 288.289062 238.277344 290.050781 234.363281 290.050781 230.054688 L 290.050781 140.070312 L 118.867188 140.070312 L 118.867188 160.421875 C 113.160156 297.382812 160.246094 240.613281 210.15625 245.710938 "/><path style=" stroke:none;fill-rule:nonzero;fill:#9e9e9e;fill-opacity:1;" d="M 252.523438 156.105469 L 270.449219 156.105469 C 271.6875 156.105469 272.691406 156.988281 272.691406 158.082031 L 272.691406 174.332031 C 272.691406 175.425781 271.6875 176.308594 270.449219 176.308594 L 252.523438 176.308594 C 251.289062 176.308594 250.285156 175.425781 250.285156 174.332031 L 250.285156 158.082031 C 250.285156 156.988281 251.289062 156.105469 252.523438 156.105469 "/><path style=" stroke:none;fill-rule:nonzero;fill:#9e9e9e;fill-opacity:1;" d="M 252.523438 206.628906 L 270.449219 206.628906 C 271.6875 206.628906 272.691406 207.511719 272.691406 208.605469 L 272.691406 224.855469 C 272.691406 225.945312 271.6875 226.832031 270.449219 226.832031 L 252.523438 226.832031 C 251.289062 226.832031 250.285156 225.945312 250.285156 224.855469 L 250.285156 208.605469 C 250.285156 207.511719 251.289062 206.628906 252.523438 206.628906 "/><path style=" stroke:none;fill-rule:nonzero;fill:#9e9e9e;fill-opacity:1;" d="M 252.523438 201.570312 C 251.289062 201.570312 250.285156 200.683594 250.285156 199.59375 L 250.285156 183.34375 C 250.285156 182.25 251.289062 181.367188 252.523438 181.367188 L 270.449219 181.367188 C 271.6875 181.367188 272.691406 182.25 272.691406 183.34375 L 272.691406 199.59375 C 272.691406 200.683594 271.6875 201.570312 270.449219 201.570312 L 252.523438 201.570312 "/><path style=" stroke:none;fill-rule:nonzero;fill:#9e9e9e;fill-opacity:1;" d="M 214.351562 156.105469 L 232.273438 156.105469 C 233.511719 156.105469 234.515625 156.988281 234.515625 158.082031 L 234.515625 174.332031 C 234.515625 175.425781 233.511719 176.308594 232.273438 176.308594 L 214.351562 176.308594 C 213.113281 176.308594 212.109375 175.425781 212.109375 174.332031 L 212.109375 158.082031 C 212.109375 156.988281 213.113281 156.105469 214.351562 156.105469 "/><path style=" stroke:none;fill-rule:nonzero;fill:#9e9e9e;fill-opacity:1;" d="M 214.351562 206.628906 L 232.273438 206.628906 C 233.511719 206.628906 234.515625 207.511719 234.515625 208.605469 L 234.515625 224.855469 C 234.515625 225.945312 233.511719 226.832031 232.273438 226.832031 L 214.351562 226.832031 C 213.113281 226.832031 212.109375 225.945312 212.109375 224.855469 L 212.109375 208.605469 C 212.109375 207.511719 213.113281 206.628906 214.351562 206.628906 "/><path style=" stroke:none;fill-rule:nonzero;fill:#9e9e9e;fill-opacity:1;" d="M 212.109375 199.59375 L 212.109375 183.34375 C 212.109375 182.25 213.113281 181.367188 214.351562 181.367188 L 232.273438 181.367188 C 233.511719 181.367188 234.515625 182.25 234.515625 183.34375 L 234.515625 199.59375 C 234.515625 200.683594 233.511719 201.570312 232.273438 201.570312 L 214.351562 201.570312 C 213.113281 201.570312 212.109375 200.683594 212.109375 199.59375 "/><path style=" stroke:none;fill-rule:nonzero;fill:#9e9e9e;fill-opacity:1;" d="M 176.171875 156.105469 L 194.09375 156.105469 C 195.335938 156.105469 196.335938 156.988281 196.335938 158.082031 L 196.335938 174.332031 C 196.335938 175.425781 195.335938 176.308594 194.09375 176.308594 L 176.171875 176.308594 C 174.933594 176.308594 173.933594 175.425781 173.933594 174.332031 L 173.933594 158.082031 C 173.933594 156.988281 174.933594 156.105469 176.171875 156.105469 "/><path style=" stroke:none;fill-rule:nonzero;fill:#9e9e9e;fill-opacity:1;" d="M 176.171875 206.628906 L 194.09375 206.628906 C 195.335938 206.628906 196.335938 207.511719 196.335938 208.605469 L 196.335938 224.855469 C 196.335938 225.945312 195.335938 226.832031 194.09375 226.832031 L 176.171875 226.832031 C 174.933594 226.832031 173.933594 225.945312 173.933594 224.855469 L 173.933594 208.605469 C 173.933594 207.511719 174.933594 206.628906 176.171875 206.628906 "/><path style=" stroke:none;fill-rule:nonzero;fill:#9e9e9e;fill-opacity:1;" d="M 173.933594 199.59375 L 173.933594 183.34375 C 173.933594 182.25 174.933594 181.367188 176.171875 181.367188 L 194.09375 181.367188 C 195.335938 181.367188 196.335938 182.25 196.335938 183.34375 L 196.335938 199.59375 C 196.335938 200.683594 195.335938 201.570312 194.09375 201.570312 L 176.171875 201.570312 C 174.933594 201.570312 173.933594 200.683594 173.933594 199.59375 "/><path style=" stroke:none;fill-rule:nonzero;fill:#9e9e9e;fill-opacity:1;" d="M 137.996094 156.105469 L 155.921875 156.105469 C 157.15625 156.105469 158.160156 156.988281 158.160156 158.082031 L 158.160156 174.332031 C 158.160156 175.425781 157.15625 176.308594 155.921875 176.308594 L 137.996094 176.308594 C 136.757812 176.308594 135.753906 175.425781 135.753906 174.332031 L 135.753906 158.082031 C 135.753906 156.988281 136.757812 156.105469 137.996094 156.105469 "/><path style=" stroke:none;fill-rule:nonzero;fill:#9e9e9e;fill-opacity:1;" d="M 137.996094 206.628906 L 155.921875 206.628906 C 157.15625 206.628906 158.160156 207.511719 158.160156 208.605469 L 158.160156 224.855469 C 158.160156 225.945312 157.15625 226.832031 155.921875 226.832031 L 137.996094 226.832031 C 136.757812 226.832031 135.753906 225.945312 135.753906 224.855469 L 135.753906 208.605469 C 135.753906 207.511719 136.757812 206.628906 137.996094 206.628906 "/><path style=" stroke:none;fill-rule:nonzero;fill:#9e9e9e;fill-opacity:1;" d="M 135.753906 199.59375 L 135.753906 183.34375 C 135.753906 182.25 136.757812 181.367188 137.996094 181.367188 L 155.921875 181.367188 C 157.15625 181.367188 158.160156 182.25 158.160156 183.34375 L 158.160156 199.59375 C 158.160156 200.683594 157.15625 201.570312 155.921875 201.570312 L 137.996094 201.570312 C 136.757812 201.570312 135.753906 200.683594 135.753906 199.59375 "/><path style=" stroke:none;fill-rule:evenodd;fill:#ffab00;fill-opacity:1;" d="M 147.84375 158.03125 C 165.203125 158.03125 180.925781 165.070312 192.304688 176.449219 C 203.683594 187.828125 210.722656 203.546875 210.722656 220.910156 C 210.722656 238.273438 203.683594 253.992188 192.304688 265.371094 C 180.925781 276.75 165.203125 283.789062 147.84375 283.789062 C 130.480469 283.789062 114.761719 276.75 103.378906 265.371094 C 92.003906 253.992188 84.964844 238.273438 84.964844 220.910156 C 84.964844 203.546875 92.003906 187.828125 103.378906 176.449219 C 114.761719 165.070312 130.480469 158.03125 147.84375 158.03125 "/><path style=" stroke:none;fill-rule:evenodd;fill:#ffe082;fill-opacity:1;" d="M 147.84375 173.027344 C 161.0625 173.027344 173.035156 178.390625 181.699219 187.054688 C 190.363281 195.71875 195.722656 207.6875 195.722656 220.910156 C 195.722656 234.128906 190.363281 246.101562 181.699219 254.765625 C 173.035156 263.429688 161.0625 268.789062 147.84375 268.789062 C 134.621094 268.789062 122.652344 263.429688 113.988281 254.765625 C 105.320312 246.101562 99.960938 234.128906 99.960938 220.910156 C 99.960938 207.6875 105.320312 195.71875 113.988281 187.054688 C 122.652344 178.390625 134.621094 173.027344 147.84375 173.027344 "/><path style=" stroke:none;fill-rule:nonzero;fill:#ff6f00;fill-opacity:1;" d="M 147.84375 171.074219 C 154.582031 171.074219 161.015625 172.417969 166.894531 174.851562 C 173.007812 177.382812 178.496094 181.082031 183.082031 185.671875 C 187.667969 190.257812 191.371094 195.746094 193.902344 201.855469 C 196.335938 207.738281 197.679688 214.175781 197.679688 220.910156 C 197.679688 227.648438 196.335938 234.082031 193.902344 239.960938 C 191.371094 246.074219 187.667969 251.5625 183.082031 256.148438 C 178.496094 260.734375 173.007812 264.4375 166.894531 266.96875 C 161.015625 269.402344 154.582031 270.746094 147.84375 270.746094 C 141.105469 270.746094 134.671875 269.402344 128.789062 266.96875 C 122.679688 264.4375 117.191406 260.734375 112.605469 256.148438 C 108.015625 251.5625 104.316406 246.074219 101.785156 239.960938 C 99.351562 234.082031 98.007812 227.648438 98.007812 220.910156 C 98.007812 214.175781 99.351562 207.738281 101.785156 201.855469 C 104.316406 195.746094 108.015625 190.257812 112.605469 185.671875 C 117.191406 181.082031 122.679688 177.382812 128.789062 174.851562 C 134.671875 172.417969 141.105469 171.074219 147.84375 171.074219 Z M 165.414062 178.457031 C 160.007812 176.222656 154.074219 174.984375 147.84375 174.984375 C 141.613281 174.984375 135.675781 176.222656 130.273438 178.457031 C 124.667969 180.78125 119.613281 184.195312 115.371094 188.4375 C 111.128906 192.679688 107.714844 197.734375 105.390625 203.339844 C 103.152344 208.742188 101.917969 214.679688 101.917969 220.910156 C 101.917969 227.140625 103.152344 233.074219 105.390625 238.480469 C 107.714844 244.085938 111.128906 249.140625 115.371094 253.382812 C 119.613281 257.625 124.667969 261.039062 130.273438 263.359375 C 135.675781 265.597656 141.613281 266.835938 147.84375 266.835938 C 154.074219 266.835938 160.007812 265.597656 165.414062 263.359375 C 171.019531 261.039062 176.074219 257.625 180.316406 253.382812 C 184.558594 249.140625 187.972656 244.085938 190.292969 238.480469 C 192.53125 233.074219 193.769531 227.140625 193.769531 220.910156 C 193.769531 214.679688 192.53125 208.742188 190.292969 203.339844 C 187.972656 197.734375 184.558594 192.679688 180.316406 188.4375 C 176.074219 184.195312 171.019531 180.78125 165.414062 178.457031 "/><path style=" stroke:none;fill-rule:evenodd;fill:#f44336;fill-opacity:1;" d="M 151.835938 185.429688 C 151.835938 184.003906 150.683594 182.855469 149.261719 182.855469 C 147.835938 182.855469 146.6875 184.003906 146.6875 185.429688 L 146.6875 219.457031 C 146.6875 220.347656 147.207031 221.09375 147.878906 221.636719 L 168.007812 237.957031 C 169.105469 238.847656 170.71875 238.683594 171.613281 237.585938 C 172.503906 236.492188 172.34375 234.871094 171.246094 233.980469 L 151.835938 218.246094 L 151.835938 185.429688 "/><path style=" stroke:none;fill-rule:nonzero;fill:#dd2c00;fill-opacity:1;" d="M 290.050781 141.675781 L 290.050781 117.628906 C 290.050781 113.316406 288.289062 109.402344 285.457031 106.566406 C 282.621094 103.730469 278.703125 101.96875 274.394531 101.96875 C 230.996094 101.96875 177.925781 101.96875 134.523438 101.96875 C 130.210938 101.96875 126.296875 103.730469 123.460938 106.566406 C 120.625 109.402344 118.867188 113.316406 118.867188 117.628906 L 118.867188 141.675781 L 290.050781 141.675781 "/><path style=" stroke:none;fill-rule:nonzero;fill:#fffffe;fill-opacity:1;" d="M 154.355469 95.402344 C 154.355469 93.097656 152.488281 91.226562 150.179688 91.226562 C 147.875 91.226562 146.003906 93.097656 146.003906 95.402344 L 146.003906 116.277344 C 146.003906 118.585938 147.875 120.453125 150.179688 120.453125 C 152.488281 120.453125 154.355469 118.585938 154.355469 116.277344 Z M 262.910156 95.402344 C 262.910156 93.097656 261.042969 91.226562 258.738281 91.226562 C 256.429688 91.226562 254.5625 93.097656 254.5625 95.402344 L 254.5625 116.277344 C 254.5625 118.585938 256.429688 120.453125 258.738281 120.453125 C 261.042969 120.453125 262.910156 118.585938 262.910156 116.277344 Z M 226.726562 95.402344 C 226.726562 93.097656 224.859375 91.226562 222.550781 91.226562 C 220.246094 91.226562 218.375 93.097656 218.375 95.402344 L 218.375 116.277344 C 218.375 118.585938 220.246094 120.453125 222.550781 120.453125 C 224.859375 120.453125 226.726562 118.585938 226.726562 116.277344 Z M 190.539062 95.402344 C 190.539062 93.097656 188.671875 91.226562 186.367188 91.226562 C 184.0625 91.226562 182.1875 93.097656 182.1875 95.402344 L 182.1875 116.277344 C 182.1875 118.585938 184.0625 120.453125 186.367188 120.453125 C 188.671875 120.453125 190.539062 118.585938 190.539062 116.277344 L 190.539062 95.402344 "/></g></svg>