<svg xmlns="http://www.w3.org/2000/svg" xmlns:xlink="http://www.w3.org/1999/xlink" width="500" zoomAndPan="magnify" viewBox="0 0 375 374.999991" height="500" preserveAspectRatio="xMidYMid meet" version="1.2"><defs><clipPath id="007da6187f"><path d="M 16.171875 9 L 358.921875 9 L 358.921875 353 L 16.171875 353 Z M 16.171875 9 "/></clipPath></defs><g id="1a67b702a8"><g clip-rule="nonzero" clip-path="url(#007da6187f)"><path style=" stroke:none;fill-rule:nonzero;fill:#eac9c9;fill-opacity:1;" d="M 358.832031 180.894531 C 358.832031 183.699219 358.765625 186.5 358.625 189.296875 C 358.488281 192.097656 358.28125 194.890625 358.007812 197.679688 C 357.734375 200.46875 357.390625 203.25 356.980469 206.019531 C 356.566406 208.792969 356.089844 211.554688 355.542969 214.300781 C 354.996094 217.050781 354.382812 219.785156 353.699219 222.503906 C 353.019531 225.222656 352.269531 227.921875 351.457031 230.605469 C 350.644531 233.285156 349.765625 235.945312 348.820312 238.585938 C 347.875 241.222656 346.867188 243.835938 345.792969 246.425781 C 344.722656 249.015625 343.585938 251.578125 342.386719 254.109375 C 341.1875 256.644531 339.929688 259.148438 338.609375 261.617188 C 337.285156 264.089844 335.90625 266.527344 334.464844 268.929688 C 333.023438 271.335938 331.523438 273.703125 329.964844 276.03125 C 328.40625 278.363281 326.792969 280.652344 325.125 282.902344 C 323.453125 285.15625 321.730469 287.363281 319.953125 289.53125 C 318.171875 291.695312 316.34375 293.816406 314.460938 295.894531 C 312.578125 297.972656 310.644531 300 308.664062 301.980469 C 306.679688 303.964844 304.652344 305.894531 302.574219 307.777344 C 300.496094 309.660156 298.375 311.488281 296.207031 313.265625 C 294.042969 315.046875 291.832031 316.769531 289.582031 318.4375 C 287.328125 320.109375 285.039062 321.722656 282.707031 323.277344 C 280.375 324.835938 278.007812 326.335938 275.605469 327.773438 C 273.199219 329.214844 270.761719 330.597656 268.289062 331.917969 C 265.816406 333.238281 263.3125 334.5 260.777344 335.695312 C 258.246094 336.894531 255.683594 338.03125 253.09375 339.101562 C 250.503906 340.175781 247.886719 341.183594 245.25 342.128906 C 242.609375 343.070312 239.949219 343.949219 237.265625 344.765625 C 234.582031 345.578125 231.882812 346.324219 229.164062 347.007812 C 226.445312 347.6875 223.710938 348.300781 220.960938 348.847656 C 218.210938 349.394531 215.449219 349.875 212.675781 350.285156 C 209.902344 350.695312 207.121094 351.039062 204.332031 351.3125 C 201.542969 351.589844 198.746094 351.792969 195.949219 351.933594 C 193.148438 352.070312 190.347656 352.136719 187.542969 352.136719 C 184.738281 352.136719 181.9375 352.070312 179.136719 351.933594 C 176.339844 351.792969 173.542969 351.589844 170.753906 351.3125 C 167.964844 351.039062 165.183594 350.695312 162.410156 350.285156 C 159.636719 349.875 156.875 349.394531 154.125 348.847656 C 151.375 348.300781 148.640625 347.6875 145.921875 347.007812 C 143.203125 346.324219 140.503906 345.578125 137.820312 344.765625 C 135.136719 343.949219 132.476562 343.070312 129.835938 342.128906 C 127.199219 341.183594 124.582031 340.175781 121.992188 339.101562 C 119.402344 338.03125 116.839844 336.894531 114.308594 335.695312 C 111.773438 334.5 109.269531 333.238281 106.796875 331.917969 C 104.324219 330.597656 101.886719 329.214844 99.484375 327.773438 C 97.078125 326.335938 94.710938 324.835938 92.378906 323.277344 C 90.046875 321.722656 87.757812 320.109375 85.503906 318.4375 C 83.253906 316.769531 81.042969 315.046875 78.878906 313.269531 C 76.710938 311.488281 74.589844 309.660156 72.511719 307.777344 C 70.433594 305.894531 68.40625 303.964844 66.421875 301.980469 C 64.441406 300 62.507812 297.972656 60.625 295.894531 C 58.742188 293.816406 56.914062 291.695312 55.132812 289.53125 C 53.355469 287.363281 51.632812 285.15625 49.960938 282.902344 C 48.292969 280.652344 46.679688 278.363281 45.121094 276.03125 C 43.5625 273.703125 42.0625 271.335938 40.621094 268.929688 C 39.179688 266.527344 37.800781 264.089844 36.480469 261.617188 C 35.15625 259.148438 33.898438 256.644531 32.699219 254.109375 C 31.5 251.578125 30.363281 249.015625 29.292969 246.425781 C 28.21875 243.835938 27.210938 241.222656 26.265625 238.585938 C 25.320312 235.945312 24.441406 233.285156 23.628906 230.605469 C 22.816406 227.921875 22.066406 225.222656 21.386719 222.503906 C 20.707031 219.785156 20.089844 217.050781 19.542969 214.300781 C 18.996094 211.554688 18.519531 208.792969 18.105469 206.019531 C 17.695312 203.25 17.351562 200.46875 17.078125 197.679688 C 16.804688 194.890625 16.597656 192.097656 16.460938 189.296875 C 16.320312 186.5 16.253906 183.699219 16.253906 180.894531 C 16.253906 178.09375 16.320312 175.292969 16.460938 172.492188 C 16.597656 169.691406 16.804688 166.898438 17.078125 164.109375 C 17.351562 161.320312 17.695312 158.539062 18.105469 155.769531 C 18.519531 152.996094 18.996094 150.234375 19.542969 147.488281 C 20.089844 144.738281 20.707031 142.003906 21.386719 139.285156 C 22.066406 136.566406 22.816406 133.867188 23.628906 131.183594 C 24.441406 128.503906 25.320312 125.84375 26.265625 123.203125 C 27.210938 120.566406 28.21875 117.953125 29.292969 115.363281 C 30.363281 112.773438 31.5 110.210938 32.699219 107.679688 C 33.898438 105.144531 35.15625 102.644531 36.480469 100.171875 C 37.800781 97.699219 39.179688 95.261719 40.621094 92.859375 C 42.0625 90.453125 43.5625 88.085938 45.121094 85.757812 C 46.679688 83.425781 48.292969 81.136719 49.960938 78.886719 C 51.632812 76.632812 53.355469 74.425781 55.132812 72.257812 C 56.914062 70.09375 58.742188 67.972656 60.625 65.894531 C 62.507812 63.820312 64.441406 61.789062 66.421875 59.808594 C 68.40625 57.824219 70.433594 55.894531 72.511719 54.011719 C 74.589844 52.128906 76.710938 50.300781 78.878906 48.523438 C 81.042969 46.742188 83.253906 45.019531 85.503906 43.351562 C 87.757812 41.679688 90.046875 40.066406 92.378906 38.511719 C 94.710938 36.953125 97.078125 35.457031 99.484375 34.015625 C 101.886719 32.574219 104.324219 31.191406 106.796875 29.871094 C 109.269531 28.550781 111.773438 27.292969 114.308594 26.09375 C 116.839844 24.894531 119.402344 23.757812 121.992188 22.6875 C 124.582031 21.613281 127.199219 20.605469 129.835938 19.660156 C 132.476562 18.71875 135.136719 17.839844 137.820312 17.023438 C 140.503906 16.210938 143.203125 15.464844 145.921875 14.785156 C 148.640625 14.101562 151.375 13.488281 154.125 12.941406 C 156.875 12.394531 159.636719 11.917969 162.410156 11.503906 C 165.183594 11.09375 167.964844 10.75 170.753906 10.476562 C 173.542969 10.203125 176.339844 9.996094 179.136719 9.859375 C 181.9375 9.71875 184.738281 9.652344 187.542969 9.652344 C 190.347656 9.652344 193.148438 9.71875 195.949219 9.859375 C 198.746094 9.996094 201.542969 10.203125 204.332031 10.476562 C 207.121094 10.75 209.902344 11.09375 212.675781 11.503906 C 215.449219 11.917969 218.210938 12.394531 220.960938 12.941406 C 223.710938 13.488281 226.445312 14.101562 229.164062 14.785156 C 231.882812 15.464844 234.582031 16.210938 237.265625 17.023438 C 239.949219 17.839844 242.609375 18.71875 245.25 19.660156 C 247.886719 20.605469 250.503906 21.613281 253.09375 22.6875 C 255.683594 23.757812 258.246094 24.894531 260.777344 26.09375 C 263.3125 27.292969 265.816406 28.550781 268.289062 29.871094 C 270.761719 31.191406 273.199219 32.574219 275.605469 34.015625 C 278.007812 35.457031 280.375 36.953125 282.707031 38.511719 C 285.039062 40.066406 287.328125 41.679688 289.582031 43.351562 C 291.832031 45.019531 294.042969 46.742188 296.207031 48.523438 C 298.375 50.300781 300.496094 52.128906 302.574219 54.011719 C 304.652344 55.894531 306.679688 57.824219 308.664062 59.808594 C 310.644531 61.789062 312.578125 63.820312 314.460938 65.894531 C 316.34375 67.972656 318.171875 70.09375 319.953125 72.257812 C 321.730469 74.425781 323.453125 76.632812 325.125 78.886719 C 326.792969 81.136719 328.40625 83.425781 329.964844 85.757812 C 331.523438 88.085938 333.023438 90.453125 334.464844 92.859375 C 335.90625 95.261719 337.285156 97.699219 338.609375 100.171875 C 339.929688 102.644531 341.1875 105.144531 342.386719 107.679688 C 343.585938 110.210938 344.722656 112.773438 345.792969 115.363281 C 346.867188 117.953125 347.875 120.566406 348.820312 123.203125 C 349.765625 125.84375 350.644531 128.503906 351.457031 131.183594 C 352.269531 133.867188 353.019531 136.566406 353.699219 139.285156 C 354.382812 142.003906 354.996094 144.738281 355.542969 147.488281 C 356.089844 150.234375 356.566406 152.996094 356.980469 155.769531 C 357.390625 158.539062 357.734375 161.320312 358.007812 164.109375 C 358.28125 166.898438 358.488281 169.691406 358.625 172.492188 C 358.765625 175.292969 358.832031 178.09375 358.832031 180.894531 Z M 358.832031 180.894531 "/></g><path style=" stroke:none;fill-rule:nonzero;fill:#64493e;fill-opacity:1;" d="M 285.402344 191.195312 C 294.535156 158.96875 256.136719 144.820312 247.109375 119.578125 C 243.570312 107.507812 248.617188 95.34375 249.125 83.175781 C 251.09375 59.09375 242.34375 25.21875 214.855469 20.550781 C 196.363281 0.0078125 162.726562 11.300781 146.410156 29.28125 C 130.109375 48.015625 124 74.433594 128.160156 98.699219 C 128.726562 103.855469 128.496094 109.101562 127.46875 114.1875 C 121.691406 144.449219 87.101562 148.988281 88.324219 185 C 93.707031 236.925781 167.566406 248.375 209.441406 240.691406 C 241.5625 237.480469 278.925781 228.070312 285.402344 191.199219 Z M 285.402344 191.195312 "/><path style=" stroke:none;fill-rule:nonzero;fill:#47342c;fill-opacity:1;" d="M 139.796875 230.085938 C 126.222656 227.332031 110.125 219.140625 106.324219 204.671875 C 103.023438 192.097656 105.984375 177.175781 114.804688 167.601562 C 117.386719 164.800781 120.25 162.261719 122.878906 159.496094 C 130.097656 151.914062 136.363281 143.25 138.921875 132.949219 C 140.917969 124.929688 141.0625 116.671875 140.300781 108.480469 C 139.621094 101.15625 139.683594 94.359375 139.730469 86.980469 C 157.644531 87.261719 175.589844 85.484375 193.101562 81.691406 C 204.128906 79.300781 215.3125 76.09375 226.507812 77.507812 C 230.765625 78.042969 235.34375 79.554688 237.515625 83.253906 C 240.03125 87.535156 238.40625 92.921875 237.230469 97.746094 C 232.875 115.644531 236.058594 135.25 245.851562 150.855469 C 252.21875 161 262.789062 168.523438 268.363281 179.125 C 273.9375 189.730469 275.542969 203.21875 269.375 213.488281 C 264.800781 221.097656 256.582031 225.953125 248.027344 228.324219 C 239.46875 230.695312 230.476562 230.863281 221.597656 231.015625 C 205.074219 231.300781 188.546875 231.582031 172.023438 231.867188 C 161.246094 232.054688 150.367188 232.230469 139.800781 230.085938 Z M 139.796875 230.085938 "/><path style=" stroke:none;fill-rule:nonzero;fill:#f2b495;fill-opacity:1;" d="M 224.148438 157.949219 C 214.152344 155.734375 211.753906 154.136719 205.78125 145.625 C 204.011719 142.675781 202.679688 139.722656 201.738281 136.410156 C 201.460938 135.164062 201.292969 133.871094 201.082031 132.609375 C 192.304688 134.425781 186.644531 133.636719 178.066406 131.808594 C 178.070312 133.082031 178.089844 134.355469 178.023438 135.628906 C 177.746094 138.394531 176.988281 140.933594 175.949219 143.503906 C 173.855469 148.457031 170.902344 153.433594 165.710938 155.570312 C 163.222656 156.59375 160.464844 157.085938 157.859375 157.730469 C 158.617188 160.527344 160.316406 163.1875 161.960938 165.539062 C 168.46875 174.851562 177.636719 182.773438 187.453125 188.421875 C 192.359375 191.246094 197.390625 193.496094 202.714844 195.402344 C 205.445312 193.691406 208.21875 192.011719 210.664062 189.898438 C 217.164062 184.285156 221.800781 175.542969 223.691406 167.234375 C 224.347656 164.339844 224.820312 160.878906 224.148438 157.949219 Z M 224.148438 157.949219 "/><path style=" stroke:none;fill-rule:nonzero;fill:#e59c83;fill-opacity:1;" d="M 201.738281 136.410156 C 201.0625 134.035156 201.683594 130.921875 202.492188 128.648438 C 194.058594 128.425781 185.761719 129.050781 177.347656 127.867188 C 177.773438 130.53125 178.167969 132.953125 178.027344 135.628906 C 177.75 138.394531 176.992188 140.933594 175.953125 143.503906 C 182.472656 147.886719 190.140625 150.386719 198.039062 148.832031 C 200.863281 148.273438 203.390625 147.203125 205.785156 145.625 C 204.015625 142.675781 202.683594 139.722656 201.742188 136.410156 Z M 201.738281 136.410156 "/><path style=" stroke:none;fill-rule:nonzero;fill:#f2b495;fill-opacity:1;" d="M 271.433594 262.722656 C 270.414062 255.75 268.75 248.613281 267 241.789062 C 266.320312 239.128906 265.546875 236.496094 264.691406 233.886719 C 261.414062 224.125 256.144531 215.113281 252.628906 205.378906 C 246.246094 211.3125 238.582031 215.867188 230.3125 218.632812 C 232.511719 217.898438 241.476562 236.605469 242.171875 238.792969 C 244.417969 245.859375 247.867188 252.464844 248.644531 260.003906 C 249.789062 271.09375 253.445312 281.691406 256.945312 292.207031 C 258.535156 296.992188 260.859375 302.15625 261.28125 307.199219 C 261.726562 312.496094 262.703125 317.613281 263.769531 322.882812 C 263.546875 321.78125 266.117188 318.011719 266.601562 316.84375 C 267.609375 314.417969 268.488281 311.9375 269.234375 309.414062 C 270.726562 304.375 271.6875 299.175781 272.097656 293.9375 C 272.910156 283.53125 272.953125 273.097656 271.433594 262.722656 Z M 271.433594 262.722656 "/><path style=" stroke:none;fill-rule:nonzero;fill:#e1736e;fill-opacity:1;" d="M 262.226562 268.808594 C 258.433594 261.53125 254.578125 254.105469 248.890625 248.046875 C 247.253906 246.1875 245.429688 244.46875 243.921875 242.507812 C 242.894531 242.085938 241.824219 240.316406 241.207031 239.398438 C 239.921875 236.660156 238.203125 233.210938 238.125 230.152344 L 237.777344 229.132812 C 239.492188 227.378906 240.230469 224.683594 242.070312 223.074219 C 244.613281 222.097656 247.175781 221.171875 249.753906 220.292969 C 252.445312 219.085938 255.191406 217.816406 257.683594 216.195312 C 258.324219 215.769531 259.339844 215.507812 259.757812 214.839844 C 255.554688 199.3125 242.875 159.578125 224.148438 157.953125 C 225.707031 173.015625 215.769531 188.390625 202.714844 195.40625 C 184.402344 188.667969 165.773438 176.160156 157.863281 157.734375 C 141.917969 159.347656 132.832031 170.21875 126.851562 184.121094 C 122.5 193.242188 117.5625 202.328125 114.417969 211.910156 C 115.164062 211.652344 116.585938 212.5625 117.324219 212.925781 C 120.195312 214.335938 137.554688 223.382812 138.6875 224.878906 C 139.117188 225.023438 139.542969 225.171875 139.96875 225.324219 C 141.851562 223.582031 148.238281 211.058594 149.886719 207.90625 C 151.46875 214.078125 155.175781 237.277344 154.03125 242.277344 C 151.757812 247.613281 148.6875 252.589844 146.210938 257.832031 C 137.960938 275.316406 131.695312 293.363281 129.261719 312.675781 C 127.644531 325.917969 126.824219 339.785156 126.921875 353.230469 C 126.976562 354.65625 126.4375 362.488281 127.371094 362.917969 C 135.640625 366.347656 144.964844 368.007812 153.671875 370.03125 C 172.832031 373.957031 192.574219 375 212.039062 373.113281 C 229.070312 371.46875 245.886719 367.582031 261.914062 361.59375 C 262.546875 349.183594 260.589844 335.804688 264.578125 323.863281 C 265.90625 320.542969 267.449219 317.445312 268.417969 313.90625 C 271.941406 299.046875 267.992188 282.585938 262.230469 268.808594 Z M 262.226562 268.808594 "/><path style=" stroke:none;fill-rule:nonzero;fill:#f2b495;fill-opacity:1;" d="M 242.292969 85.394531 C 241.792969 81.121094 237.269531 78.597656 233.25 79.550781 C 233.25 79.550781 232.617188 79.527344 232.617188 79.527344 C 229.519531 62.289062 213.058594 52.050781 208.953125 35.285156 C 196.847656 57.191406 173.152344 63.375 151.058594 70.777344 C 150.238281 73.9375 149.144531 76.851562 147.84375 79.839844 C 134.285156 76.136719 131.679688 92.785156 145.636719 93.625 C 152.285156 144.863281 228.214844 147.96875 234.285156 94.535156 C 238.945312 94.378906 243.011719 90.144531 242.292969 85.394531 Z M 242.292969 85.394531 "/><path style=" stroke:none;fill-rule:nonzero;fill:#47342c;fill-opacity:1;" d="M 138.445312 59.089844 C 137.730469 60.726562 137.40625 62.476562 136.71875 64.117188 C 136.636719 62.410156 137.269531 60.636719 137.726562 59.015625 C 140.214844 50.175781 144.875 42.605469 150.84375 35.675781 C 160.554688 24.390625 174.480469 16.113281 189.472656 14.945312 C 191.542969 14.652344 194.546875 14.542969 196.59375 14.976562 L 196.605469 15.210938 L 197.011719 15.253906 L 197.070312 15.390625 C 195.621094 15.421875 194.195312 15.253906 192.734375 15.320312 C 186.175781 15.617188 179.917969 17.316406 173.980469 20.074219 C 157.761719 27.625 144.570312 42.3125 138.445312 59.085938 Z M 138.445312 59.089844 "/><path style=" stroke:none;fill-rule:nonzero;fill:#47342c;fill-opacity:1;" d="M 161.074219 46.28125 C 158.972656 47.429688 156.542969 49.105469 154.25 49.714844 L 153.996094 49.570312 C 159.570312 46.683594 164.230469 43.15625 168.855469 38.9375 C 178.207031 30.414062 186.050781 20.222656 199.460938 18.300781 C 202.210938 17.640625 206.179688 18.34375 208.832031 19.125 C 207.714844 19.378906 205.925781 18.859375 204.734375 18.785156 C 201.964844 18.605469 199.042969 18.78125 196.367188 19.523438 C 182.0625 23.484375 173.90625 38.964844 161.074219 46.285156 Z M 161.074219 46.28125 "/><path style=" stroke:none;fill-rule:nonzero;fill:#47342c;fill-opacity:1;" d="M 163.191406 58.265625 C 162.285156 58.53125 161.402344 58.8125 160.460938 58.921875 L 160.714844 58.710938 L 160.871094 58.898438 L 161.246094 58.839844 L 160.976562 58.714844 L 160.976562 58.609375 C 162.855469 57.96875 164.847656 57.359375 166.644531 56.519531 C 173.453125 53.332031 179.6875 47.675781 184.691406 42.105469 C 192.304688 33.628906 196.558594 24.886719 208.683594 22.496094 C 209.746094 22.394531 210.65625 22.589844 211.683594 22.808594 C 208.300781 23.941406 204.609375 24.539062 201.511719 26.390625 C 197.183594 28.980469 194.195312 32.691406 191.085938 36.5625 C 185.238281 43.839844 178.699219 51.585938 170.140625 55.742188 C 167.90625 56.824219 165.5625 57.558594 163.1875 58.265625 Z M 163.191406 58.265625 "/><path style=" stroke:none;fill-rule:nonzero;fill:#47342c;fill-opacity:1;" d="M 240.375 67.992188 C 239.765625 67.125 239.449219 60.878906 239.152344 59.289062 C 237.851562 52.320312 236.199219 45.664062 232.683594 39.414062 C 228.597656 32.148438 222.914062 26.703125 214.789062 24.445312 C 218.964844 24.496094 223.894531 27.824219 226.886719 30.507812 C 237.84375 40.332031 239.691406 54.179688 240.375 67.992188 Z M 240.375 67.992188 "/><path style=" stroke:none;fill-rule:nonzero;fill:#47342c;fill-opacity:1;" d="M 185.597656 51.472656 C 185.421875 51.667969 185.535156 51.597656 185.230469 51.636719 C 185.285156 51.542969 185.328125 51.441406 185.390625 51.347656 C 186.035156 50.382812 187.457031 49.359375 188.308594 48.523438 C 189.324219 47.527344 190.257812 46.46875 191.171875 45.378906 C 196.136719 39.472656 200.488281 29.636719 208.835938 28.113281 C 209.226562 28.199219 209.214844 28.144531 209.5 28.464844 C 208.640625 29.398438 204.296875 31.214844 202.242188 33.1875 C 200.542969 34.824219 199.128906 37 197.679688 38.863281 C 193.917969 43.703125 190.507812 47.699219 185.597656 51.472656 Z M 185.597656 51.472656 "/><path style=" stroke:none;fill-rule:nonzero;fill:#47342c;fill-opacity:1;" d="M 221.085938 73.175781 C 219.300781 72.414062 217.667969 71.257812 215.867188 70.515625 C 214.601562 69.957031 213.285156 69.539062 211.9375 69.234375 C 210.5625 68.890625 209.097656 68.742188 207.925781 68.0625 C 207.226562 67.625 207.53125 67.039062 208.125 66.695312 C 208.796875 66.269531 210.03125 65.929688 211.320312 65.867188 C 212.429688 65.804688 213.542969 65.910156 214.621094 66.164062 C 217.355469 66.824219 220.046875 68.378906 221.917969 70.550781 C 223.230469 72.078125 224.011719 74.355469 221.113281 73.1875 L 221.089844 73.175781 Z M 221.085938 73.175781 "/><path style=" stroke:none;fill-rule:nonzero;fill:#47342c;fill-opacity:1;" d="M 161.613281 73.175781 C 163.398438 72.414062 165.035156 71.257812 166.832031 70.515625 C 168.101562 69.957031 169.417969 69.539062 170.765625 69.234375 C 172.136719 68.890625 173.605469 68.742188 174.777344 68.0625 C 175.476562 67.625 175.171875 67.039062 174.574219 66.695312 C 173.902344 66.269531 172.667969 65.929688 171.378906 65.867188 C 170.273438 65.804688 169.160156 65.910156 168.082031 66.164062 C 165.347656 66.824219 162.65625 68.378906 160.785156 70.550781 C 159.46875 72.078125 158.691406 74.355469 161.589844 73.1875 Z M 161.613281 73.175781 "/><path style=" stroke:none;fill-rule:nonzero;fill:#47342c;fill-opacity:1;" d="M 172.285156 78.152344 C 168.792969 77.132812 165.667969 80.308594 165.941406 83.777344 C 166.097656 87 169.066406 89.621094 172.289062 88.710938 L 172.3125 88.703125 C 177.367188 87.191406 177.324219 79.695312 172.285156 78.152344 Z M 172.285156 78.152344 "/><path style=" stroke:none;fill-rule:nonzero;fill:#fefefe;fill-opacity:1;" d="M 172.992188 82.824219 C 171.730469 83.210938 170.5625 82.007812 170.804688 80.753906 C 171.042969 79.429688 172.878906 79.113281 173.675781 80.132812 C 174.453125 81.039062 174.183594 82.484375 173.019531 82.816406 Z M 172.992188 82.824219 "/><path style=" stroke:none;fill-rule:nonzero;fill:#47342c;fill-opacity:1;" d="M 216.425781 81.4375 C 215.015625 77.4375 209.867188 76.476562 207.527344 80.230469 C 205.097656 84.074219 208.097656 89.882812 212.867188 88.753906 L 212.890625 88.746094 C 215.957031 87.960938 217.527344 84.335938 216.425781 81.441406 Z M 216.425781 81.4375 "/><path style=" stroke:none;fill-rule:nonzero;fill:#fefefe;fill-opacity:1;" d="M 213.839844 82.164062 C 212.734375 82.695312 211.457031 81.726562 211.484375 80.542969 C 211.492188 79.324219 213.101562 78.75 213.984375 79.503906 C 214.902344 80.214844 214.945312 81.660156 213.863281 82.152344 Z M 213.839844 82.164062 "/><path style=" stroke:none;fill-rule:nonzero;fill:#c65852;fill-opacity:1;" d="M 230.933594 159.917969 C 242.578125 166.265625 254.644531 196.578125 258.316406 209.066406 C 258.875 210.96875 259.445312 212.878906 259.761719 214.835938 C 259.457031 215.3125 259.15625 215.398438 258.664062 215.65625 L 257.683594 216.191406 C 255.992188 217.222656 254.296875 218.203125 252.515625 219.070312 C 251.664062 219.484375 250.527344 219.792969 249.753906 220.289062 C 247.175781 221.167969 244.613281 222.09375 242.070312 223.070312 C 242.226562 222.210938 242.933594 221.238281 243.3125 220.425781 C 244.792969 217.230469 245.816406 214.148438 245.894531 210.582031 C 245.902344 210.195312 245.902344 209.808594 245.894531 209.425781 C 245.882812 209.039062 245.867188 208.652344 245.839844 208.269531 C 245.8125 207.882812 245.777344 207.5 245.730469 207.113281 C 245.6875 206.734375 245.628906 206.351562 245.566406 205.96875 C 245.503906 205.589844 245.429688 205.210938 245.347656 204.832031 C 245.265625 204.457031 245.175781 204.082031 245.074219 203.707031 C 244.976562 203.335938 244.867188 202.964844 244.75 202.597656 C 244.632812 202.230469 244.503906 201.867188 244.371094 201.503906 C 244.234375 201.144531 244.089844 200.785156 243.9375 200.429688 C 243.785156 200.074219 243.625 199.726562 243.457031 199.378906 C 243.289062 199.03125 243.113281 198.6875 242.925781 198.347656 C 242.742188 198.011719 242.546875 197.675781 242.347656 197.347656 C 242.148438 197.019531 241.9375 196.691406 241.71875 196.375 C 241.503906 196.054688 241.28125 195.742188 241.046875 195.433594 C 240.816406 195.125 240.574219 194.820312 240.332031 194.523438 C 240.082031 194.226562 239.832031 193.9375 239.570312 193.652344 C 237.941406 191.847656 236.070312 190.230469 234.378906 188.472656 C 235.359375 182.1875 235.054688 175.011719 233.449219 168.867188 C 232.691406 165.953125 231.546875 163.109375 230.976562 160.152344 Z M 230.933594 159.917969 "/><path style=" stroke:none;fill-rule:nonzero;fill:#c65852;fill-opacity:1;" d="M 114.414062 211.90625 C 117.5625 202.324219 122.5 193.238281 126.847656 184.113281 C 131.203125 174.980469 136.515625 165.074219 146.378906 161.042969 C 146.015625 163.78125 148.089844 166.144531 148.933594 168.636719 C 152.324219 178.316406 153.707031 188.878906 153.800781 199.113281 C 153.8125 203.011719 153.074219 207.414062 153.835938 211.242188 C 159.078125 233.96875 185.296875 235.21875 202.054688 224.160156 C 211.824219 229.964844 226.84375 233.664062 237.777344 229.128906 L 238.125 230.152344 C 238.203125 233.207031 239.921875 236.65625 241.207031 239.398438 C 209.421875 221.074219 163.253906 238.273438 151.898438 273.375 C 134.523438 322.738281 200.960938 372.058594 245.390625 351.523438 C 253.894531 349.855469 257.570312 346.273438 262.226562 339.390625 C 262.675781 346.753906 261.53125 354.207031 261.910156 361.59375 C 245.882812 367.582031 229.066406 371.464844 212.035156 373.109375 C 192.570312 375 172.828125 373.953125 153.667969 370.027344 C 144.964844 368.007812 135.636719 366.347656 127.367188 362.914062 C 126.433594 362.484375 126.972656 354.652344 126.917969 353.226562 C 126.820312 339.785156 127.640625 325.914062 129.257812 312.675781 C 131.691406 293.363281 137.957031 275.308594 146.207031 257.832031 C 148.683594 252.585938 151.753906 247.613281 154.027344 242.277344 C 155.171875 237.273438 151.464844 214.078125 149.882812 207.902344 C 148.234375 211.054688 141.847656 223.582031 139.964844 225.324219 C 139.539062 225.171875 139.113281 225.023438 138.683594 224.875 C 137.550781 223.382812 120.191406 214.332031 117.320312 212.925781 C 116.582031 212.5625 115.160156 211.652344 114.414062 211.90625 Z M 114.414062 211.90625 "/><path style=" stroke:none;fill-rule:nonzero;fill:#f2b495;fill-opacity:1;" d="M 125.140625 267.53125 C 126.425781 275.070312 128.101562 282.527344 130.164062 289.894531 C 130.660156 291.6875 131.082031 294.226562 132.15625 295.742188 C 132.410156 297.65625 133.167969 299.550781 133.828125 301.359375 C 135.804688 306.769531 138.339844 311.960938 141.226562 316.941406 C 144.050781 321.816406 147.058594 327.125 150.808594 331.355469 C 151.847656 332.523438 153.03125 332.300781 154.550781 332.167969 C 155.921875 332.050781 157.167969 332.375 158.53125 332.609375 C 161.234375 333.074219 163.898438 333.792969 166.511719 334.621094 C 167.832031 335.035156 169.191406 335.429688 170.390625 336.132812 C 170.964844 336.46875 171.714844 336.796875 171.160156 337.4375 C 170.519531 338.175781 169.449219 338.4375 168.523438 338.597656 C 167.316406 338.804688 166.085938 338.878906 164.863281 338.871094 C 162.46875 338.859375 160.066406 338.539062 157.75 337.9375 C 157.945312 337.988281 158.367188 338.542969 158.527344 338.679688 C 158.910156 339.007812 159.300781 339.332031 159.695312 339.640625 C 160.492188 340.265625 161.316406 340.851562 162.164062 341.40625 C 163.832031 342.496094 165.578125 343.460938 167.363281 344.347656 C 169.449219 345.382812 171.582031 346.316406 173.71875 347.234375 C 175.066406 347.8125 176.46875 348.242188 177.839844 348.757812 C 178.539062 349.019531 179.230469 349.304688 179.898438 349.644531 C 180.449219 349.921875 181.105469 350.109375 181.511719 350.585938 C 181.757812 350.871094 181.964844 351.214844 181.957031 351.589844 C 181.941406 352.308594 181.484375 352.269531 180.996094 352.15625 C 180.253906 351.984375 179.472656 351.9375 178.722656 351.8125 C 177.199219 351.550781 175.6875 351.203125 174.195312 350.804688 C 171.1875 350.003906 168.246094 348.988281 165.296875 348.019531 C 167.65625 349.621094 170.417969 350.574219 173.125 351.394531 C 174.582031 351.835938 176.050781 352.234375 177.519531 352.640625 C 178.234375 352.835938 178.949219 353.035156 179.660156 353.246094 C 180.320312 353.4375 181.054688 353.515625 181.550781 354.058594 C 181.835938 354.371094 181.960938 354.878906 181.714844 355.226562 C 181.46875 355.574219 180.980469 355.628906 180.554688 355.632812 C 175.441406 355.703125 170.457031 353.371094 165.71875 351.710938 C 169.535156 354.03125 173.945312 355.132812 178.113281 356.738281 C 178.65625 356.949219 179.296875 357.3125 179.257812 357.894531 C 179.238281 358.210938 178.996094 358.480469 178.714844 358.621094 C 178.429688 358.761719 178.105469 358.792969 177.789062 358.800781 C 175.921875 358.871094 174.085938 358.339844 172.308594 357.773438 C 169.558594 356.898438 166.847656 355.914062 164.179688 354.828125 C 165 355.378906 166.078125 355.714844 166.972656 356.128906 C 167.9375 356.578125 168.90625 357.027344 169.871094 357.476562 C 170.839844 357.929688 174.3125 358.914062 174.019531 360.484375 C 173.953125 360.847656 173.617188 361.109375 173.261719 361.199219 C 172.90625 361.292969 172.527344 361.238281 172.164062 361.179688 C 168.3125 360.53125 164.960938 358.726562 161.664062 356.722656 C 160.277344 355.875 159 354.9375 157.640625 354.058594 C 156.199219 353.132812 154.8125 352.109375 153.511719 350.996094 C 152.980469 350.542969 152.464844 350.070312 151.964844 349.585938 C 150.265625 347.929688 148.820312 346.3125 147.652344 344.238281 C 147.019531 343.113281 146.480469 341.695312 145.625 340.730469 C 144.359375 339.304688 142.886719 338.039062 141.5625 336.660156 C 138.078125 333.035156 134.359375 328.917969 131.449219 324.824219 C 129.4375 321.660156 126.421875 318.851562 124.074219 315.898438 C 118.078125 308.34375 112.148438 299.921875 108.015625 291.191406 C 103.078125 280.769531 98.269531 267.453125 99.625 255.785156 C 100.042969 252.175781 101.15625 248.679688 102.203125 245.210938 C 104.398438 237.90625 107.003906 230.773438 109.570312 223.59375 C 110.277344 222.109375 110.855469 220.609375 111.417969 219.070312 C 112.445312 216.707031 113.5625 214.339844 114.421875 211.910156 C 115.167969 211.652344 116.589844 212.5625 117.328125 212.925781 C 120.199219 214.335938 137.558594 223.382812 138.691406 224.878906 C 137.039062 228.589844 134.824219 232.113281 133.472656 235.941406 C 131.480469 238.523438 127.234375 249.925781 125.953125 253.453125 C 125.191406 255.539062 124.300781 257.820312 124.046875 260.113281 C 123.765625 262.664062 124.734375 265.042969 125.148438 267.535156 Z M 125.140625 267.53125 "/><path style=" stroke:none;fill-rule:nonzero;fill:#f2b495;fill-opacity:1;" d="M 262.035156 342.28125 C 265.15625 339.246094 267.144531 335.25 267.945312 330.992188 C 268.335938 328.917969 268.582031 326.621094 268.324219 324.515625 C 268.222656 323.691406 268.027344 322.886719 267.902344 322.066406 C 267.863281 321.792969 267.113281 318.859375 267.058594 318.925781 C 264.546875 322.042969 264.03125 325.261719 259.445312 324.863281 C 258.074219 324.746094 256.832031 325.074219 255.46875 325.308594 C 252.761719 325.769531 250.101562 326.492188 247.484375 327.316406 C 246.167969 327.734375 244.808594 328.125 243.605469 328.832031 C 243.035156 329.167969 242.28125 329.492188 242.839844 330.136719 C 243.476562 330.871094 244.550781 331.132812 245.476562 331.292969 C 246.683594 331.5 247.914062 331.574219 249.132812 331.570312 C 251.527344 331.554688 253.933594 331.234375 256.25 330.636719 C 256.054688 330.683594 255.628906 331.238281 255.472656 331.375 C 255.089844 331.707031 254.699219 332.027344 254.300781 332.339844 C 253.503906 332.960938 252.679688 333.546875 251.835938 334.101562 C 250.167969 335.195312 248.417969 336.15625 246.632812 337.046875 C 244.550781 338.082031 242.414062 339.011719 240.277344 339.933594 C 238.933594 340.511719 237.53125 340.941406 236.160156 341.453125 C 235.460938 341.71875 234.765625 342 234.097656 342.339844 C 233.550781 342.617188 232.890625 342.808594 232.484375 343.28125 C 232.242188 343.566406 232.035156 343.910156 232.042969 344.285156 C 232.054688 345.003906 232.515625 344.964844 233.003906 344.851562 C 233.742188 344.679688 234.527344 344.636719 235.277344 344.507812 C 236.800781 344.25 238.308594 343.902344 239.804688 343.5 C 242.808594 342.699219 245.75 341.683594 248.703125 340.714844 C 246.34375 342.320312 243.582031 343.269531 240.875 344.089844 C 239.417969 344.53125 237.949219 344.929688 236.480469 345.335938 C 235.765625 345.535156 235.050781 345.734375 234.339844 345.941406 C 233.675781 346.136719 232.945312 346.214844 232.449219 346.753906 C 232.160156 347.066406 232.039062 347.574219 232.285156 347.925781 C 232.53125 348.269531 233.019531 348.324219 233.441406 348.332031 C 238.558594 348.398438 243.542969 346.070312 248.277344 344.40625 C 244.464844 346.726562 240.054688 347.832031 235.886719 349.433594 C 235.34375 349.644531 234.703125 350.011719 234.742188 350.589844 C 234.761719 350.90625 235 351.179688 235.285156 351.316406 C 235.570312 351.457031 235.894531 351.488281 236.210938 351.5 C 238.078125 351.566406 239.910156 351.035156 241.691406 350.472656 C 244.4375 349.597656 247.152344 348.613281 249.820312 347.527344 C 249 348.074219 247.917969 348.410156 247.023438 348.824219 C 246.058594 349.273438 245.089844 349.722656 244.125 350.175781 C 243.15625 350.625 239.6875 351.609375 239.976562 353.179688 C 240.042969 353.542969 240.378906 353.808594 240.738281 353.898438 C 241.09375 353.988281 241.46875 353.9375 241.832031 353.875 C 245.6875 353.230469 249.039062 351.425781 252.332031 349.417969 C 253.722656 348.570312 254.996094 347.636719 256.359375 346.757812 C 257.800781 345.828125 259.1875 344.808594 260.488281 343.691406 C 261.015625 343.238281 261.53125 342.769531 262.03125 342.28125 Z M 262.035156 342.28125 "/><path style=" stroke:none;fill-rule:nonzero;fill:#e59c83;fill-opacity:1;" d="M 117.890625 256.230469 C 119.957031 256.960938 122.003906 257.742188 124.027344 258.578125 C 123.886719 259.183594 123.734375 259.753906 123.742188 260.382812 C 121.574219 259.789062 119.390625 257.84375 117.890625 256.230469 Z M 117.890625 256.230469 "/><path style=" stroke:none;fill-rule:nonzero;fill:#f28879;fill-opacity:1;" d="M 172.9375 97.984375 C 172.9375 98.480469 172.886719 98.976562 172.789062 99.464844 C 172.691406 99.957031 172.546875 100.429688 172.359375 100.890625 C 172.167969 101.355469 171.933594 101.792969 171.65625 102.207031 C 171.378906 102.621094 171.0625 103.007812 170.707031 103.359375 C 170.355469 103.710938 169.972656 104.027344 169.554688 104.304688 C 169.140625 104.582031 168.703125 104.816406 168.242188 105.007812 C 167.78125 105.199219 167.304688 105.34375 166.8125 105.441406 C 166.324219 105.539062 165.828125 105.585938 165.332031 105.585938 C 164.832031 105.585938 164.335938 105.539062 163.847656 105.441406 C 163.355469 105.34375 162.882812 105.199219 162.417969 105.007812 C 161.957031 104.816406 161.519531 104.582031 161.105469 104.304688 C 160.6875 104.027344 160.304688 103.710938 159.953125 103.359375 C 159.597656 103.007812 159.285156 102.621094 159.007812 102.207031 C 158.730469 101.792969 158.496094 101.355469 158.304688 100.890625 C 158.113281 100.429688 157.96875 99.957031 157.871094 99.464844 C 157.773438 98.976562 157.722656 98.480469 157.722656 97.984375 C 157.722656 97.484375 157.773438 96.988281 157.871094 96.5 C 157.96875 96.007812 158.113281 95.535156 158.304688 95.074219 C 158.496094 94.613281 158.730469 94.171875 159.007812 93.757812 C 159.285156 93.34375 159.597656 92.957031 159.953125 92.605469 C 160.304688 92.253906 160.6875 91.9375 161.105469 91.660156 C 161.519531 91.382812 161.957031 91.148438 162.417969 90.957031 C 162.882812 90.765625 163.355469 90.621094 163.847656 90.523438 C 164.335938 90.425781 164.832031 90.378906 165.332031 90.378906 C 165.828125 90.378906 166.324219 90.425781 166.8125 90.523438 C 167.304688 90.621094 167.78125 90.765625 168.242188 90.957031 C 168.703125 91.148438 169.140625 91.382812 169.554688 91.660156 C 169.972656 91.9375 170.355469 92.253906 170.707031 92.605469 C 171.0625 92.957031 171.378906 93.34375 171.65625 93.757812 C 171.933594 94.171875 172.167969 94.613281 172.359375 95.074219 C 172.546875 95.535156 172.691406 96.007812 172.789062 96.5 C 172.886719 96.988281 172.9375 97.484375 172.9375 97.984375 Z M 172.9375 97.984375 "/><path style=" stroke:none;fill-rule:nonzero;fill:#f28879;fill-opacity:1;" d="M 224.976562 97.984375 C 224.976562 98.480469 224.929688 98.976562 224.832031 99.464844 C 224.734375 99.957031 224.589844 100.429688 224.398438 100.890625 C 224.207031 101.355469 223.972656 101.792969 223.695312 102.207031 C 223.417969 102.621094 223.101562 103.007812 222.75 103.359375 C 222.394531 103.710938 222.011719 104.027344 221.597656 104.304688 C 221.183594 104.582031 220.742188 104.816406 220.28125 105.007812 C 219.820312 105.199219 219.34375 105.34375 218.855469 105.441406 C 218.367188 105.539062 217.871094 105.585938 217.371094 105.585938 C 216.871094 105.585938 216.378906 105.539062 215.886719 105.441406 C 215.398438 105.34375 214.921875 105.199219 214.460938 105.007812 C 214 104.816406 213.5625 104.582031 213.144531 104.304688 C 212.730469 104.027344 212.347656 103.710938 211.992188 103.359375 C 211.640625 103.007812 211.324219 102.621094 211.046875 102.207031 C 210.769531 101.792969 210.535156 101.355469 210.34375 100.890625 C 210.152344 100.429688 210.007812 99.957031 209.910156 99.464844 C 209.8125 98.976562 209.765625 98.480469 209.765625 97.984375 C 209.765625 97.484375 209.8125 96.988281 209.910156 96.5 C 210.007812 96.007812 210.152344 95.535156 210.34375 95.074219 C 210.535156 94.613281 210.769531 94.171875 211.046875 93.757812 C 211.324219 93.34375 211.640625 92.957031 211.992188 92.605469 C 212.347656 92.253906 212.730469 91.9375 213.144531 91.660156 C 213.5625 91.382812 214 91.148438 214.460938 90.957031 C 214.921875 90.765625 215.398438 90.621094 215.886719 90.523438 C 216.378906 90.425781 216.871094 90.378906 217.371094 90.378906 C 217.871094 90.378906 218.367188 90.425781 218.855469 90.523438 C 219.34375 90.621094 219.820312 90.765625 220.28125 90.957031 C 220.742188 91.148438 221.183594 91.382812 221.597656 91.660156 C 222.011719 91.9375 222.394531 92.253906 222.75 92.605469 C 223.101562 92.957031 223.417969 93.34375 223.695312 93.757812 C 223.972656 94.171875 224.207031 94.613281 224.398438 95.074219 C 224.589844 95.535156 224.734375 96.007812 224.832031 96.5 C 224.929688 96.988281 224.976562 97.484375 224.976562 97.984375 Z M 224.976562 97.984375 "/><path style=" stroke:none;fill-rule:nonzero;fill:#895d4e;fill-opacity:1;" d="M 179.15625 106.285156 C 179.910156 108.132812 181.046875 109.796875 182.523438 111.144531 C 183.992188 112.480469 185.726562 113.5 187.613281 114.121094 C 189.539062 114.75 191.5625 114.886719 193.558594 114.585938 C 195.554688 114.289062 197.339844 113.554688 198.949219 112.488281 C 200.632812 111.375 202.085938 109.910156 203.121094 108.171875 C 203.238281 107.96875 203.351562 107.765625 203.460938 107.558594 C 203.703125 107.09375 203.597656 106.445312 203.101562 106.183594 C 202.636719 105.9375 201.984375 106.046875 201.722656 106.542969 C 201.460938 107.039062 201.175781 107.511719 200.851562 107.964844 C 200.8125 108.019531 200.773438 108.074219 200.734375 108.128906 C 200.710938 108.15625 200.554688 108.359375 200.675781 108.203125 C 200.792969 108.050781 200.636719 108.25 200.617188 108.277344 C 200.570312 108.335938 200.519531 108.394531 200.476562 108.453125 C 200.292969 108.671875 200.105469 108.882812 199.910156 109.085938 C 199.53125 109.484375 199.125 109.855469 198.699219 110.199219 C 198.648438 110.238281 198.582031 110.273438 198.542969 110.324219 C 198.546875 110.320312 198.75 110.164062 198.628906 110.257812 C 198.601562 110.277344 198.574219 110.296875 198.546875 110.316406 C 198.433594 110.402344 198.320312 110.484375 198.203125 110.566406 C 197.980469 110.722656 197.75 110.875 197.511719 111.015625 C 196.972656 111.34375 196.410156 111.636719 195.824219 111.882812 L 196.066406 111.78125 C 195.035156 112.214844 193.957031 112.515625 192.851562 112.667969 L 193.121094 112.632812 C 192.101562 112.765625 191.070312 112.769531 190.050781 112.640625 L 190.316406 112.675781 C 189.246094 112.53125 188.203125 112.242188 187.207031 111.824219 L 187.445312 111.929688 C 186.867188 111.683594 186.300781 111.398438 185.765625 111.070312 C 185.5 110.910156 185.238281 110.738281 184.984375 110.558594 C 184.863281 110.476562 184.746094 110.386719 184.628906 110.296875 C 184.570312 110.253906 184.460938 110.164062 184.695312 110.351562 C 184.667969 110.328125 184.644531 110.308594 184.617188 110.289062 C 184.546875 110.234375 184.476562 110.175781 184.40625 110.117188 C 183.921875 109.71875 183.464844 109.28125 183.042969 108.8125 C 182.945312 108.703125 182.847656 108.589844 182.753906 108.480469 C 182.707031 108.421875 182.660156 108.367188 182.613281 108.308594 C 182.566406 108.246094 182.367188 107.976562 182.574219 108.261719 C 182.390625 108.011719 182.207031 107.761719 182.039062 107.503906 C 181.652344 106.914062 181.324219 106.292969 181.050781 105.644531 L 181.152344 105.882812 C 181.132812 105.839844 181.113281 105.792969 181.097656 105.75 C 180.992188 105.496094 180.878906 105.289062 180.632812 105.148438 C 180.417969 105.019531 180.101562 104.964844 179.855469 105.042969 C 179.613281 105.121094 179.378906 105.273438 179.253906 105.507812 C 179.132812 105.738281 179.054688 106.039062 179.152344 106.28125 Z M 179.15625 106.285156 "/><path style=" stroke:none;fill-rule:nonzero;fill:#895d4e;fill-opacity:1;" d="M 187.496094 91.953125 C 186.652344 92.960938 186.183594 94.160156 186.085938 95.46875 C 185.996094 96.664062 186.289062 97.9375 186.925781 98.957031 C 188.234375 101.054688 190.832031 102.089844 193.234375 101.609375 C 194.621094 101.332031 195.984375 100.4375 196.625 99.15625 C 196.859375 98.6875 196.765625 98.042969 196.261719 97.777344 C 195.804688 97.539062 195.136719 97.636719 194.886719 98.136719 C 194.835938 98.238281 194.785156 98.332031 194.726562 98.425781 C 194.699219 98.46875 194.671875 98.507812 194.640625 98.550781 C 194.621094 98.582031 194.503906 98.734375 194.617188 98.585938 C 194.730469 98.441406 194.59375 98.613281 194.566406 98.640625 C 194.535156 98.675781 194.5 98.714844 194.464844 98.75 C 194.398438 98.824219 194.324219 98.890625 194.25 98.960938 C 194.210938 98.992188 194.171875 99.023438 194.132812 99.058594 C 193.984375 99.183594 194.335938 98.910156 194.179688 99.023438 C 194.09375 99.082031 194.011719 99.140625 193.925781 99.191406 C 193.738281 99.308594 193.542969 99.410156 193.339844 99.496094 L 193.578125 99.394531 C 193.207031 99.550781 192.820312 99.660156 192.417969 99.714844 L 192.6875 99.679688 C 192.25 99.738281 191.808594 99.734375 191.371094 99.679688 L 191.636719 99.714844 C 191.183594 99.652344 190.742188 99.53125 190.316406 99.355469 L 190.558594 99.457031 C 190.28125 99.339844 190.015625 99.203125 189.761719 99.042969 C 189.703125 99.003906 189.644531 98.964844 189.585938 98.925781 C 189.554688 98.902344 189.523438 98.878906 189.488281 98.855469 C 189.355469 98.761719 189.65625 98.988281 189.5625 98.914062 C 189.445312 98.816406 189.332031 98.722656 189.222656 98.621094 C 189.121094 98.519531 189.023438 98.417969 188.929688 98.3125 C 188.882812 98.257812 188.816406 98.195312 188.78125 98.132812 C 188.789062 98.144531 188.929688 98.332031 188.851562 98.222656 C 188.828125 98.191406 188.804688 98.160156 188.785156 98.125 C 188.601562 97.863281 188.453125 97.582031 188.328125 97.289062 L 188.429688 97.53125 C 188.265625 97.136719 188.15625 96.726562 188.097656 96.304688 L 188.132812 96.570312 C 188.070312 96.101562 188.070312 95.625 188.132812 95.152344 L 188.097656 95.417969 C 188.15625 94.980469 188.273438 94.554688 188.441406 94.144531 L 188.339844 94.382812 C 188.429688 94.171875 188.53125 93.96875 188.648438 93.773438 C 188.707031 93.675781 188.769531 93.578125 188.835938 93.484375 C 188.863281 93.445312 188.894531 93.40625 188.921875 93.367188 C 188.738281 93.636719 188.867188 93.441406 188.917969 93.375 C 189.09375 93.167969 189.214844 92.945312 189.214844 92.664062 C 189.214844 92.417969 189.105469 92.125 188.917969 91.953125 C 188.546875 91.613281 187.855469 91.523438 187.496094 91.953125 Z M 187.496094 91.953125 "/><path style=" stroke:none;fill-rule:nonzero;fill:#895d4e;fill-opacity:1;" d="M 146.269531 83.378906 C 145.292969 83.023438 144.265625 82.8125 143.226562 82.960938 C 142.410156 83.082031 141.578125 83.492188 141.050781 84.140625 C 139.863281 85.613281 140.464844 87.734375 141.835938 88.859375 C 142.632812 89.511719 143.589844 89.90625 144.578125 90.15625 C 144.824219 90.21875 145.121094 90.074219 145.175781 89.816406 C 145.234375 89.554688 145.101562 89.285156 144.835938 89.21875 C 144.449219 89.121094 144.074219 89.003906 143.703125 88.855469 C 143.617188 88.820312 143.742188 88.875 143.65625 88.835938 C 143.613281 88.816406 143.5625 88.796875 143.515625 88.773438 C 143.425781 88.730469 143.332031 88.683594 143.242188 88.636719 C 143.070312 88.542969 142.898438 88.441406 142.738281 88.332031 C 142.703125 88.308594 142.667969 88.28125 142.632812 88.253906 C 142.613281 88.242188 142.597656 88.230469 142.578125 88.214844 C 142.519531 88.171875 142.632812 88.261719 142.574219 88.210938 C 142.496094 88.148438 142.417969 88.085938 142.34375 88.011719 C 142.199219 87.882812 142.070312 87.742188 141.949219 87.59375 C 142 87.65625 141.945312 87.585938 141.925781 87.5625 C 141.902344 87.527344 141.878906 87.492188 141.855469 87.457031 C 141.800781 87.378906 141.753906 87.296875 141.707031 87.210938 C 141.664062 87.132812 141.625 87.050781 141.585938 86.972656 C 141.5625 86.921875 141.59375 86.988281 141.597656 86.996094 C 141.585938 86.96875 141.578125 86.945312 141.566406 86.917969 C 141.550781 86.875 141.535156 86.828125 141.519531 86.78125 C 141.460938 86.609375 141.421875 86.429688 141.390625 86.25 C 141.40625 86.347656 141.390625 86.234375 141.386719 86.195312 C 141.382812 86.15625 141.382812 86.117188 141.378906 86.074219 C 141.375 85.984375 141.378906 85.886719 141.382812 85.796875 C 141.386719 85.75 141.390625 85.703125 141.394531 85.65625 C 141.386719 85.742188 141.394531 85.671875 141.402344 85.628906 C 141.421875 85.539062 141.441406 85.445312 141.46875 85.355469 C 141.480469 85.316406 141.496094 85.28125 141.507812 85.242188 C 141.539062 85.160156 141.511719 85.230469 141.503906 85.246094 C 141.511719 85.230469 141.523438 85.210938 141.53125 85.191406 C 141.570312 85.105469 141.617188 85.023438 141.664062 84.945312 C 141.6875 84.910156 141.707031 84.878906 141.730469 84.84375 C 141.742188 84.832031 141.792969 84.765625 141.753906 84.8125 C 141.71875 84.859375 141.757812 84.804688 141.765625 84.800781 C 141.824219 84.730469 141.886719 84.660156 141.953125 84.597656 C 141.980469 84.566406 142.011719 84.542969 142.039062 84.515625 C 142.0625 84.496094 142.082031 84.480469 142.101562 84.460938 C 142.109375 84.457031 142.160156 84.414062 142.113281 84.449219 C 142.074219 84.484375 142.164062 84.414062 142.179688 84.40625 C 142.222656 84.375 142.265625 84.34375 142.3125 84.316406 C 142.386719 84.269531 142.460938 84.226562 142.539062 84.1875 C 142.574219 84.167969 142.613281 84.148438 142.648438 84.132812 C 142.667969 84.121094 142.6875 84.113281 142.707031 84.105469 C 142.773438 84.074219 142.597656 84.148438 142.71875 84.101562 C 142.886719 84.039062 143.050781 83.984375 143.226562 83.945312 C 143.277344 83.933594 143.332031 83.925781 143.386719 83.914062 C 143.40625 83.910156 143.425781 83.910156 143.445312 83.90625 C 143.519531 83.890625 143.308594 83.917969 143.464844 83.902344 C 143.589844 83.890625 143.714844 83.882812 143.84375 83.878906 C 143.96875 83.878906 144.09375 83.878906 144.21875 83.886719 C 144.277344 83.890625 144.335938 83.898438 144.394531 83.902344 C 144.421875 83.90625 144.445312 83.910156 144.46875 83.910156 C 144.628906 83.929688 144.425781 83.902344 144.515625 83.917969 C 145.027344 84.003906 145.519531 84.140625 146.007812 84.316406 C 146.246094 84.402344 146.550781 84.21875 146.605469 83.976562 C 146.667969 83.699219 146.519531 83.472656 146.265625 83.378906 Z M 146.269531 83.378906 "/><path style=" stroke:none;fill-rule:nonzero;fill:#895d4e;fill-opacity:1;" d="M 233.777344 84.96875 C 233.886719 84.921875 233.996094 84.871094 234.101562 84.824219 C 234.253906 84.757812 234.265625 84.753906 234.40625 84.699219 C 234.628906 84.605469 234.859375 84.523438 235.09375 84.457031 C 235.210938 84.421875 235.335938 84.390625 235.457031 84.367188 C 235.507812 84.355469 235.550781 84.347656 235.601562 84.339844 C 235.628906 84.335938 235.660156 84.332031 235.691406 84.324219 C 235.617188 84.335938 235.679688 84.328125 235.714844 84.324219 C 235.933594 84.300781 236.152344 84.304688 236.367188 84.324219 C 236.464844 84.332031 236.390625 84.324219 236.371094 84.324219 C 236.394531 84.328125 236.417969 84.332031 236.4375 84.335938 C 236.492188 84.34375 236.539062 84.351562 236.589844 84.367188 C 236.707031 84.394531 236.820312 84.429688 236.929688 84.472656 C 236.847656 84.441406 236.972656 84.496094 236.992188 84.507812 C 237.039062 84.53125 237.085938 84.554688 237.128906 84.582031 C 237.171875 84.605469 237.207031 84.632812 237.246094 84.660156 C 237.257812 84.671875 237.324219 84.722656 237.28125 84.683594 C 237.234375 84.644531 237.300781 84.703125 237.308594 84.710938 C 237.382812 84.773438 237.453125 84.84375 237.519531 84.921875 C 237.535156 84.9375 237.617188 85.039062 237.585938 84.996094 C 237.550781 84.949219 237.589844 85.003906 237.597656 85.011719 C 237.617188 85.039062 237.636719 85.066406 237.65625 85.09375 C 237.707031 85.171875 237.753906 85.253906 237.800781 85.335938 C 237.820312 85.378906 237.84375 85.421875 237.863281 85.464844 C 237.875 85.488281 237.886719 85.515625 237.894531 85.539062 C 237.878906 85.5 237.875 85.492188 237.894531 85.535156 C 237.964844 85.726562 238.027344 85.921875 238.066406 86.125 C 238.074219 86.171875 238.082031 86.21875 238.089844 86.265625 C 238.089844 86.28125 238.101562 86.367188 238.09375 86.304688 C 238.085938 86.242188 238.09375 86.3125 238.09375 86.320312 C 238.105469 86.4375 238.113281 86.550781 238.117188 86.667969 C 238.117188 86.769531 238.117188 86.871094 238.113281 86.972656 C 238.113281 87.023438 238.109375 87.074219 238.101562 87.125 C 238.101562 87.148438 238.097656 87.167969 238.097656 87.1875 C 238.097656 87.1875 238.082031 87.320312 238.089844 87.253906 C 238.097656 87.195312 238.085938 87.269531 238.085938 87.277344 C 238.082031 87.304688 238.074219 87.335938 238.070312 87.363281 C 238.0625 87.414062 238.050781 87.460938 238.042969 87.511719 C 238.019531 87.617188 237.996094 87.722656 237.964844 87.828125 C 237.933594 87.9375 237.898438 88.039062 237.863281 88.140625 C 237.84375 88.1875 237.824219 88.234375 237.808594 88.28125 C 237.8125 88.273438 237.835938 88.214844 237.8125 88.265625 C 237.796875 88.300781 237.78125 88.332031 237.769531 88.363281 C 237.675781 88.5625 237.566406 88.753906 237.445312 88.933594 C 237.417969 88.976562 237.390625 89.015625 237.359375 89.058594 C 237.34375 89.078125 237.261719 89.183594 237.316406 89.113281 C 237.246094 89.199219 237.175781 89.28125 237.101562 89.363281 C 237.035156 89.4375 236.964844 89.507812 236.890625 89.574219 C 236.851562 89.605469 236.816406 89.640625 236.777344 89.671875 C 236.753906 89.691406 236.730469 89.710938 236.710938 89.730469 C 236.703125 89.738281 236.613281 89.808594 236.660156 89.773438 C 236.703125 89.738281 236.644531 89.78125 236.640625 89.785156 C 236.609375 89.808594 236.582031 89.828125 236.554688 89.851562 C 236.507812 89.882812 236.457031 89.914062 236.410156 89.945312 C 236.308594 90.011719 236.203125 90.074219 236.09375 90.132812 C 235.992188 90.1875 235.890625 90.234375 235.785156 90.28125 C 235.867188 90.246094 235.800781 90.277344 235.78125 90.28125 C 235.753906 90.292969 235.726562 90.300781 235.699219 90.3125 C 235.640625 90.335938 235.582031 90.359375 235.519531 90.378906 C 235.292969 90.453125 235.0625 90.503906 234.832031 90.546875 C 234.808594 90.550781 234.734375 90.558594 234.832031 90.546875 C 234.800781 90.550781 234.773438 90.554688 234.746094 90.554688 C 234.6875 90.5625 234.628906 90.566406 234.574219 90.570312 C 234.445312 90.578125 234.316406 90.578125 234.1875 90.578125 C 233.929688 90.570312 233.6875 90.804688 233.699219 91.0625 C 233.710938 91.320312 233.914062 91.542969 234.1875 91.550781 C 235.164062 91.574219 236.160156 91.285156 236.972656 90.738281 C 237.824219 90.160156 238.453125 89.339844 238.808594 88.375 C 239.457031 86.589844 238.996094 83.972656 236.890625 83.4375 C 235.632812 83.117188 234.417969 83.625 233.289062 84.132812 C 233.058594 84.238281 232.984375 84.59375 233.113281 84.800781 C 233.269531 85.042969 233.53125 85.085938 233.78125 84.976562 Z M 233.777344 84.96875 "/></g></svg>