<svg xmlns="http://www.w3.org/2000/svg" xmlns:xlink="http://www.w3.org/1999/xlink" width="500" zoomAndPan="magnify" viewBox="0 0 375 374.999991" height="500" preserveAspectRatio="xMidYMid meet" version="1.2"><defs><clipPath id="ace2b2fd90"><path d="M 173 271 L 375 271 L 375 374.660156 L 173 374.660156 Z M 173 271 "/></clipPath><clipPath id="b47fdf9345"><path d="M 12 146 L 367 146 L 367 374.660156 L 12 374.660156 Z M 12 146 "/></clipPath></defs><g id="e73eb30afd"><g clip-rule="nonzero" clip-path="url(#ace2b2fd90)"><path style=" stroke:none;fill-rule:nonzero;fill:#f1f2f2;fill-opacity:1;" d="M 366.757812 271.136719 Z M 366.757812 271.136719 L 176.878906 325.867188 C 176.878906 325.867188 163.996094 351.445312 186.121094 374.648438 L 375.0625 314.0625 C 375.0625 314.0625 350.183594 298.167969 366.761719 271.136719 Z M 366.757812 271.136719 "/></g><g clip-rule="nonzero" clip-path="url(#b47fdf9345)"><path style=" stroke:none;fill-rule:nonzero;fill:#f9d16f;fill-opacity:1;" d="M 13.40625 239.164062 L 186.113281 374.660156 C 163.988281 351.457031 176.871094 325.878906 176.871094 325.878906 L 366.757812 271.144531 L 197.925781 146.777344 L 23.890625 207.476562 C 13.199219 217.886719 9.90625 228.445312 13.402344 239.164062 Z M 13.40625 239.164062 "/></g><path style=" stroke:none;fill-rule:nonzero;fill:#7e6698;fill-opacity:1;" d="M 24.800781 207.160156 L 23.894531 207.476562 C 23.691406 207.664062 23.566406 207.851562 23.367188 208.039062 C 23.378906 208.066406 23.398438 208.089844 23.410156 208.117188 L 176.390625 326.519531 C 176.445312 326.542969 176.5 326.558594 176.554688 326.566406 C 176.679688 326.292969 176.878906 325.882812 176.878906 325.882812 L 177.675781 325.65625 C 177.640625 325.496094 177.554688 325.359375 177.433594 325.246094 Z M 24.800781 207.160156 "/><path style=" stroke:none;fill-rule:nonzero;fill:#f1f2f2;fill-opacity:1;" d="M 67.039062 130.3125 C 46.242188 131.859375 40.511719 153.558594 40.511719 153.558594 L 65.0625 287.933594 L 319.722656 272.960938 C 316.710938 247.199219 339.992188 230.570312 339.992188 230.570312 L 89.386719 256.296875 Z M 67.039062 130.3125 "/><path style=" stroke:none;fill-rule:nonzero;fill:#7e6698;fill-opacity:1;" d="M 89.386719 256.300781 L 339.992188 230.570312 L 296.519531 113.230469 L 67.039062 130.3125 Z M 89.386719 256.300781 "/><path style=" stroke:none;fill-rule:nonzero;fill:#bcbec0;fill-opacity:1;" d="M 59.40625 138.058594 C 59.1875 138.097656 59.011719 138.207031 58.890625 138.386719 C 58.761719 138.570312 58.714844 138.769531 58.75 138.988281 L 79.761719 257.289062 C 79.796875 257.507812 79.914062 257.683594 80.101562 257.8125 C 80.28125 257.9375 80.484375 257.980469 80.703125 257.9375 C 80.921875 257.902344 81.097656 257.789062 81.222656 257.609375 C 81.351562 257.429688 81.394531 257.230469 81.355469 257.011719 L 60.34375 138.710938 C 60.308594 138.492188 60.195312 138.320312 60.011719 138.191406 C 59.832031 138.066406 59.628906 138.023438 59.40625 138.058594 Z M 52.855469 142.992188 C 52.636719 143.027344 52.460938 143.136719 52.328125 143.320312 C 52.203125 143.5 52.160156 143.699219 52.195312 143.921875 L 72.707031 264.363281 C 72.742188 264.582031 72.851562 264.753906 73.03125 264.882812 C 73.214844 265.011719 73.417969 265.058594 73.632812 265.019531 C 73.851562 264.980469 74.027344 264.871094 74.15625 264.691406 C 74.28125 264.511719 74.328125 264.308594 74.292969 264.09375 L 53.78125 143.652344 C 53.746094 143.433594 53.636719 143.261719 53.453125 143.132812 C 53.273438 143.003906 53.070312 142.957031 52.855469 142.992188 Z M 46.507812 147.464844 C 46.289062 147.503906 46.113281 147.613281 45.984375 147.796875 C 45.851562 147.980469 45.808594 148.179688 45.847656 148.402344 L 67.464844 273.886719 C 67.5 274.105469 67.609375 274.277344 67.789062 274.40625 C 67.972656 274.535156 68.171875 274.582031 68.390625 274.542969 C 68.609375 274.503906 68.785156 274.394531 68.910156 274.210938 C 69.042969 274.027344 69.085938 273.824219 69.050781 273.609375 L 47.433594 148.125 C 47.394531 147.90625 47.289062 147.734375 47.109375 147.605469 C 46.933594 147.476562 46.730469 147.429688 46.507812 147.464844 Z M 322.550781 238.367188 L 88.371094 260.871094 C 88.152344 260.894531 87.96875 260.992188 87.832031 261.160156 C 87.691406 261.332031 87.628906 261.523438 87.648438 261.746094 C 87.667969 261.964844 87.765625 262.148438 87.933594 262.292969 C 88.105469 262.433594 88.304688 262.496094 88.53125 262.472656 L 322.707031 239.96875 C 322.929688 239.945312 323.113281 239.851562 323.253906 239.675781 C 323.390625 239.503906 323.445312 239.308594 323.425781 239.089844 C 323.40625 238.867188 323.3125 238.691406 323.140625 238.550781 C 322.96875 238.410156 322.773438 238.347656 322.550781 238.367188 Z M 316.671875 249.777344 L 80.371094 270.054688 C 80.148438 270.074219 79.964844 270.167969 79.820312 270.339844 C 79.679688 270.507812 79.621094 270.707031 79.640625 270.925781 C 79.660156 271.148438 79.753906 271.328125 79.925781 271.46875 C 80.09375 271.609375 80.285156 271.671875 80.503906 271.65625 L 316.824219 251.386719 C 317.039062 251.367188 317.222656 251.269531 317.363281 251.101562 C 317.503906 250.929688 317.570312 250.734375 317.546875 250.515625 C 317.53125 250.292969 317.441406 250.109375 317.269531 249.964844 C 317.101562 249.820312 316.902344 249.761719 316.675781 249.777344 Z M 86.253906 257.074219 C 71.84375 268.480469 66.730469 284.425781 66.730469 284.425781 C 66.660156 284.636719 66.679688 284.84375 66.785156 285.042969 C 66.882812 285.242188 67.042969 285.375 67.253906 285.4375 C 67.464844 285.507812 67.667969 285.488281 67.867188 285.386719 C 68.066406 285.285156 68.199219 285.128906 68.269531 284.914062 C 68.269531 284.914062 73.285156 269.402344 87.261719 258.335938 C 87.433594 258.195312 87.535156 258.015625 87.554688 257.796875 C 87.582031 257.578125 87.527344 257.378906 87.386719 257.207031 C 87.246094 257.035156 87.066406 256.933594 86.847656 256.90625 C 86.628906 256.882812 86.429688 256.9375 86.25 257.074219 Z M 311.410156 262.878906 L 74.414062 280.453125 C 74.191406 280.46875 74.007812 280.558594 73.859375 280.730469 C 73.714844 280.898438 73.648438 281.09375 73.667969 281.316406 C 73.6875 281.539062 73.777344 281.722656 73.949219 281.867188 C 74.113281 282.015625 74.308594 282.078125 74.53125 282.0625 L 311.53125 264.480469 C 311.753906 264.464844 311.9375 264.371094 312.082031 264.203125 C 312.230469 264.035156 312.292969 263.839844 312.273438 263.617188 C 312.253906 263.394531 312.164062 263.214844 311.996094 263.070312 C 311.824219 262.925781 311.632812 262.863281 311.410156 262.878906 Z M 311.410156 262.878906 "/><path style=" stroke:none;fill-rule:nonzero;fill:#f1f2f2;fill-opacity:1;" d="M 277.335938 125.015625 L 276.863281 125.054688 L 99.8125 138.101562 L 99.8125 138.820312 C 99.691406 142.800781 98.304688 145.476562 96.066406 147.496094 C 93.832031 149.519531 90.683594 150.867188 87.121094 151.890625 L 86.421875 152.089844 L 100.289062 227.351562 L 100.890625 227.417969 C 109.847656 228.417969 116.675781 232.054688 120.859375 239.566406 L 121.101562 240.019531 L 308.925781 224.421875 L 308.886719 223.617188 C 308.597656 220.261719 309.371094 217.636719 310.835938 215.417969 C 312.300781 213.203125 314.511719 211.398438 317.195312 209.835938 L 317.765625 209.503906 L 292.089844 135.40625 L 291.761719 135.261719 C 286.359375 132.886719 281.148438 130.644531 277.625 125.414062 Z M 276.660156 126.679688 C 280.382812 131.875 285.625 134.308594 290.746094 136.5625 L 315.824219 208.890625 C 313.273438 210.449219 310.984375 212.210938 309.457031 214.519531 C 307.953125 216.800781 307.359375 219.679688 307.441406 222.917969 L 121.808594 238.328125 C 117.445312 230.925781 110.417969 227.121094 101.65625 225.996094 L 88.222656 153.09375 C 91.601562 152.066406 94.777344 150.808594 97.125 148.6875 C 99.488281 146.550781 100.945312 143.53125 101.246094 139.605469 Z M 276.660156 126.679688 "/><path style=" stroke:none;fill-rule:nonzero;fill:#f1f2f2;fill-opacity:1;" d="M 62.449219 89.226562 C 62.449219 89.226562 68.582031 107.628906 51.398438 122.964844 L 223.949219 222.96875 L 334.480469 143.214844 C 334.480469 143.214844 345.253906 126.164062 329.566406 117.445312 L 226.402344 193.511719 Z M 62.449219 89.226562 "/><path style=" stroke:none;fill-rule:nonzero;fill:#fa826a;fill-opacity:1;" d="M 226.402344 193.507812 L 62.453125 89.222656 L 165.007812 26.035156 L 329.570312 117.441406 Z M 226.402344 193.507812 "/><path style=" stroke:none;fill-rule:nonzero;fill:#bcbec0;fill-opacity:1;" d="M 69.703125 99.820312 C 69.515625 99.703125 69.3125 99.667969 69.09375 99.714844 C 68.875 99.765625 68.710938 99.886719 68.585938 100.074219 C 68.464844 100.261719 68.425781 100.460938 68.476562 100.679688 C 68.523438 100.894531 68.640625 101.0625 68.828125 101.183594 L 223.136719 198.015625 C 223.324219 198.136719 223.53125 198.171875 223.75 198.125 C 223.964844 198.074219 224.128906 197.953125 224.25 197.765625 C 224.371094 197.578125 224.40625 197.375 224.359375 197.160156 C 224.3125 196.945312 224.191406 196.777344 224.007812 196.65625 Z M 66.378906 108.988281 C 66.164062 109.039062 66 109.160156 65.878906 109.347656 C 65.757812 109.53125 65.722656 109.734375 65.773438 109.949219 C 65.820312 110.167969 65.933594 110.335938 66.121094 110.457031 L 223.136719 206.933594 C 223.324219 207.046875 223.527344 207.078125 223.746094 207.027344 C 223.964844 206.976562 224.125 206.859375 224.242188 206.671875 C 224.363281 206.488281 224.398438 206.285156 224.355469 206.070312 C 224.308594 205.855469 224.191406 205.683594 224 205.5625 L 66.992188 109.085938 C 66.800781 108.96875 66.59375 108.9375 66.375 108.992188 Z M 62.863281 119.179688 C 62.675781 119.066406 62.472656 119.035156 62.253906 119.089844 C 62.042969 119.144531 61.875 119.265625 61.761719 119.453125 C 61.644531 119.644531 61.613281 119.847656 61.667969 120.0625 C 61.726562 120.28125 61.851562 120.445312 62.046875 120.558594 L 220.855469 215.84375 C 221.046875 215.960938 221.253906 215.992188 221.46875 215.9375 C 221.6875 215.886719 221.855469 215.761719 221.972656 215.566406 C 222.085938 215.375 222.117188 215.171875 222.0625 214.957031 C 222.007812 214.742188 221.878906 214.578125 221.683594 214.464844 Z M 329.6875 125.269531 C 329.46875 125.234375 329.265625 125.289062 329.085938 125.421875 L 232.023438 196.6875 C 231.84375 196.820312 231.742188 196.996094 231.710938 197.214844 C 231.679688 197.4375 231.730469 197.632812 231.859375 197.8125 C 231.992188 197.992188 232.167969 198.101562 232.390625 198.132812 C 232.609375 198.167969 232.8125 198.121094 232.992188 197.988281 L 330.050781 126.71875 C 330.230469 126.585938 330.335938 126.410156 330.367188 126.191406 C 330.394531 125.972656 330.34375 125.773438 330.214844 125.59375 C 330.082031 125.414062 329.90625 125.308594 329.6875 125.269531 Z M 331.496094 131.082031 C 331.273438 131.046875 331.070312 131.101562 330.886719 131.234375 L 232.691406 203.894531 C 232.511719 204.03125 232.410156 204.207031 232.378906 204.425781 C 232.34375 204.648438 232.398438 204.84375 232.527344 205.019531 C 232.660156 205.199219 232.835938 205.308594 233.058594 205.339844 C 233.277344 205.371094 233.480469 205.320312 233.660156 205.1875 L 331.855469 132.523438 C 332.035156 132.390625 332.136719 132.214844 332.171875 131.992188 C 332.207031 131.773438 332.15625 131.574219 332.019531 131.398438 C 331.886719 131.222656 331.714844 131.117188 331.496094 131.082031 Z M 332.828125 136.65625 L 230.394531 212.007812 C 230.214844 212.140625 230.105469 212.316406 230.078125 212.535156 C 230.046875 212.757812 230.097656 212.957031 230.230469 213.132812 C 230.363281 213.3125 230.542969 213.417969 230.761719 213.449219 C 230.980469 213.484375 231.179688 213.433594 231.355469 213.300781 L 333.785156 137.957031 C 333.964844 137.824219 334.070312 137.648438 334.105469 137.425781 C 334.140625 137.203125 334.085938 137.003906 333.949219 136.824219 C 333.816406 136.644531 333.636719 136.539062 333.421875 136.503906 C 333.203125 136.472656 333 136.523438 332.820312 136.65625 Z M 227.257812 194.625 C 227.046875 194.683594 226.882812 194.808594 226.773438 195 C 226.664062 195.191406 226.632812 195.394531 226.691406 195.609375 C 229.902344 207.78125 223.550781 219.574219 223.550781 219.574219 C 223.445312 219.769531 223.421875 219.976562 223.488281 220.1875 C 223.546875 220.402344 223.675781 220.5625 223.875 220.667969 C 224.070312 220.777344 224.277344 220.796875 224.492188 220.734375 C 224.707031 220.671875 224.863281 220.539062 224.972656 220.34375 C 224.972656 220.34375 231.664062 208.117188 228.25 195.195312 C 228.191406 194.980469 228.066406 194.816406 227.871094 194.703125 C 227.679688 194.589844 227.472656 194.566406 227.253906 194.625 Z M 227.257812 194.625 "/><path style=" stroke:none;fill-rule:nonzero;fill:#f9d16f;fill-opacity:1;" d="M 191.605469 54.40625 L 166.316406 40.3125 L 89.625 89.597656 L 115.164062 106.066406 Z M 191.605469 54.40625 "/><path style=" stroke:none;fill-rule:nonzero;fill:#bcbec0;fill-opacity:1;" d="M 353.9375 286.484375 L 185.882812 335.429688 C 185.667969 335.492188 185.507812 335.621094 185.402344 335.816406 C 185.292969 336.011719 185.269531 336.214844 185.335938 336.429688 C 185.398438 336.640625 185.527344 336.800781 185.722656 336.910156 C 185.917969 337.015625 186.121094 337.039062 186.335938 336.976562 L 354.382812 288.03125 C 354.597656 287.972656 354.757812 287.84375 354.863281 287.644531 C 354.972656 287.449219 354.996094 287.246094 354.9375 287.035156 C 354.871094 286.820312 354.742188 286.660156 354.542969 286.554688 C 354.347656 286.445312 354.144531 286.421875 353.9375 286.484375 Z M 356.066406 297.199219 L 188 349.71875 C 187.785156 349.785156 187.628906 349.917969 187.523438 350.117188 C 187.421875 350.316406 187.40625 350.523438 187.476562 350.734375 C 187.546875 350.941406 187.675781 351.101562 187.875 351.203125 C 188.070312 351.304688 188.269531 351.324219 188.484375 351.257812 L 356.550781 298.738281 C 356.765625 298.671875 356.925781 298.542969 357.027344 298.34375 C 357.132812 298.148438 357.148438 297.941406 357.082031 297.730469 C 357.015625 297.515625 356.882812 297.359375 356.6875 297.253906 C 356.488281 297.148438 356.28125 297.132812 356.066406 297.199219 Z M 360.355469 308.277344 L 187.996094 361.867188 C 187.785156 361.9375 187.628906 362.070312 187.527344 362.265625 C 187.425781 362.460938 187.40625 362.664062 187.472656 362.875 C 187.539062 363.085938 187.671875 363.246094 187.867188 363.351562 C 188.066406 363.453125 188.269531 363.472656 188.480469 363.40625 L 360.84375 309.816406 C 361.054688 309.75 361.210938 309.617188 361.3125 309.421875 C 361.417969 309.222656 361.4375 309.019531 361.371094 308.808594 C 361.304688 308.597656 361.175781 308.4375 360.976562 308.332031 C 360.777344 308.230469 360.570312 308.210938 360.355469 308.277344 Z M 360.355469 308.277344 "/><path style=" stroke:none;fill-rule:nonzero;fill:#fa826a;fill-opacity:1;" d="M 60.128906 190.597656 C 60.128906 190.597656 42.167969 207.816406 19.238281 233.664062 C 19.238281 233.664062 18.425781 221.804688 24.097656 204.238281 C 24.097656 204.238281 14.847656 204.558594 0.0859375 212.101562 C 0.0859375 212.101562 12.226562 171.128906 54.734375 158.839844 Z M 60.128906 190.597656 "/><path style=" stroke:none;fill-rule:nonzero;fill:#7e6698;fill-opacity:1;" d="M 294.988281 317.972656 C 294.988281 317.972656 306.304688 335.839844 302.011719 363.351562 L 318.816406 349.0625 L 333.722656 366.207031 C 333.722656 366.207031 341.949219 337.695312 325.734375 308.367188 Z M 294.988281 317.972656 "/><path style=" stroke:none;fill-rule:nonzero;fill:#fa826a;fill-opacity:1;" d="M 293.035156 161.273438 C 293.035156 161.273438 303.625 181.101562 303.851562 206.949219 C 303.851562 206.949219 314.457031 194.347656 315.605469 182.605469 C 315.605469 182.605469 327.210938 185.421875 333.734375 196.097656 C 333.734375 196.097656 332.761719 163.816406 319.34375 141.785156 Z M 293.035156 161.273438 "/></g></svg>