<svg xmlns="http://www.w3.org/2000/svg" xmlns:xlink="http://www.w3.org/1999/xlink" width="500" zoomAndPan="magnify" viewBox="0 0 375 374.999991" height="500" preserveAspectRatio="xMidYMid meet" version="1.2"><defs><clipPath id="181c69c976"><path d="M 0 233 L 375 233 L 375 360.75 L 0 360.75 Z M 0 233 "/></clipPath></defs><g id="428e89801b"><g clip-rule="nonzero" clip-path="url(#181c69c976)"><path style=" stroke:none;fill-rule:nonzero;fill:#246dc6;fill-opacity:1;" d="M 374.660156 310.871094 C 324.101562 205.59375 70.371094 211.355469 0.277344 309.71875 L 0.015625 331.714844 C 0.015625 336.007812 4.222656 340.335938 8.105469 338.488281 C 52.4375 317.371094 149.511719 315.367188 168.238281 353.234375 C 168.800781 354.367188 169.511719 355.398438 170.363281 356.332031 C 171.214844 357.265625 172.179688 358.0625 173.253906 358.726562 C 174.332031 359.390625 175.476562 359.894531 176.691406 360.238281 C 177.910156 360.582031 179.148438 360.753906 180.414062 360.75 L 194.5 360.75 C 195.765625 360.75 197.007812 360.578125 198.226562 360.234375 C 199.441406 359.886719 200.589844 359.382812 201.667969 358.714844 C 202.742188 358.050781 203.707031 357.25 204.558594 356.3125 C 205.410156 355.378906 206.121094 354.34375 206.683594 353.210938 C 225.40625 315.375 329.050781 320.933594 366.816406 338.460938 C 370.714844 340.273438 374.933594 335.980469 374.90625 331.6875 Z M 374.660156 310.871094 "/></g><path style=" stroke:none;fill-rule:nonzero;fill:#24a4c6;fill-opacity:1;" d="M 365.0625 131.550781 C 244.855469 83.296875 187.457031 149.578125 187.457031 149.578125 C 187.457031 149.578125 130.058594 83.296875 9.839844 131.550781 C 9.023438 131.878906 8.273438 132.320312 7.585938 132.867188 C 6.898438 133.417969 6.304688 134.054688 5.804688 134.777344 C 5.308594 135.5 4.921875 136.28125 4.648438 137.117188 C 4.378906 137.953125 4.234375 138.8125 4.214844 139.6875 L 0.277344 309.71875 C 0.269531 310.054688 0.285156 310.390625 0.316406 310.726562 C 0.351562 311.0625 0.402344 311.394531 0.476562 311.722656 C 0.554688 312.050781 0.648438 312.371094 0.761719 312.691406 C 0.875 313.007812 1.011719 313.316406 1.164062 313.617188 C 1.316406 313.917969 1.488281 314.207031 1.675781 314.484375 C 1.863281 314.765625 2.070312 315.03125 2.292969 315.285156 C 2.511719 315.539062 2.75 315.777344 3 316.003906 C 3.253906 316.226562 3.515625 316.433594 3.792969 316.625 C 4.070312 316.816406 4.359375 316.992188 4.660156 317.148438 C 4.957031 317.304688 5.265625 317.441406 5.582031 317.558594 C 5.898438 317.675781 6.21875 317.773438 6.546875 317.851562 C 6.875 317.929688 7.207031 317.988281 7.542969 318.027344 C 7.875 318.0625 8.210938 318.078125 8.550781 318.074219 C 8.886719 318.070312 9.222656 318.042969 9.554688 318 C 9.890625 317.953125 10.21875 317.886719 10.546875 317.796875 C 10.871094 317.710938 11.191406 317.605469 11.503906 317.476562 C 57.886719 298.585938 161.25 295.480469 187.457031 351.125 C 214.746094 298.277344 307.804688 298.902344 363.726562 318.769531 C 364.035156 318.882812 364.351562 318.972656 364.675781 319.046875 C 364.996094 319.121094 365.324219 319.171875 365.652344 319.207031 C 365.980469 319.242188 366.308594 319.253906 366.640625 319.25 C 366.96875 319.242188 367.300781 319.214844 367.625 319.167969 C 367.953125 319.125 368.277344 319.058594 368.597656 318.972656 C 368.914062 318.886719 369.226562 318.78125 369.535156 318.660156 C 369.839844 318.535156 370.136719 318.394531 370.429688 318.234375 C 370.71875 318.078125 370.996094 317.898438 371.265625 317.707031 C 371.53125 317.515625 371.789062 317.304688 372.03125 317.082031 C 372.273438 316.859375 372.5 316.621094 372.714844 316.367188 C 372.929688 316.117188 373.128906 315.851562 373.308594 315.578125 C 373.492188 315.300781 373.65625 315.015625 373.804688 314.71875 C 373.949219 314.425781 374.078125 314.121094 374.191406 313.808594 C 374.300781 313.5 374.390625 313.183594 374.464844 312.859375 C 374.535156 312.539062 374.589844 312.210938 374.621094 311.882812 C 374.652344 311.554688 374.667969 311.226562 374.660156 310.894531 L 370.699219 139.714844 C 370.679688 138.835938 370.535156 137.972656 370.265625 137.136719 C 369.992188 136.296875 369.609375 135.511719 369.109375 134.789062 C 368.605469 134.0625 368.011719 133.421875 367.324219 132.871094 C 366.636719 132.320312 365.882812 131.878906 365.0625 131.550781 Z M 365.0625 131.550781 "/><path style=" stroke:none;fill-rule:nonzero;fill:#2688c4;fill-opacity:1;" d="M 237.882812 120.261719 L 237.882812 313.167969 C 215.742188 319.914062 197.316406 332.023438 187.457031 351.070312 L 187.457031 149.578125 C 187.457031 149.578125 203.980469 130.496094 237.882812 120.261719 Z M 237.882812 120.261719 "/><path style=" stroke:none;fill-rule:nonzero;fill:#3cb9d6;fill-opacity:1;" d="M 9.839844 131.550781 C 11.449219 130.898438 13.050781 130.273438 14.644531 129.667969 L 10.296875 317.828125 C 9.996094 317.898438 9.691406 317.953125 9.382812 317.988281 C 9.074219 318.023438 8.765625 318.042969 8.457031 318.042969 C 8.144531 318.042969 7.835938 318.027344 7.527344 317.992188 C 7.21875 317.957031 6.914062 317.90625 6.613281 317.835938 C 6.3125 317.769531 6.011719 317.683594 5.722656 317.578125 C 5.429688 317.476562 5.144531 317.355469 4.863281 317.21875 C 4.585938 317.085938 4.316406 316.933594 4.054688 316.765625 C 3.792969 316.601562 3.542969 316.421875 3.300781 316.226562 C 3.058594 316.03125 2.832031 315.820312 2.613281 315.601562 C 2.398438 315.378906 2.191406 315.148438 2.003906 314.902344 C 1.8125 314.65625 1.636719 314.402344 1.472656 314.140625 C 1.3125 313.875 1.167969 313.601562 1.035156 313.320312 C 0.90625 313.039062 0.789062 312.753906 0.691406 312.457031 C 0.59375 312.164062 0.515625 311.867188 0.449219 311.5625 C 0.386719 311.257812 0.339844 310.953125 0.3125 310.644531 C 0.285156 310.335938 0.273438 310.027344 0.277344 309.71875 L 4.214844 139.714844 C 4.230469 138.835938 4.375 137.976562 4.644531 137.136719 C 4.914062 136.296875 5.300781 135.515625 5.800781 134.789062 C 6.300781 134.0625 6.894531 133.425781 7.582031 132.871094 C 8.269531 132.320312 9.023438 131.878906 9.839844 131.550781 Z M 9.839844 131.550781 "/><path style=" stroke:none;fill-rule:nonzero;fill:#2688c4;fill-opacity:1;" d="M 349.773438 137.375 C 239.890625 90.8125 187.457031 151.339844 187.457031 151.339844 C 187.457031 151.339844 135.023438 90.804688 25.140625 137.367188 L 21.257812 305.265625 C 54.613281 284.410156 153.027344 292.488281 187.457031 329.953125 C 228.988281 288.300781 294.855469 288.300781 353.65625 305.230469 Z M 349.773438 137.375 "/><path style=" stroke:none;fill-rule:nonzero;fill:#bcbed3;fill-opacity:1;" d="M 349.773438 137.375 C 239.890625 90.8125 187.457031 151.339844 187.457031 151.339844 C 187.457031 151.339844 135.023438 90.804688 25.140625 137.367188 L 21.257812 305.265625 C 54.613281 284.410156 162.023438 275.964844 187.457031 329.988281 C 213.382812 279.835938 306.039062 284.007812 353.65625 305.265625 Z M 349.773438 137.375 "/><path style=" stroke:none;fill-rule:nonzero;fill:#eef2ff;fill-opacity:1;" d="M 338.074219 107.125 C 236.101562 60.554688 187.457031 149.578125 187.457031 149.578125 C 187.457031 149.578125 138.800781 60.554688 36.839844 107.125 L 33.230469 275.015625 C 64.210938 254.160156 163.855469 275.964844 187.457031 329.953125 C 211.515625 279.800781 297.496094 253.722656 341.671875 274.980469 Z M 338.074219 107.125 "/><path style=" stroke:none;fill-rule:nonzero;fill:#f5f8ff;fill-opacity:1;" d="M 338.074219 107.125 C 236.101562 60.554688 187.457031 149.578125 187.457031 149.578125 C 187.457031 149.578125 184.4375 293.0625 187.457031 329.953125 C 211.515625 279.800781 297.496094 253.722656 341.671875 274.980469 Z M 338.074219 107.125 "/><path style=" stroke:none;fill-rule:nonzero;fill:#eef2ff;fill-opacity:1;" d="M 211.929688 300.039062 C 201.417969 308.609375 192.871094 318.675781 187.457031 329.953125 C 187.457031 329.953125 187.457031 329.910156 187.457031 329.832031 C 187.402344 328.582031 186.9375 317.511719 186.375 301.417969 C 184.710938 253.675781 187.457031 149.578125 187.457031 149.578125 C 192.402344 229.886719 198.664062 273.527344 211.929688 300.039062 Z M 211.929688 300.039062 "/><path style=" stroke:none;fill-rule:nonzero;fill:#bcbed3;fill-opacity:1;" d="M 187.457031 151.472656 L 187.457031 329.953125 L 186.902344 328.714844 C 176.652344 306.574219 153.582031 289.953125 127.917969 279.609375 C 107.742188 269.339844 85.742188 263.910156 64.535156 263.988281 L 64.535156 105.585938 C 139.8125 85.390625 174.011719 126.296875 187.457031 151.472656 Z M 187.457031 151.472656 "/><path style=" stroke:none;fill-rule:nonzero;fill:#f5f8ff;fill-opacity:1;" d="M 187.457031 149.578125 C 187.457031 149.578125 162.683594 57.640625 57.113281 85.910156 L 57.113281 244.394531 C 108.101562 244.203125 163.855469 275.964844 187.457031 329.953125 Z M 187.457031 149.578125 "/><path style=" stroke:none;fill-rule:nonzero;fill:#bcbed3;fill-opacity:1;" d="M 173.371094 154.671875 C 173.167969 154.671875 173.03125 154.578125 172.957031 154.390625 C 170.390625 148.667969 167.253906 143.277344 163.542969 138.214844 C 159.835938 133.15625 155.636719 128.542969 150.949219 124.371094 C 136.546875 111.480469 111.042969 97.621094 71.367188 104.800781 C 71.246094 104.828125 71.132812 104.804688 71.03125 104.734375 C 70.929688 104.667969 70.867188 104.570312 70.847656 104.449219 C 70.828125 104.332031 70.855469 104.222656 70.921875 104.121094 C 70.992188 104.023438 71.089844 103.960938 71.207031 103.941406 C 111.253906 96.691406 137.011719 110.707031 151.566406 123.738281 C 156.292969 127.957031 160.53125 132.621094 164.277344 137.734375 C 168.019531 142.847656 171.191406 148.292969 173.785156 154.074219 C 173.828125 154.191406 173.828125 154.300781 173.777344 154.414062 C 173.726562 154.527344 173.644531 154.605469 173.527344 154.648438 C 173.476562 154.664062 173.425781 154.671875 173.371094 154.671875 Z M 173.371094 154.671875 "/><path style=" stroke:none;fill-rule:nonzero;fill:#bcbed3;fill-opacity:1;" d="M 172.921875 178.746094 C 170.640625 174.195312 167.984375 169.871094 164.953125 165.777344 C 161.976562 161.65625 158.691406 157.796875 155.09375 154.199219 C 151.535156 150.589844 147.722656 147.277344 143.652344 144.257812 C 139.558594 141.265625 135.25 138.625 130.726562 136.335938 C 128.480469 135.148438 126.140625 134.199219 123.816406 133.195312 C 121.429688 132.316406 119.082031 131.4375 116.632812 130.730469 C 114.230469 129.929688 111.738281 129.429688 109.28125 128.8125 C 108.050781 128.523438 106.789062 128.339844 105.550781 128.101562 C 104.308594 127.863281 103.058594 127.625 101.789062 127.503906 C 91.632812 126.222656 81.476562 126.222656 71.320312 127.503906 C 71.199219 127.519531 71.089844 127.492188 70.992188 127.421875 C 70.894531 127.347656 70.835938 127.25 70.816406 127.128906 C 70.796875 127.007812 70.824219 126.898438 70.898438 126.796875 C 70.972656 126.699219 71.070312 126.640625 71.191406 126.625 C 81.417969 124.863281 91.6875 124.542969 102 125.671875 C 103.296875 125.769531 104.574219 125.988281 105.847656 126.191406 C 107.125 126.394531 108.410156 126.578125 109.679688 126.84375 C 112.203125 127.398438 114.742188 127.941406 117.214844 128.726562 C 119.6875 129.507812 122.136719 130.335938 124.582031 131.199219 C 126.976562 132.203125 129.378906 133.167969 131.6875 134.367188 C 136.355469 136.65625 140.78125 139.347656 144.960938 142.445312 C 149.125 145.550781 153 148.984375 156.582031 152.746094 C 160.140625 156.507812 163.367188 160.535156 166.265625 164.828125 C 167.746094 166.949219 169.058594 169.175781 170.324219 171.425781 C 171.601562 173.679688 172.730469 176.003906 173.707031 178.402344 C 173.738281 178.511719 173.734375 178.617188 173.6875 178.71875 C 173.640625 178.820312 173.566406 178.894531 173.460938 178.9375 C 173.359375 178.984375 173.253906 178.988281 173.148438 178.953125 C 173.042969 178.917969 172.960938 178.851562 172.902344 178.757812 Z M 172.921875 178.746094 "/><path style=" stroke:none;fill-rule:nonzero;fill:#bcbed3;fill-opacity:1;" d="M 173.371094 203.355469 C 173.179688 203.359375 173.042969 203.269531 172.964844 203.09375 C 172.902344 202.945312 166.082031 187.667969 150.207031 173.589844 C 135.515625 160.613281 109.988281 146.058594 71.25 150.195312 C 71.132812 150.207031 71.023438 150.175781 70.929688 150.101562 C 70.835938 150.027344 70.78125 149.929688 70.765625 149.808594 C 70.753906 149.6875 70.785156 149.582031 70.863281 149.484375 C 70.9375 149.390625 71.035156 149.339844 71.15625 149.324219 C 110.164062 145.101562 135.964844 159.882812 150.738281 172.957031 C 166.75 187.167969 173.625 202.582031 173.695312 202.742188 C 173.742188 202.851562 173.742188 202.964844 173.699219 203.078125 C 173.65625 203.191406 173.578125 203.273438 173.46875 203.320312 C 173.4375 203.339844 173.40625 203.351562 173.371094 203.355469 Z M 173.371094 203.355469 "/><path style=" stroke:none;fill-rule:nonzero;fill:#bcbed3;fill-opacity:1;" d="M 173.371094 227.695312 C 173.183594 227.699219 173.050781 227.617188 172.972656 227.449219 C 172.902344 227.300781 165.835938 212.332031 149.832031 198.203125 C 135.074219 185.179688 109.476562 170.210938 71.3125 172.886719 C 71.191406 172.898438 71.085938 172.863281 70.996094 172.785156 C 70.902344 172.703125 70.855469 172.601562 70.847656 172.484375 C 70.835938 172.363281 70.871094 172.253906 70.949219 172.164062 C 71.03125 172.074219 71.128906 172.023438 71.25 172.015625 C 109.738281 169.304688 135.558594 184.421875 150.480469 197.53125 C 166.609375 211.785156 173.730469 226.886719 173.800781 227.035156 C 173.855469 227.144531 173.859375 227.257812 173.820312 227.375 C 173.777344 227.488281 173.703125 227.574219 173.589844 227.625 C 173.523438 227.667969 173.449219 227.691406 173.371094 227.695312 Z M 173.371094 227.695312 "/><path style=" stroke:none;fill-rule:nonzero;fill:#bcbed3;fill-opacity:1;" d="M 173.371094 252.042969 C 173.1875 252.042969 173.054688 251.960938 172.972656 251.792969 C 172.902344 251.644531 165.589844 236.996094 149.460938 222.820312 C 134.582031 209.746094 108.964844 194.398438 71.296875 195.589844 C 71.175781 195.589844 71.070312 195.546875 70.984375 195.464844 C 70.898438 195.378906 70.851562 195.277344 70.847656 195.15625 C 70.839844 195.035156 70.878906 194.933594 70.964844 194.84375 C 71.046875 194.753906 71.148438 194.710938 71.269531 194.707031 C 109.238281 193.519531 135.074219 208.988281 150.066406 222.179688 C 166.320312 236.476562 173.695312 251.257812 173.765625 251.40625 C 173.820312 251.515625 173.828125 251.628906 173.789062 251.746094 C 173.75 251.859375 173.675781 251.945312 173.5625 251.996094 C 173.503906 252.023438 173.4375 252.039062 173.371094 252.042969 Z M 173.371094 252.042969 "/><path style=" stroke:none;fill-rule:nonzero;fill:#bcbed3;fill-opacity:1;" d="M 173.371094 276.378906 C 173.195312 276.378906 173.066406 276.296875 172.984375 276.140625 C 172.902344 276 165.34375 261.65625 149.089844 247.429688 C 134.125 234.3125 108.429688 218.597656 71.277344 218.28125 C 71.15625 218.277344 71.054688 218.234375 70.96875 218.144531 C 70.886719 218.058594 70.84375 217.953125 70.847656 217.832031 C 70.851562 217.710938 70.894531 217.613281 70.980469 217.527344 C 71.066406 217.445312 71.167969 217.402344 71.285156 217.398438 C 108.71875 217.726562 134.59375 233.5625 149.699219 246.796875 C 166.0625 261.128906 173.6875 275.59375 173.757812 275.734375 C 173.816406 275.84375 173.828125 275.957031 173.789062 276.074219 C 173.753906 276.191406 173.683594 276.277344 173.574219 276.335938 C 173.507812 276.363281 173.441406 276.378906 173.371094 276.378906 Z M 173.371094 276.378906 "/><path style=" stroke:none;fill-rule:nonzero;fill:#bcbed3;fill-opacity:1;" d="M 193.945312 167.175781 C 193.855469 167.179688 193.773438 167.15625 193.699219 167.113281 C 193.574219 167.046875 193.496094 166.945312 193.457031 166.8125 C 193.417969 166.679688 193.433594 166.550781 193.503906 166.429688 C 193.59375 166.261719 202.667969 150.089844 223.867188 137.347656 C 243.402344 125.59375 277.566406 114.410156 329.199219 127.847656 C 329.332031 127.886719 329.433594 127.964844 329.503906 128.085938 C 329.574219 128.207031 329.59375 128.335938 329.558594 128.472656 C 329.523438 128.605469 329.445312 128.707031 329.324219 128.777344 C 329.207031 128.847656 329.078125 128.867188 328.945312 128.832031 C 277.65625 115.449219 243.796875 126.519531 224.429688 138.140625 C 203.441406 150.742188 194.5 166.710938 194.375 166.867188 C 194.296875 167.0625 194.152344 167.164062 193.945312 167.175781 Z M 193.945312 167.175781 "/><path style=" stroke:none;fill-rule:nonzero;fill:#bcbed3;fill-opacity:1;" d="M 193.945312 191.480469 C 193.847656 191.480469 193.761719 191.457031 193.679688 191.410156 C 193.558594 191.335938 193.484375 191.230469 193.449219 191.097656 C 193.417969 190.960938 193.4375 190.832031 193.511719 190.714844 C 193.601562 190.554688 203.195312 174.8125 224.625 162.25 C 244.386719 150.671875 278.570312 139.460938 329.191406 151.894531 C 329.324219 151.929688 329.429688 152.003906 329.5 152.125 C 329.574219 152.246094 329.59375 152.375 329.558594 152.507812 C 329.523438 152.644531 329.449219 152.75 329.328125 152.820312 C 329.207031 152.894531 329.078125 152.910156 328.945312 152.878906 C 278.695312 140.558594 244.785156 151.621094 225.1875 163.09375 C 203.953125 175.527344 194.472656 191.082031 194.375 191.25 C 194.273438 191.40625 194.128906 191.480469 193.945312 191.480469 Z M 193.945312 191.480469 "/><path style=" stroke:none;fill-rule:nonzero;fill:#bcbed3;fill-opacity:1;" d="M 193.523438 215.042969 C 196.757812 209.585938 200.703125 204.699219 205.363281 200.390625 C 209.964844 196.058594 214.953125 192.226562 220.328125 188.890625 C 231.089844 182.1875 242.621094 177.292969 254.925781 174.214844 C 261.03125 172.738281 267.210938 171.691406 273.464844 171.082031 C 279.707031 170.507812 285.960938 170.328125 292.226562 170.546875 C 298.472656 170.742188 304.6875 171.308594 310.871094 172.253906 C 313.960938 172.710938 317.03125 173.335938 320.078125 173.863281 C 323.125 174.523438 326.152344 175.261719 329.179688 175.957031 C 329.304688 175.996094 329.398438 176.074219 329.464844 176.1875 C 329.53125 176.296875 329.550781 176.417969 329.527344 176.546875 C 329.5 176.671875 329.433594 176.777344 329.332031 176.855469 C 329.226562 176.929688 329.109375 176.964844 328.980469 176.953125 L 319.847656 175.289062 C 316.785156 174.875 313.730469 174.410156 310.667969 174.03125 C 304.523438 173.347656 298.363281 172.972656 292.179688 172.914062 C 286.011719 172.839844 279.859375 173.152344 273.730469 173.855469 C 267.636719 174.621094 261.609375 175.742188 255.648438 177.214844 C 243.695312 180.292969 232.503906 185.125 222.070312 191.714844 C 216.9375 195.046875 212.042969 198.699219 207.394531 202.679688 C 202.726562 206.644531 198.382812 210.941406 194.367188 215.570312 C 194.277344 215.679688 194.160156 215.738281 194.019531 215.75 C 193.878906 215.761719 193.753906 215.722656 193.644531 215.632812 C 193.457031 215.464844 193.414062 215.269531 193.523438 215.042969 Z M 193.523438 215.042969 "/><path style=" stroke:none;fill-rule:nonzero;fill:#bcbed3;fill-opacity:1;" d="M 193.945312 240.207031 C 193.835938 240.207031 193.742188 240.179688 193.652344 240.117188 C 193.539062 240.039062 193.472656 239.929688 193.449219 239.792969 C 193.425781 239.65625 193.453125 239.53125 193.53125 239.414062 C 193.636719 239.265625 204.21875 224.378906 226.148438 212.136719 C 246.394531 200.886719 280.648438 189.65625 329.144531 200.066406 C 329.28125 200.09375 329.386719 200.167969 329.464844 200.285156 C 329.539062 200.402344 329.5625 200.527344 329.535156 200.664062 C 329.503906 200.800781 329.433594 200.90625 329.316406 200.984375 C 329.199219 201.058594 329.070312 201.082031 328.933594 201.050781 C 280.746094 190.714844 246.71875 201.84375 226.65625 212.992188 C 204.921875 225.082031 194.4375 239.8125 194.332031 239.960938 C 194.246094 240.109375 194.117188 240.191406 193.945312 240.207031 Z M 193.945312 240.207031 "/><path style=" stroke:none;fill-rule:nonzero;fill:#bcbed3;fill-opacity:1;" d="M 193.945312 264.5 C 193.734375 264.503906 193.582031 264.410156 193.484375 264.222656 C 193.390625 264.035156 193.410156 263.855469 193.539062 263.691406 C 193.644531 263.550781 204.738281 249.09375 226.902344 237.066406 C 247.320312 225.980469 281.652344 214.742188 329.191406 224.132812 C 329.34375 224.140625 329.464844 224.207031 329.558594 224.328125 C 329.652344 224.453125 329.683594 224.585938 329.65625 224.738281 C 329.625 224.886719 329.546875 225.003906 329.414062 225.082031 C 329.28125 225.15625 329.140625 225.171875 328.996094 225.125 C 281.84375 215.789062 247.75 226.9375 227.457031 237.9375 C 205.449219 249.851562 194.480469 264.15625 194.375 264.332031 C 194.261719 264.460938 194.117188 264.515625 193.945312 264.5 Z M 193.945312 264.5 "/><path style=" stroke:none;fill-rule:nonzero;fill:#bcbed3;fill-opacity:1;" d="M 193.546875 288.019531 C 201.472656 278.480469 211.367188 270.871094 221.894531 264.4375 C 227.210938 261.269531 232.714844 258.472656 238.410156 256.042969 C 244.089844 253.582031 249.917969 251.542969 255.894531 249.929688 C 261.859375 248.292969 267.902344 247.046875 274.027344 246.191406 L 276.316406 245.847656 L 278.625 245.601562 L 283.226562 245.117188 L 287.847656 244.871094 L 290.15625 244.753906 L 297.09375 244.753906 C 298.632812 244.753906 300.175781 244.851562 301.714844 244.90625 C 304.796875 244.96875 307.878906 245.238281 310.933594 245.519531 C 312.464844 245.625 313.988281 245.828125 315.507812 246.039062 L 320.085938 246.65625 C 323.125 247.113281 326.136719 247.722656 329.15625 248.265625 C 329.28125 248.300781 329.378906 248.371094 329.449219 248.480469 C 329.519531 248.585938 329.546875 248.707031 329.527344 248.835938 C 329.507812 248.964844 329.449219 249.070312 329.351562 249.152344 C 329.25 249.234375 329.136719 249.273438 329.003906 249.269531 L 324.460938 248.664062 C 322.949219 248.476562 321.441406 248.214844 319.921875 248.074219 L 315.367188 247.652344 C 313.855469 247.5 312.339844 247.351562 310.808594 247.308594 C 307.769531 247.167969 304.734375 246.921875 301.6875 246.945312 C 300.164062 246.945312 298.640625 246.886719 297.121094 246.902344 L 292.558594 247.050781 L 290.289062 247.121094 L 288.007812 247.296875 L 283.464844 247.640625 L 278.941406 248.152344 L 276.679688 248.40625 L 274.425781 248.769531 C 268.414062 249.65625 262.488281 250.929688 256.640625 252.585938 C 244.882812 255.835938 233.71875 260.5 223.144531 266.578125 C 217.859375 269.585938 212.792969 272.929688 207.949219 276.605469 C 203.074219 280.257812 198.542969 284.292969 194.359375 288.714844 C 194.261719 288.804688 194.148438 288.851562 194.015625 288.855469 C 193.882812 288.859375 193.769531 288.816406 193.667969 288.730469 C 193.570312 288.644531 193.511719 288.535156 193.496094 288.402344 C 193.484375 288.273438 193.515625 288.152344 193.59375 288.046875 Z M 193.546875 288.019531 "/><path style=" stroke:none;fill-rule:nonzero;fill:#cccfe2;fill-opacity:1;" d="M 349.773438 137.375 L 346.25 128.296875 L 343.855469 128.011719 L 343.875 122.136719 L 338.074219 107.125 L 341.671875 275.015625 L 353.65625 305.265625 Z M 349.773438 137.375 "/><path style=" stroke:none;fill-rule:nonzero;fill:#cccfe2;fill-opacity:1;" d="M 25.140625 137.375 L 36.839844 107.125 L 33.230469 275.015625 L 21.257812 305.265625 Z M 25.140625 137.375 "/><path style=" stroke:none;fill-rule:nonzero;fill:#858bba;fill-opacity:1;" d="M 348.820312 293.0625 C 348.820312 293.0625 314.761719 270.703125 251.261719 285.609375 C 251.261719 285.609375 298.289062 262.8125 345.863281 285.609375 L 343.855469 128.03125 L 346.257812 128.3125 Z M 348.820312 293.0625 "/><path style=" stroke:none;fill-rule:nonzero;fill:#ef5152;fill-opacity:1;" d="M 283.457031 276.570312 L 283.457031 313.96875 C 283.457031 314.101562 283.4375 314.230469 283.40625 314.359375 C 283.371094 314.488281 283.320312 314.609375 283.253906 314.726562 C 283.1875 314.84375 283.105469 314.945312 283.011719 315.042969 C 282.917969 315.136719 282.8125 315.214844 282.695312 315.28125 C 282.582031 315.351562 282.460938 315.402344 282.332031 315.433594 C 282.203125 315.46875 282.070312 315.488281 281.9375 315.488281 C 281.804688 315.488281 281.671875 315.472656 281.542969 315.4375 C 281.414062 315.402344 281.292969 315.351562 281.175781 315.285156 L 269.609375 308.660156 C 268.914062 308.265625 268.164062 308.066406 267.363281 308.066406 C 266.5625 308.066406 265.816406 308.265625 265.117188 308.660156 L 253.542969 315.285156 C 253.308594 315.421875 253.054688 315.488281 252.785156 315.488281 C 252.511719 315.488281 252.257812 315.421875 252.023438 315.285156 C 251.789062 315.148438 251.605469 314.960938 251.472656 314.726562 C 251.335938 314.492188 251.269531 314.238281 251.269531 313.96875 L 251.269531 285.609375 C 261.597656 281.160156 272.324219 278.148438 283.457031 276.570312 Z M 283.457031 276.570312 "/><path style=" stroke:none;fill-rule:nonzero;fill:#c6343c;fill-opacity:1;" d="M 283.457031 276.570312 L 283.457031 282.246094 C 281.972656 282.078125 280.484375 282 278.992188 282.011719 C 277.5 282.019531 276.015625 282.117188 274.535156 282.304688 C 273.054688 282.492188 271.589844 282.765625 270.140625 283.128906 C 268.691406 283.488281 267.269531 283.9375 265.875 284.464844 C 264.480469 284.996094 263.125 285.609375 261.800781 286.300781 C 260.480469 286.996094 259.203125 287.761719 257.972656 288.609375 C 256.742188 289.453125 255.566406 290.367188 254.445312 291.351562 C 253.324219 292.335938 252.265625 293.382812 251.269531 294.496094 L 251.269531 285.609375 C 261.597656 281.160156 272.324219 278.148438 283.457031 276.570312 Z M 283.457031 276.570312 "/><path style=" stroke:none;fill-rule:nonzero;fill:#ffe266;fill-opacity:1;" d="M 216.570312 65.992188 C 199.886719 69.511719 193.96875 75.449219 190.421875 92.125 C 190.347656 92.460938 190.21875 92.777344 190.039062 93.070312 C 189.855469 93.367188 189.628906 93.621094 189.359375 93.839844 C 189.089844 94.054688 188.792969 94.222656 188.464844 94.335938 C 188.136719 94.453125 187.800781 94.507812 187.457031 94.507812 C 187.109375 94.507812 186.773438 94.453125 186.445312 94.335938 C 186.121094 94.222656 185.820312 94.054688 185.550781 93.839844 C 185.28125 93.621094 185.054688 93.367188 184.875 93.070312 C 184.691406 92.777344 184.5625 92.460938 184.488281 92.125 C 180.96875 75.40625 175.027344 69.535156 158.335938 65.992188 C 157.996094 65.917969 157.679688 65.789062 157.386719 65.605469 C 157.089844 65.425781 156.835938 65.199219 156.617188 64.929688 C 156.402344 64.660156 156.234375 64.359375 156.121094 64.035156 C 156.003906 63.707031 155.949219 63.371094 155.949219 63.027344 C 155.949219 62.679688 156.003906 62.34375 156.121094 62.015625 C 156.234375 61.691406 156.402344 61.390625 156.617188 61.121094 C 156.835938 60.851562 157.089844 60.628906 157.386719 60.445312 C 157.679688 60.261719 157.996094 60.132812 158.335938 60.058594 C 175.0625 56.539062 180.941406 50.601562 184.488281 33.929688 C 184.5625 33.589844 184.691406 33.273438 184.875 32.980469 C 185.054688 32.683594 185.28125 32.429688 185.550781 32.214844 C 185.820312 31.996094 186.121094 31.828125 186.445312 31.714844 C 186.773438 31.601562 187.109375 31.542969 187.457031 31.542969 C 187.800781 31.542969 188.136719 31.601562 188.464844 31.714844 C 188.792969 31.828125 189.089844 31.996094 189.359375 32.214844 C 189.628906 32.429688 189.855469 32.683594 190.039062 32.980469 C 190.21875 33.273438 190.347656 33.589844 190.421875 33.929688 C 193.945312 50.601562 199.886719 56.515625 216.570312 60.058594 C 216.90625 60.132812 217.222656 60.261719 217.519531 60.445312 C 217.8125 60.628906 218.066406 60.851562 218.285156 61.121094 C 218.5 61.390625 218.667969 61.691406 218.78125 62.015625 C 218.898438 62.34375 218.957031 62.679688 218.957031 63.027344 C 218.957031 63.371094 218.898438 63.707031 218.78125 64.035156 C 218.667969 64.359375 218.5 64.660156 218.285156 64.929688 C 218.066406 65.199219 217.8125 65.425781 217.519531 65.605469 C 217.222656 65.789062 216.90625 65.917969 216.570312 65.992188 Z M 216.570312 65.992188 "/><path style=" stroke:none;fill-rule:nonzero;fill:#ffe266;fill-opacity:1;" d="M 237.582031 17.210938 C 229.246094 18.96875 226.289062 21.945312 224.507812 30.277344 C 224.4375 30.628906 224.261719 30.917969 223.984375 31.144531 C 223.703125 31.371094 223.386719 31.484375 223.027344 31.484375 C 222.667969 31.484375 222.347656 31.371094 222.070312 31.144531 C 221.789062 30.917969 221.613281 30.628906 221.542969 30.277344 C 219.78125 21.945312 216.816406 18.988281 208.46875 17.210938 C 208.117188 17.136719 207.828125 16.964844 207.601562 16.683594 C 207.371094 16.40625 207.257812 16.085938 207.257812 15.726562 C 207.257812 15.367188 207.371094 15.050781 207.601562 14.769531 C 207.828125 14.492188 208.117188 14.316406 208.46875 14.246094 C 216.816406 12.484375 219.773438 9.519531 221.542969 1.179688 C 221.613281 0.828125 221.789062 0.539062 222.070312 0.308594 C 222.347656 0.0820312 222.667969 -0.03125 223.027344 -0.03125 C 223.386719 -0.03125 223.703125 0.0820312 223.984375 0.308594 C 224.261719 0.539062 224.4375 0.828125 224.507812 1.179688 C 226.269531 9.519531 229.246094 12.476562 237.582031 14.246094 C 237.933594 14.316406 238.222656 14.492188 238.453125 14.769531 C 238.679688 15.050781 238.792969 15.367188 238.792969 15.726562 C 238.792969 16.085938 238.679688 16.40625 238.453125 16.683594 C 238.222656 16.964844 237.933594 17.136719 237.582031 17.210938 Z M 237.582031 17.210938 "/><path style=" stroke:none;fill-rule:nonzero;fill:#ffe266;fill-opacity:1;" d="M 145.949219 48.710938 C 137.601562 50.46875 134.644531 53.445312 132.875 61.785156 C 132.804688 62.136719 132.628906 62.425781 132.347656 62.652344 C 132.070312 62.882812 131.75 62.996094 131.390625 62.996094 C 131.03125 62.996094 130.714844 62.882812 130.433594 62.652344 C 130.15625 62.425781 129.980469 62.136719 129.910156 61.785156 C 128.148438 53.445312 125.171875 50.488281 116.835938 48.710938 C 116.484375 48.636719 116.195312 48.460938 115.964844 48.183594 C 115.738281 47.90625 115.625 47.585938 115.625 47.226562 C 115.625 46.867188 115.738281 46.550781 115.964844 46.269531 C 116.195312 45.992188 116.484375 45.816406 116.835938 45.746094 C 125.171875 43.984375 128.128906 41.019531 129.910156 32.679688 C 129.980469 32.328125 130.15625 32.035156 130.433594 31.808594 C 130.714844 31.582031 131.03125 31.46875 131.390625 31.46875 C 131.75 31.46875 132.070312 31.582031 132.347656 31.808594 C 132.628906 32.035156 132.804688 32.328125 132.875 32.679688 C 134.636719 41.019531 137.601562 43.976562 145.949219 45.746094 C 146.300781 45.816406 146.589844 45.992188 146.816406 46.269531 C 147.042969 46.550781 147.160156 46.867188 147.160156 47.226562 C 147.160156 47.585938 147.042969 47.90625 146.816406 48.183594 C 146.589844 48.460938 146.300781 48.636719 145.949219 48.710938 Z M 145.949219 48.710938 "/></g></svg>