<svg xmlns="http://www.w3.org/2000/svg" xmlns:xlink="http://www.w3.org/1999/xlink" width="500" zoomAndPan="magnify" viewBox="0 0 375 374.999991" height="500" preserveAspectRatio="xMidYMid meet" version="1.2"><defs><clipPath id="ec9cd1194a"><path d="M 91 158.054688 L 301.347656 158.054688 L 301.347656 374.25 L 91 374.25 Z M 91 158.054688 "/></clipPath><clipPath id="aadb898654"><path d="M 72.929688 243.550781 L 302.316406 243.550781 L 302.316406 285 L 72.929688 285 Z M 72.929688 243.550781 "/></clipPath><clipPath id="258ae6a885"><path d="M 72.929688 251.730469 L 302.316406 251.730469 L 302.316406 323 L 72.929688 323 Z M 72.929688 251.730469 "/></clipPath></defs><g id="8a79e1e22c"><path style=" stroke:none;fill-rule:nonzero;fill:#293241;fill-opacity:1;" d="M 209.90625 177.570312 C 191.527344 180.914062 173.152344 184.183594 154.847656 187.53125 L 131.707031 166.789062 C 127.167969 162.402344 122.261719 156.234375 123.226562 149.691406 C 124.042969 143.816406 128.808594 142.851562 132.230469 135.191406 C 136.839844 125.082031 130.742188 121.585938 134.460938 111.699219 C 138.554688 100.847656 147.628906 100.324219 149.714844 89.917969 C 150.683594 85.011719 149.566406 80.625 148.523438 77.871094 C 148.003906 70.882812 147.410156 63.894531 146.886719 56.984375 C 145.175781 52.445312 142.792969 44.046875 144.804688 34.230469 C 147.628906 20.402344 158.417969 7.097656 173.300781 3.601562 C 181.039062 1.746094 187.808594 3.082031 191.679688 4.199219 C 194.804688 3.601562 215.265625 0.0351562 228.953125 12.820312 C 245.546875 28.359375 238.847656 55.714844 237.285156 62.1875 C 235.648438 68.949219 233.195312 74.304688 231.113281 78.09375 C 230.742188 80.921875 230.441406 85.457031 232.152344 90.4375 C 235.277344 99.878906 242.273438 102.109375 246.4375 111.179688 C 249.933594 118.761719 245.621094 120.324219 248.746094 128.5 C 252.167969 137.421875 257.597656 138.167969 261.09375 145.75 C 263.179688 150.210938 264.667969 157.347656 261.394531 168.277344 C 247.035156 170.878906 232.75 173.480469 218.390625 176.082031 M 218.390625 176.082031 C 215.5625 176.601562 212.734375 177.121094 209.90625 177.644531 "/><g clip-rule="nonzero" clip-path="url(#ec9cd1194a)"><path style=" stroke:none;fill-rule:nonzero;fill:#98c1d9;fill-opacity:1;" d="M 278.207031 345.292969 C 279.398438 351.90625 280.589844 358.597656 281.707031 365.214844 M 281.707031 365.214844 C 255.664062 370.941406 221.660156 375.621094 182.007812 373.984375 C 157.378906 372.945312 135.429688 369.671875 116.828125 365.734375 C 118.390625 355.476562 119.953125 345.140625 121.441406 334.882812 C 117.71875 333.023438 113.777344 330.941406 109.683594 328.414062 C 104.328125 325.066406 99.566406 321.722656 95.546875 318.453125 C 92.570312 302.988281 90.265625 283.136719 91.679688 260.089844 C 93.613281 227.15625 102.242188 200.390625 110.207031 181.65625 C 113.480469 174 120.625 171.324219 120.625 171.324219 C 124.492188 168.945312 127.167969 168.5 134.832031 166.046875 C 138.628906 164.855469 144.132812 162.996094 150.90625 160.394531 C 175.011719 159.800781 198.96875 159.207031 222.929688 158.535156 C 235.726562 161.734375 248.523438 165.003906 261.394531 168.199219 C 268.089844 169.910156 273.445312 174.964844 275.457031 181.65625 C 279.996094 196.824219 284.382812 213.03125 288.253906 230.351562 C 294.578125 258.679688 298.597656 285.070312 301.050781 308.933594 C 299.636719 312.429688 297.257812 316.964844 293.386719 321.648438 C 287.359375 328.933594 280.515625 332.875 276.347656 334.882812 C 276.945312 338.375 277.539062 341.792969 278.207031 345.292969 "/></g><g clip-rule="nonzero" clip-path="url(#aadb898654)"><path style=" stroke:none;fill-rule:nonzero;fill:#e0fbfc;fill-opacity:1;" d="M 222.628906 272.210938 L 157.601562 284.921875 L 72.929688 260.460938 C 75.609375 258.15625 78.214844 255.855469 80.890625 253.546875 C 96.515625 249.535156 122.113281 245.296875 152.394531 251.09375 C 166.082031 253.695312 177.691406 257.859375 186.992188 261.949219 C 204.328125 252.804688 236.023438 239.871094 274.117188 244.773438 C 281.78125 245.742188 288.847656 247.378906 295.320312 249.3125 C 297.628906 251.765625 299.9375 254.21875 302.316406 256.671875 L 229.324219 270.945312 M 229.324219 270.945312 L 222.628906 272.28125 "/></g><g clip-rule="nonzero" clip-path="url(#258ae6a885)"><path style=" stroke:none;fill-rule:nonzero;fill:#293241;fill-opacity:1;" d="M 211.617188 314.511719 C 203.058594 317.335938 194.503906 320.160156 185.949219 322.988281 L 84.984375 314.285156 C 80.964844 296.371094 76.945312 278.382812 72.929688 260.460938 C 90.117188 258.828125 111.472656 258.308594 135.800781 261.207031 C 154.699219 263.4375 171.289062 267.300781 185.132812 271.390625 C 194.875 266.1875 207.226562 260.835938 221.960938 257.042969 C 255.960938 248.417969 285.203125 252.582031 302.242188 256.597656 C 295.542969 270.871094 288.847656 285.144531 282.152344 299.417969 C 268.460938 301.203125 254.769531 302.988281 241.15625 304.699219 C 235.277344 306.632812 229.324219 308.636719 223.375 310.570312 M 223.375 310.570312 C 219.429688 311.910156 215.488281 313.171875 211.617188 314.511719 "/></g><path style=" stroke:none;fill-rule:nonzero;fill:#ce8e72;fill-opacity:1;" d="M 158.417969 156.902344 C 156.410156 158.238281 154.03125 159.503906 151.054688 160.394531 C 155.964844 162.328125 163.105469 164.632812 172.035156 165.898438 C 171.4375 172.8125 171.4375 182.175781 173.597656 192.886719 C 176.273438 206.191406 181.1875 216.375 185.054688 222.996094 C 189.59375 216.894531 195.695312 207.082031 199.640625 193.699219 C 203.058594 182.175781 203.65625 172.070312 203.507812 165.003906 C 203.433594 165.003906 203.359375 165.003906 203.285156 164.929688 C 211.769531 163.21875 218.464844 160.617188 223 158.535156 C 218.390625 157.046875 215.117188 154.96875 212.808594 153.035156 C 199.640625 142.253906 199.9375 123.519531 200.53125 116.605469 C 209.164062 111.773438 214.445312 102.929688 216.453125 99.582031 C 221.441406 91.179688 222.703125 83.074219 223 78.394531 C 224.714844 78.914062 228.0625 79.65625 231.183594 78.171875 C 237.808594 74.824219 239.445312 62.777344 234.460938 58.839844 C 233.9375 58.394531 231.484375 56.609375 226.347656 57.796875 C 225.53125 59.285156 224.789062 60.847656 223.96875 62.335938 C 223 60.402344 222.035156 57.726562 221.441406 54.378906 C 220.621094 49.621094 221.066406 45.679688 221.589844 43.078125 C 219.800781 42.78125 216.605469 42.039062 213.328125 39.882812 C 209.535156 37.355469 207.523438 34.230469 206.632812 32.597656 C 205.664062 33.191406 202.242188 35.347656 197.554688 34.828125 C 193.089844 34.378906 190.261719 31.855469 189.445312 31.035156 C 188.179688 32.226562 184.757812 35.050781 179.476562 35.867188 C 174.863281 36.609375 171.21875 35.496094 169.578125 34.828125 C 168.835938 36.3125 167.644531 38.320312 165.636719 40.253906 C 162.363281 43.449219 158.71875 44.640625 156.859375 45.085938 C 156.859375 47.390625 156.710938 49.921875 156.335938 52.59375 C 155.964844 55.570312 155.441406 58.320312 154.847656 60.699219 C 153.953125 59.433594 153.0625 58.097656 152.09375 56.832031 C 149.417969 56.015625 147.855469 56.460938 146.886719 56.984375 C 141.753906 59.882812 141.902344 74.230469 148.523438 77.800781 C 149.566406 78.394531 151.574219 79.136719 154.921875 78.394531 C 154.773438 82.703125 155.070312 91.996094 160.652344 101.289062 C 162.066406 103.671875 166.828125 110.953125 174.34375 115.714844 C 174.566406 124.117188 173.824219 146.566406 158.417969 156.902344 Z M 241.601562 313.84375 C 241.378906 317.855469 240.5625 321.203125 239.816406 323.65625 C 191.308594 323.582031 177.691406 319.195312 175.832031 314.585938 C 175.53125 313.765625 174.640625 310.644531 172.257812 306.851562 C 169.207031 302.019531 166.902344 301.128906 166.082031 298.007812 C 165.5625 295.925781 165.5625 292.726562 168.6875 288.046875 C 175.160156 291.019531 184.015625 294.363281 195.027344 296.296875 C 206.113281 298.304688 215.785156 298.230469 222.851562 297.636719 C 221.960938 296.371094 220.695312 294.214844 220.25 291.242188 C 219.652344 287.300781 220.472656 282.394531 221.960938 282.171875 C 223.671875 281.945312 224.566406 287.746094 229.101562 294.066406 C 232.820312 299.269531 237.4375 302.542969 241.082031 304.621094 C 241.527344 307.078125 241.824219 310.199219 241.601562 313.84375 "/><path style=" stroke:none;fill-rule:nonzero;fill:#293241;fill-opacity:1;" d="M 178.507812 300.832031 C 178.507812 300.757812 178.507812 300.683594 178.582031 300.609375 C 178.582031 300.460938 178.507812 300.3125 178.359375 300.238281 C 174.195312 297.710938 170.621094 295.03125 167.347656 291.390625 C 166.902344 290.867188 166.15625 291.613281 166.601562 292.136719 C 169.65625 295.628906 173.671875 298.972656 177.914062 301.054688 C 178.136719 301.128906 178.359375 300.980469 178.507812 300.832031 Z M 205.515625 307.746094 C 196.515625 306.78125 187.585938 307.152344 178.507812 305.589844 L 178.433594 305.589844 C 178.359375 305.515625 178.285156 305.441406 178.210938 305.367188 C 174.863281 303.804688 171.886719 302.242188 169.058594 299.789062 C 168.539062 299.34375 167.792969 300.089844 168.316406 300.535156 C 170.917969 303.0625 174.195312 305.441406 177.761719 306.480469 C 177.914062 306.554688 178.0625 306.480469 178.136719 306.480469 C 178.210938 306.480469 178.210938 306.554688 178.285156 306.554688 C 186.765625 309.160156 196.960938 311.164062 205.816406 309.382812 C 206.78125 309.234375 206.410156 307.820312 205.515625 307.746094 Z M 204.105469 313.914062 C 197.703125 313.914062 191.230469 314.4375 184.757812 313.992188 C 184.683594 313.914062 184.609375 313.84375 184.460938 313.765625 C 183.046875 313.171875 181.410156 313.097656 179.996094 312.652344 C 178.359375 312.132812 176.722656 311.464844 175.160156 310.792969 C 174.714844 310.570312 174.34375 311.242188 174.789062 311.464844 C 177.171875 312.875 180.292969 314.511719 183.195312 314.882812 C 183.269531 315.03125 183.417969 315.179688 183.566406 315.179688 C 190.410156 316.144531 197.109375 317.1875 204.105469 316.371094 C 205.664062 316.222656 205.738281 313.914062 204.105469 313.914062 Z M 178.507812 300.832031 C 178.582031 300.757812 178.582031 300.683594 178.582031 300.609375 C 178.660156 300.460938 178.878906 300.3125 179.101562 300.386719 C 187.660156 301.949219 196.363281 301.949219 204.921875 303.359375 C 206.035156 303.507812 205.59375 305.070312 204.699219 305.144531 C 196.214844 305.960938 186.992188 303.582031 178.878906 301.351562 C 178.582031 301.277344 178.507812 301.054688 178.507812 300.832031 "/><path style=" stroke:none;fill-rule:nonzero;fill:#ffffff;fill-opacity:1;" d="M 172.628906 70.066406 C 177.019531 70.289062 179.847656 67.613281 180.367188 67.167969 C 179.550781 63.894531 176.722656 61.589844 173.449219 61.445312 C 169.949219 61.292969 166.679688 63.671875 165.785156 67.167969 C 166.453125 67.6875 168.910156 69.84375 172.628906 70.066406 Z M 207.304688 70.660156 C 202.914062 70.882812 200.085938 68.207031 199.5625 67.761719 C 200.382812 64.488281 203.210938 62.1875 206.484375 62.035156 C 209.980469 61.886719 213.257812 64.265625 214.148438 67.761719 C 213.476562 68.28125 211.023438 70.511719 207.304688 70.660156 "/><path style=" stroke:none;fill-rule:nonzero;fill:#293241;fill-opacity:1;" d="M 174.265625 41.742188 C 183.792969 42.632812 191.679688 33.5625 193.464844 24.863281 C 193.761719 23.304688 191.527344 22.113281 190.710938 23.675781 C 188.851562 27.09375 187.808594 30.8125 185.277344 33.859375 C 182.527344 37.28125 178.660156 39.511719 174.195312 39.660156 C 172.925781 39.734375 173.003906 41.589844 174.265625 41.742188 Z M 203.433594 114.746094 C 194.726562 118.761719 181.78125 121.363281 173.449219 115.121094 C 172.855469 114.671875 172.109375 115.640625 172.707031 116.085938 C 180.890625 122.628906 196.441406 123.148438 204.476562 116.085938 C 205.21875 115.414062 204.253906 114.375 203.433594 114.746094 Z M 228.730469 63.523438 C 229.699219 63.226562 230.589844 63.300781 231.261719 64.046875 C 231.929688 64.714844 231.929688 65.605469 232.523438 66.277344 C 232.972656 66.71875 233.863281 66.648438 234.089844 66.050781 C 234.757812 64.636719 233.566406 63.078125 232.378906 62.335938 C 231.183594 61.515625 229.550781 61.367188 228.136719 61.816406 C 227.167969 62.109375 227.613281 63.894531 228.730469 63.523438 Z M 147.332031 64.9375 C 147.929688 64.339844 147.855469 63.375 148.226562 62.632812 C 148.523438 61.886719 149.34375 61.589844 150.011719 62.109375 C 150.535156 62.558594 151.203125 61.664062 150.757812 61.144531 C 149.863281 60.253906 148.597656 60.328125 147.558594 60.921875 C 146.441406 61.515625 145.175781 63.226562 145.621094 64.488281 C 145.84375 65.234375 146.738281 65.53125 147.332031 64.9375 Z M 189.820312 104.339844 C 189.074219 104.5625 188.480469 105.007812 187.734375 105.230469 C 187.4375 105.304688 187.0625 105.378906 186.691406 105.453125 C 186.394531 105.53125 186.023438 105.828125 185.726562 105.828125 C 185.652344 105.828125 185.652344 105.902344 185.726562 105.902344 C 186.097656 106.199219 186.171875 106.570312 186.691406 106.867188 C 187.140625 107.089844 187.660156 107.164062 188.179688 107.164062 C 189.222656 107.164062 190.410156 106.792969 191.082031 105.902344 C 191.527344 105.082031 190.636719 104.117188 189.820312 104.339844 Z M 201.277344 94.675781 C 202.390625 93.113281 199.863281 91.777344 198.746094 93.1875 C 194.355469 98.910156 185.652344 104.191406 179.847656 96.90625 C 179.25 96.160156 177.914062 97.128906 178.507812 97.945312 C 184.90625 106.71875 196.066406 102.109375 201.277344 94.675781 Z M 185.875 83.449219 C 185.425781 86.867188 187.140625 89.394531 190.5625 89.765625 C 191.15625 89.84375 191.230469 88.875 190.710938 88.726562 C 184.3125 86.644531 190.859375 78.988281 191.457031 75.269531 C 191.898438 72.445312 192.199219 69.320312 191.527344 66.496094 C 191.230469 65.234375 189.519531 65.457031 189.148438 66.496094 C 188.253906 69.097656 188.921875 71.550781 188.777344 74.230469 C 188.550781 77.574219 186.246094 80.101562 185.875 83.449219 Z M 160.726562 58.839844 C 165.636719 56.683594 174.789062 55.570312 179.328125 59.359375 C 180.21875 60.105469 181.410156 58.914062 180.589844 58.097656 C 175.160156 52.964844 165.414062 52.148438 159.015625 55.941406 C 157.152344 57.054688 158.789062 59.65625 160.726562 58.839844 Z M 219.503906 55.941406 C 213.105469 52.074219 203.359375 52.894531 197.929688 58.097656 C 197.109375 58.914062 198.300781 60.105469 199.191406 59.359375 C 203.730469 55.570312 212.882812 56.757812 217.792969 58.839844 C 219.730469 59.65625 221.363281 57.054688 219.503906 55.941406 Z M 179.773438 67.019531 C 180.148438 67.613281 181.1875 67.238281 180.890625 66.570312 C 179.699219 63.597656 176.796875 60.996094 173.523438 60.550781 C 169.65625 59.957031 166.679688 62.777344 164.894531 65.828125 C 164.523438 66.496094 165.414062 67.167969 165.933594 66.648438 C 167.050781 65.605469 168.167969 64.488281 169.359375 63.597656 C 168.761719 65.753906 169.359375 68.28125 171.664062 69.25 C 174.789062 70.511719 177.09375 67.167969 176.574219 64.339844 C 176.5 63.96875 176.351562 63.597656 176.203125 63.226562 C 177.691406 64.046875 178.808594 65.457031 179.773438 67.019531 Z M 206.335938 61.144531 C 203.058594 61.664062 200.160156 64.265625 198.96875 67.167969 C 198.671875 67.835938 199.710938 68.207031 200.085938 67.613281 C 201.050781 65.976562 202.167969 64.636719 203.65625 63.820312 C 203.507812 64.117188 203.359375 64.488281 203.285156 64.9375 C 202.765625 67.761719 205.070312 71.179688 208.195312 69.84375 C 210.429688 68.949219 211.097656 66.347656 210.5 64.195312 C 211.691406 65.085938 212.808594 66.199219 213.925781 67.238281 C 214.519531 67.761719 215.414062 67.09375 214.964844 66.425781 C 213.257812 63.375 210.203125 60.550781 206.335938 61.144531 Z M 287.660156 325.738281 C 273.371094 338.75 255.515625 346.253906 236.246094 347.148438 C 241.675781 333.914062 243.910156 319.046875 241.230469 304.921875 C 241.082031 304.101562 239.742188 304.324219 239.742188 305.144531 C 239.964844 319.417969 238.253906 332.800781 233.195312 346.105469 C 227.167969 340.902344 223.894531 331.980469 222.777344 324.476562 C 222.703125 323.730469 221.363281 323.878906 221.441406 324.621094 C 222.554688 333.023438 224.789062 344.769531 232.75 349.601562 C 232.972656 350.125 233.417969 350.496094 234.160156 350.496094 C 254.550781 349.75 274.191406 341.273438 288.550781 326.777344 C 289.296875 326.035156 288.328125 325.140625 287.660156 325.738281 Z M 185.949219 322.835938 C 173.824219 325.664062 161.84375 328.859375 149.640625 331.386719 C 138.777344 333.617188 126.054688 337.707031 115.789062 331.683594 C 115.265625 331.386719 114.597656 332.128906 115.117188 332.578125 C 123.003906 339.042969 134.3125 336.589844 143.539062 335.03125 C 158.046875 332.578125 172.628906 329.828125 186.765625 325.589844 C 188.402344 325.066406 187.734375 322.464844 185.949219 322.835938 Z M 259.164062 239.125 C 259.605469 233.476562 258.863281 227.601562 258.789062 221.878906 C 258.714844 216.152344 258.789062 210.429688 259.234375 204.703125 C 259.308594 203.738281 257.898438 203.8125 257.824219 204.703125 C 256.335938 215.78125 254.324219 228.417969 256.78125 239.421875 C 257.003906 240.910156 259.085938 240.464844 259.164062 239.125 Z M 126.425781 209.242188 C 126.203125 208.050781 127.988281 207.53125 128.210938 208.71875 C 131.1875 221.207031 132.75 233.847656 133.046875 246.710938 C 133.046875 248.417969 130.367188 248.417969 130.367188 246.710938 C 130.296875 234.144531 128.957031 221.582031 126.425781 209.242188 "/><path style=" stroke:none;fill-rule:nonzero;fill:#98c1d9;fill-opacity:1;" d="M 203.433594 168.277344 C 199.710938 168.648438 195.917969 168.648438 192.421875 168.796875 C 184.683594 168.945312 176.871094 168.871094 169.207031 167.53125 C 168.242188 167.382812 168.613281 166.046875 169.429688 165.898438 C 177.019531 165.003906 184.683594 165.378906 192.421875 165.078125 C 200.011719 164.78125 207.601562 163.296875 215.117188 163.148438 C 216.675781 163.148438 216.753906 165.226562 215.488281 165.75 C 212.882812 166.714844 210.128906 167.382812 207.304688 167.828125 M 207.304688 167.828125 C 206.035156 168.050781 204.773438 168.199219 203.433594 168.277344 "/><path style=" stroke:none;fill-rule:nonzero;fill:#98c1d9;fill-opacity:1;" d="M 229.84375 270.796875 C 229.027344 271.019531 229.175781 272.359375 230.070312 272.210938 C 232.898438 271.839844 235.726562 271.691406 238.554688 271.613281 C 241.082031 271.613281 243.761719 272.210938 246.140625 271.464844 C 247.257812 271.09375 247.109375 269.757812 246.140625 269.382812 C 241.75 267.527344 234.386719 269.757812 229.84375 270.796875 Z M 259.980469 263.882812 C 261.320312 263.734375 261.914062 261.578125 260.351562 261.28125 C 254.101562 260.089844 247.183594 261.128906 240.859375 261.949219 C 233.417969 262.917969 226.125 264.628906 218.835938 266.632812 C 218.015625 266.859375 218.390625 268.046875 219.207031 267.820312 C 226.125 266.113281 233.195312 265.070312 240.261719 264.550781 C 246.808594 264.105469 253.582031 264.699219 259.980469 263.882812 Z M 184.164062 290.496094 C 184.609375 284.175781 184.015625 277.636719 183.644531 271.316406 C 183.566406 270.425781 182.304688 270.425781 182.226562 271.316406 C 181.855469 277.636719 181.1875 284.175781 181.707031 290.496094 C 181.78125 292.058594 184.015625 292.058594 184.164062 290.496094 "/></g></svg>